<?xml version="1.0" encoding="utf-8"?>
<!-- Generator: Adobe Illustrator 19.1.0, SVG Export Plug-In . SVG Version: 6.00 Build 0)  -->
<svg version="1.1" id="Layer_1" xmlns="http://www.w3.org/2000/svg" xmlns:xlink="http://www.w3.org/1999/xlink" x="0px" y="0px"
	 viewBox="0 0 240 69.8" style="enable-background:new 0 0 240 69.8;" xml:space="preserve">
<style type="text/css">
	.st0{fill:#E2000B;}
	.st1{fill:#FFFFFF;}
</style>
<g>
	<g>
		<g>
			<polygon class="st0" points="0,0 240,0 240,69.8 0,69.8 			"/>
		</g>
	</g>
</g>
<g>
	<g>
		<path class="st1" d="M62.8,53.7c0-1.7,1.8-2.2,3.4-2.2h0.2V51c0-0.8-0.3-1.1-1.1-1.1c-0.6,0-1.2,0.2-1.6,0.6L63,49.7
			c0.6-0.5,1.4-0.9,2.4-0.9c1.6,0,2.4,0.7,2.4,2.2v2.6c0,0.7,0.1,1.3,0.2,1.7h-1.4c0-0.2-0.1-0.5-0.1-0.7c-0.4,0.5-1,0.9-1.8,0.9
			C63.6,55.4,62.8,54.8,62.8,53.7z M66.4,53.6v-1.3h-0.2c-1.2,0-2,0.3-2,1.2c0,0.6,0.4,0.8,0.8,0.8C65.6,54.3,66.1,54,66.4,53.6z"/>
		<path class="st1" d="M72.6,54.9v-9.1H74v3.6c0.4-0.4,0.9-0.7,1.6-0.7c1.7,0,2.7,1.2,2.7,3.3c0,2.1-1.4,3.4-3.3,3.4
			C73.9,55.4,73.1,55.2,72.6,54.9z M76.8,52.1c0-1.2-0.5-2.2-1.6-2.2c-0.5,0-1,0.3-1.2,0.5v3.7c0.2,0.1,0.6,0.2,1,0.2
			C76.2,54.3,76.8,53.4,76.8,52.1z"/>
		<path class="st1" d="M79.2,53.7c0-1.7,1.8-2.2,3.4-2.2h0.2V51c0-0.8-0.3-1.1-1.1-1.1c-0.6,0-1.2,0.2-1.6,0.6l-0.7-0.9
			c0.6-0.5,1.4-0.9,2.4-0.9c1.6,0,2.4,0.7,2.4,2.2v2.6c0,0.7,0.1,1.3,0.2,1.7H83c0-0.2-0.1-0.5-0.1-0.7c-0.4,0.5-1,0.9-1.8,0.9
			C80,55.4,79.2,54.8,79.2,53.7z M82.8,53.6v-1.3h-0.2c-1.2,0-2,0.3-2,1.2c0,0.6,0.4,0.8,0.8,0.8C82.1,54.3,82.5,54,82.8,53.6z"/>
		<path class="st1" d="M86,48.9h1.4v0.9c0.5-0.6,1.2-1,2-1c1.4,0,1.9,0.9,1.9,2v4.5h-1.4v-4.2c0-0.7-0.2-1.1-1-1.1
			c-0.6,0-1.2,0.5-1.5,1v4.4H86V48.9z"/>
		<path class="st1" d="M93,45.8h1.4v5.8l2.4-2.7h1.6l-2.5,2.8l2.6,3.5h-1.6l-2.4-3.3v3.3H93V45.8z"/>
		<path class="st1" d="M102.8,50h-1v-1.1h1v-0.8c0-1.5,0.9-2.5,2.4-2.5c0.8,0,1.2,0.2,1.3,0.2l-0.3,1.1c-0.1,0-0.4-0.2-0.9-0.2
			c-0.8,0-1.2,0.5-1.2,1.4v0.7h1.5V50h-1.5v5.3h-1.4V50z"/>
		<path class="st1" d="M106.4,52.1c0-1.6,0.9-3.3,3-3.3c2.2,0,3.1,1.7,3.1,3.3c0,1.5-0.9,3.4-3.1,3.4
			C107.3,55.4,106.4,53.7,106.4,52.1z M111.1,52.1c0-1.3-0.5-2.3-1.7-2.3c-1.1,0-1.5,1-1.5,2.2c0,1.3,0.5,2.3,1.6,2.3
			C110.6,54.3,111.1,53.4,111.1,52.1z"/>
		<path class="st1" d="M113.9,48.9h1.4v0.9c0.3-0.4,0.8-1.1,1.6-1.1c0.4,0,0.7,0.1,0.8,0.2l-0.3,1.2c-0.1-0.1-0.3-0.1-0.6-0.1
			c-0.9,0-1.3,0.9-1.5,1.1v4.1h-1.4V48.9z"/>
		<path class="st1" d="M120.9,58.2l0.2-1.1c0.1,0,0.2,0.1,0.6,0.1c0.9,0,1.2-0.5,1.5-1.3l0.3-0.7l-2.4-6.3h1.5l1.6,4.6h0l1.5-4.6
			h1.4l-2.6,7.1c-0.5,1.4-1.1,2.3-2.8,2.3C121.3,58.3,121,58.3,120.9,58.2z"/>
		<path class="st1" d="M127.5,52.1c0-1.6,0.9-3.3,3-3.3c2.2,0,3.1,1.7,3.1,3.3c0,1.5-0.9,3.4-3.1,3.4
			C128.4,55.4,127.5,53.7,127.5,52.1z M132.2,52.1c0-1.3-0.5-2.3-1.7-2.3c-1.1,0-1.5,1-1.5,2.2c0,1.3,0.5,2.3,1.6,2.3
			C131.8,54.3,132.2,53.4,132.2,52.1z"/>
		<path class="st1" d="M135,53.4v-4.5h1.4v4.2c0,0.7,0.2,1.1,1,1.1c0.8,0,1.4-0.8,1.5-1v-4.4h1.4v4.7c0,0.7,0.1,1.3,0.2,1.6h-1.4
			c0-0.2-0.1-0.6-0.1-0.9c-0.3,0.4-1,1-2,1C135.5,55.4,135,54.5,135,53.4z"/>
		<path class="st1" d="M142.1,48.9h1.4v0.9c0.3-0.4,0.8-1.1,1.6-1.1c0.4,0,0.7,0.1,0.8,0.2l-0.3,1.2c-0.1-0.1-0.3-0.1-0.6-0.1
			c-0.9,0-1.3,0.9-1.5,1.1v4.1h-1.4V48.9z"/>
		<path class="st1" d="M149.8,47c0-0.5,0.4-0.9,0.9-0.9c0.5,0,0.9,0.4,0.9,0.9s-0.4,0.9-0.9,0.9C150.2,47.9,149.8,47.5,149.8,47z
			 M150,48.9h1.4v6.3H150V48.9z"/>
		<path class="st1" d="M152.9,52.1c0-2,1.2-3.3,2.8-3.3c0.7,0,1.2,0.2,1.5,0.5v-3.4h1.4v7.9c0,0.6,0.1,1.2,0.2,1.6h-1.4
			c-0.1-0.1-0.1-0.5-0.1-0.7c-0.4,0.5-1,0.9-1.8,0.9C153.9,55.4,152.9,54.2,152.9,52.1z M157.2,53.5v-3.1c-0.3-0.3-0.7-0.5-1.3-0.5
			c-1,0-1.6,0.9-1.6,2.2c0,1.3,0.5,2.2,1.5,2.2C156.4,54.3,156.9,54,157.2,53.5z"/>
		<path class="st1" d="M159.9,52.1c0-1.9,1.3-3.3,3-3.3c1.7,0,2.6,1.1,2.6,3c0,0.2,0,0.4,0,0.6h-4.1c0.1,1.1,0.6,2,1.8,2
			c0.9,0,1.4-0.3,1.7-0.5l0.5,1c-0.4,0.2-1,0.6-2.3,0.6C161,55.4,159.9,54,159.9,52.1z M164.2,51.3c0-0.8-0.4-1.5-1.3-1.5
			c-0.9,0-1.3,0.6-1.5,1.5H164.2z"/>
		<path class="st1" d="M166.5,53.7c0-1.7,1.8-2.2,3.4-2.2h0.2V51c0-0.8-0.3-1.1-1.1-1.1c-0.6,0-1.2,0.2-1.6,0.6l-0.7-0.9
			c0.6-0.5,1.4-0.9,2.4-0.9c1.6,0,2.4,0.7,2.4,2.2v2.6c0,0.7,0.1,1.3,0.2,1.7h-1.4c0-0.2-0.1-0.5-0.1-0.7c-0.4,0.5-1,0.9-1.8,0.9
			C167.3,55.4,166.5,54.8,166.5,53.7z M170.1,53.6v-1.3h-0.2c-1.2,0-2,0.3-2,1.2c0,0.6,0.4,0.8,0.8,0.8
			C169.3,54.3,169.8,54,170.1,53.6z"/>
		<path class="st1" d="M172.8,54.8l0.5-1c0.2,0.2,0.8,0.5,1.6,0.5c0.7,0,1.2-0.3,1.2-0.7c0-0.5-0.6-0.7-1.5-1.1
			c-0.9-0.4-1.6-0.9-1.6-1.9c0-1.1,0.9-1.9,2.2-1.9c1.1,0,1.7,0.4,2,0.6l-0.6,1c-0.2-0.2-0.7-0.4-1.4-0.4c-0.6,0-1,0.3-1,0.7
			c0,0.5,0.6,0.7,1.3,1c1,0.4,1.8,0.9,1.8,2c0,1.2-0.9,2-2.4,2C173.9,55.4,173.2,55.1,172.8,54.8z"/>
	</g>
	<g>
		<path class="st1" d="M62.7,10.3c0,3.2,5.4,6.7,5.4,10.4c0,0,0,0.3-0.2,0.7c5.1,1.1,8.7,3.5,8.7,6.5c0,3.9-6.4,7.2-14.3,7.2
			c-8.1,0-14.4-3.2-14.4-7c0-2.9,3.9-5.3,8.6-6.5c0,1.6,5.3,6.7,5.5,8.8c0,0.2,0.1,0.4,0,0.7c1.2-0.6,1.2-2.5,1.2-2.5
			c0-4.5-5.2-6.5-5.2-10.8c0-1.7,0.8-3,1.5-3.3v1.2c0,3.2,5.6,6.8,5.6,9.7v1c1.3-0.5,1.3-2.9,1.3-2.9c0-4-5.2-6.2-5.2-10.8
			c0-1.7,0.8-3,1.5-3.3V10.3L62.7,10.3z"/>
		<path class="st1" d="M88.1,33.8c-2.7,0-4.7-0.8-4.7-0.8v-4.7H84c0.4,2.5,2.3,4.4,4.4,4.4c2.2,0,3.7-1.2,3.7-3.1c0-2-2-3-3.4-3.6
			l-2-1c-1.9-0.9-3.4-2.4-3.4-4.5c0-2.6,2-4.9,5.7-4.9c2.6,0,4.7,0.9,4.7,0.9v4.2h-0.7c-0.4-2.3-1.7-4-4.2-4c-1.9,0-3,1.3-3,2.6
			c0,1.7,1.2,2.5,2.6,3.2l2,1c1.8,0.9,4,2.4,4,5C94.4,31.6,92.2,33.8,88.1,33.8L88.1,33.8z"/>
		<path class="st1" d="M99.7,33.7c-1.7,0-2.8-1.1-2.8-2.8c0-1.2,0.9-2.1,2.8-2.8l3.4-1.2v-1.1c0-1.6-0.7-2.6-1.8-2.6
			c-0.8,0-1.5,0.4-1.9,1c-0.2,0.2-0.2,0.6-0.2,0.8c0,0.4,0.3,0.9,0.3,0.9l-1.7,0.8c-0.2-0.4-0.5-0.9-0.5-1.4c0-0.1,0-0.2,0-0.3
			c0.1-0.9,0.9-1.5,2-2.1c1-0.6,1.9-0.8,2.5-0.8c3.2,0,3.7,2.5,3.7,3.3v5.2c0,0.8,0.1,1.4,0.8,1.4c0.2,0,0.3,0,0.6-0.1l0.6-0.2v0.8
			l-3.5,1.3c-0.5-0.4-0.8-1.1-0.9-1.6C102.3,32.7,100.9,33.7,99.7,33.7L99.7,33.7z M100.7,28.6c-0.5,0.2-1.5,0.7-1.5,1.9
			c0,0.7,0.4,1.7,1.7,1.7c0.6,0,1.5-0.4,2.1-0.9v-3.7L100.7,28.6L100.7,28.6z"/>
		<path class="st1" d="M108.3,33.4v-0.6l0.8-0.2c0.5-0.1,0.9-0.5,0.9-1V25c0-0.6-0.3-0.9-0.8-0.9c-0.2,0-0.4,0-0.6,0.1l-0.3,0.1
			v-0.8l3.6-1.6h0.5v1.9c1.1-1.2,2.4-1.9,3.6-1.9c2.6,0,3.8,1.8,3.8,4v5.7c0,0.5,0.4,0.9,0.9,1l0.9,0.2v0.6h-6v-0.6l0.8-0.2
			c0.5-0.1,0.9-0.5,0.9-1V26c0-0.8-0.2-2.4-2.2-2.4c-1.1,0-2,0.7-2.6,1.2v6.9c0,0.5,0.4,0.9,0.9,1l0.8,0.2v0.6H108.3L108.3,33.4z"/>
		<path class="st1" d="M130.2,23.5h-3.5v6.2c0,1.4,0.7,2.1,1.8,2.1c0.4,0,1.1-0.1,1.7-0.5l0.3,0.6l-2.3,1.4c0,0-0.5,0.1-0.7,0.1
			c-2.2,0-3.4-1.3-3.4-4v-6h-1.8v-0.6c0,0,2.8-1.1,3.8-3.6h0.5v3.2h4L130.2,23.5L130.2,23.5z"/>
		<path class="st1" d="M134.4,33.7c-1.7,0-2.8-1.1-2.8-2.8c0-1.2,0.9-2.1,2.8-2.8l3.4-1.2v-1.1c0-1.6-0.7-2.6-1.8-2.6
			c-0.8,0-1.5,0.4-1.9,1c-0.2,0.2-0.2,0.6-0.2,0.8c0,0.4,0.3,0.9,0.3,0.9l-1.7,0.8c-0.2-0.4-0.5-0.9-0.5-1.4c0-0.1,0-0.2,0-0.3
			c0.1-0.9,0.9-1.5,2-2.1c1-0.6,1.9-0.8,2.5-0.8c3.2,0,3.7,2.5,3.7,3.3v5.2c0,0.8,0.1,1.4,0.8,1.4c0.2,0,0.3,0,0.6-0.1l0.6-0.2v0.8
			l-3.5,1.3c-0.5-0.4-0.8-1.1-0.9-1.6C137,32.7,135.6,33.7,134.4,33.7L134.4,33.7z M135.4,28.6c-0.5,0.2-1.5,0.7-1.5,1.9
			c0,0.7,0.4,1.7,1.7,1.7c0.6,0,1.5-0.4,2.1-0.9v-3.7L135.4,28.6L135.4,28.6z"/>
		<path class="st1" d="M143,33.4v-0.6l0.8-0.2c0.5-0.1,0.9-0.5,0.9-1V25c0-0.6-0.3-0.9-0.8-0.9c-0.2,0-0.4,0-0.6,0.1l-0.3,0.1v-0.8
			l3.6-1.6h0.5v1.9c1.1-1.2,2.4-1.9,3.6-1.9c2.6,0,3.8,1.8,3.8,4v5.7c0,0.5,0.4,0.9,0.9,1l0.9,0.2v0.6h-6v-0.6l0.8-0.2
			c0.5-0.1,0.9-0.5,0.9-1V26c0-0.8-0.2-2.4-2.2-2.4c-1.1,0-2,0.7-2.6,1.2v6.9c0,0.5,0.4,0.9,0.9,1l0.8,0.2v0.6H143L143,33.4z"/>
		<path class="st1" d="M162.6,33.7c-2.4,0-5.2-1.8-5.2-5.6c0-3.3,2.6-6.1,6-6.1c1.2,0,2,0.2,2.6,0.5v-5.7c0-0.6-0.3-0.8-0.7-0.8
			c-0.2,0-0.5,0.1-0.7,0.1l-0.5,0.2v-0.8l3.9-1.7h0.5v16.5c0,1,0.2,1.5,0.8,1.5c0.2,0,0.3,0,0.6-0.1l0.6-0.2v0.8l-3.5,1.3
			c-0.6-0.4-0.8-1.1-1-1.7C165.5,32.7,164.3,33.7,162.6,33.7L162.6,33.7z M163.7,23.1c-1.8,0-3.7,1.2-3.7,4.5c0,2.8,1.4,4.5,3.6,4.5
			c1.3,0,2.2-0.8,2.4-1.2v-6.5C165.7,23.6,164.8,23.1,163.7,23.1L163.7,23.1z"/>
		<path class="st1" d="M174.2,26.9v0.1c0,3.3,1.9,5,4.3,5c1.2,0,2.3-0.5,3.2-1.1v1c-1,0.9-2.5,1.7-4.4,1.7c-3.9,0-5.6-2.9-5.6-5.7
			c0-3.3,2.5-5.9,5.7-5.9c2.6,0,4.7,1.9,4.7,4.6v0.3H174.2L174.2,26.9z M179.4,25.9L179.4,25.9c0-1.9-1.1-2.8-2.3-2.8
			c-1.4,0-2.5,0.9-2.8,2.8H179.4L179.4,25.9z"/>
		<path class="st1" d="M183.5,33.4v-0.6l0.8-0.2c0.5-0.1,0.9-0.5,0.9-1V25c0-0.6-0.3-0.9-0.8-0.9c-0.2,0-0.4,0-0.6,0.1l-0.3,0.1
			v-0.8l3.6-1.6h0.5v2.4c0.9-1.8,2-2.5,3.2-2.5c1,0,1.3,0.3,1.3,0.3v2.7h-0.5c-0.1-0.7-0.6-1.1-1.4-1.1c-0.8,0-1.8,0.2-2.5,1.7v6.2
			c0,0.5,0.5,0.9,1,1l1.2,0.2v0.6H183.5L183.5,33.4z"/>
	</g>
</g>
</svg>
