<?xml version="1.0" encoding="utf-8"?>
<!-- Generator: Adobe Illustrator 19.1.0, SVG Export Plug-In . SVG Version: 6.00 Build 0)  -->
<svg version="1.1" id="Layer_1" xmlns="http://www.w3.org/2000/svg" xmlns:xlink="http://www.w3.org/1999/xlink" x="0px" y="0px"
	 viewBox="0 0 240 69.8" style="enable-background:new 0 0 240 69.8;" xml:space="preserve">
<style type="text/css">
	.st0{fill:#EC0000;}
	.st1{fill:#FFFFFF;}
</style>
<g>
	<polygon class="st0" points="0,0 240,0 240,69.8 0,69.8 0,0 	"/>
</g>
<path class="st1" d="M39.5,9.5c0,6.8,11.5,14.3,11.5,22.1c0,0,0,0.7-0.3,1.5c10.8,2.2,18.4,7.5,18.4,13.7c0,8.3-13.6,15.2-30.5,15.2
	c-0.1,0.1-0.2,0-0.3,0c-16.7,0-30.3-6.6-30.3-14.9c0-6.2,8.3-11.2,18.3-13.9c0,3.4,11.4,14.3,11.6,18.6c0,0,0.1,0.4,0.1,0.8
	c0,0.2,0,0.4-0.1,0.6c2.5-1.3,2.5-5.3,2.5-5.3c0-9.5-11.1-13.7-11.1-23.1c0-3.6,1.7-6.3,3.3-7v2.6c0,6.8,12,14.4,12,20.6v2
	c2.8-1.1,2.8-6.1,2.8-6.1c0-8.5-11.1-13.3-11.1-23.1c0-3.6,1.7-6.3,3.3-7.1V9.5L39.5,9.5z"/>
<g>
	<path class="st1" d="M103.9,59.4c-3.2,0-5.6-0.9-5.6-0.9v-5.6h0.8c0.4,3,2.7,5.2,5.3,5.2c2.6,0,4.4-1.4,4.4-3.7
		c0-2.4-2.4-3.5-4-4.3l-2.3-1.2c-2.2-1.1-4-2.9-4-5.4c0-3.1,2.3-5.8,6.7-5.8c3,0,5.5,1,5.5,1v5h-0.8c-0.5-2.7-2-4.8-5-4.8
		c-2.3,0-3.6,1.5-3.6,3.1c0,2,1.4,3,3.1,3.8l2.3,1.2c2.1,1.1,4.7,2.9,4.7,5.9C111.5,56.8,108.8,59.4,103.9,59.4L103.9,59.4z"/>
	<path class="st1" d="M117.6,59.3c-2,0-3.3-1.3-3.3-3.3c0-1.4,1-2.5,3.3-3.4l4-1.5v-1.2c0-1.9-0.9-3-2.2-3c-0.9,0-1.8,0.4-2.2,1.2
		c-0.2,0.3-0.2,0.7-0.2,1c0,0.5,0.3,1.1,0.3,1.1l-2,0.9c-0.2-0.4-0.5-1-0.5-1.7c0-0.1,0-0.2,0-0.3c0.1-1.1,1.1-1.8,2.3-2.5
		c1.2-0.7,2.3-1,3-1c3.7,0,4.4,3,4.4,4v6.2c0,1,0.1,1.6,0.9,1.6c0.2,0,0.4,0,0.7-0.1l0.7-0.2v0.9l-4.2,1.5c-0.6-0.4-0.9-1.2-1-1.9
		C120.8,58.2,119.1,59.3,117.6,59.3L117.6,59.3z M118.9,53.3c-0.6,0.3-1.7,0.8-1.7,2.2c0,0.8,0.4,2,2,2c0.7,0,1.8-0.4,2.5-1v-4.4
		L118.9,53.3L118.9,53.3z"/>
	<path class="st1" d="M127.9,59v-0.7l1-0.2c0.6-0.1,1-0.6,1-1.2V49c0-0.7-0.3-1-0.9-1c-0.2,0-0.4,0-0.7,0.1l-0.4,0.1v-0.9l4.3-1.8
		h0.6v2.2c1.3-1.5,2.9-2.2,4.2-2.2c3,0,4.5,2.2,4.5,4.7v6.7c0,0.6,0.4,1.1,1,1.2l1,0.2V59h-7.1v-0.7l1-0.2c0.6-0.1,1.1-0.6,1.1-1.2
		v-6.7c0-0.9-0.2-2.9-2.6-2.9c-1.3,0-2.4,0.8-3.1,1.4v8.2c0,0.6,0.5,1,1.1,1.2l1,0.2V59H127.9L127.9,59z"/>
	<path class="st1" d="M153.8,47.3h-4.2v7.4c0,1.6,0.9,2.5,2.1,2.5c0.5,0,1.3-0.1,2.1-0.6l0.3,0.7l-2.7,1.7c0,0-0.5,0.1-0.8,0.1
		c-2.6,0-4-1.5-4-4.7v-7.1h-2.2v-0.7c0,0,3.3-1.2,4.5-4.3h0.6V46h4.7L153.8,47.3L153.8,47.3z"/>
	<path class="st1" d="M158.8,59.3c-2,0-3.3-1.3-3.3-3.3c0-1.4,1-2.5,3.3-3.4l4-1.5v-1.2c0-1.9-0.9-3-2.2-3c-0.9,0-1.8,0.4-2.2,1.2
		c-0.2,0.3-0.2,0.7-0.2,1c0,0.5,0.3,1.1,0.3,1.1l-2,0.9c-0.2-0.4-0.5-1-0.5-1.7c0-0.1,0-0.2,0-0.3c0.1-1.1,1.1-1.8,2.3-2.5
		c1.2-0.7,2.3-1,3-1c3.7,0,4.4,3,4.4,4v6.2c0,1,0.1,1.6,0.9,1.6c0.2,0,0.4,0,0.7-0.1l0.7-0.2v0.9l-4.2,1.5c-0.6-0.4-0.9-1.2-1-1.9
		C161.9,58.2,160.2,59.3,158.8,59.3L158.8,59.3z M160,53.3c-0.6,0.3-1.7,0.8-1.7,2.2c0,0.8,0.4,2,2,2c0.7,0,1.8-0.4,2.5-1v-4.4
		L160,53.3L160,53.3z"/>
	<path class="st1" d="M169,59v-0.7l1-0.2c0.6-0.1,1-0.6,1-1.2V49c0-0.7-0.3-1-0.9-1c-0.2,0-0.4,0-0.7,0.1l-0.4,0.1v-0.9l4.3-1.8h0.6
		v2.2c1.3-1.5,2.9-2.2,4.2-2.2c3,0,4.5,2.2,4.5,4.7v6.7c0,0.6,0.4,1.1,1,1.2l1,0.2V59h-7.1v-0.7l1-0.2c0.6-0.1,1.1-0.6,1.1-1.2v-6.7
		c0-0.9-0.2-2.9-2.6-2.9c-1.3,0-2.4,0.8-3.1,1.4v8.2c0,0.6,0.5,1,1.1,1.2l1,0.2V59H169L169,59z"/>
	<path class="st1" d="M192.2,59.3c-2.8,0-6.2-2.1-6.2-6.6c0-4,3.1-7.2,7.2-7.2c1.4,0,2.3,0.3,3.1,0.6v-6.8c0-0.7-0.4-0.9-0.9-0.9
		c-0.3,0-0.6,0.1-0.8,0.1l-0.6,0.2v-0.9l4.6-2h0.6v19.6c0,1.1,0.2,1.8,1,1.8c0.2,0,0.4,0,0.7-0.1l0.7-0.2v0.9l-4.2,1.5
		c-0.7-0.4-1-1.3-1.1-2C195.6,58.1,194.2,59.3,192.2,59.3L192.2,59.3z M193.5,46.7c-2.1,0-4.3,1.4-4.3,5.3c0,3.3,1.7,5.3,4.3,5.3
		c1.6,0,2.6-0.9,2.8-1.4v-7.7C195.9,47.3,194.8,46.7,193.5,46.7L193.5,46.7z"/>
	<path class="st1" d="M206,51.3v0.1c0,4,2.2,5.9,5,5.9c1.4,0,2.7-0.5,3.8-1.3v1.2c-1.2,1.1-3,2-5.2,2c-4.6,0-6.7-3.5-6.7-6.8
		c0-3.9,2.9-7,6.7-7c3.1,0,5.6,2.2,5.6,5.4v0.4H206L206,51.3z M212.1,50.1L212.1,50.1c0-2.3-1.2-3.4-2.7-3.4c-1.7,0-2.9,1.1-3.3,3.4
		H212.1L212.1,50.1z"/>
	<path class="st1" d="M216.9,59v-0.7l1-0.2c0.6-0.1,1-0.6,1-1.2V49c0-0.7-0.3-1-0.9-1c-0.2,0-0.4,0-0.7,0.1l-0.4,0.1v-0.9l4.2-1.8
		h0.6v2.9c1.1-2.1,2.3-2.9,3.8-2.9c1.2,0,1.5,0.3,1.5,0.3v3.1h-0.6c-0.1-0.8-0.7-1.2-1.6-1.2c-1,0-2.1,0.3-3,2v7.3
		c0,0.6,0.6,1.1,1.2,1.2l1.4,0.2V59H216.9L216.9,59z"/>
</g>
</svg>
