<?xml version="1.0" encoding="utf-8"?>
<!-- Generator: Adobe Illustrator 18.1.1, SVG Export Plug-In . SVG Version: 6.00 Build 0)  -->
<svg version="1.1" id="CLEAR_SPACE_LOGO" xmlns="http://www.w3.org/2000/svg" xmlns:xlink="http://www.w3.org/1999/xlink" x="0px"
	 y="0px" viewBox="0 0 612 546.9" enable-background="new 0 0 612 546.9" xml:space="preserve">
<rect x="0" y="0" fill="#FFFFFF" width="612" height="546.9"/>
<g id="XMLID_69_">
	<path id="XMLID_85_" fill="#808080" d="M154.3,352.2c0-2,1.3-3.3,3.3-3.3h123.1c2,0,3.3,1.3,3.3,3.3v82.7c0,2-1.3,3.3-3.3,3.3
		H157.6c-2,0-3.3-1.3-3.3-3.3V352.2z M154.3,212.9c0-2,1.3-3.3,3.3-3.3h123.1c2,0,3.3,1.3,3.3,3.3v82.7c0,2-1.3,3.3-3.3,3.3H157.6
		c-2,0-3.3-1.3-3.3-3.3V212.9z M328.8,212.9c0-2,1.3-3.3,3.3-3.3h123.1c2,0,3.3,1.3,3.3,3.3v82.7c0,2-1.3,3.3-3.3,3.3H332
		c-2,0-3.3-1.3-3.3-3.3V212.9z M76.8,166.7H112c0,0.7,0,1.3,0,2V487c0,3.9,3.3,7.8,7.8,7.8h223.3V352.2c0-2,1.3-3.3,3.3-3.3h91.1
		c2,0,3.3,1.3,3.3,3.3v142.6h53.4c3.9,0,7.8-3.3,7.8-7.8V169.3c0-0.7,0-1.3,0-2h33.9c3.9,0,7.8-3.3,7.8-7.8v-12.4
		c0-3.9-3.3-9.1-7.2-10.4L318.4,53.4c-3.9-1.3-10.4-1.3-14.3,0L199.9,91.8V79.4c0-3.9-3.3-7.8-7.8-7.8h-43c-3.9,0-7.8,3.3-7.8,7.8
		v33.2v0.7l-64.5,24.1c-3.9,1.3-7.2,5.9-7.2,10.4v12.4C69.7,163.4,72.9,166.7,76.8,166.7"/>
</g>
</svg>
