<?xml version="1.0" encoding="utf-8"?>
<!-- Generator: Adobe Illustrator 18.1.1, SVG Export Plug-In . SVG Version: 6.00 Build 0)  -->
<svg version="1.1" id="CLEAR_SPACE_LOGO" xmlns="http://www.w3.org/2000/svg" xmlns:xlink="http://www.w3.org/1999/xlink" x="0px"
	 y="0px" viewBox="0 0 612 546.9" enable-background="new 0 0 612 546.9" xml:space="preserve">
<rect y="0" fill="#FFFFFF" width="612" height="546.9"/>
<g id="XMLID_68_">
	<path id="XMLID_43_" fill="#808080" d="M546.9,129.6L319,41.7c-3.9-1.3-11.1-1.3-15,0L65.1,130.2c-3.9,1.3-7.8,6.5-7.8,11.1v13
		c0,4.6,3.9,7.8,7.8,7.8h36.5c0,0.7-0.7,1.3-0.7,2v334.6c0,4.6,3.9,7.8,7.8,7.8h145.8V356.8c0-2,1.3-3.3,3.3-3.3h96.4
		c2,0,3.3,1.3,3.3,3.3v149.7H502c4.6,0,7.8-3.9,7.8-7.8V164.1c0-0.7,0-1.3-0.7-2h35.2c4.6,0,7.8-3.9,7.8-7.8v-13
		C554.7,136.1,551.5,131.5,546.9,129.6"/>
</g>
</svg>
