<?xml version="1.0" encoding="utf-8"?>
<!-- Generator: Adobe Illustrator 18.1.1, SVG Export Plug-In . SVG Version: 6.00 Build 0)  -->
<svg version="1.1" id="CLEAR_SPACE_LOGO" xmlns="http://www.w3.org/2000/svg" xmlns:xlink="http://www.w3.org/1999/xlink" x="0px"
	 y="0px" viewBox="0 0 94 84" enable-background="new 0 0 94 84" xml:space="preserve">
<rect x="0" y="0" fill="#FFFFFF" width="94" height="84"/>
<g id="XMLID_77_">
	<path id="XMLID_79_" fill="#808080" d="M86.7,34.5L80,32.4c-0.5-2.7-1.5-5.4-2.9-7.8c0,0,0,0,0-0.1c-0.9-3.2,4.8-9,5.1-9.9
		c0.3-0.9,0.9-3.3-3.7-4.4c-3.5-0.8-9.1,2.4-11.6,4c-5.9-3.7-13.2-5.9-21.2-5.9C27.9,8.4,13.3,19.1,11,33
		c-2.8,0.6-10.7,3.1-3.6,11.6c0.6,0.8,0.8-0.1,0.8-0.7c0-0.7-1.1-4.3,1.5-5.1c0.4-0.1,0.7-0.4,1-0.7c0.4,8.3,5.2,15.6,12.4,20.6
		c0,0.2-0.1,0.4-0.1,0.7v11.2c0,0,0,5,5,5h6.6c0,0,5,0,5-5V65c1.9,0.3,3.9,0.4,6,0.4c1.8,0,3.6-0.1,5.3-0.4v5.6c0,0,0,5,5,5h6.6
		c0,0,5,0,5-5V59.4c0,0,0-0.1,0-0.3c2.9-1.9,5.4-4.1,7.4-6.6l4.9,1.5c0,0,4.8,1.5,6.2-3.3l3.4-11.3C89.3,39.4,90.5,35.7,86.7,34.5
		 M53.1,14c-0.2,0.6-0.8,1-1.4,1c-0.1,0-0.3,0-0.4,0c-5.3-1.5-12.3,0-12.4,0c-0.8,0.2-1.5-0.3-1.7-1.1c-0.2-0.7,0.3-1.5,1.1-1.6
		c0.3-0.1,7.8-1.6,13.8,0C52.9,12.5,53.4,13.2,53.1,14 M71.5,30.6c0,2-1.6,3.7-3.7,3.7c-2,0-3.7-1.6-3.7-3.7c0-2,1.6-3.7,3.7-3.7
		C69.8,26.9,71.5,28.5,71.5,30.6"/>
</g>
</svg>
