<?xml version="1.0" encoding="utf-8"?>
<!-- Generator: Adobe Illustrator 18.1.1, SVG Export Plug-In . SVG Version: 6.00 Build 0)  -->
<svg version="1.1" id="Layer_1" xmlns="http://www.w3.org/2000/svg" xmlns:xlink="http://www.w3.org/1999/xlink" x="0px" y="0px"
	 viewBox="0 0 375 213" enable-background="new 0 0 375 213" xml:space="preserve">
<rect x="0" y="0" fill="#FFFFFF" width="375" height="213"/>
<g>
	<path fill="#333333" d="M2.7,163.6l4.9-12.9h1.8l5.3,12.9h-1.9l-1.5-3.9H6l-1.4,3.9H2.7z M6.4,158.3h4.4l-1.3-3.6
		c-0.4-1.1-0.7-2-0.9-2.7c-0.2,0.8-0.4,1.6-0.7,2.5L6.4,158.3z"/>
	<path fill="#333333" d="M15.9,163.6v-9.3h1.4v1.4c0.4-0.7,0.7-1.1,1-1.3s0.6-0.3,1-0.3c0.5,0,1.1,0.2,1.6,0.5l-0.5,1.5
		c-0.4-0.2-0.8-0.3-1.2-0.3c-0.3,0-0.7,0.1-0.9,0.3c-0.3,0.2-0.5,0.5-0.6,0.9c-0.2,0.6-0.3,1.2-0.3,1.8v4.9H15.9z"/>
	<path fill="#333333" d="M21.9,152.6v-1.8h1.6v1.8H21.9z M21.9,163.6v-9.3h1.6v9.3H21.9z"/>
	<path fill="#333333" d="M32,162.5c-0.6,0.5-1.2,0.8-1.7,1.1s-1.1,0.3-1.7,0.3c-1,0-1.8-0.2-2.4-0.8s-0.8-1.1-0.8-1.9
		c0-0.5,0.1-0.9,0.3-1.3s0.5-0.7,0.8-0.9s0.7-0.4,1.1-0.5c0.3-0.1,0.8-0.2,1.4-0.2c1.3-0.2,2.2-0.3,2.8-0.5c0-0.2,0-0.4,0-0.4
		c0-0.6-0.1-1.1-0.4-1.4c-0.4-0.4-1-0.5-1.8-0.5c-0.7,0-1.3,0.1-1.6,0.4s-0.6,0.7-0.8,1.4l-1.5-0.2c0.1-0.7,0.4-1.2,0.7-1.6
		s0.8-0.7,1.4-0.9s1.3-0.3,2.1-0.3c0.8,0,1.4,0.1,1.9,0.3c0.5,0.2,0.9,0.4,1.1,0.7s0.4,0.6,0.5,1.1c0.1,0.3,0.1,0.8,0.1,1.5v2.1
		c0,1.5,0,2.4,0.1,2.8s0.2,0.8,0.4,1.1h-1.7C32.2,163.3,32.1,162.9,32,162.5z M31.9,158.9c-0.6,0.2-1.4,0.4-2.6,0.6
		c-0.7,0.1-1.1,0.2-1.4,0.3s-0.5,0.3-0.6,0.5s-0.2,0.5-0.2,0.8c0,0.4,0.2,0.8,0.5,1.1s0.8,0.4,1.4,0.4c0.6,0,1.2-0.1,1.6-0.4
		s0.8-0.6,1-1.1c0.2-0.4,0.3-0.9,0.3-1.6V158.9z"/>
	<path fill="#333333" d="M35.9,163.6v-12.9h1.6v12.9H35.9z"/>
	<path fill="#333333" d="M45.2,163.6v-12.9h5.7c1.1,0,2,0.1,2.6,0.3s1.1,0.6,1.4,1.2s0.5,1.2,0.5,1.9c0,0.9-0.3,1.7-0.9,2.3
		s-1.5,1-2.7,1.2c0.5,0.2,0.8,0.4,1,0.6c0.5,0.5,1,1,1.4,1.7l2.2,3.5h-2.1l-1.7-2.7c-0.5-0.8-0.9-1.4-1.2-1.8s-0.6-0.7-0.9-0.9
		s-0.5-0.3-0.8-0.3c-0.2,0-0.5-0.1-0.9-0.1h-2v5.7H45.2z M46.9,156.4h3.7c0.8,0,1.4-0.1,1.8-0.2s0.8-0.4,1-0.8s0.3-0.7,0.3-1.2
		c0-0.6-0.2-1.1-0.7-1.5s-1.1-0.6-2.1-0.6h-4.1V156.4z"/>
	<path fill="#333333" d="M64.3,160.6l1.6,0.2c-0.3,1-0.7,1.7-1.4,2.2s-1.6,0.8-2.7,0.8c-1.4,0-2.4-0.4-3.2-1.3s-1.2-2-1.2-3.5
		c0-1.6,0.4-2.8,1.2-3.7c0.8-0.9,1.9-1.3,3.1-1.3c1.2,0,2.3,0.4,3.1,1.3c0.8,0.8,1.2,2,1.2,3.6c0,0.1,0,0.2,0,0.4h-7
		c0.1,1,0.3,1.8,0.9,2.4s1.2,0.8,2,0.8c0.6,0,1.1-0.2,1.5-0.5S64.1,161.3,64.3,160.6z M59.1,158.1h5.2c-0.1-0.8-0.3-1.4-0.6-1.8
		c-0.5-0.6-1.2-0.9-2-0.9c-0.7,0-1.3,0.2-1.8,0.7S59.2,157.3,59.1,158.1z"/>
	<path fill="#333333" d="M67.7,164.4l1.5,0.2c0.1,0.5,0.2,0.8,0.5,1c0.4,0.3,0.9,0.4,1.6,0.4c0.7,0,1.3-0.1,1.7-0.4s0.7-0.7,0.8-1.2
		c0.1-0.3,0.1-1,0.1-2c-0.7,0.8-1.6,1.2-2.6,1.2c-1.3,0-2.3-0.5-3-1.4s-1.1-2-1.1-3.3c0-0.9,0.2-1.7,0.5-2.5s0.8-1.3,1.4-1.7
		c0.6-0.4,1.3-0.6,2.2-0.6c1.1,0,2,0.4,2.7,1.3v-1.1h1.5v8.1c0,1.5-0.1,2.5-0.4,3.1c-0.3,0.6-0.8,1.1-1.4,1.4s-1.4,0.5-2.4,0.5
		c-1.1,0-2-0.3-2.7-0.8S67.6,165.4,67.7,164.4z M69,158.8c0,1.2,0.2,2.1,0.7,2.7s1.1,0.8,1.8,0.8c0.7,0,1.3-0.3,1.8-0.8
		s0.7-1.4,0.7-2.6c0-1.1-0.3-2-0.8-2.6s-1.1-0.9-1.8-0.9c-0.7,0-1.3,0.3-1.8,0.9S69,157.7,69,158.8z"/>
	<path fill="#333333" d="M84.1,163.6v-1.4c-0.7,1.1-1.7,1.6-3,1.6c-0.6,0-1.1-0.1-1.5-0.3s-0.8-0.5-1.1-0.8s-0.4-0.7-0.5-1.2
		c-0.1-0.3-0.1-0.8-0.1-1.5v-5.8h1.6v5.2c0,0.8,0,1.4,0.1,1.7c0.1,0.4,0.3,0.7,0.6,1s0.7,0.4,1.2,0.4s0.9-0.1,1.3-0.4s0.7-0.6,0.9-1
		s0.3-1,0.3-1.8v-5h1.6v9.3H84.1z"/>
	<path fill="#333333" d="M87.9,163.6v-12.9h1.6v12.9H87.9z"/>
	<path fill="#333333" d="M98.1,162.5c-0.6,0.5-1.1,0.8-1.7,1.1s-1.1,0.3-1.7,0.3c-1,0-1.8-0.2-2.4-0.8s-0.8-1.1-0.8-1.9
		c0-0.5,0.1-0.9,0.3-1.3s0.5-0.7,0.8-0.9s0.7-0.4,1.1-0.5c0.3-0.1,0.8-0.2,1.4-0.2c1.3-0.2,2.2-0.3,2.8-0.5c0-0.2,0-0.4,0-0.4
		c0-0.6-0.1-1.1-0.4-1.4c-0.4-0.4-1-0.5-1.8-0.5c-0.7,0-1.3,0.1-1.6,0.4s-0.6,0.7-0.8,1.4l-1.5-0.2c0.1-0.7,0.4-1.2,0.7-1.6
		s0.8-0.7,1.4-0.9s1.3-0.3,2.1-0.3c0.8,0,1.4,0.1,1.9,0.3c0.5,0.2,0.9,0.4,1.1,0.7s0.4,0.6,0.5,1.1c0.1,0.3,0.1,0.8,0.1,1.5v2.1
		c0,1.5,0,2.4,0.1,2.8s0.2,0.8,0.4,1.1h-1.7C98.2,163.3,98.1,162.9,98.1,162.5z M97.9,158.9c-0.6,0.2-1.4,0.4-2.6,0.6
		c-0.7,0.1-1.1,0.2-1.4,0.3c-0.3,0.1-0.5,0.3-0.6,0.5s-0.2,0.5-0.2,0.8c0,0.4,0.2,0.8,0.5,1.1s0.8,0.4,1.4,0.4
		c0.6,0,1.2-0.1,1.6-0.4s0.8-0.6,1-1.1c0.2-0.4,0.3-0.9,0.3-1.6V158.9z"/>
	<path fill="#333333" d="M102,163.6v-9.3h1.4v1.4c0.4-0.7,0.7-1.1,1-1.3s0.6-0.3,1-0.3c0.5,0,1.1,0.2,1.6,0.5l-0.5,1.5
		c-0.4-0.2-0.8-0.3-1.2-0.3c-0.3,0-0.7,0.1-0.9,0.3c-0.3,0.2-0.5,0.5-0.6,0.9c-0.2,0.6-0.3,1.2-0.3,1.8v4.9H102z"/>
	<path fill="#333333" d="M15.7,193.6h-2.8l-1.1-2.9H6.6l-1.1,2.9H2.8l5-12.9h2.8L15.7,193.6z M10.9,188.5l-1.8-4.8l-1.7,4.8H10.9z"
		/>
	<path fill="#333333" d="M19.4,193.6h-2.5v-9.3h2.3v1.3c0.4-0.6,0.7-1,1.1-1.2c0.3-0.2,0.7-0.3,1.1-0.3c0.6,0,1.1,0.2,1.6,0.5
		l-0.8,2.2c-0.4-0.3-0.8-0.4-1.2-0.4c-0.3,0-0.6,0.1-0.9,0.3c-0.2,0.2-0.4,0.5-0.6,1s-0.2,1.5-0.2,3.1V193.6z"/>
	<path fill="#333333" d="M24,183v-2.3h2.5v2.3H24z M24,193.6v-9.3h2.5v9.3H24z"/>
	<path fill="#333333" d="M30.9,187.1l-2.2-0.4c0.3-0.9,0.7-1.6,1.3-2c0.6-0.4,1.5-0.6,2.7-0.6c1.1,0,1.9,0.1,2.5,0.4s0.9,0.6,1.1,1
		s0.3,1.1,0.3,2.2l0,2.9c0,0.8,0,1.4,0.1,1.8s0.2,0.8,0.4,1.3h-2.4c-0.1-0.2-0.1-0.4-0.2-0.7c0-0.1-0.1-0.2-0.1-0.3
		c-0.4,0.4-0.9,0.7-1.4,0.9s-1,0.3-1.5,0.3c-1,0-1.7-0.3-2.3-0.8s-0.8-1.2-0.8-2c0-0.5,0.1-1,0.4-1.4s0.6-0.7,1.1-0.9s1.1-0.4,2-0.6
		c1.2-0.2,2-0.4,2.4-0.6v-0.2c0-0.5-0.1-0.8-0.4-1s-0.7-0.3-1.3-0.3c-0.4,0-0.8,0.1-1,0.3S31,186.7,30.9,187.1z M34.2,189.2
		c-0.3,0.1-0.8,0.2-1.5,0.4c-0.7,0.1-1.1,0.3-1.3,0.4c-0.3,0.2-0.5,0.5-0.5,0.9c0,0.3,0.1,0.6,0.4,0.9c0.3,0.3,0.6,0.4,1,0.4
		c0.4,0,0.9-0.1,1.3-0.4c0.3-0.2,0.5-0.5,0.6-0.8c0.1-0.2,0.1-0.6,0.1-1.2V189.2z"/>
	<path fill="#333333" d="M39.1,193.6v-12.9h2.5v12.9H39.1z"/>
	<path fill="#333333" d="M49.1,180.7h5.1c1,0,1.8,0,2.3,0.1s0.9,0.3,1.3,0.5s0.7,0.6,1,1.1s0.4,1,0.4,1.5c0,0.6-0.2,1.2-0.5,1.7
		s-0.8,0.9-1.3,1.1c0.8,0.2,1.4,0.6,1.8,1.2s0.6,1.2,0.6,1.9c0,0.6-0.1,1.2-0.4,1.7s-0.6,1-1.1,1.3s-1.1,0.5-1.7,0.6
		c-0.4,0-1.5,0.1-3.1,0.1h-4.4V180.7z M51.7,182.9v3h1.7c1,0,1.6,0,1.9,0c0.4-0.1,0.8-0.2,1.1-0.5s0.4-0.6,0.4-1
		c0-0.4-0.1-0.7-0.3-1s-0.5-0.4-1-0.5c-0.3,0-1,0-2.2,0H51.7z M51.7,188v3.4h2.4c0.9,0,1.5,0,1.8-0.1c0.4-0.1,0.7-0.2,0.9-0.5
		s0.4-0.6,0.4-1.1c0-0.4-0.1-0.7-0.3-1s-0.5-0.5-0.8-0.6S55,188,53.8,188H51.7z"/>
	<path fill="#333333" d="M61.5,188.8c0-0.8,0.2-1.6,0.6-2.4s1-1.4,1.7-1.8s1.6-0.6,2.5-0.6c1.4,0,2.6,0.5,3.5,1.4s1.4,2.1,1.4,3.5
		c0,1.4-0.5,2.6-1.4,3.5s-2.1,1.4-3.4,1.4c-0.9,0-1.7-0.2-2.4-0.6c-0.8-0.4-1.4-1-1.8-1.7S61.5,189.9,61.5,188.8z M64,189
		c0,0.9,0.2,1.6,0.7,2.1c0.4,0.5,1,0.7,1.6,0.7s1.2-0.2,1.6-0.7s0.7-1.2,0.7-2.1c0-0.9-0.2-1.6-0.7-2.1s-1-0.7-1.6-0.7
		s-1.2,0.2-1.6,0.7C64.2,187.3,64,188,64,189z"/>
	<path fill="#333333" d="M73.1,193.6v-12.9h2.5v12.9H73.1z"/>
	<path fill="#333333" d="M86.6,193.6h-2.3v-1.4c-0.4,0.5-0.8,0.9-1.3,1.2c-0.5,0.3-1,0.4-1.6,0.4c-1.1,0-2-0.4-2.8-1.3
		s-1.1-2.1-1.1-3.6c0-1.6,0.4-2.8,1.1-3.6s1.7-1.2,2.8-1.2c1,0,1.9,0.4,2.7,1.3v-4.6h2.5V193.6z M80,188.8c0,1,0.1,1.7,0.4,2.2
		c0.4,0.6,1,1,1.7,1c0.6,0,1.1-0.2,1.5-0.7s0.6-1.2,0.6-2.2c0-1.1-0.2-1.8-0.6-2.3s-0.9-0.7-1.5-0.7c-0.6,0-1.1,0.2-1.5,0.7
		S80,187.8,80,188.8z"/>
</g>
<g>
	<path fill="#333333" d="M2.5,114.2L45,3.6h15.8L106,114.2H89.4L76.5,80.7H30.2l-12.1,33.5H2.5z M34.4,68.8h37.5L60.4,38.2
		c-3.5-9.3-6.1-16.9-7.8-22.9c-1.4,7.1-3.4,14.1-6,21.1L34.4,68.8z"/>
	<path fill="#333333" d="M114.6,114.2V34.1h12.2v12.1c3.1-5.7,6-9.4,8.6-11.2s5.5-2.7,8.7-2.7c4.6,0,9.2,1.5,14,4.4l-4.7,12.6
		c-3.3-2-6.6-2.9-10-2.9c-3,0-5.6,0.9-8,2.7c-2.4,1.8-4,4.3-5.1,7.4c-1.5,4.8-2.3,10.1-2.3,15.8v41.9H114.6z"/>
	<path fill="#333333" d="M165.1,19.2V3.6h13.6v15.6H165.1z M165.1,114.2V34.1h13.6v80.1H165.1z"/>
	<path fill="#333333" d="M248,104.3c-5,4.3-9.9,7.3-14.5,9.1c-4.7,1.8-9.6,2.6-15,2.6c-8.8,0-15.6-2.2-20.3-6.5
		c-4.7-4.3-7.1-9.8-7.1-16.5c0-3.9,0.9-7.5,2.7-10.8c1.8-3.2,4.1-5.8,7-7.8c2.9-2,6.1-3.4,9.8-4.5c2.7-0.7,6.7-1.4,12.1-2
		c11-1.3,19-2.9,24.2-4.7c0-1.9,0.1-3,0.1-3.5c0-5.5-1.3-9.4-3.8-11.7c-3.5-3.1-8.6-4.6-15.5-4.6c-6.4,0-11.1,1.1-14.1,3.4
		c-3,2.2-5.3,6.2-6.8,11.9l-13.3-1.8c1.2-5.7,3.2-10.3,6-13.8c2.8-3.5,6.8-6.2,12-8.1c5.2-1.9,11.3-2.8,18.2-2.8
		c6.8,0,12.4,0.8,16.7,2.4c4.3,1.6,7.4,3.6,9.4,6.1c2,2.4,3.4,5.5,4.2,9.2c0.5,2.3,0.7,6.5,0.7,12.5v18.1c0,12.6,0.3,20.6,0.9,24
		c0.6,3.3,1.7,6.6,3.4,9.6h-14.2C249.3,111.4,248.4,108.1,248,104.3z M246.8,74c-4.9,2-12.3,3.7-22.2,5.1c-5.6,0.8-9.5,1.7-11.8,2.7
		c-2.3,1-4.1,2.5-5.4,4.4c-1.3,1.9-1.9,4.1-1.9,6.5c0,3.6,1.4,6.6,4.1,9.1s6.8,3.6,12,3.6c5.2,0,9.9-1.1,14-3.4
		c4.1-2.3,7.1-5.4,9-9.4c1.5-3.1,2.2-7.6,2.2-13.6V74z"/>
	<path fill="#333333" d="M277.5,114.2V3.6H291v110.6H277.5z"/>
</g>
<g>
	<path fill="#333333" d="M187.1,163.6l7.3-12.9h2l2.1,12.9h-1.7l-0.6-3.7h-5.2l-2.1,3.7H187.1z M191.8,158.6h4.3l-0.5-3.2
		c-0.2-1.3-0.3-2.4-0.4-3.2c-0.3,0.7-0.7,1.6-1.3,2.6L191.8,158.6z"/>
	<path fill="#333333" d="M200.1,163.6l2-9.3h1.4l-0.4,1.9c0.5-0.7,1-1.3,1.4-1.6c0.5-0.3,0.9-0.5,1.4-0.5c0.3,0,0.7,0.1,1.2,0.3
		l-0.7,1.5c-0.3-0.2-0.6-0.3-0.9-0.3c-0.6,0-1.1,0.3-1.7,0.9c-0.6,0.6-1,1.7-1.4,3.3l-0.8,3.7H200.1z"/>
	<path fill="#333333" d="M206,163.6l2-9.3h1.6l-2,9.3H206z M208.3,152.6l0.4-1.8h1.6l-0.4,1.8H208.3z"/>
	<path fill="#333333" d="M216.4,162.5c-0.6,0.5-1.1,0.8-1.6,1c-0.5,0.2-1.1,0.3-1.6,0.3c-0.9,0-1.6-0.3-2.1-0.8s-0.8-1.2-0.8-1.9
		c0-0.5,0.1-1,0.4-1.4s0.6-0.7,0.9-1s0.9-0.4,1.4-0.5c0.4-0.1,1-0.1,2-0.2c1,0,1.7-0.1,2.1-0.3c0.1-0.4,0.2-0.8,0.2-1.1
		c0-0.4-0.1-0.7-0.4-0.9c-0.4-0.3-0.9-0.4-1.6-0.4c-0.7,0-1.2,0.1-1.6,0.4s-0.7,0.7-0.9,1.3l-1.6-0.1c0.3-0.9,0.8-1.6,1.6-2.1
		s1.6-0.7,2.7-0.7c1.2,0,2.1,0.3,2.7,0.8c0.5,0.4,0.8,0.9,0.8,1.6c0,0.5-0.1,1.1-0.2,1.7l-0.5,2.3c-0.2,0.7-0.2,1.3-0.2,1.8
		c0,0.3,0.1,0.7,0.2,1.3h-1.6C216.5,163.3,216.4,162.9,216.4,162.5z M217,158.9c-0.2,0.1-0.5,0.2-0.7,0.2c-0.3,0-0.7,0.1-1.3,0.1
		c-0.9,0.1-1.6,0.2-2,0.3c-0.4,0.1-0.7,0.3-0.9,0.6s-0.3,0.6-0.3,0.9c0,0.4,0.2,0.8,0.5,1.1s0.7,0.4,1.3,0.4c0.5,0,1-0.1,1.5-0.4
		s0.9-0.7,1.2-1.2S216.8,159.8,217,158.9z"/>
	<path fill="#333333" d="M220,163.6l2.7-12.9h1.6l-2.7,12.9H220z"/>
	<path fill="#333333" d="M229.5,163.6l2.7-12.9h1.7l-2.7,12.9H229.5z"/>
	<path fill="#333333" d="M237.8,162.3l-0.3,1.3c-0.4,0.1-0.8,0.1-1.1,0.1c-0.6,0-1.1-0.2-1.5-0.5c-0.3-0.2-0.4-0.6-0.4-1
		c0-0.2,0.1-0.7,0.2-1.4l1.1-5.4h-1.3l0.3-1.2h1.3l0.5-2.3l1.8-1.1l-0.7,3.4h1.6l-0.3,1.2h-1.6l-1.1,5.2c-0.1,0.7-0.2,1-0.2,1.2
		c0,0.2,0.1,0.3,0.2,0.4c0.1,0.1,0.3,0.1,0.5,0.1C237.2,162.4,237.5,162.4,237.8,162.3z"/>
	<path fill="#333333" d="M245.4,162.5c-0.6,0.5-1.1,0.8-1.6,1c-0.5,0.2-1.1,0.3-1.6,0.3c-0.9,0-1.6-0.3-2.1-0.8s-0.8-1.2-0.8-1.9
		c0-0.5,0.1-1,0.4-1.4c0.2-0.4,0.6-0.7,0.9-1s0.9-0.4,1.4-0.5c0.4-0.1,1-0.1,2-0.2s1.7-0.1,2.1-0.3c0.1-0.4,0.2-0.8,0.2-1.1
		c0-0.4-0.1-0.7-0.4-0.9c-0.4-0.3-0.9-0.4-1.6-0.4c-0.7,0-1.2,0.1-1.6,0.4s-0.7,0.7-0.9,1.3l-1.6-0.1c0.3-0.9,0.8-1.6,1.6-2.1
		c0.7-0.5,1.6-0.7,2.7-0.7c1.2,0,2.1,0.3,2.7,0.8c0.5,0.4,0.8,0.9,0.8,1.6c0,0.5-0.1,1.1-0.2,1.7l-0.5,2.3c-0.2,0.7-0.2,1.3-0.2,1.8
		c0,0.3,0.1,0.7,0.2,1.3h-1.6C245.5,163.3,245.4,162.9,245.4,162.5z M246,158.9c-0.2,0.1-0.5,0.2-0.7,0.2s-0.7,0.1-1.3,0.1
		c-0.9,0.1-1.6,0.2-2,0.3c-0.4,0.1-0.7,0.3-0.9,0.6s-0.3,0.6-0.3,0.9c0,0.4,0.2,0.8,0.5,1.1c0.3,0.3,0.7,0.4,1.3,0.4
		c0.5,0,1-0.1,1.5-0.4s0.9-0.7,1.2-1.2S245.8,159.8,246,158.9z"/>
	<path fill="#333333" d="M249,163.6l2.7-12.9h1.6l-2.7,12.9H249z"/>
	<path fill="#333333" d="M253,163.6l2-9.3h1.6l-2,9.3H253z M255.4,152.6l0.4-1.8h1.6l-0.4,1.8H255.4z"/>
	<path fill="#333333" d="M263.5,160.2l1.6,0.2c-0.4,1.2-1,2-1.7,2.6s-1.6,0.8-2.5,0.8c-1,0-1.8-0.3-2.5-1c-0.6-0.7-0.9-1.6-0.9-2.8
		c0-1,0.2-2,0.6-3s1-1.7,1.7-2.2c0.8-0.5,1.6-0.8,2.6-0.8c1,0,1.8,0.3,2.4,0.8s0.9,1.3,0.9,2.2l-1.6,0.1c0-0.6-0.2-1.1-0.5-1.4
		s-0.8-0.5-1.3-0.5c-0.6,0-1.2,0.2-1.7,0.6c-0.5,0.4-0.8,1-1.1,1.8c-0.3,0.8-0.4,1.6-0.4,2.4c0,0.8,0.2,1.4,0.5,1.8s0.8,0.6,1.3,0.6
		s1-0.2,1.5-0.6S263.3,161,263.5,160.2z"/>
	<path fill="#333333" d="M196.7,190.8h-5.1l-1.5,2.8h-2.7l7.3-12.9h2.9l2.1,12.9h-2.5L196.7,190.8z M196.3,188.6l-0.7-5.2l-3.1,5.2
		H196.3z"/>
	<path fill="#333333" d="M203,184.3h2.4l-0.4,1.8c0.9-1.4,1.8-2,2.9-2c0.4,0,0.8,0.1,1.2,0.3l-1,2.1c-0.2-0.1-0.5-0.1-0.7-0.1
		c-0.4,0-0.9,0.2-1.3,0.5s-0.8,0.8-1,1.3c-0.3,0.5-0.5,1.4-0.7,2.6l-0.6,2.9h-2.5L203,184.3z"/>
	<path fill="#333333" d="M210.2,184.3h2.5l-2,9.3h-2.5L210.2,184.3z M210.9,180.7h2.5l-0.5,2.3h-2.5L210.9,180.7z"/>
	<path fill="#333333" d="M216.8,186.9l-2.5-0.2c0.3-0.8,0.8-1.5,1.5-2c0.7-0.5,1.6-0.7,2.8-0.7c1.2,0,2.1,0.2,2.7,0.7
		s0.9,1.1,0.9,1.8c0,0.3,0,0.6-0.1,0.9s-0.2,1.1-0.5,2.5c-0.2,1.1-0.4,1.9-0.4,2.3c0,0.4,0.1,0.8,0.2,1.3h-2.5
		c-0.1-0.3-0.2-0.7-0.2-1.1c-0.4,0.4-0.8,0.7-1.3,0.9c-0.5,0.2-1,0.3-1.4,0.3c-0.8,0-1.4-0.3-1.9-0.8s-0.8-1.2-0.8-2
		c0-0.9,0.3-1.6,0.8-2.1c0.6-0.5,1.5-0.9,3-1c1.2-0.1,2-0.2,2.4-0.4c0.1-0.4,0.2-0.6,0.2-0.8c0-0.3-0.1-0.5-0.3-0.7s-0.5-0.3-1-0.3
		c-0.5,0-0.8,0.1-1.1,0.3S216.9,186.6,216.8,186.9z M219.2,189.3c-0.2,0-0.4,0.1-0.6,0.1c-1.3,0.2-2.1,0.4-2.5,0.7
		c-0.3,0.2-0.4,0.5-0.4,0.9c0,0.3,0.1,0.5,0.3,0.7s0.5,0.3,0.8,0.3c0.4,0,0.7-0.1,1.1-0.3s0.6-0.4,0.8-0.7s0.3-0.7,0.4-1.4
		L219.2,189.3z"/>
	<path fill="#333333" d="M223.2,193.6l2.7-12.9h2.5l-2.7,12.9H223.2z"/>
	<path fill="#333333" d="M233.2,193.6l2.7-12.9h4.4c1,0,1.6,0,2,0.1c0.6,0.1,1.2,0.3,1.6,0.5s0.8,0.6,1,1.1s0.3,0.9,0.3,1.5
		c0,0.7-0.2,1.3-0.6,1.9s-1,0.9-1.8,1.2c0.7,0.2,1.2,0.5,1.6,1s0.6,1,0.6,1.6c0,0.8-0.2,1.5-0.7,2.2s-1,1.2-1.8,1.5
		s-1.8,0.5-3.2,0.5H233.2z M236.3,191.6h2.6c1.1,0,1.8-0.1,2.2-0.2s0.7-0.4,0.9-0.7s0.3-0.7,0.3-1c0-0.4-0.2-0.8-0.5-1.1
		s-0.8-0.4-1.6-0.4H237L236.3,191.6z M237.5,186h2c0.9,0,1.6-0.1,2-0.2c0.4-0.1,0.7-0.3,0.9-0.6c0.2-0.3,0.3-0.6,0.3-0.9
		c0-0.3-0.1-0.6-0.3-0.8s-0.5-0.4-0.8-0.4c-0.2,0-0.7-0.1-1.4-0.1h-2.1L237.5,186z"/>
	<path fill="#333333" d="M246.6,189.8c0-1.7,0.5-3.1,1.5-4.1s2.3-1.5,3.8-1.5c1.4,0,2.5,0.4,3.2,1.1s1.2,1.8,1.2,3.1
		c0,1.5-0.5,2.8-1.5,3.9s-2.3,1.7-3.9,1.7c-0.9,0-1.7-0.2-2.3-0.5s-1.2-0.8-1.5-1.5S246.6,190.5,246.6,189.8z M253.8,188
		c0-0.6-0.2-1.1-0.5-1.4c-0.3-0.4-0.8-0.5-1.3-0.5c-0.5,0-1,0.2-1.5,0.5s-0.8,0.8-1,1.5s-0.4,1.2-0.4,1.8c0,0.7,0.2,1.2,0.5,1.6
		s0.8,0.6,1.4,0.6c0.7,0,1.3-0.3,1.7-0.9C253.4,190.2,253.8,189.2,253.8,188z"/>
	<path fill="#333333" d="M257.2,193.6l2.7-12.9h2.5l-2.7,12.9H257.2z"/>
	<path fill="#333333" d="M270.8,193.6h-2.4l0.2-1c-0.5,0.4-0.9,0.8-1.3,0.9c-0.4,0.2-0.9,0.3-1.5,0.3c-1,0-1.8-0.3-2.4-1
		s-0.9-1.6-0.9-2.9c0-1.5,0.4-2.8,1.3-4.1c0.8-1.2,2-1.8,3.3-1.8c1.3,0,2.2,0.5,2.8,1.5l1-4.8h2.5L270.8,193.6z M265,189.8
		c0,0.7,0.2,1.2,0.5,1.6s0.8,0.6,1.2,0.6c0.5,0,0.9-0.2,1.3-0.5c0.4-0.3,0.7-0.8,0.9-1.4c0.2-0.6,0.4-1.3,0.4-1.9
		c0-0.7-0.2-1.2-0.5-1.6s-0.8-0.6-1.3-0.6c-0.7,0-1.3,0.4-1.8,1.2S265,188.9,265,189.8z"/>
	<path fill="#333333" d="M278.1,193.6l2.7-12.9h2.6l-2.7,12.9H278.1z"/>
	<path fill="#333333" d="M283.8,186.2l0.4-1.9h1.2l0.3-1.5l2.9-1.7l-0.7,3.2h1.5l-0.4,1.9h-1.5l-0.8,3.9c-0.1,0.7-0.2,1.1-0.2,1.2
		c0,0.2,0.1,0.3,0.2,0.5s0.3,0.2,0.7,0.2c0.1,0,0.4,0,0.8-0.1l-0.4,1.9c-0.4,0.1-0.9,0.1-1.3,0.1c-0.9,0-1.5-0.2-1.9-0.5
		c-0.4-0.3-0.6-0.8-0.6-1.4c0-0.3,0.1-0.9,0.3-2l0.8-3.8H283.8z"/>
	<path fill="#333333" d="M292.8,186.9l-2.5-0.2c0.3-0.8,0.8-1.5,1.5-2c0.7-0.5,1.6-0.7,2.8-0.7c1.2,0,2.1,0.2,2.7,0.7
		s0.9,1.1,0.9,1.8c0,0.3,0,0.6-0.1,0.9s-0.2,1.1-0.5,2.5c-0.2,1.1-0.4,1.9-0.4,2.3c0,0.4,0.1,0.8,0.2,1.3h-2.5
		c-0.1-0.3-0.2-0.7-0.2-1.1c-0.4,0.4-0.8,0.7-1.3,0.9c-0.5,0.2-1,0.3-1.5,0.3c-0.8,0-1.4-0.3-1.9-0.8s-0.8-1.2-0.8-2
		c0-0.9,0.3-1.6,0.8-2.1c0.6-0.5,1.5-0.9,3-1c1.2-0.1,2-0.2,2.4-0.4c0.1-0.4,0.2-0.6,0.2-0.8c0-0.3-0.1-0.5-0.3-0.7s-0.5-0.3-1-0.3
		c-0.5,0-0.8,0.1-1.1,0.3S292.9,186.6,292.8,186.9z M295.2,189.3c-0.2,0-0.4,0.1-0.6,0.1c-1.3,0.2-2.1,0.4-2.5,0.7
		c-0.3,0.2-0.4,0.5-0.4,0.9c0,0.3,0.1,0.5,0.3,0.7s0.5,0.3,0.8,0.3c0.4,0,0.7-0.1,1.1-0.3s0.6-0.4,0.8-0.7s0.3-0.7,0.4-1.4
		L295.2,189.3z"/>
	<path fill="#333333" d="M299.2,193.6l2.7-12.9h2.5l-2.7,12.9H299.2z"/>
	<path fill="#333333" d="M306.2,184.3h2.5l-2,9.3h-2.5L306.2,184.3z M306.9,180.7h2.5L309,183h-2.5L306.9,180.7z"/>
	<path fill="#333333" d="M315.5,190.1l2.5,0.4c-0.4,1.1-1,1.9-1.8,2.5s-1.7,0.9-2.8,0.9c-1.2,0-2.1-0.4-2.8-1.1s-1-1.7-1-2.9
		c0-1,0.2-2,0.6-2.9s1.1-1.6,1.9-2.1c0.8-0.5,1.8-0.8,2.8-0.8c1.1,0,2,0.3,2.6,0.9c0.7,0.6,1,1.3,1.1,2.3l-2.4,0.3
		c-0.1-0.5-0.2-0.9-0.5-1.2s-0.6-0.4-1-0.4c-0.5,0-0.9,0.2-1.4,0.5s-0.7,0.9-1,1.6c-0.2,0.7-0.3,1.4-0.3,2c0,0.6,0.1,1,0.4,1.3
		c0.3,0.3,0.6,0.4,1,0.4s0.8-0.1,1.2-0.4S315.3,190.7,315.5,190.1z"/>
</g>
</svg>
