<?xml version="1.0" encoding="utf-8"?>
<!-- Generator: Adobe Illustrator 19.1.0, SVG Export Plug-In . SVG Version: 6.00 Build 0)  -->
<svg version="1.1" id="Layer_1" xmlns="http://www.w3.org/2000/svg" xmlns:xlink="http://www.w3.org/1999/xlink" x="0px" y="0px"
	 viewBox="-249 257.7 300 87.3" style="enable-background:new -249 257.7 300 87.3;" xml:space="preserve">
<style type="text/css">
	.st0{fill:#FFFFFF;}
</style>
<g>
	<polygon points="-249,257.7 51,257.7 51,345 -249,345 	"/>
	<path class="st0" d="M-201.8,274.5c0,5.7,9.7,12.1,9.7,18.6c0,0,0,0.6-0.3,1.3c9.1,1.9,15.5,6.4,15.5,11.6c0,7-11.5,12.8-25.7,12.8
		c-0.1,0-0.2,0-0.3,0c-14.1,0-25.5-5.6-25.5-12.6c0-5.2,7-9.5,15.4-11.7c0,2.9,9.6,12,9.8,15.7c0,0,0,0.3,0,0.7c0,0.2,0,0.4,0,0.5
		c2.1-1.1,2.1-4.5,2.1-4.5c0-8-9.3-11.6-9.3-19.5c0-3.1,1.4-5.3,2.7-5.9v2.2c0,5.7,10.1,12.1,10.1,17.3v1.7c2.3-0.9,2.3-5.2,2.3-5.2
		c0-7.2-9.4-11.2-9.4-19.5c0-3.1,1.4-5.3,2.7-5.9v2.4H-201.8z"/>
	<path class="st0" d="M-156.3,316.6c-4.9,0-8.5-1.4-8.5-1.4v-8.5h1.2c0.6,4.5,4.1,7.9,8,7.9s6.7-2.2,6.7-5.6c0-3.7-3.6-5.3-6.1-6.5
		l-3.5-1.8c-3.3-1.7-6-4.4-6-8.2c0-4.7,3.5-8.8,10.2-8.8c4.6,0,8.4,1.5,8.4,1.5v7.6h-1.2c-0.7-4.1-3-7.3-7.6-7.3
		c-3.4,0-5.5,2.3-5.5,4.7c0,3.1,2.2,4.5,4.7,5.8l3.5,1.8c3.2,1.6,7.2,4.3,7.2,8.9C-144.8,312.8-148.9,316.6-156.3,316.6
		L-156.3,316.6z"/>
	<path class="st0" d="M-135.4,316.5c-3.1,0-5-2-5-5c0-2.2,1.6-3.8,5-5.1l6.1-2.2v-1.9c0-2.8-1.3-4.6-3.3-4.6c-1.4,0-2.7,0.7-3.4,1.8
		c-0.3,0.4-0.3,1-0.3,1.4c0,0.8,0.5,1.7,0.5,1.7l-3,1.4c-0.4-0.6-0.8-1.6-0.8-2.5c0-0.2,0-0.4,0-0.5c0.2-1.6,1.6-2.7,3.5-3.8
		c1.8-1.1,3.4-1.4,4.6-1.4c5.7,0,6.7,4.5,6.7,6v9.3c0,1.5,0.1,2.4,1.4,2.4c0.4,0,0.6,0,1.1-0.2l1.1-0.4v1.4l-6.3,2.3
		c-0.9-0.7-1.4-1.9-1.6-2.9C-130.7,314.8-133.3,316.5-135.4,316.5L-135.4,316.5z M-133.6,307.4c-0.9,0.4-2.6,1.2-2.6,3.3
		c0,1.2,0.7,3.1,3,3.1c1.1,0,2.7-0.6,3.8-1.5v-6.7L-133.6,307.4L-133.6,307.4z"/>
	<path class="st0" d="M-119.9,316v-1.1l1.5-0.3c0.9-0.2,1.5-0.9,1.5-1.8v-12c0-1-0.5-1.6-1.4-1.6c-0.3,0-0.7,0-1,0.2l-0.6,0.2v-1.4
		l6.5-2.8h0.9v3.3c2-2.2,4.3-3.3,6.4-3.3c4.6,0,6.8,3.3,6.8,7.1v10.2c0,0.9,0.7,1.6,1.6,1.8l1.5,0.3v1.1h-10.7v-1.1l1.5-0.3
		c0.9-0.2,1.6-0.9,1.6-1.8v-10c0-1.4-0.4-4.4-4-4.4c-2,0-3.6,1.2-4.6,2.1v12.4c0,0.9,0.7,1.6,1.6,1.8l1.5,0.3v1.1H-119.9L-119.9,316
		z"/>
	<path class="st0" d="M-80.6,298.3H-87v11.2c0,2.5,1.3,3.8,3.2,3.8c0.8,0,2-0.2,3.1-0.9l0.5,1.1l-4.1,2.6c0,0-0.8,0.1-1.2,0.1
		c-3.9,0-6-2.3-6-7.2v-10.7h-3.3v-1.1c0,0,5-1.9,6.9-6.5h0.9v5.7h7.1L-80.6,298.3L-80.6,298.3z"/>
	<path class="st0" d="M-73,316.5c-3.1,0-5-2-5-5c0-2.2,1.6-3.8,5-5.1l6.1-2.2v-1.9c0-2.8-1.3-4.6-3.3-4.6c-1.4,0-2.7,0.7-3.4,1.8
		c-0.3,0.4-0.3,1-0.3,1.4c0,0.8,0.5,1.7,0.5,1.7l-3,1.4c-0.4-0.6-0.8-1.6-0.8-2.5c0-0.2,0-0.4,0-0.5c0.2-1.6,1.6-2.7,3.5-3.8
		c1.8-1.1,3.4-1.4,4.6-1.4c5.7,0,6.7,4.5,6.7,6v9.3c0,1.5,0.1,2.4,1.4,2.4c0.4,0,0.6,0,1.1-0.2l1.1-0.4v1.4l-6.3,2.3
		c-0.9-0.7-1.4-1.9-1.6-2.9C-68.3,314.8-70.9,316.5-73,316.5L-73,316.5z M-71.2,307.4c-0.9,0.4-2.6,1.2-2.6,3.3c0,1.2,0.7,3.1,3,3.1
		c1.1,0,2.7-0.6,3.8-1.5v-6.7L-71.2,307.4L-71.2,307.4z"/>
	<path class="st0" d="M-57.5,316v-1.1l1.5-0.3c0.9-0.2,1.5-0.9,1.5-1.8v-12c0-1-0.5-1.6-1.4-1.6c-0.3,0-0.7,0-1,0.2l-0.6,0.2v-1.4
		l6.5-2.8h1v3.3c2-2.2,4.3-3.3,6.4-3.3c4.6,0,6.8,3.3,6.8,7.1v10.2c0,0.9,0.7,1.6,1.6,1.8l1.5,0.3v1.1h-10.7v-1.1l1.4-0.1
		c0.9-0.2,1.6-0.9,1.6-1.8v-10.2c0-1.4-0.4-4.4-4-4.4c-2,0-3.7,1.2-4.6,2.1v12.4c0,0.9,0.7,1.6,1.6,1.8l1.5,0.3v1.1H-57.5L-57.5,316
		z"/>
	<path class="st0" d="M-22.4,316.5c-4.2,0-9.3-3.2-9.3-10c0-6,4.6-10.9,10.9-10.9c2.1,0,3.6,0.4,4.6,0.9v-10.4
		c0-1.1-0.6-1.4-1.3-1.4c-0.4,0-0.9,0.1-1.3,0.2l-0.9,0.3v-1.4l7-3h0.9v29.7c0,1.7,0.3,2.7,1.5,2.7c0.4,0,0.6,0,1.1-0.2l1.1-0.4v1.4
		l-6.3,2.3c-1-0.7-1.5-1.9-1.7-3C-17.2,314.7-19.3,316.5-22.4,316.5L-22.4,316.5z M-20.3,297.4c-3.2,0-6.6,2.1-6.6,8.1
		c0,5,2.5,8.1,6.5,8.1c2.4,0,3.9-1.4,4.2-2.1v-11.7C-16.8,298.3-18.4,297.4-20.3,297.4L-20.3,297.4z"/>
	<path class="st0" d="M-1.5,304.4v0.2c0,6,3.4,9,7.7,9c2.2,0,4.1-0.8,5.7-2v1.8c-1.8,1.7-4.6,3.1-7.9,3.1c-7,0-10.1-5.3-10.1-10.3
		c0-5.9,4.5-10.6,10.2-10.6c4.7,0,8.4,3.3,8.4,8.2v0.6H-1.5L-1.5,304.4z M7.8,302.5L7.8,302.5c0-3.5-1.9-5.1-4.1-5.1
		c-2.5,0-4.4,1.7-5,5.1H7.8L7.8,302.5z"/>
	<path class="st0" d="M15.2,316v-1.1l1.5-0.3c0.9-0.2,1.5-0.9,1.5-1.8v-12c0-1-0.5-1.6-1.4-1.6c-0.3,0-0.7,0-1,0.2l-0.6,0.2v-1.4
		l6.4-2.8h0.9v4.4c1.6-3.2,3.6-4.5,5.8-4.5c1.8,0,2.3,0.5,2.3,0.5v4.9h-0.9c-0.2-1.3-1.1-1.9-2.4-1.9c-1.4,0-3.2,0.4-4.5,3v11.1
		c0,0.9,0.9,1.6,1.8,1.8l2.2,0.3v1.1H15.2V316z"/>
</g>
</svg>
