<?xml version="1.0" encoding="utf-8"?>
<!-- Generator: Adobe Illustrator 18.1.1, SVG Export Plug-In . SVG Version: 6.00 Build 0)  -->
<svg version="1.1" id="Layer_1" xmlns="http://www.w3.org/2000/svg" xmlns:xlink="http://www.w3.org/1999/xlink" x="0px" y="0px"
	 viewBox="0 0 23 23" enable-background="new 0 0 23 23" xml:space="preserve">
<g>
	<defs>
		<rect id="SVGID_1_" y="0" width="23" height="23"/>
	</defs>
	<clipPath id="SVGID_2_">
		<use xlink:href="#SVGID_1_"  overflow="visible"/>
	</clipPath>
	<path clip-path="url(#SVGID_2_)" fill="#EC0000" d="M4,22.5l7.5-7.5l7.5,7.5c1,1,1.9,0.3,2.8-0.7c1-1,1.7-1.9,0.7-2.8l-7.5-7.5
		L22.5,4c1-1,0.3-1.9-0.7-2.8c-1-1-1.9-1.7-2.8-0.7l-7.5,7.5L4,0.5c-1-1-1.9-0.3-2.8,0.7C0.2,2.2-0.5,3,0.5,4l7.5,7.5L0.5,19
		c-1,1-0.3,1.9,0.7,2.8C2.2,22.8,3,23.5,4,22.5"/>
</g>
</svg>
