<?xml version="1.0" encoding="utf-8"?>
<!-- Generator: Adobe Illustrator 18.1.1, SVG Export Plug-In . SVG Version: 6.00 Build 0)  -->
<svg version="1.1" id="Layer_1" xmlns="http://www.w3.org/2000/svg" xmlns:xlink="http://www.w3.org/1999/xlink" x="0px" y="0px"
	 viewBox="0 0 300.5 88.3" enable-background="new 0 0 300.5 88.3" xml:space="preserve">
<g>
	<defs>
		<rect id="SVGID_1_" y="0" width="300.5" height="88.3"/>
	</defs>
	<clipPath id="SVGID_2_">
		<use xlink:href="#SVGID_1_"  overflow="visible"/>
	</clipPath>
	<path clip-path="url(#SVGID_2_)" fill="#EC0000" d="M87.3,44.2c0,24.1-19.5,43.7-43.7,43.7C19.5,87.8,0,68.3,0,44.2
		S19.5,0.5,43.7,0.5C67.8,0.5,87.3,20,87.3,44.2"/>
	<path clip-path="url(#SVGID_2_)" fill="#666666" d="M193.6,44.2c0,24.1-19.5,43.7-43.7,43.7c-24.1,0-43.7-19.5-43.7-43.7
		S125.9,0.5,150,0.5C174.1,0.5,193.6,20,193.6,44.2"/>
	<path clip-path="url(#SVGID_2_)" fill="#FFFFFF" d="M300,44.2c0,24.1-19.5,43.7-43.7,43.7c-24.1,0-43.7-19.5-43.7-43.7
		s19.5-43.7,43.7-43.7C280.4,0.5,300,20,300,44.2"/>
	<circle clip-path="url(#SVGID_2_)" fill="none" stroke="#B3B3B3" stroke-miterlimit="10" cx="256.3" cy="44.2" r="43.7"/>
</g>
</svg>
