<?xml version="1.0" encoding="utf-8"?>
<!-- Generator: Adobe Illustrator 19.1.0, SVG Export Plug-In . SVG Version: 6.00 Build 0)  -->
<svg version="1.1" id="Layer_1" xmlns="http://www.w3.org/2000/svg" xmlns:xlink="http://www.w3.org/1999/xlink" x="0px" y="0px"
	 viewBox="0 0 110 110" style="enable-background:new 0 0 110 110;" xml:space="preserve">
<style type="text/css">
	.st0{fill:#EC0000;}
	.st1{fill:#FFFFFF;}
</style>
<g>
	<polygon class="st0" points="0,0 110,0 110,110 0,110 0,0 	"/>
	<path class="st1" d="M56,21.2c0,7.2,12.3,15.2,12.3,23.4c0,0,0,0.8-0.3,1.6c11.5,2.4,19.6,8,19.6,14.6C87.5,69.7,73,77,55.1,77
		c-0.1,0.1-0.2,0-0.3,0c-17.8,0-32.2-7-32.2-15.8c0-6.6,8.8-11.9,19.4-14.8c0,3.6,12.1,15.2,12.4,19.8c0,0,0.1,0.4,0.1,0.9
		c0,0.2,0,0.5-0.1,0.7c2.6-1.4,2.6-5.6,2.6-5.6c0-10.1-11.7-14.6-11.7-24.5c0-3.9,1.8-6.7,3.5-7.5v2.8c0,7.2,12.7,15.3,12.7,21.9
		v2.2c3-1.1,3-6.5,3-6.5c0-9.1-11.8-14.1-11.8-24.5c0-3.9,1.8-6.7,3.5-7.5V21.2L56,21.2z"/>
</g>
</svg>
