<?xml version="1.0" encoding="utf-8"?>
<!-- Generator: Adobe Illustrator 18.1.1, SVG Export Plug-In . SVG Version: 6.00 Build 0)  -->
<svg version="1.1" id="Layer_1" xmlns="http://www.w3.org/2000/svg" xmlns:xlink="http://www.w3.org/1999/xlink" x="0px" y="0px"
	 viewBox="0 0 375 328" enable-background="new 0 0 375 328" xml:space="preserve">
<rect x="0" y="0" fill="#FFFFFF" width="375" height="328"/>
<g>
	<path fill="#333333" d="M4.6,151.7h1v12h-1V151.7z M5.7,157.4l5-5.7h1.2l-5,5.7l5.3,6.3H11L5.7,157.4z"/>
	<path fill="#333333" d="M13.7,152.5c0-0.4,0.3-0.7,0.7-0.7c0.4,0,0.7,0.3,0.7,0.7c0,0.4-0.3,0.7-0.7,0.7
		C14,153.3,13.7,152.9,13.7,152.5z M13.9,155.1h1v8.6h-1V155.1z"/>
	<path fill="#333333" d="M17.3,159.3c0-2.4,1.4-4.4,3.7-4.4c2.2,0,3.4,1.8,3.2,4.2h-5.9c0,0.1,0,0.1,0,0.2c0,2,0.8,3.8,2.9,3.8
		c1.1,0,2-0.5,2.5-0.8l0.4,0.7c-0.5,0.4-1.5,0.9-2.9,0.9C18.5,163.8,17.3,161.7,17.3,159.3z M23.2,158.3c0-1.3-0.7-2.6-2.3-2.6
		c-1.5,0-2.4,1.2-2.6,2.6H23.2z"/>
	<path fill="#333333" d="M25.4,155.1h1l2.7,7.4l2.7-7.4h1l-3.2,8.6h-0.9L25.4,155.1z"/>
	<path fill="#333333" d="M34.4,152.5c0-0.4,0.3-0.7,0.7-0.7c0.4,0,0.7,0.3,0.7,0.7c0,0.4-0.3,0.7-0.7,0.7
		C34.8,153.3,34.4,152.9,34.4,152.5z M34.7,155.1h1v8.6h-1V155.1z"/>
	<path fill="#333333" d="M39.2,161.7v-5.9h-1.4v-0.8h1.4v-2.4h0.9v2.4h2.2v0.8h-2.2v5.8c0,0.9,0.3,1.4,1,1.4c0.5,0,1-0.3,1.2-0.4
		l0.4,0.7c-0.3,0.2-0.8,0.5-1.7,0.5C39.8,163.8,39.2,163.1,39.2,161.7z"/>
	<path fill="#333333" d="M49.2,151.7h1v11.1H55v0.8h-5.8V151.7z"/>
	<path fill="#333333" d="M56.8,152.5c0-0.4,0.3-0.7,0.7-0.7c0.4,0,0.7,0.3,0.7,0.7c0,0.4-0.3,0.7-0.7,0.7
		C57.2,153.3,56.8,152.9,56.8,152.5z M57.1,155.1h1v8.6h-1V155.1z"/>
	<path fill="#333333" d="M60.6,165.5c0-1,0.7-1.9,1.5-2.3c-0.5-0.2-0.8-0.6-0.8-1.2c0-0.6,0.4-1.1,0.9-1.3c-1-0.5-1.5-1.5-1.5-2.7
		c0-1.8,1.3-3.1,3.3-3.1c0.4,0,0.9,0.1,1.2,0.2h2.7v0.8h-1.5c0.5,0.5,0.9,1.3,0.9,2.1c0,1.8-1.3,3.1-3.3,3.1c-0.4,0-0.7,0-1-0.1
		c-0.5,0.2-0.7,0.5-0.7,0.8c0,0.7,0.8,0.8,1.8,0.8c1.8,0.1,3.9,0.1,3.9,2.4c0,1.7-1.9,2.8-4.1,2.8C61.9,167.8,60.6,167,60.6,165.5z
		 M67,165.1c0-1.5-1.3-1.6-2.5-1.6c-0.6,0-1.2-0.1-1.6-0.1c-0.9,0.5-1.3,1.2-1.3,2c0,1,0.8,1.7,2.4,1.7
		C65.7,167.1,67,166.3,67,165.1z M66.2,158c0-1.3-0.9-2.3-2.3-2.3c-1.4,0-2.3,1-2.3,2.3c0,1.3,0.9,2.3,2.3,2.3S66.2,159.2,66.2,158z
		"/>
	<path fill="#333333" d="M70,150.7H71v5.7c0.4-0.6,1.4-1.6,2.8-1.6c1.8,0,2.5,1.2,2.5,2.7v6.1h-0.9v-5.9c0-1.3-0.5-2.1-1.8-2.1
		c-1.3,0-2.3,1.2-2.6,1.7v6.2H70V150.7z"/>
	<path fill="#333333" d="M79.7,161.7v-5.9h-1.4v-0.8h1.4v-2.4h0.9v2.4h2.2v0.8h-2.2v5.8c0,0.9,0.3,1.4,1,1.4c0.5,0,1-0.3,1.2-0.4
		l0.4,0.7c-0.3,0.2-0.8,0.5-1.7,0.5C80.3,163.8,79.7,163.1,79.7,161.7z"/>
	<path fill="#333333" d="M4.5,181.7h1.4v12H4.5V181.7z M5.9,187.4l4.8-5.7h1.6l-4.8,5.6l5.1,6.3H11L5.9,187.4z"/>
	<path fill="#333333" d="M14,182.4c0-0.5,0.4-1,1-1c0.5,0,1,0.4,1,1c0,0.5-0.4,1-1,1C14.4,183.4,14,182.9,14,182.4z M14.3,185h1.3
		v8.6h-1.3V185z"/>
	<path fill="#333333" d="M17.9,189.3c0-2.5,1.6-4.5,3.9-4.5c2.1,0,3.4,1.5,3.4,3.9c0,0.2,0,0.4,0,0.6h-5.8c0,1.8,0.8,3.4,2.7,3.4
		c1.2,0,2-0.5,2.4-0.8l0.5,1c-0.4,0.3-1.4,0.9-3,0.9C19.3,193.8,17.9,191.8,17.9,189.3z M23.9,188.2c0-1.2-0.6-2.3-2.1-2.3
		c-1.4,0-2.1,1-2.4,2.3H23.9z"/>
	<path fill="#333333" d="M26.3,185h1.4l2.5,6.9h0l2.4-6.9H34l-3.2,8.6h-1.2L26.3,185z"/>
	<path fill="#333333" d="M35.6,182.4c0-0.5,0.4-1,1-1c0.5,0,1,0.4,1,1c0,0.5-0.4,1-1,1C36,183.4,35.6,182.9,35.6,182.4z M35.9,185
		h1.3v8.6h-1.3V185z"/>
	<path fill="#333333" d="M40.7,191.6V186h-1.4v-1h1.4v-2.5H42v2.5h2.2v1H42v5.4c0,0.9,0.3,1.3,1,1.3c0.5,0,1-0.3,1.2-0.4l0.5,1
		c-0.3,0.2-0.9,0.5-1.8,0.5C41.4,193.8,40.7,193,40.7,191.6z"/>
	<path fill="#333333" d="M50.9,181.7h3.3c2.5,0,4,1.2,4,3.2c0,2-1.5,3-3.4,3.1v0c0.2,0.2,0.6,0.5,1.3,1.5l3,4.1h-1.7l-2.4-3.4
		c-1.4-2-1.6-2.1-2.4-2.1h-0.2v5.5h-1.4V181.7z M54.1,187c1.8,0,2.6-0.8,2.6-2.1c0-1.3-0.9-2-2.7-2h-1.7v4.1H54.1z"/>
	<path fill="#333333" d="M59.9,189.3c0-2.5,1.6-4.5,3.9-4.5c2.1,0,3.4,1.5,3.4,3.9c0,0.2,0,0.4,0,0.6h-5.8c0,1.8,0.8,3.4,2.7,3.4
		c1.2,0,2-0.5,2.4-0.8l0.5,1c-0.4,0.3-1.4,0.9-3,0.9C61.2,193.8,59.9,191.8,59.9,189.3z M65.8,188.2c0-1.2-0.6-2.3-2.1-2.3
		c-1.4,0-2.1,1-2.4,2.3H65.8z"/>
	<path fill="#333333" d="M68.8,195.5c0-1,0.6-1.7,1.5-2.2c-0.5-0.2-0.8-0.6-0.8-1.3c0-0.6,0.4-1.1,0.9-1.3c-1-0.5-1.5-1.5-1.5-2.7
		c0-1.8,1.3-3.2,3.5-3.2c0.5,0,0.9,0.1,1.3,0.2h2.8v1h-1.3c0.4,0.5,0.6,1.2,0.6,1.9c0,1.8-1.3,3.2-3.5,3.2c-0.3,0-0.6,0-1-0.1
		c-0.4,0.2-0.6,0.4-0.6,0.7c0,0.5,0.5,0.6,1.2,0.7c1.9,0.1,4.5-0.1,4.5,2.6c0,1.8-2,2.9-4.2,2.9C70.3,197.9,68.8,197.2,68.8,195.5z
		 M75.2,195.1c0-1.4-1.2-1.4-2.2-1.4c-0.6,0-1.2-0.1-1.7-0.1c-0.8,0.5-1.2,1.1-1.2,1.8c0,0.8,0.7,1.5,2.2,1.5
		C74,196.9,75.2,196.2,75.2,195.1z M74.4,187.9c0-1.2-0.8-2.1-2.1-2.1c-1.3,0-2.1,0.9-2.1,2.1c0,1.2,0.8,2.1,2.1,2.1
		C73.6,190,74.4,189.2,74.4,187.9z"/>
	<path fill="#333333" d="M78.3,191.2V185h1.3v5.9c0,1.1,0.4,1.8,1.5,1.8c1.3,0,2.3-1.3,2.5-1.6V185H85v6.8c0,0.7,0.1,1.5,0.2,1.8
		h-1.3c0-0.2-0.1-0.8-0.1-1.3c-0.4,0.5-1.3,1.5-2.8,1.5C79,193.8,78.3,192.6,78.3,191.2z"/>
	<path fill="#333333" d="M88,180.7h1.3v13H88V180.7z"/>
	<path fill="#333333" d="M91.6,191.5c0-2.3,2.5-3,4.6-3h0.4v-0.8c0-1.3-0.5-1.8-1.7-1.8c-0.8,0-1.5,0.3-2.2,0.9l-0.7-0.9
		c0.8-0.8,1.8-1.2,3-1.2c1.9,0,3,0.9,3,2.9v4c0,0.9,0.1,1.5,0.2,2h-1.3c-0.1-0.2-0.1-0.8-0.1-1c-0.6,0.7-1.5,1.3-2.6,1.3
		C92.6,193.8,91.6,192.9,91.6,191.5z M96.6,191.5v-1.9h-0.4c-1.9,0-3.2,0.5-3.2,2c0,0.9,0.8,1.2,1.3,1.2
		C95.2,192.7,96,192.2,96.6,191.5z"/>
	<path fill="#333333" d="M100.8,185h1.3v1.3c0.3-0.6,1.1-1.6,2.3-1.6c0.5,0,0.8,0.1,0.9,0.2l-0.3,1.3c-0.1-0.1-0.3-0.1-0.8-0.1
		c-1.3,0-2,1.5-2.1,1.8v5.8h-1.3V185z"/>
	<path fill="#333333" d="M4.4,211.7h2v5.5l4.4-5.5h2.3l-4.6,5.6l4.9,6.4h-2.4l-4.5-6v6h-2V211.7z"/>
	<path fill="#333333" d="M14.4,212.4c0-0.7,0.5-1.2,1.2-1.2c0.7,0,1.3,0.6,1.3,1.2c0,0.7-0.5,1.2-1.3,1.2
		C15,213.6,14.4,213,14.4,212.4z M14.7,214.9h1.9v8.7h-1.9V214.9z"/>
	<path fill="#333333" d="M18.7,219.2c0-2.7,1.7-4.5,4.1-4.5c2.3,0,3.6,1.5,3.6,4.1c0,0.2,0,0.5,0,0.8h-5.7c0.1,1.5,0.8,2.8,2.5,2.8
		c1.2,0,1.9-0.5,2.3-0.7l0.7,1.3c-0.5,0.3-1.4,0.9-3.1,0.9C20.2,223.8,18.7,221.9,18.7,219.2z M24.6,218.2c0-1.1-0.5-2-1.8-2
		c-1.2,0-1.8,0.8-2,2H24.6z"/>
	<path fill="#333333" d="M27.4,214.9h2.1l2.1,6.3h0l2.1-6.3h2l-3.2,8.7h-1.8L27.4,214.9z"/>
	<path fill="#333333" d="M37,212.4c0-0.7,0.5-1.2,1.2-1.2c0.7,0,1.3,0.6,1.3,1.2c0,0.7-0.5,1.2-1.3,1.2C37.6,213.6,37,213,37,212.4z
		 M37.3,214.9h1.9v8.7h-1.9V214.9z"/>
	<path fill="#333333" d="M42.5,221.3v-4.9h-1.4v-1.5h1.4v-2.5h1.9v2.5h2.1v1.5h-2.1v4.6c0,0.9,0.2,1.3,0.9,1.3c0.5,0,1-0.3,1.2-0.4
		l0.5,1.4c-0.3,0.2-1,0.5-2,0.5C43.2,223.8,42.5,222.9,42.5,221.3z"/>
	<path fill="#333333" d="M53.6,211.7h2l2.7,7.7c0.3,0.9,0.5,1.6,0.7,2.1h0c0.1-0.5,0.4-1.2,0.7-2.1l2.7-7.7h2l1.6,12h-2.1l-0.9-6.9
		c-0.1-0.9-0.2-1.4-0.2-1.7h0c-0.1,0.3-0.3,0.9-0.5,1.7l-2.4,6.9h-2l-2.4-6.9c-0.3-0.8-0.4-1.4-0.5-1.7h0c0,0.3-0.1,0.9-0.2,1.7
		l-0.8,6.9h-1.9L53.6,211.7z"/>
	<path fill="#333333" d="M67.3,219.2c0-2.7,1.7-4.5,4.1-4.5c2.3,0,3.6,1.5,3.6,4.1c0,0.2,0,0.5,0,0.8h-5.7c0.1,1.5,0.8,2.8,2.5,2.8
		c1.2,0,1.9-0.5,2.3-0.7l0.7,1.3c-0.5,0.3-1.4,0.9-3.1,0.9C68.8,223.8,67.3,221.9,67.3,219.2z M73.1,218.2c0-1.1-0.5-2-1.8-2
		c-1.2,0-1.8,0.8-2,2H73.1z"/>
	<path fill="#333333" d="M76.4,219.3c0-2.8,1.7-4.6,3.9-4.6c0.9,0,1.6,0.3,2.1,0.7v-4.7h1.9v10.8c0,0.9,0.1,1.7,0.3,2.2h-1.9
		c-0.1-0.2-0.2-0.7-0.2-1c-0.6,0.7-1.4,1.2-2.5,1.2C77.8,223.8,76.4,222.2,76.4,219.3z M82.3,221.2v-4.3c-0.4-0.4-1-0.7-1.8-0.7
		c-1.4,0-2.2,1.2-2.2,3c0,1.8,0.6,3,2.1,3C81.2,222.3,81.9,221.8,82.3,221.2z"/>
	<path fill="#333333" d="M86.7,212.4c0-0.7,0.5-1.2,1.2-1.2c0.7,0,1.3,0.6,1.3,1.2c0,0.7-0.5,1.2-1.3,1.2
		C87.2,213.6,86.7,213,86.7,212.4z M86.9,214.9h1.9v8.7h-1.9V214.9z"/>
	<path fill="#333333" d="M91.5,221.1v-6.2h1.9v5.8c0,1,0.3,1.5,1.3,1.5c1.1,0,1.9-1.1,2.1-1.3v-6h1.9v6.5c0,1,0.1,1.8,0.2,2.2h-1.9
		c-0.1-0.2-0.1-0.8-0.2-1.2c-0.4,0.6-1.3,1.4-2.8,1.4C92.2,223.8,91.5,222.6,91.5,221.1z"/>
	<path fill="#333333" d="M101.4,214.9h1.9v1.2c0.4-0.5,1.2-1.4,2.6-1.4c1.2,0,1.9,0.6,2.2,1.4c0.7-0.8,1.5-1.4,2.8-1.4
		c1.8,0,2.5,1.2,2.5,2.8v6.2h-1.9v-5.8c0-1-0.3-1.5-1.2-1.5c-0.9,0-1.6,0.7-1.9,1.2v6.1h-1.9v-5.8c0-1-0.3-1.5-1.2-1.5
		c-1,0-1.8,1.1-1.9,1.3v6h-1.9V214.9z"/>
	<path fill="#333333" d="M4.2,241.7h2.5v5.2l4.1-5.2h2.8l-4.4,5.6l4.6,6.4h-3l-4.1-5.7v5.7H4.2V241.7z"/>
	<path fill="#333333" d="M14.8,242.3c0-0.8,0.6-1.4,1.5-1.4c0.8,0,1.5,0.6,1.5,1.4c0,0.8-0.6,1.4-1.5,1.4
		C15.4,243.7,14.8,243.1,14.8,242.3z M15.1,244.9h2.4v8.8h-2.4V244.9z"/>
	<path fill="#333333" d="M19.3,249.2c0-2.8,1.9-4.6,4.3-4.6c2.5,0,3.8,1.6,3.8,4.3c0,0.3,0,0.5,0,0.8h-5.5c0.1,1.3,0.8,2.3,2.2,2.3
		c1.2,0,1.9-0.4,2.3-0.6l0.8,1.5c-0.6,0.3-1.5,0.8-3.3,0.8C21,253.8,19.3,252,19.3,249.2z M25.2,248.2c0-1-0.4-1.8-1.5-1.8
		c-1,0-1.6,0.7-1.8,1.8H25.2z"/>
	<path fill="#333333" d="M28.1,244.9h2.6l1.8,5.8h0l1.9-5.8h2.4l-3.2,8.8h-2.2L28.1,244.9z"/>
	<path fill="#333333" d="M38.2,242.3c0-0.8,0.6-1.4,1.5-1.4s1.5,0.6,1.5,1.4c0,0.8-0.6,1.4-1.5,1.4S38.2,243.1,38.2,242.3z
		 M38.4,244.9h2.4v8.8h-2.4V244.9z"/>
	<path fill="#333333" d="M43.9,251.1v-4.5h-1.4v-1.8h1.4v-2.5h2.4v2.5h2.1v1.8h-2.1v4c0,0.9,0.2,1.2,0.9,1.2c0.5,0,1-0.2,1.2-0.3
		l0.6,1.8c-0.4,0.2-1.1,0.5-2.2,0.5C44.6,253.8,43.9,252.8,43.9,251.1z"/>
	<path fill="#333333" d="M54.1,241.7h4c2.2,0,4.1,0.7,4.1,3c0,1.5-0.8,2.4-2.1,2.8v0c1.4,0.2,2.6,1.2,2.6,2.9c0,2.4-2,3.3-4.7,3.3
		h-3.9V241.7z M57.7,246.6c1.4,0,2-0.5,2-1.5c0-1-0.6-1.4-1.9-1.4h-1.2v3H57.7z M57.9,251.7c1.5,0,2.2-0.4,2.2-1.6
		c0-1.1-0.6-1.7-2.1-1.7h-1.4v3.3H57.9z"/>
	<path fill="#333333" d="M64,249.3c0-2.2,1.3-4.6,4.4-4.6c3.1,0,4.4,2.3,4.4,4.6c0,2.2-1.3,4.6-4.4,4.6
		C65.3,253.8,64,251.5,64,249.3z M70.2,249.3c0-1.6-0.6-2.8-1.9-2.8c-1.3,0-1.8,1.1-1.8,2.8c0,1.6,0.5,2.8,1.9,2.8
		C69.7,252,70.2,250.9,70.2,249.3z"/>
	<path fill="#333333" d="M74.6,240.7H77v13h-2.4V240.7z"/>
	<path fill="#333333" d="M78.8,249.3c0-2.8,1.7-4.6,3.9-4.6c0.9,0,1.6,0.3,2,0.6v-4.6h2.4v10.5c0,1.1,0.1,1.9,0.3,2.5h-2.4
		c-0.1-0.2-0.2-0.7-0.2-1c-0.6,0.7-1.4,1.2-2.5,1.2C80.2,253.9,78.8,252.2,78.8,249.3z M84.8,251.1v-4c-0.4-0.3-0.8-0.6-1.5-0.6
		c-1.2,0-1.9,1-1.9,2.8c0,1.7,0.6,2.7,1.8,2.7C83.8,251.9,84.4,251.5,84.8,251.1z"/>
	<path fill="#333333" d="M4.1,271.5h1.6v5.8h0.1c0.3-0.5,0.6-0.9,1-1.3l3.7-4.6h1.9L8,276.7l4.7,7h-1.9l-4-6L5.7,279v4.6H4.1V271.5z
		"/>
	<path fill="#333333" d="M15.8,272.5c0,0.5-0.4,1-1,1c-0.6,0-1-0.4-1-1c0-0.6,0.4-1,1-1C15.4,271.5,15.8,271.9,15.8,272.5z
		 M14,283.6v-8.7h1.6v8.7H14z"/>
	<path fill="#333333" d="M19.1,279.6c0,2.1,1.4,3,3,3c1.1,0,1.8-0.2,2.4-0.5l0.3,1.1c-0.6,0.3-1.5,0.5-2.9,0.5
		c-2.7,0-4.3-1.8-4.3-4.4c0-2.6,1.5-4.7,4.1-4.7c2.8,0,3.6,2.5,3.6,4.1c0,0.3,0,0.6-0.1,0.7H19.1z M23.7,278.4c0-1-0.4-2.6-2.2-2.6
		c-1.6,0-2.3,1.5-2.4,2.6H23.7z"/>
	<path fill="#333333" d="M27.8,274.9l1.7,4.9c0.3,0.8,0.5,1.5,0.7,2.2h0.1c0.2-0.7,0.4-1.4,0.7-2.2l1.7-4.9h1.7l-3.4,8.7h-1.5
		l-3.3-8.7H27.8z"/>
	<path fill="#333333" d="M37.6,272.5c0,0.5-0.4,1-1,1c-0.6,0-1-0.4-1-1c0-0.6,0.4-1,1-1C37.3,271.5,37.6,271.9,37.6,272.5z
		 M35.9,283.6v-8.7h1.6v8.7H35.9z"/>
	<path fill="#333333" d="M42,272.4v2.5h2.3v1.2H42v4.7c0,1.1,0.3,1.7,1.2,1.7c0.4,0,0.7-0.1,0.9-0.1l0.1,1.2
		c-0.3,0.1-0.8,0.2-1.4,0.2c-0.7,0-1.3-0.2-1.7-0.7c-0.4-0.5-0.6-1.2-0.6-2.3v-4.7h-1.3v-1.2h1.3v-2.1L42,272.4z"/>
	<path fill="#333333" d="M56.2,277.9h-4.7v4.4h5.3v1.3h-6.8v-12.1h6.5v1.3h-5v3.8h4.7V277.9z"/>
	<path fill="#333333" d="M59.5,274.9l1.2,1.9c0.3,0.5,0.6,0.9,0.9,1.4h0.1c0.3-0.5,0.6-1,0.9-1.4l1.2-1.9h1.7l-3,4.2l3.1,4.5h-1.8
		l-1.3-2c-0.3-0.5-0.6-1-0.9-1.5h0c-0.3,0.5-0.6,1-0.9,1.5l-1.3,2h-1.7l3.1-4.4l-3-4.3H59.5z"/>
	<path fill="#333333" d="M69.2,272.4v2.5h2.3v1.2h-2.3v4.7c0,1.1,0.3,1.7,1.2,1.7c0.4,0,0.7-0.1,0.9-0.1l0.1,1.2
		c-0.3,0.1-0.8,0.2-1.4,0.2c-0.7,0-1.3-0.2-1.7-0.7c-0.4-0.5-0.6-1.2-0.6-2.3v-4.7h-1.3v-1.2h1.3v-2.1L69.2,272.4z"/>
	<path fill="#333333" d="M73.2,277.6c0-1,0-1.9-0.1-2.7h1.4l0.1,1.7h0.1c0.4-1.2,1.3-1.9,2.4-1.9c0.2,0,0.3,0,0.4,0.1v1.5
		c-0.2,0-0.3-0.1-0.5-0.1c-1.1,0-1.9,0.8-2.1,2c0,0.2-0.1,0.5-0.1,0.7v4.6h-1.6V277.6z"/>
	<path fill="#333333" d="M83.9,283.6l-0.1-1.1h-0.1c-0.5,0.7-1.4,1.3-2.7,1.3c-1.8,0-2.7-1.2-2.7-2.5c0-2.1,1.9-3.3,5.2-3.2v-0.2
		c0-0.7-0.2-2-2-2c-0.8,0-1.7,0.3-2.3,0.6l-0.4-1c0.7-0.5,1.8-0.8,2.9-0.8c2.7,0,3.3,1.8,3.3,3.6v3.3c0,0.8,0,1.5,0.1,2.1H83.9z
		 M83.6,279.2c-1.7,0-3.7,0.3-3.7,2c0,1,0.7,1.5,1.5,1.5c1.1,0,1.9-0.7,2.1-1.5c0.1-0.2,0.1-0.3,0.1-0.5V279.2z"/>
	<path fill="#333333" d="M91.6,271.7c0.7-0.1,1.8-0.3,2.9-0.3c1.6,0,2.6,0.3,3.3,0.9c0.6,0.5,1,1.2,1,2.1c0,1.2-0.8,2.2-2.1,2.7v0
		c1.2,0.3,2.5,1.2,2.5,3c0,1-0.4,1.8-1,2.4c-0.8,0.8-2.2,1.1-4.2,1.1c-1.1,0-1.9-0.1-2.4-0.1V271.7z M93.1,276.6h1.4
		c1.7,0,2.6-0.9,2.6-2c0-1.4-1.1-2-2.7-2c-0.7,0-1.1,0.1-1.4,0.1V276.6z M93.1,282.4c0.3,0.1,0.8,0.1,1.3,0.1c1.6,0,3.1-0.6,3.1-2.4
		c0-1.7-1.4-2.3-3.1-2.3h-1.3V282.4z"/>
	<path fill="#333333" d="M109.2,279.2c0,3.2-2.2,4.6-4.3,4.6c-2.4,0-4.2-1.7-4.2-4.5c0-2.9,1.9-4.6,4.3-4.6
		C107.5,274.7,109.2,276.5,109.2,279.2z M102.3,279.3c0,1.9,1.1,3.3,2.6,3.3c1.5,0,2.6-1.4,2.6-3.4c0-1.5-0.7-3.3-2.6-3.3
		S102.3,277.6,102.3,279.3z"/>
	<path fill="#333333" d="M111.2,270.9h1.6v12.8h-1.6V270.9z"/>
	<path fill="#333333" d="M123,270.9v10.5c0,0.8,0,1.7,0.1,2.2h-1.4l-0.1-1.5h0c-0.5,1-1.5,1.7-3,1.7c-2.1,0-3.7-1.8-3.7-4.4
		c0-2.9,1.8-4.7,3.9-4.7c1.3,0,2.2,0.6,2.6,1.3h0v-5.2H123z M121.4,278.5c0-0.2,0-0.5-0.1-0.7c-0.2-1-1.1-1.8-2.3-1.8
		c-1.6,0-2.6,1.4-2.6,3.4c0,1.8,0.9,3.2,2.6,3.2c1.1,0,2-0.7,2.3-1.9c0.1-0.2,0.1-0.4,0.1-0.7V278.5z"/>
	<path fill="#333333" d="M4,301.7h3.4v4.7l3.5-4.7h3.7l-4.1,5.5l4.2,6.5h-4l-3.3-5.2v5.2H4V301.7z"/>
	<path fill="#333333" d="M15.5,302.2c0-1,0.8-1.8,1.9-1.8c1.1,0,1.9,0.8,1.9,1.8c0,1-0.8,1.8-1.9,1.8
		C16.2,304,15.5,303.2,15.5,302.2z M15.7,304.8H19v8.9h-3.3V304.8z"/>
	<path fill="#333333" d="M20.5,309.2c0-3,2.1-4.6,4.7-4.6c2.8,0,4.2,1.6,4.2,4.7c0,0.3,0,0.6-0.1,1h-5.3c0.2,0.9,0.8,1.3,1.9,1.3
		c1.2,0,1.7-0.3,2.2-0.5l1,1.9c-0.7,0.4-1.5,0.8-3.5,0.8C22.3,313.8,20.5,312.1,20.5,309.2z M26.2,308.1c0-0.8-0.3-1.4-1.1-1.4
		c-0.7,0-1.1,0.4-1.3,1.4H26.2z"/>
	<path fill="#333333" d="M29.6,304.8h3.5l1.3,4.9h0l1.4-4.9h3.3l-3.3,8.9h-3L29.6,304.8z"/>
	<path fill="#333333" d="M40.2,302.2c0-1,0.8-1.8,1.9-1.8c1.1,0,1.9,0.8,1.9,1.8c0,1-0.8,1.8-1.9,1.8
		C40.9,304,40.2,303.2,40.2,302.2z M40.4,304.8h3.3v8.9h-3.3V304.8z"/>
	<path fill="#333333" d="M46.4,310.8v-3.6H45v-2.4h1.4v-2.6h3.2v2.6h2v2.4h-2v2.9c0,0.9,0.2,1.2,0.8,1.2c0.5,0,0.9-0.2,1.1-0.3
		l0.6,2.4c-0.4,0.2-1.3,0.5-2.5,0.5C47.1,313.8,46.4,312.6,46.4,310.8z"/>
	<path fill="#333333" d="M56.6,301.7h4.7c2.2,0,4.3,0.6,4.3,3c0,1.7-0.8,2.5-2.1,2.8v0c1.4,0.2,2.6,1.1,2.6,2.8
		c0,2.4-2.1,3.3-4.8,3.3h-4.6V301.7z M60.8,306.4c1,0,1.4-0.4,1.4-1.1c0-0.7-0.4-1.1-1.4-1.1H60v2.2H60.8z M61.1,311.1
		c0.9,0,1.5-0.3,1.5-1.2c0-0.8-0.5-1.2-1.4-1.2H60v2.3H61.1z"/>
	<path fill="#333333" d="M67.7,300.7h3.2v13h-3.2V300.7z"/>
	<path fill="#333333" d="M72.5,311.3c0-2.3,2.2-3.2,4.7-3.2h0.3v-0.3c0-0.5-0.2-0.8-1.2-0.8c-1.1,0-1.9,0.5-2.2,0.8l-1.3-1.9
		c0.6-0.5,1.9-1.3,3.9-1.3c2.8,0,4,1,4,3.5v2.5c0,1.4,0.1,2.4,0.3,3.1h-3.2c-0.1-0.2-0.2-0.6-0.2-0.9c-0.4,0.5-1.2,1.1-2.4,1.1
		C73.7,313.8,72.5,313,72.5,311.3z M77.4,311.2v-1.3h-0.3c-1,0-1.7,0.3-1.7,1c0,0.4,0.3,0.7,0.9,0.7S77.2,311.4,77.4,311.2z"/>
	<path fill="#333333" d="M81.9,309.2c0-3,2-4.7,5.1-4.7c1.4,0,2.3,0.3,2.7,0.6l-0.9,2.1c-0.4-0.2-0.9-0.4-1.7-0.4
		c-1.1,0-1.8,0.8-1.8,2.2c0,1.5,0.6,2.3,1.9,2.3c0.9,0,1.4-0.3,1.7-0.4l0.9,2.1c-0.4,0.3-1.2,0.7-2.9,0.7
		C83.9,313.8,81.9,312.2,81.9,309.2z"/>
	<path fill="#333333" d="M90.9,300.7h3.2v7.2l2.3-3.1h3.5l-3,4l3,4.9h-3.7l-2.1-3.6v3.6h-3.2V300.7z"/>
</g>
<g>
	<path fill="#333333" d="M2.6,3.6h14.9v52.6L61.1,3.6h17.3l-43.8,52l46.6,58.6H62.7L17.6,57.1v57.1H2.6V3.6z"/>
	<path fill="#333333" d="M91.1,10.5c0-5.5,4.3-9.8,9.8-9.8s9.8,4.3,9.8,9.8c0,5.3-4.3,9.8-9.8,9.8S91.1,15.8,91.1,10.5z M93.8,34.4
		H108v79.8H93.8V34.4z"/>
	<path fill="#333333" d="M123.1,73.7c0-23.7,15.3-41.3,36.7-41.3c20.3,0,32,14.1,32,36.5c0,2-0.2,4-0.3,6.1h-53.3
		c0.5,15.9,7.1,29.5,24.2,29.5c11,0,18.3-4.8,21.7-6.8l5.5,10.3c-4.3,2.8-13.1,8.1-27.9,8.1C136.2,116.2,123.1,97.8,123.1,73.7z
		 M177.7,64.2c-0.3-10.8-5.1-20.4-18.3-20.4c-12.1,0-18.8,8.5-20.8,20.4H177.7z"/>
	<path fill="#333333" d="M195.9,34.4h15.3l21.6,61.6h0.3l21.2-61.6h14.4l-29.4,79.8h-13.3L195.9,34.4z"/>
	<path fill="#333333" d="M277.9,10.5c0-5.5,4.3-9.8,9.8-9.8c5.5,0,9.8,4.3,9.8,9.8c0,5.3-4.3,9.8-9.8,9.8
		C282.2,20.2,277.9,15.8,277.9,10.5z M280.5,34.4h14.3v79.8h-14.3V34.4z"/>
	<path fill="#333333" d="M320,94.3v-49h-13.1v-11H320V11.5H334v22.9h19.9v11H334v47.1c0,8,2.3,11.8,9.1,11.8c5,0,9.3-2.3,10.8-3.3
		l4.5,10.5c-2.5,1.7-8.5,4.8-17.4,4.8C326.5,116.2,320,108.1,320,94.3z"/>
</g>
<g>
	<path fill="#333333" d="M190.6,151.7h1l-2.2,12h-1L190.6,151.7z M190.8,157.4l5.9-5.7h1.2l-6,5.8l4.3,6.2h-1.2L190.8,157.4z"/>
	<path fill="#333333" d="M199.2,155.1h0.9l-1.6,8.6h-0.9L199.2,155.1z M199.3,152.6c0-0.4,0.4-0.8,0.8-0.8s0.7,0.3,0.7,0.7
		c0,0.4-0.3,0.8-0.8,0.8C199.7,153.3,199.3,152.9,199.3,152.6z"/>
	<path fill="#333333" d="M201.5,160.6c0-3,1.9-5.8,4.5-5.8c1.2,0,2.1,0.6,2.1,1.8c0,2.1-2.8,3-5.6,3.4c0,0.2,0,0.3,0,0.5
		c0,1.5,0.6,2.5,1.8,2.5c1,0,1.8-0.5,2.3-1.1l0.5,0.6c-0.6,0.6-1.5,1.3-3,1.3C202.3,163.8,201.5,162.4,201.5,160.6z M207.1,156.8
		c0-0.7-0.5-1.1-1.3-1.1c-1.6,0-2.9,1.7-3.3,3.7C205,159,207.1,158.2,207.1,156.8z"/>
	<path fill="#333333" d="M209.3,155.1h0.9l1.1,7.4l4-7.4h1l-4.8,8.6h-0.9L209.3,155.1z"/>
	<path fill="#333333" d="M218.1,155.1h0.9l-1.6,8.6h-0.9L218.1,155.1z M218.2,152.6c0-0.4,0.4-0.8,0.8-0.8c0.4,0,0.7,0.3,0.7,0.7
		c0,0.4-0.3,0.8-0.8,0.8C218.6,153.3,218.2,152.9,218.2,152.6z"/>
	<path fill="#333333" d="M221.1,162.4c0-0.2,0-0.5,0.1-0.7l1.1-5.8h-1.5l0.1-0.8h1.5l0.5-2.4l1-0.2l-0.5,2.6h2.1l-0.1,0.8h-2.1
		l-1,5.7c-0.1,0.3-0.1,0.6-0.1,0.8c0,0.5,0.2,0.7,0.6,0.7c0.6,0,1.2-0.5,1.6-0.9l0.5,0.6c-0.5,0.5-1.3,1-2.2,1
		C221.5,163.8,221.1,163.3,221.1,162.4z"/>
	<path fill="#333333" d="M232.8,151.7h1l-2,11.1h4.7l-0.1,0.8h-5.7L232.8,151.7z"/>
	<path fill="#333333" d="M239.9,155.1h0.9l-1.6,8.6h-0.9L239.9,155.1z M240,152.6c0-0.4,0.4-0.8,0.8-0.8s0.7,0.3,0.7,0.7
		c0,0.4-0.3,0.8-0.8,0.8C240.4,153.3,240,152.9,240,152.6z"/>
	<path fill="#333333" d="M241.4,167l0.5-0.7c0.4,0.3,1,0.7,2,0.7c1.9,0,2.8-1.3,3.1-3.3c0.3-1.4,0.5-2.4,0.7-3.2h0
		c-0.6,1.5-1.8,3.5-3.5,3.5c-1.4,0-2-1.1-2-2.6c0-3.2,1.7-6.4,5-6.4c0.8,0,1.9,0.1,2.3,0.2l-1.6,8.6c-0.5,2.7-1.7,4.1-4.2,4.1
		C242.7,167.8,241.9,167.3,241.4,167z M248.3,156.9l0.2-1.1c-0.3-0.1-0.9-0.2-1.5-0.2c-2.5,0-3.8,2.9-3.8,5.4c0,1.1,0.4,1.9,1.2,1.9
		C246.3,163,247.9,159.3,248.3,156.9z"/>
	<path fill="#333333" d="M253.2,150.7h0.9l-0.8,4.4c-0.3,1.5-0.5,2.6-0.7,3.4h0c0.5-1.2,1.7-3.6,3.8-3.6c1.2,0,1.8,0.8,1.8,2
		c0,0.3,0,0.5-0.1,0.8l-1.1,6h-0.9l1.1-5.9c0.1-0.3,0.1-0.6,0.1-0.8c0-0.9-0.4-1.3-1.1-1.3c-1.8,0-3.5,2.9-4.2,6.7l-0.2,1.2h-0.9
		L253.2,150.7z"/>
	<path fill="#333333" d="M260.6,162.4c0-0.2,0-0.5,0.1-0.7l1.1-5.8h-1.5l0.1-0.8h1.5l0.4-2.4l1-0.2l-0.5,2.6h2.1l-0.1,0.8h-2.1
		l-1,5.7c-0.1,0.3-0.1,0.6-0.1,0.8c0,0.5,0.2,0.7,0.6,0.7c0.6,0,1.2-0.5,1.6-0.9l0.5,0.6c-0.5,0.5-1.3,1-2.2,1
		C261,163.8,260.6,163.3,260.6,162.4z"/>
	<path fill="#333333" d="M272.3,151.7h1l-2.2,12h-1L272.3,151.7z"/>
	<path fill="#333333" d="M274.8,162.4c0-0.2,0-0.5,0.1-0.7l1.1-5.8h-1.5l0.1-0.8h1.5l0.5-2.4l1-0.2l-0.5,2.6h2.1l-0.1,0.8h-2.1
		l-1,5.7c-0.1,0.3-0.1,0.6-0.1,0.8c0,0.5,0.2,0.7,0.6,0.7c0.6,0,1.2-0.5,1.6-0.9l0.5,0.6c-0.5,0.5-1.3,1-2.2,1
		C275.2,163.8,274.8,163.3,274.8,162.4z"/>
	<path fill="#333333" d="M279.8,161.3c0-3.1,1.7-6.5,5-6.5c0.9,0,1.8,0.2,2.2,0.3l-0.8,4.7c-0.4,2.1-0.5,3.3-0.6,3.8h-0.9
		c0.2-1.2,0.4-2.2,0.6-3.3h0c-0.6,1.5-1.7,3.5-3.4,3.5C280.4,163.8,279.8,162.8,279.8,161.3z M285.7,156.9l0.2-1.1
		c-0.3-0.1-0.8-0.1-1.4-0.1c-2.5,0-3.8,2.9-3.8,5.5c0,1.2,0.4,1.9,1.2,1.9C283.8,163,285.3,159.3,285.7,156.9z"/>
	<path fill="#333333" d="M290.8,150.7h0.9l-2.3,13h-0.9L290.8,150.7z"/>
	<path fill="#333333" d="M294.1,155.1h0.9l-1.6,8.6h-0.9L294.1,155.1z M294.2,152.6c0-0.4,0.4-0.8,0.8-0.8s0.7,0.3,0.7,0.7
		c0,0.4-0.3,0.8-0.8,0.8C294.6,153.3,294.2,152.9,294.2,152.6z"/>
	<path fill="#333333" d="M296.4,160.5c0-3,2-5.6,4.5-5.6c0.9,0,1.5,0.3,1.9,0.6l-0.5,0.7c-0.3-0.3-0.8-0.5-1.6-0.5
		c-1.9,0-3.5,2.2-3.5,4.7c0,1.7,0.6,2.6,1.8,2.6c1,0,1.8-0.6,2.2-1.1l0.5,0.6c-0.5,0.5-1.5,1.3-2.9,1.3
		C297.3,163.8,296.4,162.5,296.4,160.5z"/>
	<path fill="#333333" d="M190.5,181.7h1.3l-2.1,12h-1.4L190.5,181.7z M191,187.4l5.7-5.7h1.6l-5.8,5.8l4.1,6.2H195L191,187.4z"/>
	<path fill="#333333" d="M199.4,185h1.3l-1.6,8.6h-1.3L199.4,185z M199.5,182.4c0-0.5,0.4-1,1-1c0.5,0,1,0.4,1,1c0,0.5-0.4,1-1,1
		C200,183.3,199.5,182.9,199.5,182.4z"/>
	<path fill="#333333" d="M201.9,190.7c0-3.3,2.1-6,4.6-6c1.3,0,2.3,0.6,2.3,2c0,2.1-2.8,3.1-5.6,3.4v0.4c0,1.4,0.6,2.1,1.7,2.1
		c1,0,1.8-0.6,2.2-1.1l0.8,0.9c-0.5,0.5-1.6,1.3-3.2,1.3C202.7,193.8,201.9,192.4,201.9,190.7z M203.3,189.2c2.3-0.3,4.1-1,4.1-2.3
		c0-0.6-0.4-0.9-1.1-0.9C205,185.9,203.8,187.3,203.3,189.2z"/>
	<path fill="#333333" d="M210,185h1.3l0.7,5.4c0.1,0.5,0.1,1.1,0.1,1.5h0l3.8-6.9h1.4l-5,8.6h-1.2L210,185z"/>
	<path fill="#333333" d="M218.9,185h1.3l-1.6,8.6h-1.3L218.9,185z M219,182.4c0-0.5,0.4-1,1-1c0.5,0,1,0.4,1,1c0,0.5-0.4,1-1,1
		C219.4,183.3,219,182.9,219,182.4z"/>
	<path fill="#333333" d="M222,192.3c0-0.2,0-0.5,0.1-0.8l1-5.4h-1.5l0.2-1h1.5l0.5-2.4l1.4-0.3l-0.5,2.8h2.1l-0.2,1h-2.1l-1,5.1
		c-0.1,0.4-0.1,0.7-0.1,1c0,0.4,0.1,0.6,0.5,0.6c0.7,0,1.2-0.5,1.6-0.8l0.7,0.9c-0.6,0.6-1.4,1.1-2.5,1.1
		C222.5,193.8,222,193.3,222,192.3z"/>
	<path fill="#333333" d="M233.9,181.7h1.4l-2.1,12h-1.4L233.9,181.7z"/>
	<path fill="#333333" d="M236.7,192.3c0-0.2,0-0.5,0.1-0.8l1-5.4h-1.5l0.2-1h1.5l0.4-2.4l1.4-0.3l-0.5,2.8h2.1l-0.2,1H239l-1,5.1
		c-0.1,0.4-0.1,0.7-0.1,1c0,0.4,0.1,0.6,0.5,0.6c0.7,0,1.2-0.5,1.6-0.8l0.7,0.9c-0.6,0.6-1.4,1.1-2.5,1.1
		C237.1,193.8,236.7,193.3,236.7,192.3z"/>
	<path fill="#333333" d="M241.9,191.2c0-3.2,1.8-6.4,5.1-6.4c1.2,0,2.1,0.2,2.4,0.3l-0.9,4.8c-0.4,2.4-0.5,3.8-0.5,3.8h-1.3
		c0.1-1,0.3-1.7,0.5-2.7h0c-0.7,1.5-1.6,2.9-3.2,2.9C242.6,193.8,241.9,192.8,241.9,191.2z M247.9,186.9l0.1-0.9
		c-0.2-0.1-0.7-0.2-1.2-0.2c-2.2,0-3.5,2.5-3.5,5.1c0,1.2,0.4,1.7,1.1,1.7C245.9,192.7,247.5,189.5,247.9,186.9z"/>
	<path fill="#333333" d="M253,180.7h1.3l-2.3,13h-1.3L253,180.7z"/>
	<path fill="#333333" d="M256.5,185h1.3l-1.6,8.6h-1.3L256.5,185z M256.6,182.4c0-0.5,0.5-1,1-1c0.5,0,1,0.4,1,1c0,0.5-0.4,1-1,1
		C257.1,183.3,256.6,182.9,256.6,182.4z"/>
	<path fill="#333333" d="M259,190.5c0-3.3,2.3-5.7,4.7-5.7c1.1,0,1.7,0.3,2.1,0.6l-0.7,1c-0.3-0.2-0.7-0.4-1.5-0.4
		c-1.6,0-3.3,1.7-3.3,4.4c0,1.6,0.7,2.3,1.7,2.3c1.1,0,1.8-0.6,2.1-1l0.8,0.8c-0.5,0.5-1.5,1.3-3,1.3
		C260.1,193.8,259,192.6,259,190.5z"/>
	<path fill="#333333" d="M190.4,211.7h2l-1,5.5l5.3-5.5h2.3l-5.5,5.7l3.8,6.3H195l-3.7-6.1l-1.1,6.1h-2L190.4,211.7z"/>
	<path fill="#333333" d="M199.9,214.9h1.9l-1.6,8.7h-1.9L199.9,214.9z M200.1,212.3c0-0.6,0.5-1.2,1.2-1.2c0.7,0,1.2,0.5,1.2,1.2
		c0,0.6-0.5,1.2-1.2,1.2C200.6,213.5,200.1,213,200.1,212.3z"/>
	<path fill="#333333" d="M202.8,220.5c0-3.3,2.2-5.8,4.9-5.8c1.5,0,2.5,0.8,2.5,2.1c0,2.1-2.6,3.1-5.5,3.5c0,1.3,0.4,2,1.5,2
		c1,0,1.7-0.5,2.2-1l0.8,1.2c-0.6,0.6-1.7,1.3-3.4,1.3C203.8,223.8,202.8,222.4,202.8,220.5z M204.8,219c2-0.2,3.5-0.9,3.5-1.9
		c0-0.6-0.3-0.8-1-0.8C206.1,216.2,205.2,217.5,204.8,219z"/>
	<path fill="#333333" d="M211.2,214.9h1.9l0.5,4.9c0.1,0.6,0.1,1.2,0.1,1.5h0l3.3-6.4h2l-4.9,8.7h-1.7L211.2,214.9z"/>
	<path fill="#333333" d="M220.5,214.9h1.9l-1.6,8.7h-1.9L220.5,214.9z M220.7,212.3c0-0.6,0.5-1.2,1.2-1.2c0.7,0,1.2,0.5,1.2,1.2
		c0,0.6-0.5,1.2-1.2,1.2C221.2,213.5,220.7,213,220.7,212.3z"/>
	<path fill="#333333" d="M224,222c0-0.3,0-0.6,0.1-1l0.9-4.7h-1.5l0.3-1.4h1.5l0.4-2.3l2-0.5l-0.5,2.8h2.2l-0.2,1.4h-2.2l-0.8,4.5
		c-0.1,0.3-0.1,0.6-0.1,0.8c0,0.4,0.1,0.6,0.5,0.6c0.6,0,1.1-0.4,1.4-0.7l0.7,1.3c-0.6,0.5-1.5,1-2.7,1
		C224.6,223.8,224,223.3,224,222z"/>
	<path fill="#333333" d="M237.2,211.7h1.9l1.2,8.1c0.1,0.7,0.1,1.4,0.2,1.8h0c0.2-0.5,0.5-1.2,0.9-1.8l4.2-8.1h1.9l-0.6,12h-2l0.4-7
		c0.1-0.8,0.1-1.5,0.2-1.8h0c-0.1,0.3-0.4,0.9-0.8,1.6l-3.7,7.1h-1.9l-1-7.1c-0.1-0.8-0.2-1.4-0.2-1.7h0c-0.1,0.3-0.2,1-0.5,1.8
		l-2.1,7h-1.8L237.2,211.7z"/>
	<path fill="#333333" d="M248.9,220.5c0-3.3,2.2-5.8,4.9-5.8c1.5,0,2.5,0.8,2.5,2.1c0,2.1-2.6,3.1-5.5,3.5c0,1.3,0.4,2,1.5,2
		c1,0,1.7-0.5,2.2-1l0.8,1.2c-0.6,0.6-1.7,1.3-3.4,1.3C249.9,223.8,248.9,222.4,248.9,220.5z M250.9,219c2-0.2,3.5-0.9,3.5-1.9
		c0-0.6-0.3-0.8-1-0.8C252.2,216.2,251.3,217.5,250.9,219z"/>
	<path fill="#333333" d="M256.9,221c0-3.6,2.1-6.3,5.2-6.3c0.7,0,1,0.1,1.2,0.1l0.8-4.2h1.9l-1.6,8.8c-0.4,2.4-0.6,3.8-0.6,4.2h-1.8
		c0.1-0.8,0.2-1.6,0.4-2.4h0c-0.7,1.3-1.7,2.6-3.2,2.6C257.6,223.8,256.9,222.6,256.9,221z M262.9,217l0.1-0.7
		c-0.2-0.1-0.6-0.1-1.1-0.1c-1.8,0-3.1,2-3.1,4.5c0,0.9,0.3,1.5,0.9,1.5C261,222.2,262.4,219.9,262.9,217z"/>
	<path fill="#333333" d="M267.6,214.9h1.9l-1.6,8.7H266L267.6,214.9z M267.7,212.3c0-0.6,0.5-1.2,1.2-1.2c0.7,0,1.2,0.5,1.2,1.2
		c0,0.6-0.5,1.2-1.2,1.2C268.2,213.5,267.7,213,267.7,212.3z"/>
	<path fill="#333333" d="M270.7,221.7c0-0.3,0-0.6,0.1-1l1.1-5.8h1.9l-1,5.6c-0.1,0.3-0.1,0.5-0.1,0.7c0,0.6,0.3,0.9,0.8,0.9
		c1.1,0,2.6-1.6,3.4-6.2l0.2-1.1h1.9l-0.8,4.5c-0.4,2.4-0.6,3.8-0.6,4.2h-1.8c0.1-0.8,0.2-1.8,0.4-2.5h0c-0.6,1.2-1.7,2.8-3.5,2.8
		C271.4,223.9,270.7,223.1,270.7,221.7z"/>
	<path fill="#333333" d="M281.4,214.9h1.8c-0.1,0.5-0.3,1.7-0.5,2.3h0c0.6-1.1,1.6-2.6,3.3-2.6c1.4,0,1.8,1,1.8,2.1
		c0,0.1,0,0.3,0,0.4h0c0.7-1.2,1.7-2.5,3.3-2.5c1.2,0,1.9,0.8,1.9,2.2c0,0.3,0,0.7-0.1,1l-1,5.7H290l1-5.5c0.1-0.3,0.1-0.6,0.1-0.8
		c0-0.6-0.2-1-0.7-1c-1.2,0-2.6,1.8-3.4,6.4l-0.2,0.8h-1.9l1-5.5c0.1-0.3,0.1-0.5,0.1-0.8c0-0.6-0.2-1-0.8-1c-1.2,0-2.5,1.7-3.4,6.4
		l-0.1,0.8h-1.9L281.4,214.9z"/>
	<path fill="#333333" d="M300.7,211.7h2l-2.1,12h-2L300.7,211.7z"/>
	<path fill="#333333" d="M303.8,222c0-0.3,0-0.6,0.1-1l0.9-4.7h-1.5l0.3-1.4h1.5l0.4-2.3l2-0.5l-0.5,2.8h2.2l-0.2,1.4h-2.2l-0.8,4.5
		c-0.1,0.3-0.1,0.6-0.1,0.8c0,0.4,0.1,0.6,0.5,0.6c0.6,0,1.1-0.4,1.4-0.7l0.7,1.3c-0.6,0.5-1.5,1-2.7,1
		C304.4,223.8,303.8,223.3,303.8,222z"/>
	<path fill="#333333" d="M309.6,221.1c0-3.5,2.1-6.4,5.3-6.4c1.4,0,2.4,0.3,2.8,0.5l-0.8,4.3c-0.4,2.4-0.5,3.8-0.5,4.2h-1.8
		c0.1-0.8,0.2-1.6,0.4-2.4h0c-0.7,1.4-1.6,2.6-3.1,2.6C310.4,223.8,309.6,222.8,309.6,221.1z M315.5,217l0.1-0.6
		c-0.2-0.1-0.6-0.1-1-0.1c-1.8,0-3.1,2.1-3.1,4.6c0,1,0.3,1.4,0.9,1.4C313.7,222.2,315,219.9,315.5,217z"/>
	<path fill="#333333" d="M321,210.7h1.9l-2.3,13h-1.9L321,210.7z"/>
	<path fill="#333333" d="M324.7,214.9h1.9l-1.6,8.7h-1.9L324.7,214.9z M324.8,212.3c0-0.6,0.5-1.2,1.2-1.2c0.7,0,1.2,0.5,1.2,1.2
		c0,0.6-0.5,1.2-1.2,1.2C325.4,213.5,324.8,213,324.8,212.3z"/>
	<path fill="#333333" d="M327.5,220.4c0-3.4,2.4-5.7,5-5.7c1.2,0,1.8,0.3,2.2,0.6l-0.8,1.4c-0.3-0.2-0.7-0.4-1.5-0.4
		c-1.5,0-3,1.5-3,3.9c0,1.4,0.6,2.1,1.5,2.1c0.9,0,1.6-0.5,1.9-0.9l0.9,1.2c-0.5,0.5-1.6,1.2-3,1.2
		C328.7,223.8,327.5,222.5,327.5,220.4z"/>
	<path fill="#333333" d="M190.3,241.7h2.5l-0.9,5.3l4.9-5.3h2.8l-5.3,5.7l3.5,6.3H195l-3.2-5.9l-1,5.9h-2.5L190.3,241.7z"/>
	<path fill="#333333" d="M200.4,244.9h2.3l-1.6,8.8h-2.3L200.4,244.9z M200.5,242.3c0-0.7,0.6-1.4,1.4-1.4c0.8,0,1.4,0.6,1.4,1.4
		c0,0.8-0.6,1.4-1.4,1.4C201.1,243.6,200.5,243,200.5,242.3z"/>
	<path fill="#333333" d="M203.5,250.3c0-3.3,2.2-5.7,5-5.7c1.7,0,2.7,0.8,2.7,2.3c0,2.1-2.4,3.1-5.4,3.5c0.1,1,0.4,1.6,1.4,1.6
		c0.9,0,1.7-0.5,2.2-0.9l0.9,1.5c-0.7,0.6-1.8,1.3-3.5,1.3C204.6,253.8,203.5,252.4,203.5,250.3z M206,248.9c1.8-0.2,3-0.8,3-1.7
		c0-0.5-0.3-0.7-0.8-0.7C207,246.5,206.3,247.6,206,248.9z"/>
	<path fill="#333333" d="M212.2,244.9h2.5l0.4,4.4c0.1,0.6,0.1,1.3,0.1,1.5h0l3-6h2.4l-4.9,8.8h-2.2L212.2,244.9z"/>
	<path fill="#333333" d="M221.9,244.9h2.3l-1.6,8.8h-2.3L221.9,244.9z M222.1,242.3c0-0.7,0.6-1.4,1.4-1.4c0.8,0,1.4,0.6,1.4,1.4
		c0,0.8-0.6,1.4-1.4,1.4C222.7,243.6,222.1,243,222.1,242.3z"/>
	<path fill="#333333" d="M225.7,251.9c0-0.3,0.1-0.7,0.1-1.2l0.8-4.1h-1.4l0.3-1.7h1.4l0.4-2.2l2.5-0.7l-0.5,2.9h2.2l-0.3,1.7H229
		l-0.7,4c-0.1,0.3-0.1,0.5-0.1,0.7c0,0.4,0.1,0.6,0.4,0.6c0.5,0,0.9-0.3,1.3-0.6l0.7,1.6c-0.6,0.4-1.5,1-2.9,1
		C226.4,253.8,225.7,253.3,225.7,251.9z"/>
	<path fill="#333333" d="M238.1,241.7h3.8c2.1,0,3.6,0.8,3.6,2.7c0,1.7-1,2.7-2.6,3.1v0c1.2,0.2,2.1,1,2.1,2.3
		c0,2.6-2.1,3.8-5.1,3.8h-4L238.1,241.7z M240.1,251.7c1.7,0,2.4-0.7,2.4-1.9c0-0.9-0.6-1.5-1.8-1.5h-1.4l-0.6,3.3H240.1z
		 M241,246.6c1.4,0,2.1-0.7,2.1-1.8c0-0.8-0.5-1.3-1.6-1.3h-1.2l-0.5,3H241z"/>
	<path fill="#333333" d="M246.4,250.2c0-3,2.1-5.6,4.9-5.6c2.2,0,3.5,1.6,3.5,3.7c0,3.2-2,5.6-4.9,5.6
		C247.6,253.8,246.4,252.2,246.4,250.2z M252.4,248.3c0-1.2-0.4-1.9-1.3-1.9c-1.5,0-2.4,2.1-2.4,3.7c0,1.2,0.4,1.9,1.3,1.9
		C251.6,252,252.4,249.9,252.4,248.3z"/>
	<path fill="#333333" d="M257.9,240.7h2.3l-2.3,13h-2.3L257.9,240.7z"/>
	<path fill="#333333" d="M260.4,250.9c0-3.7,2.2-6.2,5.3-6.2c0.6,0,0.9,0.1,1.2,0.1l0.7-4.1h2.3l-1.5,8.5c-0.4,2.4-0.6,3.8-0.6,4.5
		h-2.3c0.1-0.7,0.1-1.5,0.3-2.1h0c-0.7,1.3-1.6,2.4-3,2.4C261.2,253.8,260.4,252.7,260.4,250.9z M266.4,247l0.1-0.5
		c-0.2-0.1-0.5-0.1-0.9-0.1c-1.5,0-2.8,1.6-2.8,4.1c0,0.8,0.2,1.3,0.8,1.3C264.6,251.8,265.8,250.3,266.4,247z"/>
	<path fill="#333333" d="M276.2,241.7h2.5l-2.1,12h-2.5L276.2,241.7z"/>
	<path fill="#333333" d="M279.8,251.9c0-0.3,0.1-0.7,0.1-1.2l0.8-4.1h-1.4l0.3-1.7h1.4l0.4-2.2l2.5-0.7l-0.5,2.9h2.2l-0.3,1.7H283
		l-0.7,4c-0.1,0.3-0.1,0.5-0.1,0.7c0,0.4,0.1,0.6,0.4,0.6c0.5,0,0.9-0.3,1.3-0.6l0.7,1.6c-0.6,0.4-1.5,1-2.9,1
		C280.4,253.8,279.8,253.3,279.8,251.9z"/>
	<path fill="#333333" d="M285.8,251c0-3.8,2.3-6.3,5.5-6.3c1.6,0,2.6,0.3,3.1,0.5l-0.7,4c-0.4,2.4-0.5,3.8-0.6,4.5h-2.3
		c0.1-0.7,0.1-1.5,0.3-2.1h0c-0.7,1.3-1.5,2.3-3,2.3C286.7,253.8,285.8,252.8,285.8,251z M291.7,247l0.1-0.5
		c-0.2-0.1-0.5-0.1-0.8-0.1c-1.4,0-2.7,1.7-2.7,4.2c0,0.8,0.3,1.3,0.8,1.3C290,251.8,291.1,250.3,291.7,247z"/>
	<path fill="#333333" d="M297.4,240.7h2.3l-2.3,13h-2.3L297.4,240.7z"/>
	<path fill="#333333" d="M301.4,244.9h2.3l-1.6,8.8h-2.3L301.4,244.9z M301.5,242.3c0-0.7,0.6-1.4,1.4-1.4c0.8,0,1.4,0.6,1.4,1.4
		c0,0.8-0.6,1.4-1.4,1.4C302.1,243.6,301.5,243,301.5,242.3z"/>
	<path fill="#333333" d="M304.5,250.3c0-3.4,2.4-5.7,5.2-5.7c1.2,0,1.9,0.3,2.3,0.6L311,247c-0.3-0.2-0.7-0.4-1.4-0.4
		c-1.4,0-2.8,1.3-2.8,3.5c0,1.3,0.5,1.9,1.4,1.9c0.8,0,1.4-0.5,1.7-0.8l0.9,1.6c-0.5,0.5-1.6,1.1-3,1.1
		C305.7,253.8,304.5,252.5,304.5,250.3z"/>
	<path fill="#333333" d="M190.3,271.7h2.8l-0.9,5l4.6-5h3.2l-5.2,5.7l3.3,6.3h-3.1l-2.9-5.7l-1,5.7h-2.9L190.3,271.7z"/>
	<path fill="#333333" d="M200.7,274.8h2.6l-1.6,8.8h-2.7L200.7,274.8z M200.8,272.2c0-0.8,0.6-1.5,1.6-1.5c0.9,0,1.5,0.7,1.5,1.5
		s-0.6,1.5-1.5,1.5C201.5,273.8,200.8,273,200.8,272.2z"/>
	<path fill="#333333" d="M204,280.2c0-3.3,2.3-5.6,5.2-5.6c1.8,0,2.8,0.9,2.8,2.4c0,2.1-2.3,3.2-5.3,3.5c0.1,0.8,0.4,1.3,1.3,1.3
		c0.9,0,1.6-0.4,2.2-0.9l1,1.8c-0.8,0.6-1.9,1.2-3.6,1.2C205.2,283.8,204,282.4,204,280.2z M206.8,278.8c1.6-0.1,2.6-0.7,2.6-1.5
		c0-0.4-0.2-0.7-0.7-0.7C207.7,276.6,207.1,277.7,206.8,278.8z"/>
	<path fill="#333333" d="M212.8,274.8h2.8l0.4,4.2c0.1,0.7,0.1,1.4,0.1,1.5h0l2.7-5.7h2.8l-4.8,8.8h-2.5L212.8,274.8z"/>
	<path fill="#333333" d="M222.8,274.8h2.6l-1.6,8.8h-2.7L222.8,274.8z M223,272.2c0-0.8,0.6-1.5,1.6-1.5c0.9,0,1.5,0.7,1.5,1.5
		s-0.6,1.5-1.5,1.5C223.6,273.8,223,273,223,272.2z"/>
	<path fill="#333333" d="M226.8,281.8c0-0.4,0.1-0.8,0.1-1.3l0.7-3.7h-1.4l0.4-2h1.4l0.4-2.2l2.8-0.8l-0.5,3h2.2l-0.3,2h-2.3
		l-0.6,3.6c-0.1,0.3-0.1,0.5-0.1,0.6c0,0.4,0.1,0.6,0.4,0.6c0.4,0,0.8-0.3,1.2-0.5l0.8,1.8c-0.6,0.4-1.6,1-3.1,1
		C227.5,283.8,226.8,283.3,226.8,281.8z"/>
	<path fill="#333333" d="M239.3,271.7h7l-0.4,2.4h-4.2l-0.4,2.3h3.7l-0.4,2.2h-3.7l-0.5,2.7h4.4l-0.4,2.4h-7.1L239.3,271.7z"/>
	<path fill="#333333" d="M249.1,279.1l-2.1-4.3h3l0.9,2.2l1.6-2.2h2.9L252,279l2.1,4.6h-3l-1-2.6l-1.9,2.6h-2.9L249.1,279.1z"/>
	<path fill="#333333" d="M256.2,281.8c0-0.4,0.1-0.8,0.1-1.3l0.7-3.7h-1.4l0.4-2h1.4l0.4-2.2l2.8-0.8l-0.5,3h2.2l-0.3,2h-2.3
		l-0.6,3.6c-0.1,0.3-0.1,0.5-0.1,0.6c0,0.4,0.1,0.6,0.4,0.6c0.4,0,0.8-0.3,1.2-0.5l0.8,1.8c-0.6,0.4-1.6,1-3.1,1
		C256.9,283.8,256.2,283.3,256.2,281.8z"/>
	<path fill="#333333" d="M263.8,274.8h2.6c-0.1,0.6-0.3,1.6-0.4,2h0c0.6-1.1,1.5-2.2,2.8-2.2c0.4,0,0.8,0.1,1,0.2l-0.9,2.6
		c-0.2-0.1-0.5-0.2-0.8-0.2c-1.1,0-2.3,0.8-3.2,5.8l-0.1,0.6h-2.6L263.8,274.8z"/>
	<path fill="#333333" d="M269.5,280.9c0-3.9,2.4-6.3,5.7-6.3c1.7,0,2.8,0.4,3.3,0.6l-0.7,3.8c-0.4,2.4-0.6,3.9-0.6,4.7h-2.6
		c0-0.6,0.1-1.4,0.2-2h0c-0.7,1.2-1.5,2.2-2.9,2.2C270.5,283.8,269.5,282.8,269.5,280.9z M275.4,277l0.1-0.4c-0.1,0-0.4-0.1-0.7-0.1
		c-1.2,0-2.5,1.4-2.5,3.9c0,0.7,0.2,1.1,0.7,1.1C273.7,281.6,274.7,280.5,275.4,277z"/>
	<path fill="#333333" d="M285.4,271.7h4.1c2.1,0,3.7,0.8,3.7,2.8c0,1.7-1,2.7-2.6,3.1v0c1.2,0.2,2.1,0.9,2.1,2.3
		c0,2.6-2.1,3.8-5.2,3.8h-4.3L285.4,271.7z M287.8,281.5c1.5,0,2.1-0.6,2.1-1.6c0-0.9-0.6-1.3-1.6-1.3H287l-0.5,2.9H287.8z
		 M288.6,276.5c1.2,0,1.8-0.7,1.8-1.6c0-0.8-0.4-1.2-1.5-1.2h-1.1l-0.5,2.7H288.6z"/>
	<path fill="#333333" d="M294,280.2c0-3.1,2.2-5.6,5.1-5.6c2.2,0,3.6,1.5,3.6,3.7c0,3.3-2.1,5.6-5.1,5.6
		C295.3,283.8,294,282.3,294,280.2z M300,278.3c0-1-0.4-1.7-1.2-1.7c-1.3,0-2.2,2-2.2,3.5c0,1,0.4,1.7,1.2,1.7
		C299.3,281.8,300,279.7,300,278.3z"/>
	<path fill="#333333" d="M305.7,270.7h2.7l-2.3,13h-2.7L305.7,270.7z"/>
	<path fill="#333333" d="M308.3,280.8c0-3.9,2.3-6.2,5.3-6.2c0.6,0,0.9,0.1,1.1,0.1l0.7-4h2.6l-1.5,8.2c-0.4,2.4-0.6,3.9-0.6,4.7
		h-2.6c0-0.6,0.1-1.4,0.2-2h0c-0.7,1.2-1.5,2.2-2.9,2.2C309.3,283.8,308.3,282.7,308.3,280.8z M314.4,277l0.1-0.4
		c-0.1-0.1-0.5-0.1-0.8-0.1c-1.3,0-2.5,1.3-2.5,3.8c0,0.7,0.2,1.2,0.7,1.2C312.6,281.6,313.7,280.5,314.4,277z"/>
	<path fill="#333333" d="M324.4,271.7h2.9l-2.1,12h-2.9L324.4,271.7z"/>
	<path fill="#333333" d="M328.2,281.8c0-0.4,0.1-0.8,0.1-1.3l0.7-3.7h-1.4l0.4-2h1.4l0.4-2.2l2.8-0.8l-0.5,3h2.2l-0.3,2h-2.3
		l-0.6,3.6c-0.1,0.3-0.1,0.5-0.1,0.6c0,0.4,0.1,0.6,0.4,0.6c0.4,0,0.8-0.3,1.2-0.5l0.8,1.8c-0.6,0.4-1.6,1-3.1,1
		C328.9,283.8,328.2,283.3,328.2,281.8z"/>
	<path fill="#333333" d="M334.4,280.9c0-3.9,2.4-6.3,5.7-6.3c1.7,0,2.8,0.4,3.3,0.6l-0.7,3.8c-0.4,2.4-0.6,3.9-0.6,4.7h-2.6
		c0-0.6,0.1-1.4,0.2-2h0c-0.7,1.2-1.5,2.2-2.9,2.2C335.4,283.8,334.4,282.8,334.4,280.9z M340.3,277l0.1-0.4c-0.1,0-0.4-0.1-0.7-0.1
		c-1.2,0-2.5,1.4-2.5,3.9c0,0.7,0.2,1.1,0.7,1.1C338.7,281.6,339.7,280.5,340.3,277z"/>
	<path fill="#333333" d="M346.3,270.7h2.7l-2.3,13h-2.7L346.3,270.7z"/>
	<path fill="#333333" d="M350.4,274.8h2.6l-1.6,8.8h-2.7L350.4,274.8z M350.5,272.2c0-0.8,0.6-1.5,1.6-1.5c0.9,0,1.5,0.7,1.5,1.5
		s-0.6,1.5-1.5,1.5C351.2,273.8,350.5,273,350.5,272.2z"/>
	<path fill="#333333" d="M353.7,280.3c0-3.5,2.5-5.7,5.4-5.7c1.2,0,1.9,0.3,2.4,0.6l-1,2c-0.3-0.2-0.6-0.4-1.4-0.4
		c-1.4,0-2.6,1.2-2.6,3.2c0,1.2,0.5,1.7,1.4,1.7c0.7,0,1.3-0.4,1.6-0.7l1,1.8c-0.5,0.5-1.6,1.1-3,1.1
		C355,283.8,353.7,282.4,353.7,280.3z"/>
	<path fill="#333333" d="M190.2,301.7h3.4l-0.8,4.7l4.1-4.7h3.8l-5,5.7l3,6.3h-3.7l-2.5-5.4l-1,5.4h-3.4L190.2,301.7z"/>
	<path fill="#333333" d="M201.1,304.8h3.1l-1.6,8.9h-3.1L201.1,304.8z M201.3,302.2c0-0.9,0.7-1.7,1.8-1.7c1.1,0,1.8,0.8,1.8,1.7
		c0,0.9-0.7,1.7-1.8,1.7C202,303.9,201.3,303.1,201.3,302.2z"/>
	<path fill="#333333" d="M204.7,310c0-3.3,2.4-5.5,5.4-5.5c2,0,3,1,3,2.5c0,2.1-2.2,3.2-5.1,3.5c0.1,0.6,0.4,0.9,1.1,0.9
		c0.9,0,1.6-0.4,2.2-0.8l1,2.1c-0.8,0.6-2,1.2-3.8,1.2C206.1,313.8,204.7,312.4,204.7,310z M208,308.6c1.4-0.1,2.1-0.6,2.1-1.2
		c0-0.4-0.2-0.6-0.6-0.6C208.7,306.9,208.2,307.7,208,308.6z"/>
	<path fill="#333333" d="M213.8,304.8h3.3l0.2,3.7c0.1,0.8,0,1.5,0,1.5h0l2.3-5.3h3.3l-4.8,8.9h-3L213.8,304.8z"/>
	<path fill="#333333" d="M224.2,304.8h3.1l-1.6,8.9h-3.1L224.2,304.8z M224.4,302.2c0-0.9,0.7-1.7,1.8-1.7s1.8,0.8,1.8,1.7
		c0,0.9-0.7,1.7-1.8,1.7S224.4,303.1,224.4,302.2z"/>
	<path fill="#333333" d="M228.6,311.6c0-0.4,0-0.9,0.1-1.4l0.6-3.1H228l0.4-2.3h1.3l0.4-2.1l3.3-1l-0.6,3h2.3l-0.4,2.3h-2.3l-0.5,3
		c-0.1,0.8,0,1.1,0.3,1.1c0.3,0,0.7-0.2,1-0.4l0.8,2.1c-0.6,0.4-1.6,0.9-3.3,0.9C229.3,313.8,228.6,313.3,228.6,311.6z"/>
	<path fill="#333333" d="M241.3,301.7h4.5c2.1,0,3.8,0.8,3.8,2.9c0,1.7-1,2.7-2.5,3v0c1.2,0.2,2.1,0.9,2.1,2.3
		c0,2.6-2.1,3.7-5.2,3.7h-4.7L241.3,301.7z M244.1,311.1c1.1,0,1.6-0.6,1.6-1.3s-0.5-1.1-1.3-1.1h-1.1l-0.4,2.4H244.1z M244.8,306.4
		c1,0,1.4-0.6,1.4-1.3c0-0.6-0.3-1-1.2-1h-0.9l-0.4,2.3H244.8z"/>
	<path fill="#333333" d="M252.4,300.7h3.1l-2.3,13H250L252.4,300.7z"/>
	<path fill="#333333" d="M255.3,310.8c0-4.2,2.6-6.3,5.9-6.3c1.8,0,3.1,0.4,3.5,0.6l-0.6,3.4c-0.4,2.4-0.6,3.9-0.6,5.1h-3.1
		c0-0.4,0.1-1.3,0.1-1.7h0c-0.6,1.1-1.5,1.9-2.8,1.9C256.4,313.8,255.3,312.8,255.3,310.8z M261.3,307l0-0.2c-0.1,0-0.3-0.1-0.6-0.1
		c-0.8,0-2.1,1.1-2.1,3.5c0,0.6,0.2,0.9,0.6,0.9C259.7,311.2,260.5,310.9,261.3,307z"/>
	<path fill="#333333" d="M265.2,310.2c0-3.6,2.5-5.7,5.6-5.7c1.3,0,2,0.3,2.4,0.6l-1.2,2.3c-0.3-0.2-0.6-0.3-1.3-0.3
		c-1.3,0-2.3,1.1-2.3,2.8c0,1,0.4,1.5,1.2,1.5c0.6,0,1.1-0.3,1.4-0.6l1,2.1c-0.6,0.5-1.6,1-3,1C266.6,313.8,265.2,312.3,265.2,310.2
		z"/>
	<path fill="#333333" d="M275.4,300.7h3.2l-1.2,7.1l2.5-3h3.5l-3.5,4l1.9,4.8h-3.3l-1.5-3.8l-0.6,3.8h-3.2L275.4,300.7z"/>
	<path fill="#333333" d="M289.3,301.7h3.4l-2.1,12h-3.4L289.3,301.7z"/>
	<path fill="#333333" d="M293.6,311.6c0-0.4,0-0.9,0.1-1.4l0.6-3.1H293l0.4-2.3h1.3l0.4-2.1l3.3-1l-0.6,3h2.3l-0.4,2.3h-2.3l-0.5,3
		c-0.1,0.8,0,1.1,0.3,1.1c0.3,0,0.7-0.2,1-0.4l0.8,2.1c-0.6,0.4-1.6,0.9-3.3,0.9C294.3,313.8,293.6,313.3,293.6,311.6z"/>
	<path fill="#333333" d="M300.1,310.8c0-4.2,2.6-6.3,5.9-6.3c1.8,0,3.1,0.4,3.5,0.6l-0.6,3.4c-0.4,2.4-0.6,3.9-0.6,5.1h-3.1
		c0-0.4,0.1-1.3,0.1-1.7h0c-0.6,1.1-1.5,1.9-2.8,1.9C301.2,313.8,300.1,312.8,300.1,310.8z M306,307l0-0.2c-0.1,0-0.3-0.1-0.6-0.1
		c-0.8,0-2.1,1.1-2.1,3.5c0,0.6,0.2,0.9,0.6,0.9C304.4,311.2,305.2,310.9,306,307z"/>
	<path fill="#333333" d="M312.1,300.7h3.1l-2.3,13h-3.1L312.1,300.7z"/>
	<path fill="#333333" d="M316.5,304.8h3.1l-1.6,8.9h-3.1L316.5,304.8z M316.7,302.2c0-0.9,0.7-1.7,1.8-1.7c1.1,0,1.8,0.8,1.8,1.7
		c0,0.9-0.7,1.7-1.8,1.7C317.4,303.9,316.7,303.1,316.7,302.2z"/>
	<path fill="#333333" d="M320.1,310.2c0-3.6,2.5-5.7,5.6-5.7c1.3,0,2,0.3,2.4,0.6l-1.2,2.3c-0.3-0.2-0.6-0.3-1.3-0.3
		c-1.3,0-2.3,1.1-2.3,2.8c0,1,0.4,1.5,1.2,1.5c0.6,0,1.1-0.3,1.4-0.6l1,2.1c-0.6,0.5-1.6,1-3,1C321.4,313.8,320.1,312.3,320.1,310.2
		z"/>
</g>
</svg>
