<?xml version="1.0" encoding="utf-8"?>
<!-- Generator: Adobe Illustrator 18.1.1, SVG Export Plug-In . SVG Version: 6.00 Build 0)  -->
<svg version="1.1" id="Layer_1" xmlns="http://www.w3.org/2000/svg" xmlns:xlink="http://www.w3.org/1999/xlink" x="0px" y="0px"
	 viewBox="0 0 300 87.3" enable-background="new 0 0 300 87.3" xml:space="preserve">
<rect x="0" y="0" fill="#FFFFFF" width="300" height="87.3"/>
<g>
	<path fill="#333333" d="M58.3,9.7h14.4l27.6,70.4H84l-4.8-13.2H51.1l-4.6,13.2h-15L58.3,9.7z M75,54.9l-6-16.8
		c-2.2-6-3.2-10.6-3.8-12.2h-0.2c-0.5,1.7-1.7,6.4-3.7,12.2l-6,16.8H75z"/>
	<path fill="#333333" d="M102.1,66.8c0-13.4,13.8-18.3,27.5-18.3h1.8v-3c0-5-2.2-7.2-8.3-7.2c-5.6,0-10,2.4-13.1,4.9l-6.1-8.6
		c4.1-3.8,11.1-7.4,20.8-7.4c14.1,0,20.7,5.4,20.7,19v18.5c0,7,0.7,11.9,1.5,15.2h-13.8c-0.4-1.3-0.7-3.9-0.8-5.5
		c-2.7,3.4-7.8,6.8-14.5,6.8C108.8,81.3,102.1,76,102.1,66.8z M131.3,66.5v-9.3h-1.8c-8.2,0-13.9,2.4-13.9,8.5
		c0,3.8,3.1,5.4,6.2,5.4C126.1,71.1,129.1,69.1,131.3,66.5z"/>
</g>
<g>
	<path fill="#333333" d="M161,9.7h23.5c13,0,24.3,4.2,24.3,17.5c0,9.1-4.9,14.2-12.5,16.2v0.2c8.3,1.3,15.4,6.9,15.4,16.9
		c0,14.4-11.5,19.5-27.6,19.5H161V9.7z M182.5,38.6c8,0,11.5-2.9,11.5-9.1c0-5.8-3.8-8.5-11.2-8.5h-7.2v17.5H182.5z M183.5,68.6
		c8.6,0,13.1-2.6,13.1-9.4c0-6.6-3.8-9.9-12.5-9.9h-8.5v19.3H183.5z"/>
	<path fill="#333333" d="M219.1,77.2V4h14.1v28.6c2.6-2.6,7.2-5.3,12.6-5.3c12.9,0,21.9,8.9,21.9,26.6c0,17.5-11.8,27.4-27.4,27.4
		C229.9,81.3,222.6,79,219.1,77.2z M252.7,54c0-9.6-3.3-15.5-10.9-15.5c-3.8,0-7.1,2.2-8.7,3.9v26.8c1.5,0.6,3.7,1.2,7.1,1.2
		C248.1,70.3,252.7,64.5,252.7,54z"/>
</g>
</svg>
