<?xml version="1.0" encoding="UTF-8" standalone="no"?>
<svg
   xmlns:svg="http://www.w3.org/2000/svg"
   xmlns="http://www.w3.org/2000/svg"
   version="1.1"
   width="696.45813"
   height="259.99796"
   id="svg3866">
  <defs
     id="defs3868" />
  <g
     transform="translate(-119.34236,-339.50606)"
     id="layer1">
    <path
       d="m 688.3005,339.50606 0,130 127.5,0 0,-130 -127.5,0 z m -509.78125,49.46875 c -17.04466,0 -30.46875,11.38412 -30.46875,34.9375 0,22.23115 13.86871,32.25 29.4375,32.25 6.4901,0 13.04376,-1.25988 19.6875,-3.625 l 0.0937,-26.59375 c 0.0233,-0.85666 0.21875,-2.78125 0.21875,-2.78125 l -23.4375,0 c 0.14432,1.32223 0.375,2.73561 0.375,4.0625 0,1.32223 -0.23068,2.73561 -0.375,4.0625 3.70131,-0.48885 7.66748,-0.96402 12.0625,-1.1875 l 0,18.375 c -1.76919,1.32689 -4.43766,2.03125 -8.125,2.03125 -11.21568,0 -17.6875,-9.85446 -17.6875,-26.3125 0,-15.89004 6.02466,-29.53125 18.34375,-29.53125 5.82898,0 11.79346,3.28854 15.1875,9.625 l 1.03125,0 c 0.29796,-3.21246 1.02892,-6.53627 2.0625,-9.5625 -5.53568,-4.06446 -12.06048,-5.75 -18.40625,-5.75 z m 57.6875,0.21875 -21.09375,65.5625 c 1.1779,-0.0931 2.35334,-0.28125 3.53125,-0.28125 1.18255,0 2.29084,0.18814 3.46875,0.28125 1.40137,-6.52735 3.23808,-11.78029 5.15625,-18.96875 l 17.1875,0 c 1.99731,6.33646 3.55066,12.15402 5.25,19.15625 2.14164,-0.19089 4.20211,-0.46875 6.34375,-0.46875 2.13698,0 4.20211,0.27786 6.34375,0.46875 l -20.59375,-65.75 c -0.95908,0.19089 -1.82217,0.28125 -2.78125,0.28125 -0.96374,0 -1.84876,-0.0904 -2.8125,-0.28125 z m 391.65625,0 -21.125,65.5625 c 1.1779,-0.0931 2.37994,-0.28125 3.5625,-0.28125 1.1779,0 2.29085,0.18814 3.46875,0.28125 1.40603,-6.52735 3.23809,-11.78029 5.15625,-18.96875 l 17.1875,0 c 1.99266,6.33646 3.55066,12.15402 5.25,19.15625 2.14164,-0.19089 4.20677,-0.46875 6.34375,-0.46875 2.13698,0 4.20677,0.27786 6.34375,0.46875 l -20.59375,-65.75 c -0.95908,0.19089 -1.82682,0.28125 -2.78125,0.28125 -0.96839,0 -1.85342,-0.0904 -2.8125,-0.28125 z m -344.90625,0.84375 0,64.4375 27.9375,0 c -0.14433,-1.32223 -0.34375,-2.73561 -0.34375,-4.0625 0,-1.32689 0.19942,-2.73561 0.34375,-4.0625 -5.01423,0.66111 -10.45474,1.3125 -16.875,1.3125 l 0,-57.625 c -1.84367,0.19089 -3.68758,0.5 -5.53125,0.5 -1.84367,0 -3.68758,-0.30911 -5.53125,-0.5 z m 49.0625,0 0,64.4375 23.46875,0 c 13.45508,0 23.82174,-14.98328 24.03125,-34.0625 0.16761,-15.51758 -7.73898,-29.61611 -23.53125,-30.375 l -23.96875,0 z m 132.1875,0 0,64.90625 c 1.84367,-0.19089 3.68292,-0.46875 5.53125,-0.46875 1.84367,0 3.68292,0.27786 5.53125,0.46875 l 0,-30.375 0.53125,0 c 1.62485,3.59423 4.61068,7.94866 5.71875,10.5 l 8.78125,19.875 c 2.21613,-0.19089 4.44012,-0.46875 6.65625,-0.46875 2.29062,0 4.50262,0.27786 6.71875,0.46875 l -2.875,-5.875 c -4.42295,-8.79935 -8.6902,-16.85881 -12.75,-25.9375 6.8579,-1.89489 11.8125,-8.38667 11.8125,-17.65625 0,-6.43423 -2.82712,-10.69125 -7.03125,-13.53125 -3.09607,-2.08112 -8.50022,-1.90625 -11.96875,-1.90625 l -16.65625,0 z m 68.59375,0 c -2.50944,23.93515 -4.87282,45.89221 -7.53125,64.90625 1.1779,-0.19089 2.19244,-0.46875 3.375,-0.46875 1.18256,0 2.29085,0.27786 3.46875,0.46875 0.22813,-13.24558 0.80531,-26.38233 2.5,-43.03125 5.53567,14.64695 11.98584,29.30296 16.78125,42.5625 0.96374,-0.284 2.44717,-0.18623 3.40625,0 5.23771,-14.66558 10.79608,-29.15031 16.40625,-43.625 1.10341,14.56781 2.56963,29.05106 3.15625,44.09375 2.06715,-0.19089 3.9016,-0.46875 5.96875,-0.46875 2.06715,0 4.05785,0.27786 6.125,0.46875 -2.50944,-18.82781 -4.18744,-39.45798 -6.46875,-64.90625 -1.03357,0.19089 -2.14927,0.5 -3.1875,0.5 -1.03357,0 -2.06018,-0.30911 -3.09375,-0.5 -5.61017,16.17404 -12.19246,31.03229 -17.5,44.46875 -5.82898,-14.85181 -11.96905,-29.61694 -17.28125,-44.46875 -1.03357,0.19089 -2.09143,0.5 -3.125,0.5 -1.03357,0 -1.96643,-0.30911 -3,-0.5 z m -128.96875,0.3125 c 0,0 1.25,28.42793 1.25,33.4375 0,8.98092 -1.25,31 -1.25,31 l 31.25,0 c -0.14898,-1.32223 -0.375,-2.73561 -0.375,-4.0625 0,-1.32223 0.22602,-2.73561 0.375,-4.0625 -4.5021,0.75889 -11.41383,1.21473 -18.9375,1.3125 l 0,-24.03125 7.6875,0 c 3.31954,0 8.20458,0.37352 10.9375,0.84375 -0.14898,-1.32223 -0.34375,-2.74027 -0.34375,-4.0625 0,-1.32689 0.19477,-2.74027 0.34375,-4.0625 -2.73292,0.47023 -7.61796,0.84375 -10.9375,0.84375 l -7.6875,0 0,-20.34375 c 7.52367,-0.19089 14.4354,0.58486 18.9375,1.34375 -0.14898,-1.32689 -0.375,-2.74027 -0.375,-4.0625 0,-1.32689 0.22602,-2.77152 0.375,-4.09375 l -31.25,0 z m 71.4375,4.8125 c 4.49744,0 11.1971,-0.13548 12.375,7.71875 0.29797,1.98334 0.33782,4.68708 0.15625,6 -1.25239,9.11594 -1.65079,12.3338 -12.53125,12.25 l 0,-25.96875 z m -132.1875,0.375 7.21875,0 c 10.40558,0 16.96875,6.99633 16.96875,24.78125 0,22.13804 -7.72415,29.28125 -17.90625,29.28125 l -6.28125,0 0,-54.0625 z m -106.875,11.8125 6.5625,22.6875 -13.5,0 6.9375,-22.6875 z m 391.65625,0 6.5625,22.6875 -13.5,0 6.9375,-22.6875 z m -363.09375,97.75 c -1.48052,0 -3.03125,0.45818 -3.03125,2.34375 0,1.89023 1.55073,2.3125 3.03125,2.3125 1.48052,0 3.03125,-0.42227 3.03125,-2.3125 0,-1.88557 -1.55073,-2.34375 -3.03125,-2.34375 z m 14.40625,0 c -0.94511,4.1762 -3.42094,7.64602 -7.40625,8.4375 l 0,3.3125 4.0625,0 0,15.15625 c 0,4.2181 1.56012,7.71875 6.9375,7.71875 2.17889,0 4.97179,-1.57816 5.875,-2.5 l 0,-4.34375 c -0.90321,1.31757 -2.37762,2.4375 -4.59375,2.4375 -3.0821,0 -3.625,-1.79699 -3.625,-4.5625 l 0,-13.90625 8.40625,0 0,-4.40625 -8.125,0 0.25,-7.34375 -1.78125,0 z m 18.9375,0 c -0.94511,4.1762 -3.45219,7.64602 -7.4375,8.4375 l 0,3.3125 4.09375,0 0,15.15625 c 0,4.2181 1.55547,7.71875 6.9375,7.71875 2.17889,0 4.97179,-1.57816 5.875,-2.5 l 0,-4.34375 c -0.90321,1.31757 -2.40887,2.4375 -4.625,2.4375 -3.0821,0 -3.59375,-1.79699 -3.59375,-4.5625 l 0,-13.90625 8.40625,0 0,-4.40625 -8.125,0 0.25,-7.34375 -1.78125,0 z m 56.3125,0 0,10.0625 -0.0625,0 c -1.64348,-2.90053 -4.74126,-4.03125 -7.125,-4.03125 -5.99659,0 -10.34375,3.99665 -10.34375,14.5 0,6.85325 2.02288,14.09375 9.5,14.09375 4.14826,0 7.12134,-2.94358 8.1875,-6.8125 l 0.0937,0 0,6.1875 4.34375,0 0,-34 -4.59375,0 z m 28.625,0 c -0.94511,4.1762 -3.45219,7.64602 -7.4375,8.4375 l 0,3.3125 4.09375,0 0,15.15625 c 0,4.2181 1.56012,7.71875 6.9375,7.71875 2.17889,0 4.97179,-1.57816 5.875,-2.5 l 0,-4.34375 c -0.90321,1.31757 -2.40887,2.4375 -4.625,2.4375 -3.0821,0 -3.59375,-1.79699 -3.59375,-4.5625 l 0,-13.90625 8.40625,0 0,-4.40625 -8.125,0 0.25,-7.34375 -1.78125,0 z m 59.15625,0 c -0.94511,4.1762 -3.45219,7.64602 -7.4375,8.4375 l 0,3.3125 4.0625,0 0,15.15625 c 0,4.2181 1.56012,7.71875 6.9375,7.71875 2.17889,0 4.97179,-1.57816 5.875,-2.5 l 0,-4.34375 c -0.90321,1.31757 -2.37762,2.4375 -4.59375,2.4375 -3.07744,0 -3.625,-1.79699 -3.625,-4.5625 l 0,-13.90625 8.4375,0 0,-4.40625 -8.125,0 0.21875,-7.34375 -1.75,0 z m 14.125,0 0,34 4.59375,0 0,-14.5 c 0,-2.98898 1.32677,-8.5625 6.625,-8.5625 4.55797,0 5.15625,3.57895 5.15625,6.21875 l 0,16.84375 4.625,0 0,-19.28125 c 0,-4.21344 -2.02006,-8.6875 -7.9375,-8.6875 -3.98066,0 -6.65238,1.78663 -8.375,5.78125 l -0.0937,0 0,-11.8125 -4.59375,0 z m 73.84375,0 c -4.02721,0 -7.4375,2.74522 -7.4375,7.3125 0,1.49449 0.0764,2.81265 0.28125,4.4375 l -3.6875,0 0,4.375 3.75,0 0,17.875 4.59375,0 0,-17.875 7.625,0 0,-4.375 -8,0 c -0.16295,-1.31757 -0.1875,-2.24507 -0.1875,-3.125 0,-2.15095 1.46996,-3.96875 3.9375,-3.96875 1.72262,0 3.34284,0.31751 4.125,1.28125 l 0,-4.1875 c -0.74026,-0.96839 -2.86767,-1.75 -5,-1.75 z m 41.71875,0 c -0.94511,4.1762 -3.45219,7.64602 -7.4375,8.4375 l 0,3.3125 4.09375,0 0,15.15625 c 0,4.2181 1.56012,7.71875 6.9375,7.71875 2.17889,0 4.97179,-1.57816 5.875,-2.5 l 0,-4.34375 c -0.90321,1.31757 -2.40887,2.4375 -4.625,2.4375 -3.07744,0 -3.59375,-1.79699 -3.59375,-4.5625 l 0,-13.90625 8.40625,0 0,-4.40625 -8.125,0 0.25,-7.34375 -1.78125,0 z m -437.6875,0.78125 c -8.87384,0 -12.84375,7.22527 -12.84375,15.96875 0,9.09266 3.02479,17.875 12.84375,17.875 2.91449,0 6.76165,-0.79742 9.84375,-4.3125 l 0,-6.9375 c -2.21614,4.17154 -4.79503,6.59375 -9.5625,6.59375 -5.50309,0 -8.28125,-5.27175 -8.28125,-12.125 0,-8.08702 3.44062,-11.59375 8.25,-11.59375 4.84662,0 7.79402,2.10992 9.4375,5.625 l 0.15625,0.0937 0,-7.09375 c -1.72728,-2.0671 -4.99713,-4.0937 -9.84375,-4.0937 z m 26.9375,5.25 c -8.45948,0 -11.65625,5.77733 -11.65625,13.90625 0,8.26394 3.15487,14.6875 11.65625,14.6875 8.50137,0 11.625,-6.42356 11.625,-14.6875 0,-8.12892 -3.16553,-13.90625 -11.625,-13.90625 z m 29.8125,0 c -3.57561,0 -6.38453,2.33396 -7.78125,5.9375 l -0.0937,0 0,-5.34375 -4.34375,0 0,27.375 4.59375,0 0,-13.59375 c 0,-4.39036 1.51793,-9.46875 5.75,-9.46875 4.43691,0 4.6875,4.57317 4.6875,8.65625 l 0,14.40625 4.59375,0 0,-13.59375 c 0,-4.39036 1.51793,-9.46875 5.75,-9.46875 4.43691,0 4.6875,4.57317 4.6875,8.65625 l 0,14.40625 4.59375,0 0,-17.65625 c 0,-3.86892 -0.6488,-10.3125 -7.34375,-10.3125 -4.22742,0 -6.74168,2.5738 -7.8125,6.75 l -0.0937,0 c -0.65646,-4.1762 -3.3698,-6.75 -7.1875,-6.75 z m 41.78125,0 c -3.57561,0 -6.41578,2.33396 -7.8125,5.9375 l -0.0625,0 0,-5.34375 -4.375,0 0,27.375 4.59375,0 0,-13.59375 c 0,-4.39036 1.51793,-9.46875 5.75,-9.46875 4.43692,0 4.6875,4.57317 4.6875,8.65625 l 0,14.40625 4.625,0 0,-13.59375 c 0,-4.39036 1.51793,-9.46875 5.75,-9.46875 4.43692,0 4.65625,4.57317 4.65625,8.65625 l 0,14.40625 4.625,0 0,-17.65625 c 0,-3.86892 -0.6847,-10.3125 -7.375,-10.3125 -4.23207,0 -6.74168,2.5738 -7.8125,6.75 l -0.0625,0 c -0.66111,-4.1762 -3.36979,-6.75 -7.1875,-6.75 z m 89.625,0 c -7.22571,0 -11.25,5.80858 -11.25,13.9375 0,8.25928 3.16298,14.65625 11.25,14.65625 4.52072,0 7.39264,-2.89109 8.375,-4.5625 l 0,-5.53125 -0.15625,0.0937 c -1.43862,3.16125 -3.96284,5.875 -7.90625,5.875 -4.92577,0 -7.21875,-3.63602 -7.21875,-8.6875 l 16.625,0 0,-3.25 c 0,-7.16518 -2.69324,-12.53125 -9.71875,-12.53125 z m 85.34375,0 c -8.45948,0 -11.65625,5.77733 -11.65625,13.90625 0,8.26394 3.15487,14.6875 11.65625,14.6875 8.50138,0 11.625,-6.42356 11.625,-14.6875 0,-8.12892 -3.16552,-13.90625 -11.625,-13.90625 z m 86.8125,0 c -7.23036,0 -11.25,5.80858 -11.25,13.9375 0,8.25928 3.15367,14.65625 11.25,14.65625 4.51607,0 7.38798,-2.89109 8.375,-4.5625 l 0,-5.53125 -0.15625,0.0937 c -1.43862,3.16125 -3.93159,5.875 -7.875,5.875 -4.93043,0 -7.25,-3.63602 -7.25,-8.6875 l 16.65625,0 0,-3.25 c 0,-7.16518 -2.72915,-12.53125 -9.75,-12.53125 z m 129.78125,0 c -3.4499,0 -4.71713,3.10992 -5.625,6.625 l -0.0625,0 0,-6.03125 -4.46875,0 0,27.375 4.59375,0 0,-12.5625 c 0,-6.50407 1.75474,-10.21875 5.65625,-10.21875 1.96938,0 3.24704,0.69787 4.1875,1.53125 l 0,-5.21875 c -0.98702,-0.83338 -2.39102,-1.5 -4.28125,-1.5 z m 18.875,0 c -7.22571,0 -11.28125,5.80858 -11.28125,13.9375 0,8.25928 3.19423,14.65625 11.28125,14.65625 4.52072,0 7.38798,-2.89109 8.375,-4.5625 l 0,-5.53125 -0.15625,0.0937 c -1.43862,3.16125 -3.96284,5.875 -7.90625,5.875 -4.93043,0 -7.21875,-3.63602 -7.21875,-8.6875 l 16.625,0 0,-3.25 c 0,-7.16518 -2.69324,-12.53125 -9.71875,-12.53125 z m -380.71875,0.59375 0,27.375 4.625,0 0,-27.375 c -0.57731,0.30728 -1.53034,0.46875 -2.3125,0.46875 -0.78216,0 -1.73984,-0.16147 -2.3125,-0.46875 z m 276.5625,0 0,18.34375 c 0,7.384 4.5774,9.65625 7.90625,9.65625 3.98531,0 6.65097,-1.80313 8.625,-6.15625 l 0.0937,0 0,5.53125 4.34375,0 0,-27.375 -4.59375,0 0,13.71875 c 0,3.95272 -1.09391,9.875 -6.84375,9.875 -4.51607,0 -4.9375,-3.58918 -4.9375,-7.5 l 0,-16.09375 -4.59375,0 z m 47.03125,0 0,18.34375 c 0,7.384 4.5774,9.65625 7.90625,9.65625 3.98066,0 6.65097,-1.80313 8.625,-6.15625 l 0.0937,0 0,5.53125 4.34375,0 0,-27.375 -4.59375,0 0,13.71875 c 0,3.95272 -1.09391,9.875 -6.84375,9.875 -4.51607,0 -4.9375,-3.58918 -4.9375,-7.5 l 0,-16.09375 -4.59375,0 z m -263.875,4.0625 c 4.27397,0 6.53125,2.40147 6.53125,6.96875 l -13.25,0 c 0.3678,-4.7023 2.81724,-6.96875 6.71875,-6.96875 z m 172.1875,0 c 4.27397,0 6.53125,2.40147 6.53125,6.96875 l -13.28125,0 c 0.37246,-4.7023 2.84849,-6.96875 6.75,-6.96875 z m 148.625,0 c 4.27397,0 6.53125,2.40147 6.53125,6.96875 l -13.25,0 c 0.3678,-4.7023 2.81724,-6.96875 6.71875,-6.96875 z m -481.84375,0.25 c 5.29823,0 7.28125,3.86006 7.28125,9 0,5.80105 -1.98302,10.28125 -7.28125,10.28125 -5.34014,0 -7.3125,-4.4802 -7.3125,-10.28125 0,-5.13994 2.01426,-9 7.3125,-9 z m 186.84375,0 c 4.64177,0 6.59375,3.8183 6.59375,8.5625 0,5.09803 -1.33721,10.71875 -7.25,10.71875 -4.84662,0 -6.09375,-4.78183 -6.09375,-9.21875 0,-5.13994 1.49367,-10.0625 6.75,-10.0625 z m 59.71875,0 c 5.29823,0 7.28125,3.86006 7.28125,9 0,5.80105 -1.98302,10.28125 -7.28125,10.28125 -5.34013,0 -7.3125,-4.4802 -7.3125,-10.28125 0,-5.13994 2.01427,-9 7.3125,-9 z m -46.78125,41.78125 c -4.02256,0 -7.4375,2.74056 -7.4375,7.3125 0,1.49449 0.0764,2.81265 0.28125,4.4375 l -3.6875,0 0,4.375 3.71875,0 0,17.90625 4.625,0 0,-17.90625 7.625,0 0,-4.375 -8,0 c -0.16295,-1.31757 -0.21875,-2.24507 -0.21875,-3.125 0,-2.15095 1.47461,-3.9375 3.9375,-3.9375 1.72728,0 3.37874,0.28626 4.15625,1.25 l 0,-4.15625 c -0.73561,-0.96839 -2.86302,-1.78125 -5,-1.78125 z m 37.3125,0 0,10.0625 -0.0625,0 c -1.63882,-2.89587 -4.74126,-4.03125 -7.125,-4.03125 -5.99659,0 -10.34375,4.00131 -10.34375,14.5 0,6.85325 2.02288,14.09375 9.5,14.09375 4.14826,0 7.15259,-2.94824 8.21875,-6.8125 l 0.0625,0 0,6.21875 4.375,0 0,-34.03125 -4.625,0 z m 126.5625,0 c -0.94511,4.1762 -3.45219,7.64602 -7.4375,8.4375 l 0,3.3125 4.0625,0 0,15.15625 c 0,4.2181 1.55547,7.71875 6.9375,7.71875 2.17423,0 4.97179,-1.57816 5.875,-2.5 l 0,-4.34375 c -0.90321,1.32223 -2.37762,2.46875 -4.59375,2.46875 -3.0821,0 -3.625,-1.79699 -3.625,-4.5625 l 0,-13.9375 8.4375,0 0,-4.40625 -8.15625,0 0.25,-7.34375 -1.75,0 z m 42.4375,0 0,34.03125 4.59375,0 0,-34.03125 -4.59375,0 z m -231.75,6.03125 c -8.45948,0 -11.65625,5.81324 -11.65625,13.9375 0,8.26394 3.15487,14.65625 11.65625,14.65625 8.50138,0 11.625,-6.39231 11.625,-14.65625 0,-8.12426 -3.16552,-13.9375 -11.625,-13.9375 z m 84.5625,0 c -7.22571,0 -11.25,5.80858 -11.25,13.9375 0,8.25928 3.16298,14.65625 11.25,14.65625 4.52072,0 7.39264,-2.89109 8.375,-4.5625 l 0,-5.53125 -0.15625,0.0937 c -1.43862,3.16125 -3.93159,5.875 -7.875,5.875 -4.92577,0 -7.25,-3.63602 -7.25,-8.6875 l 16.65625,0 0,-3.25 c 0,-7.16053 -2.72449,-12.53125 -9.75,-12.53125 z m 25.875,0 c -3.4499,0 -4.72179,3.10992 -5.625,6.625 l -0.0625,0 0,-6 -4.46875,0 0,27.375 4.59375,0 0,-12.5625 c 0,-6.50407 1.75009,-10.25 5.65625,-10.25 1.96938,0 3.24239,0.69787 4.1875,1.53125 l 0,-5.21875 c -0.98702,-0.83803 -2.39102,-1.5 -4.28125,-1.5 z m 21,0 c -3.57561,0 -6.41578,2.33396 -7.8125,5.9375 l -0.0625,0 0,-5.3125 -4.375,0 0,27.375 4.59375,0 0,-13.625 c 0,-4.39036 1.52259,-9.46875 5.75,-9.46875 4.43692,0 4.6875,4.56851 4.6875,8.65625 l 0,14.4375 4.625,0 0,-13.625 c 0,-4.39036 1.51793,-9.46875 5.75,-9.46875 4.43692,0 4.65625,4.56851 4.65625,8.65625 l 0,14.4375 4.59375,0 0,-17.6875 c 0,-3.86892 -0.6488,-10.3125 -7.34375,-10.3125 -4.23207,0 -6.71043,2.57846 -7.78125,6.75 l -0.0937,0 c -0.66111,-4.17154 -3.36514,-6.75 -7.1875,-6.75 z m 37.875,0 c -4.18551,0 -6.52646,1.70867 -9.03125,4.125 l 0,5.21875 c 2.29993,-2.77016 4.64314,-4.4375 8.21875,-4.4375 2.09043,0 4.46875,0.84418 4.46875,3.65625 0,2.54669 -1.66091,3.07823 -3.71875,3.78125 -4.84662,1.75987 -10.34375,2.19924 -10.34375,9.1875 0,4.39036 2.59179,7.0625 6.65625,7.0625 3.124,0 5.83868,-2.08882 7.15625,-5.03125 l 0.0937,0 0,4.4375 4.59375,0 0,-19.875 c 0,-5.40066 -2.87467,-8.125 -8.09375,-8.125 z m 44.625,0 c -8.45948,0 -11.65625,5.81324 -11.65625,13.9375 0,8.26394 3.15487,14.65625 11.65625,14.65625 8.50138,0 11.625,-6.39231 11.625,-14.65625 0,-8.12426 -3.16552,-13.9375 -11.625,-13.9375 z m 40.21875,0 c -8.45948,0 -11.65625,5.81324 -11.65625,13.9375 0,8.26394 3.15487,14.65625 11.65625,14.65625 8.50138,0 11.625,-6.39231 11.625,-14.65625 0,-8.12426 -3.16552,-13.9375 -11.625,-13.9375 z m 26.625,0 c -7.23036,0 -10.1875,6.40204 -10.1875,13.34375 0,6.63443 2.75645,12.3125 9.65625,12.3125 2.9983,0 6.85603,-1.58925 7.96875,-5.28125 l 0.0625,0 0,3.65625 c 0,3.78046 -1.38257,6.6875 -6.84375,6.6875 -3.78046,0 -6.60377,-1.23999 -8.53125,-3.4375 l 0,4.78125 c 1.72262,1.22912 5.10865,2.53125 8.4375,2.53125 9.44649,0 11.5625,-5.03212 11.5625,-10.65625 l 0,-23.3125 -4.375,0 0,3.84375 -0.0625,0 c -1.47587,-3.24971 -4.2795,-4.46875 -7.6875,-4.46875 z m 16.125,0.625 9,25.96875 -2.4375,8 4.90625,0 10.8125,-33.96875 -4.78125,0 -6.03125,20.78125 -0.0937,0 -6.5625,-20.78125 -4.8125,0 z m -212.5,4.03125 c 4.27397,0 6.53125,2.43272 6.53125,7 l -13.28125,0 c 0.37246,-4.7023 2.84849,-7 6.75,-7 z m 197.46875,0 c 4.55797,0 6.40625,3.92277 6.40625,8.40625 0,4.56728 -2.16678,8.46875 -6.6875,8.46875 -4.64177,0 -6.65625,-3.30299 -6.65625,-8.09375 0,-5.48912 2.17468,-8.78125 6.9375,-8.78125 z m -281.875,0.25 c 5.29823,0 7.28125,3.89131 7.28125,9.03125 0,5.80571 -1.98302,10.28125 -7.28125,10.28125 -5.34013,0 -7.3125,-4.47554 -7.3125,-10.28125 0,-5.13994 2.01427,-9.03125 7.3125,-9.03125 z m 56.3125,0 c 4.64177,0 6.625,3.84955 6.625,8.59375 0,5.09803 -1.36846,10.71875 -7.28125,10.71875 -4.84662,0 -6.0625,-4.81308 -6.0625,-9.25 0,-5.13994 1.46242,-10.0625 6.71875,-10.0625 z m 157.625,0 c 5.29823,0 7.28125,3.89131 7.28125,9.03125 0,5.80571 -1.98302,10.28125 -7.28125,10.28125 -5.34013,0 -7.3125,-4.47554 -7.3125,-10.28125 0,-5.13994 2.01427,-9.03125 7.3125,-9.03125 z m 40.21875,0 c 5.29823,0 7.28125,3.89131 7.28125,9.03125 0,5.80571 -1.98302,10.28125 -7.28125,10.28125 -5.34013,0 -7.3125,-4.47554 -7.3125,-10.28125 0,-5.13994 2.01427,-9.03125 7.3125,-9.03125 z m -81.4375,9.40625 0.0937,0 0,3.03125 c 0,3.51508 -2.22095,7.40625 -5.75,7.40625 -1.68538,0 -3.5625,-1.19809 -3.5625,-3.4375 0,-4.83266 5.51744,-4.84439 9.21875,-7 z"
       id="path12"
       style="fill:#263d96;fill-opacity:1;fill-rule:nonzero;stroke:none" />
    <path
       d="m 121.34236,469.50648 0,4.07377 566.96189,0 0,125.92377 127.48809,0 0,-129.99754 -694.44998,0"
       id="path16"
       style="fill:#009ec5;fill-opacity:1;fill-rule:nonzero;stroke:none" />
    <path
       d="m 755.30047,412.03731 -47.03125,48.125 c -2.73757,2.69567 0.78125,5.875 0.78125,5.875 l 41.90625,42.0625 c 4.80007,4.80007 5.3116,4.69305 10.21875,-0.21875 -0.009,-0.0326 35.25,-40.21875 35.25,-40.21875 0,0 3.24786,-5.78069 -2.5625,-7.53125 l -41.3125,0 0,9.375 30.6875,0 -27.3125,30.28125 -36.78125,-36.9375 42.1875,-44.9375 -6.03125,-5.875 z m -22.03125,122.90625 0,7.40625 37.5,0 0,-7.40625 -37.5,0 z"
       id="path52"
       style="fill:#ffffff;fill-opacity:1;fill-rule:nonzero;stroke:none" />
  </g>
</svg>
