<?xml version="1.0" encoding="UTF-8" standalone="no"?>
<svg
   xmlns:dc="http://purl.org/dc/elements/1.1/"
   xmlns:cc="http://web.resource.org/cc/"
   xmlns:rdf="http://www.w3.org/1999/02/22-rdf-syntax-ns#"
   xmlns:svg="http://www.w3.org/2000/svg"
   xmlns="http://www.w3.org/2000/svg"
   xmlns:sodipodi="http://sodipodi.sourceforge.net/DTD/sodipodi-0.dtd"
   xmlns:inkscape="http://www.inkscape.org/namespaces/inkscape"
   width="187.08743"
   height="74.912399"
   id="svg2"
   sodipodi:version="0.32"
   inkscape:version="0.44.1"
   sodipodi:docname="Heinz.eps(converted)-page1.svg"
   sodipodi:docbase="C:\Documents and Settings\John\My Documents\My Pictures\project logos"
   version="1.0"
   inkscape:export-filename="C:\Documents and Settings\John\My Documents\My Pictures\project logos\Heinz.eps(converted)-page1.png"
   inkscape:export-xdpi="90"
   inkscape:export-ydpi="90">
  <metadata
     id="metadata39">
    <rdf:RDF>
      <cc:Work
         rdf:about="">
        <dc:format>image/svg+xml</dc:format>
        <dc:type
           rdf:resource="http://purl.org/dc/dcmitype/StillImage" />
      </cc:Work>
    </rdf:RDF>
  </metadata>
  <defs
     id="defs37" />
  <sodipodi:namedview
     inkscape:window-height="573"
     inkscape:window-width="853"
     inkscape:pageshadow="2"
     inkscape:pageopacity="0.0"
     guidetolerance="10.0"
     gridtolerance="10.0"
     objecttolerance="10.0"
     borderopacity="1.0"
     bordercolor="#666666"
     pagecolor="#ffffff"
     id="base"
     inkscape:zoom="1.5546392"
     inkscape:cx="121.25"
     inkscape:cy="63.309547"
     inkscape:window-x="48"
     inkscape:window-y="68"
     inkscape:current-layer="svg2" />
  <g
     style="fill:none;fill-rule:evenodd;stroke:none;stroke-width:1pt;stroke-linecap:butt;stroke-linejoin:miter;stroke-dasharray:none"
     id="g4"
     transform="translate(-2.834471,-56.08784)">
    <path
       d="M 0,0 C 0,0 192.756,0 192.756,0 C 192.756,0 192.756,192.756 192.756,192.756 C 192.756,192.756 0,192.756 0,192.756 C 0,192.756 0,0 0,0 z "
       id="path6"
       style="fill:none" />
  </g>
  <g
     transform="translate(-0.356937,0)"
     style="fill:#ff0017;fill-rule:evenodd;stroke:none;stroke-width:1pt;stroke-linecap:butt;stroke-linejoin:miter;stroke-dasharray:none"
     id="g8">
    <path
       d="M 93.9004,0 C 125.635,0 155.028,6.503 175.056,16.127 C 175.056,16.127 175.316,16.127 175.316,16.127 C 176.096,16.3868 176.617,17.167 176.617,18.2081 C 176.617,18.4678 176.617,18.4678 176.357,18.7276 C 176.357,18.7276 172.975,30.1729 172.975,30.1729 C 172.975,30.4327 172.975,30.4327 172.975,30.6934 C 172.975,31.7334 173.755,32.7735 174.796,33.0342 C 174.796,33.0342 175.056,33.0342 175.056,33.0342 C 178.698,34.0743 182.339,35.6348 185.721,36.9356 C 187.021,37.4561 187.801,38.4961 187.282,39.5372 C 187.282,39.5372 187.282,39.7969 187.282,39.7969 C 187.282,39.7969 177.397,72.8314 177.397,72.8314 C 177.137,73.8724 176.357,74.9124 175.056,74.9124 C 175.056,74.9124 174.796,74.9124 174.796,74.9124 C 174.796,74.9124 13.0059,74.9124 13.0059,74.9124 C 13.0059,74.9124 12.4854,74.9124 12.4854,74.9124 C 11.4443,74.9124 10.6641,73.8724 10.4043,72.8314 C 10.4043,72.8314 0.51954,39.7969 0.51954,39.7969 C 0.51954,39.7969 0.51954,39.5372 0.51954,39.5372 C 0,38.4961 0.78028,37.4561 2.08106,36.9356 C 5.46192,35.6348 9.1035,34.0743 12.7451,33.0342 C 12.7451,33.0342 13.0059,33.0342 13.0059,33.0342 C 14.0459,32.7735 14.8262,31.7334 14.8262,30.6934 C 14.8262,30.4327 14.8262,30.4327 14.8262,30.1729 C 14.8262,30.1729 11.1846,18.7276 11.1846,18.7276 C 11.1846,18.4678 11.1846,18.4678 11.1846,18.2081 C 11.1846,17.167 11.7051,16.3868 12.4854,16.127 C 12.4854,16.127 12.7451,16.127 12.7451,16.127 C 32.7734,6.503 62.167,0 93.9004,0 z "
       id="path10" />
  </g>
  <g
     transform="translate(12.38816,16.9073)"
     style="fill:white;fill-rule:evenodd;stroke:none;stroke-width:1pt;stroke-linecap:butt;stroke-linejoin:miter;stroke-dasharray:none"
     id="g12">
    <path
       d="M 22.3701,20.289 C 22.6299,20.289 15.8672,21.3291 15.0869,20.8086 C 14.8262,20.5488 14.3067,20.0283 14.0459,19.248 C 11.7051,13.0049 12.7461,9.624 13.5264,7.8027 C 14.5664,4.6816 17.9483,2.6006 20.2891,1.8203 C 25.4912,0 41.878,0.5205 42.1387,0.5205 C 43.6992,0.5205 43.6992,1.5605 43.4395,2.3408 C 42.919,4.1611 38.2373,21.0693 38.2373,21.0693 C 38.2373,21.0693 46.0401,21.0693 46.0401,21.0693 C 46.0401,21.0693 49.6817,7.8027 49.6817,7.8027 C 50.2022,4.9424 52.543,0.5205 55.6641,0.5205 C 55.6641,0.5205 64.2481,0.5205 64.2481,0.5205 C 62.9473,1.8203 60.8662,2.3408 57.2246,15.0859 C 57.2246,15.0859 51.7627,36.1551 51.7627,36.1551 C 50.7217,38.7571 52.543,40.5771 53.0635,40.8381 C 53.3233,41.0981 53.3233,41.6181 53.0635,41.8781 C 52.8028,42.1381 49.6817,44.9991 41.878,44.9991 C 39.7969,45.2601 40.3174,41.3571 41.0987,39.0161 C 41.878,36.1551 45,24.4502 45,24.4502 C 45,24.4502 37.1963,24.4502 37.1963,24.4502 C 37.1963,24.4502 35.8955,28.8721 35.1153,31.4741 C 34.5947,33.5551 33.0342,36.4161 30.6934,38.4961 C 29.1328,39.5371 14.5664,49.9411 6.2432,44.2191 C 3.1211,42.1381 1.041,37.7171 0.2608,33.8141 C 0,31.7331 0,28.0921 0.7803,28.0921 C 1.8213,26.7911 7.544,24.4502 9.1045,24.4502 C 9.8848,24.4502 9.1045,27.3111 9.3643,31.2141 C 9.624,34.3351 10.9248,38.4961 13.0059,40.5771 C 13.7862,41.0981 14.8262,41.6181 15.8672,41.8781 C 16.9072,42.1381 17.9483,42.1381 18.7285,41.8781 C 22.1094,40.8381 25.4912,33.5551 26.2715,30.1731 C 27.5723,25.751 31.9942,9.624 32.5147,8.0635 C 33.0342,5.9824 33.8145,4.1611 33.2949,3.1211 C 33.0342,2.6006 31.7344,2.3408 31.2139,2.3408 C 29.6533,2.081 28.3526,2.081 26.792,2.3408 C 25.751,2.6006 19.2481,3.9013 20.2891,13.0049 C 20.5489,15.3467 22.1094,17.6875 22.6299,18.9883 C 23.1504,20.0283 22.8897,20.289 22.3701,20.289 z "
       id="path14" />
  </g>
  <g
     transform="translate(63.63036,29.9122)"
     style="fill:white;fill-rule:evenodd;stroke:none;stroke-width:1pt;stroke-linecap:butt;stroke-linejoin:miter;stroke-dasharray:none"
     id="g16">
    <path
       d="M 17.4277,26.0112 C 18.9883,26.5322 20.8096,26.5322 22.3701,26.0112 C 23.9307,25.4912 24.1904,25.2312 25.4912,24.7122 C 25.4912,24.7122 27.3125,23.6712 26.0117,26.0112 C 24.4512,28.0932 22.6299,29.6532 20.2891,30.9542 C 17.6875,32.2552 14.8262,32.5142 12.2256,32.5142 C 0,31.4742 5.4629,16.6472 6.2432,14.5662 C 11.9658,0.5205 24.1904,0 27.5723,0 C 33.0342,0.5205 35.8954,11.4453 15.6074,16.3872 C 15.6074,16.3872 12.4854,23.9302 17.4277,26.0112 z M 20.2891,12.2255 C 20.2891,12.2255 24.1904,4.4228 22.6299,3.9023 C 19.5088,2.3418 16.6475,12.2255 16.127,13.2666 C 17.168,13.2666 18.7285,12.7461 20.2891,12.2255 z "
       id="path18" />
  </g>
  <g
     transform="translate(106.8088,28.3526)"
     style="fill:white;fill-rule:evenodd;stroke:none;stroke-width:1pt;stroke-linecap:butt;stroke-linejoin:miter;stroke-dasharray:none"
     id="g20">
    <path
       d="M 33.295,6.5019 C 33.295,6.5019 28.613,23.1498 28.613,23.1498 C 28.353,24.7098 27.052,27.5708 28.613,28.6118 C 28.873,28.8718 29.394,28.8718 29.654,29.1318 C 30.434,29.1318 30.434,29.6528 28.873,30.6928 C 28.093,31.2128 19.769,34.8548 17.949,33.5538 C 15.868,32.7738 17.168,28.6118 17.949,26.5308 C 18.729,24.4498 20.81,15.8658 22.63,10.1435 C 22.89,8.8437 23.41,7.0224 21.329,7.2822 C 20.03,7.543 16.388,9.3633 15.347,13.2646 C 14.046,17.9468 12.226,23.4098 12.226,23.6698 C 10.665,29.1318 12.226,29.6528 11.185,30.6928 C 10.925,30.9528 10.145,31.4738 9.365,31.7338 C 8.584,32.2538 3.121,34.5948 1.822,33.5538 C 0,32.2538 1.041,28.3518 1.822,26.2718 C 2.602,24.1908 5.723,13.2646 6.764,10.1435 C 7.284,8.3232 7.024,7.543 6.243,6.5019 C 5.463,5.7217 6.243,4.9414 6.764,4.9414 C 8.584,3.3808 16.127,1.04 17.428,1.5596 C 18.469,2.0801 17.949,4.4209 17.428,5.9824 C 17.428,5.9824 21.85,2.0801 28.093,1.04 C 35.376,0 33.555,5.4619 33.295,6.5019 z "
       id="path22" />
  </g>
  <g
     transform="translate(90.68216,29.3926)"
     style="fill:white;fill-rule:evenodd;stroke:none;stroke-width:1pt;stroke-linecap:butt;stroke-linejoin:miter;stroke-dasharray:none"
     id="g24">
    <path
       d="M 7.0236,3.9014 C 6.7626,3.9014 5.9824,4.6817 6.7626,5.4619 C 7.5426,6.503 7.5426,7.2832 7.0236,9.1035 C 6.2436,12.2246 2.6015,23.4098 1.8213,25.4908 C 1.041,27.5718 0,31.7338 2.3408,32.5138 C 4.1621,33.8148 11.9656,30.4338 13.0056,29.6528 C 14.8276,28.8718 14.8276,28.0918 14.0466,28.0918 C 13.5266,27.8318 13.2656,27.8318 13.0056,27.5718 C 11.4456,26.5308 12.4856,23.6698 13.0056,22.1098 C 13.0056,22.1098 17.9486,5.4619 17.9486,5.4619 C 18.2076,3.6416 19.2476,1.3008 17.9486,0.5196 C 16.3876,0 8.8436,2.3408 7.0236,3.9014 z "
       id="path26" />
  </g>
  <g
     transform="translate(101.6068,16.127)"
     style="fill:white;fill-rule:evenodd;stroke:none;stroke-width:1pt;stroke-linecap:butt;stroke-linejoin:miter;stroke-dasharray:none"
     id="g28">
    <path
       d="M 1.561,9.8838 C 2.081,10.9248 6.763,8.8438 9.105,7.543 C 9.364,7.2832 10.404,6.5029 10.665,5.7227 C 11.185,3.9014 11.445,3.1211 11.705,1.8203 C 11.966,1.3008 11.966,0.5205 11.185,0.2598 C 10.145,0 3.903,0.7803 2.341,3.3809 C 1.821,4.4219 0,9.3643 1.561,9.8838 z "
       id="path30" />
  </g>
  <g
     transform="translate(137.5028,29.9122)"
     style="fill:white;fill-rule:evenodd;stroke:none;stroke-width:1pt;stroke-linecap:butt;stroke-linejoin:miter;stroke-dasharray:none"
     id="g32">
    <path
       d="M 7.023,9.3642 C 7.283,9.1045 7.803,8.0644 8.584,8.0644 C 8.584,8.0644 17.687,8.0644 17.687,8.0644 C 20.549,8.0644 5.463,22.3702 0.78,29.9142 C 0,31.2142 1.3,31.2142 2.081,31.2142 C 2.081,31.2142 21.849,31.2142 21.849,31.2142 C 26.792,31.2142 26.011,31.9942 28.612,28.3522 C 28.612,28.3522 36.675,17.9482 35.376,14.3062 C 34.594,11.4453 29.913,10.665 28.092,12.2255 C 27.051,13.2666 26.531,15.3472 26.792,15.8672 C 31.214,14.5662 31.994,18.4692 31.214,20.0292 C 29.653,22.3702 29.132,23.1502 27.051,23.1502 C 27.051,23.1502 13.265,23.1502 13.265,23.1502 C 13.006,22.8902 12.746,22.6312 13.265,22.1102 C 14.046,21.0692 27.572,2.6015 28.092,1.8212 C 28.352,1.3017 29.132,0 27.312,0 C 27.312,0 12.225,0 12.225,0 C 10.665,0 9.884,0.5205 8.584,1.8212 C 7.544,3.122 6.243,7.0234 5.463,9.625 C 5.463,9.625 5.463,10.665 7.023,9.3642 z "
       id="path34" />
  </g>
</svg>
