<?xml version="1.0" encoding="utf-8"?>
<!-- Generator: Adobe Illustrator 16.0.0, SVG Export Plug-In . SVG Version: 6.00 Build 0)  -->
<!DOCTYPE svg PUBLIC "-//W3C//DTD SVG 1.1//EN" "http://www.w3.org/Graphics/SVG/1.1/DTD/svg11.dtd">
<svg version="1.1" id="Layer_1" xmlns="http://www.w3.org/2000/svg" xmlns:xlink="http://www.w3.org/1999/xlink" x="0px" y="0px"
	 width="129.289px" height="24.168px" viewBox="0.001 0 129.289 24.168" enable-background="new 0.001 0 129.289 24.168"
	 xml:space="preserve">
<path fill="#AC0000" d="M1.933,21.748c0,1.055,0.659,1.188,1.186,0.924c0.659-0.395,1.318-1.449,1.582-2.77
	c0.528-3.69,0.132-5.932,0-6.063C4.569,13.84,1.669,17.268,1.933,21.748L1.933,21.748L1.933,21.748L1.933,21.748z M4.569,12.785
	c-0.264-1.45-0.395-2.372-0.395-3.954C4.042,7.249,3.911,5.536,4.438,3.69c0.396-1.319,1.187-2.636,1.45-3.164
	C4.569,1.318,3.119,2.108,2.065,5.141c-0.528,1.317-0.528,6.327,1.582,8.832c0.264-0.265,0.395-0.396,0.527-0.527
	C4.305,13.181,4.438,13.049,4.569,12.785L4.569,12.785L4.569,12.785L4.569,12.785z M6.415,11.731
	c0.396,1.45,0.264,5.404-0.527,7.515c-0.659,1.844-1.45,3.557-2.9,4.611c-1.713,1.055-2.768-0.789-2.372-2.898
	c0.659-3.296,2.636-6.46,2.768-6.46c-3.691-2.503-4.086-7.25-2.505-10.413C2.197,1.45,5.097,0,6.679,0C6.81,0,6.943,0,6.943,0.131
	C5.888,2.636,5.888,4.877,6.019,6.194c0,1.846,0.396,4.614,0.528,4.746c0.396-0.395,1.186-1.055,1.977-1.714
	c2.108-1.318,3.558-1.581,3.558-1.581c-0.131,0-1.581,1.318-1.581,3.689c0,3.164,2.9,2.9,3.823,1.583
	c0.395-0.66,0.395-1.846,0.395-1.977c-0.132,0-1.977,0.264-2.768-0.923c-0.659-0.922,0-2.768,1.977-2.109
	c1.187,0.264,1.45,2.241,1.45,2.241c0.396-0.132,0.659-0.264,1.054-0.396c0.396-0.132,0.66-0.396,1.055-0.527
	c0-0.131,0-2.899,0-3.954c0.131-1.054,0.659-3.691,2.505-4.614c1.317-0.79,2.503,0.528,1.845,2.9
	c-0.792,2.505-2.636,4.746-2.636,4.746v4.35c0,0,1.977-3.69,2.241-4.086c1.054-1.318,2.636-1.055,2.636,0.659
	s-0.396,2.637-0.396,4.086c0,0.527,0.396,0.527,0.528,0.395c1.055-1.45,1.846-3.163,3.032-5.008
	c1.054-1.714,2.504-1.187,2.373,0.396c0,1.186,0,1.976,0,3.162c0,0.264,0.264,0.132,0.264,0c0.527-0.923,1.581-2.636,2.241-3.822
	c0.79-1.318,2.372-0.79,2.372,0.922c0,1.45-0.132,2.374-0.264,3.955c0,0.395,0.264,0.395,0.396,0.132
	c1.318-1.714,1.846-2.9,2.899-4.746c0.264-0.396,0.529-0.923,0.659-0.923c0.133-0.264,0.395-0.131,0.395,0
	c0,0,0.133,0.395,0.265,0.659c0.264,0.922,0.527,1.45,0.923,2.241c0.133,0,1.713-1.188,2.9-1.713
	c1.054-0.659,1.317-0.792,3.162-1.187c-0.658,0.264-1.713,2.108-1.713,3.427c0,3.031,2.372,3.427,3.56,2.504
	c1.056-0.791,1.056-2.636,0.923-3.031c0,0-2.11,0.791-3.032-0.792c-0.659-1.054,0.395-2.372,1.978-1.977
	c0.923,0.264,1.582,1.713,1.582,1.713s1.713-1.054,2.505-1.581c1.45-0.659,1.976,0,1.976,1.317
	c-0.131,1.319-0.263,3.296-0.263,3.296s1.582-2.769,2.372-3.822c1.582-2.11,2.505-0.264,2.505,0.659
	c0,1.188-0.395,2.241-0.265,4.218c0,0.264,0.397,0.396,0.528,0.264c0.396-0.131,0.659-0.526,0.659-0.526
	c0.132-0.132,0.527-0.132,0.395,0.131c-0.13,0.527-0.79,1.449-1.582,1.979c-0.658,0.395-1.845,0.262-1.845-1.056
	c0-0.396,0.132-3.691,0.265-4.481c0-0.264-0.265-0.527-0.528-0.264c-1.449,1.978-2.241,4.219-2.898,5.404
	c-0.396,0.658-1.583,0.658-1.583-0.264c0-1.978,0.133-3.164,0.133-5.141c0.132-0.527-0.133-0.658-0.528-0.527
	c-0.922,0.659-1.582,1.055-1.582,1.055c0,0.264,0.265,3.032-1.317,4.482c-1.583,1.45-4.351,1.055-5.272-0.923
	c-0.792-1.714-0.132-3.955,0.396-4.482c-0.66,0.132-1.055,0.396-1.583,0.792c-0.657,0.264-1.055,0.659-1.582,1.186
	c0.133,0,1.188,2.899-0.263,3.956c-1.582,0.922-2.769,0-2.769-1.055c0-1.054,1.187-2.24,1.319-2.24c0-0.132-0.263-0.661-0.396-1.055
	c-0.132-0.264-0.264-0.527-0.396-0.791c0,0.132-2.372,3.823-2.636,4.35c-1.318,1.846-2.505,0.923-2.505-0.131
	c-0.131-1.318,0.264-3.296,0.132-4.35c0-0.396-0.132-0.396-0.395-0.132c-1.188,1.846-1.45,2.9-2.9,5.142
	c-0.396,0.527-1.582,0.922-1.582-0.396c0.132-1.846,0.132-2.9,0.132-4.746c0-0.131-0.132-0.395-0.264-0.131
	c-1.318,1.581-2.241,4.086-3.296,5.141c-1.186,1.187-2.241,0.527-2.109-0.526c0-1.846,0-2.9,0.131-4.614
	c0-0.396-0.264-0.527-0.526-0.132c-1.188,1.846-1.451,2.636-2.638,5.405c-0.395,0.922-1.713,0.658-1.713-0.528
	c0.132-1.978,0.132-4.614,0.132-4.614c-0.395,0.264-0.659,0.396-1.055,0.528c-0.264,0.132-0.527,0.264-0.922,0.395
	c0,0.132,0.264,3.295-2.109,4.35c-1.846,0.791-3.955,0.264-4.613-2.373c-0.395-0.922,0-2.372,0.264-2.9
	c-0.527,0.264-0.791,0.396-1.318,0.792C7.205,11.071,6.943,11.334,6.415,11.731L6.415,11.731L6.415,11.731L6.415,11.731z
	 M13.665,8.435c-0.791-0.264-1.45,0.66-0.922,1.318c0.526,0.659,1.845,0.527,1.845,0.527C14.719,10.149,14.587,8.699,13.665,8.435
	L13.665,8.435L13.665,8.435L13.665,8.435z M47.146,8.435c-0.792-0.131-1.319,0.922-0.66,1.45c0.793,0.66,1.979,0.132,1.979,0.132
	S48.068,8.699,47.146,8.435L47.146,8.435L47.146,8.435L47.146,8.435z M20.915,2.504c0-0.923-0.527-1.978-1.187-0.66
	c-0.66,1.318-0.527,5.404-0.527,5.404S20.782,5.667,20.915,2.504L20.915,2.504L20.915,2.504L20.915,2.504z M37.787,14.234
	c-0.132,1.056,0.79,0.924,1.054,0.265c0.264-0.526-0.265-1.845-0.265-1.845S37.787,13.181,37.787,14.234L37.787,14.234
	L37.787,14.234z"/>
<path fill="#AC0000" d="M71.268,21.748c0.133,1.055,0.66,1.188,1.188,0.924c0.657-0.395,1.317-1.449,1.58-2.77
	c0.659-3.69,0.132-5.932,0-6.063C73.904,13.84,71.005,17.268,71.268,21.748L71.268,21.748L71.268,21.748L71.268,21.748z
	 M73.904,12.785c-0.264-1.45-0.396-2.372-0.396-3.954c-0.131-1.582-0.263-3.295,0.396-5.141c0.263-1.319,1.054-2.636,1.449-3.164
	c-1.449,0.791-2.77,1.582-3.955,4.614c-0.395,1.317-0.526,6.327,1.713,8.831c0.134-0.264,0.266-0.395,0.396-0.526
	C73.641,13.181,73.771,13.049,73.904,12.785L73.904,12.785L73.904,12.785L73.904,12.785z M82.999,8.435
	c-0.791-0.264-1.449,0.66-0.922,1.318c0.526,0.659,1.845,0.527,1.845,0.527C84.055,10.149,83.922,8.699,82.999,8.435L82.999,8.435
	L82.999,8.435L82.999,8.435z M116.479,8.435c-0.791-0.131-1.317,0.922-0.658,1.45c0.789,0.66,1.978,0.132,1.978,0.132
	S117.402,8.699,116.479,8.435L116.479,8.435L116.479,8.435L116.479,8.435z M90.248,2.504c0-0.923-0.527-1.978-1.188-0.66
	c-0.658,1.318-0.526,5.404-0.526,5.404S90.116,5.667,90.248,2.504L90.248,2.504L90.248,2.504L90.248,2.504z M107.12,14.234
	c-0.132,1.056,0.923,0.924,1.188,0.265c0.262-0.526-0.396-1.845-0.396-1.845S107.12,13.181,107.12,14.234L107.12,14.234
	L107.12,14.234L107.12,14.234z M66.258,12.917c0,0-0.79-1.186-1.977-1.583c-1.054-0.263-1.581,0.923-0.526,1.45
	C65.205,13.445,66.258,12.917,66.258,12.917L66.258,12.917L66.258,12.917L66.258,12.917z M75.354,6.194
	c0.131,1.846,0.527,4.614,0.527,4.746c0.396-0.395,1.186-1.055,1.977-1.714c2.108-1.318,3.56-1.581,3.56-1.581
	c-0.132,0-1.582,1.318-1.582,3.689c0.132,3.164,2.899,2.9,3.821,1.583c0.396-0.66,0.396-1.846,0.396-1.977
	c-0.132,0-1.977,0.264-2.769-0.923c-0.658-0.922,0-2.768,1.978-2.109c1.188,0.264,1.582,2.241,1.582,2.241
	c0.262-0.132,0.527-0.264,0.924-0.396c0.395-0.132,0.658-0.396,1.053-0.527c0-0.131,0-2.899,0-3.954
	c0.134-1.054,0.66-3.691,2.506-4.614c1.316-0.79,2.635,0.528,1.845,2.9c-0.79,2.505-2.637,4.746-2.637,4.746v4.35
	c0,0,1.978-3.69,2.241-4.086c1.056-1.318,2.636-1.055,2.636,0.659s-0.396,2.637-0.396,4.086c0,0.527,0.396,0.527,0.527,0.395
	c1.055-1.45,1.846-3.163,3.032-5.008c1.055-1.714,2.504-1.187,2.372,0.396c0,1.186,0,1.976,0,3.162c0,0.264,0.263,0.132,0.263,0
	c0.526-0.923,1.582-2.636,2.242-3.822c0.79-1.318,2.372-0.79,2.372,0.922c0,1.45-0.133,2.374-0.264,3.955
	c0,0.395,0.264,0.395,0.396,0.132c1.317-1.714,1.845-2.9,2.899-4.746c0.263-0.396,0.524-0.923,0.658-0.923
	c0.131-0.264,0.396-0.131,0.396,0c0,0,0.132,0.395,0.264,0.659c0.265,0.922,0.528,1.45,0.923,2.241c0.133,0,1.713-1.188,2.899-1.713
	c1.188-0.659,1.45-0.792,3.164-1.187c-0.526,0.264-1.581,2.108-1.581,3.427c-0.133,3.031,2.24,3.427,3.427,2.504
	c1.054-0.791,1.187-2.636,0.923-3.031c0,0-2.109,0.791-3.031-0.792c-0.527-1.054,0.395-2.372,1.978-1.977
	c0.923,0.264,1.582,1.713,1.582,1.713s1.713-1.054,2.635-1.581c1.318-0.659,1.847,0,1.847,1.317
	c-0.131,1.319-0.264,3.296-0.264,3.296s1.582-2.769,2.372-3.822c1.582-2.11,2.505-0.264,2.505,0.659
	c0,1.188-0.395,2.241-0.265,4.218c0,0.264,0.397,0.396,0.659,0.264c0.396-0.264,0.791-0.922,0.791-0.922
	c0.265-0.264,0.66-0.132,0.527,0.132c-0.131,0.527-1.187,1.846-1.979,2.374c-0.658,0.395-1.846,0.262-1.846-1.056
	c0-0.396,0.133-3.691,0.266-4.481c0-0.264-0.266-0.527-0.527-0.264c-1.449,1.978-2.242,4.219-2.9,5.404
	c-0.395,0.658-1.582,0.658-1.582-0.264c0.134-1.978,0.134-3.164,0.264-5.141c0-0.527-0.264-0.658-0.658-0.527
	c-0.922,0.659-1.582,1.055-1.582,1.055c0,0.264,0.266,3.032-1.316,4.482c-1.582,1.45-4.351,1.055-5.272-0.923
	c-0.792-1.714-0.133-3.955,0.396-4.482c-0.659,0.132-1.055,0.396-1.582,0.792c-0.659,0.264-1.055,0.659-1.45,1.186
	c0,0,1.056,2.899-0.396,3.956c-1.582,0.922-2.768,0-2.768-1.055c0-1.054,1.186-2.24,1.316-2.24c0-0.132-0.265-0.661-0.395-1.055
	c-0.133-0.264-0.266-0.527-0.395-0.791c0,0.132-2.244,3.823-2.639,4.35c-1.316,1.846-2.505,0.923-2.505-0.131
	c-0.133-1.318,0.265-3.296,0.265-4.35c0-0.396-0.265-0.396-0.526-0.132c-1.188,1.846-1.45,2.9-2.899,5.142
	c-0.396,0.527-1.582,0.922-1.582-0.396c0.133-1.846,0.133-2.9,0.133-4.746c0-0.131-0.133-0.395-0.266-0.131
	c-1.318,1.581-2.24,4.086-3.295,5.141c-1.186,1.187-2.24,0.527-2.109-0.526c0-1.846,0-2.9,0.133-4.614
	c0-0.396-0.264-0.527-0.527-0.132c-1.186,1.846-1.45,2.636-2.505,5.405c-0.396,0.922-1.845,0.658-1.845-0.528
	c0.131-1.978,0.131-4.614,0.131-4.614c-0.395,0.264-0.658,0.396-1.053,0.528c-0.265,0.132-0.529,0.264-0.924,0.395
	c0,0.132,0.395,3.295-2.109,4.35c-1.846,0.791-3.955,0.264-4.612-2.373c-0.265-0.922,0-2.372,0.263-2.9
	c-0.527,0.264-0.789,0.396-1.316,0.792c-0.528,0.395-0.791,0.658-1.187,1.055c0.263,1.45,0.132,5.405-0.659,7.515
	c-0.66,1.845-1.449,3.558-2.9,4.61c-1.713,1.056-2.768-0.789-2.371-2.897c0.658-3.296,2.635-6.46,2.768-6.46
	c-0.133-0.131-1.056-1.45-2.505-1.45c-1.583-0.132-2.769,0.396-2.769,0.527c0,0-0.133,0.922-0.396,1.45c0,0.264-0.397,0.527-0.397,0
	c0-0.528-0.129-1.319,0-1.319c0,0-3.293,0.66-4.611-0.791c-0.922-0.922,0-2.241,1.846-2.109c1.188,0.132,2.505,1.188,2.505,1.318
	c0-0.131-0.265-0.922-0.396-1.581c-0.133-0.264-0.266-0.66-0.527-0.924l1.185-0.658c0.266,0.658,0.527,1.054,0.66,1.713
	c0.131,0.791,0.131,1.319,0.131,2.108c0.66-0.131,1.057-0.264,1.584-0.264c1.053-0.131,1.186,0,1.845,0
	c-1.978-2.636-2.242-5.404-0.659-8.435C71.662,1.581,74.43,0,76.014,0c0.131,0,0.264,0,0.131,0.131
	C75.223,2.768,75.354,4.877,75.354,6.194L75.354,6.194L75.354,6.194z"/>
</svg>
