<?xml version="1.0" encoding="UTF-8" standalone="no"?>
<!-- Generator: Adobe Illustrator 12.0.0, SVG Export Plug-In . SVG Version: 6.00 Build 51448)  -->
<svg
   xmlns:dc="http://purl.org/dc/elements/1.1/"
   xmlns:cc="http://web.resource.org/cc/"
   xmlns:rdf="http://www.w3.org/1999/02/22-rdf-syntax-ns#"
   xmlns:svg="http://www.w3.org/2000/svg"
   xmlns="http://www.w3.org/2000/svg"
   xmlns:sodipodi="http://sodipodi.sourceforge.net/DTD/sodipodi-0.dtd"
   xmlns:inkscape="http://www.inkscape.org/namespaces/inkscape"
   version="1.1"
   id="Layer_1"
   width="192.756"
   height="192.756"
   viewBox="0 0 192.756 192.756"
   overflow="visible"
   enable-background="new 0 0 192.756 192.756"
   xml:space="preserve"
   sodipodi:version="0.32"
   inkscape:version="0.45.1"
   sodipodi:docname="Nestle.svg"
   inkscape:output_extension="org.inkscape.output.svg.inkscape"
   sodipodi:docbase="C:\Users\Virgile"><metadata
   id="metadata9488"><rdf:RDF><cc:Work
       rdf:about=""><dc:format>image/svg+xml</dc:format><dc:type
         rdf:resource="http://purl.org/dc/dcmitype/StillImage" /></cc:Work></rdf:RDF></metadata><defs
   id="defs9486" /><sodipodi:namedview
   inkscape:window-height="575"
   inkscape:window-width="761"
   inkscape:pageshadow="2"
   inkscape:pageopacity="0.0"
   guidetolerance="10.0"
   gridtolerance="10.0"
   objecttolerance="10.0"
   borderopacity="1.0"
   bordercolor="#666666"
   pagecolor="#ffffff"
   id="base"
   inkscape:zoom="1.9558406"
   inkscape:cx="96.377998"
   inkscape:cy="96.377998"
   inkscape:window-x="92"
   inkscape:window-y="92"
   inkscape:current-layer="Layer_1" />
<g
   id="g9433">
	
	<path
   fill-rule="evenodd"
   clip-rule="evenodd"
   fill="#005695"
   d="M110.637,32.98c1.035,0,1.941-0.776,1.941-1.812   s-0.906-1.812-1.941-1.812s-1.812,0.776-1.812,1.812S109.602,32.98,110.637,32.98L110.637,32.98z"
   id="path9437" />
	<path
   fill-rule="evenodd"
   clip-rule="evenodd"
   fill="#005695"
   d="M85.664,29.745c0.906,0,1.553-0.776,1.553-1.553   c0-0.906-0.647-1.553-1.553-1.553s-1.553,0.647-1.553,1.553C84.111,28.969,84.758,29.745,85.664,29.745L85.664,29.745z"
   id="path9439" />
	<path
   fill-rule="evenodd"
   clip-rule="evenodd"
   fill="#005695"
   d="M66.902,68.046l-0.776-0.776c2.2-2.07,4.399-5.176,4.788-6.987   c0.259-1.812,2.847-1.423,2.329,0.388C72.595,63.128,69.749,65.976,66.902,68.046L66.902,68.046z"
   id="path9441" />
	<path
   fill-rule="evenodd"
   clip-rule="evenodd"
   fill="#005695"
   d="M50.986,30.392c-3.881,1.682-4.399,5.693-1.682,8.152   c3.234,2.847,8.798,0.388,8.281-4.141c4.399,0.259,7.247-4.399,6.599-7.505c1.941-1.682,2.07-5.305-0.259-6.729   c-2.588-1.553-4.917-1.035-6.469,1.941C53.445,21.852,49.563,24.958,50.986,30.392l-1.812-0.776   c-2.458-5.305,1.812-10.61,7.117-9.316c1.165-2.588,5.046-5.305,9.446-2.717c3.364,2.07,4.141,7.504,0.518,10.092   c1.682,4.917-1.812,9.058-6.987,8.54c-0.647,6.47-6.599,7.246-10.61,4.27c-2.2-1.812-3.106-4.141-3.494-5.952   c-0.517-1.941-0.517-3.623-2.329-5.564c-1.423-1.423-4.011-1.423-4.011-1.423c0-4.658-4.27-8.928-9.705-6.858   c-1.941-1.682-4.399-1.812-6.082,0.259c-0.906,1.165-1.553,4.27,1.552,5.693c-0.129,4.27,3.106,6.987,7.894,6.599   c0.129,2.2,2.588,4.399,4.917,4.658l-0.129,1.165c-2.33-0.259-3.623,0.518-5.176,2.458c-5.564-0.259-9.446,2.329-9.316,6.34   c-3.882,0.647-4.658,4.788-2.458,6.987s5.435,1.294,6.599-1.294c4.011,0.776,7.505-2.07,7.634-5.305   c3.623,0,5.305-1.553,5.952-4.917l1.294,0.129c0.388,3.623-1.294,7.117-5.693,6.729c-0.129,4.399-4.27,6.729-8.281,5.305   c-1.812,3.494-6.082,4.788-9.575,1.424c-3.494-3.235-2.2-8.799,2.329-10.222c0-4.27,3.235-8.281,9.316-6.729   c0,0,0.776-1.941,2.717-2.07c-1.294-0.518-2.2-1.165-2.458-2.588c-4.658,1.035-8.54-3.235-7.505-7.505   c-4.141-2.2-4.27-6.34-2.2-8.799c2.2-2.588,5.823-3.105,8.928-0.388c5.563-2.976,11.646,0.776,11.257,6.987   c3.882-0.259,6.211,2.976,5.694,6.47c0.646-1.553,1.423-2.2,2.846-2.458L50.986,30.392L50.986,30.392z"
   id="path9443" />
	<path
   fill-rule="evenodd"
   clip-rule="evenodd"
   fill="#005695"
   d="M60.433,22.887l0.905,0.647   c-1.812,3.882-4.917,7.764-7.634,10.093l-1.036-0.906C54.61,29.616,58.621,24.44,60.433,22.887L60.433,22.887z"
   id="path9445" />
	<path
   fill-rule="evenodd"
   clip-rule="evenodd"
   fill="#005695"
   d="M33.777,43.59l0.518,1.035c-2.2,2.2-6.34,5.305-8.669,6.469   l-0.776-1.035C26.919,47.731,31.06,44.755,33.777,43.59L33.777,43.59z"
   id="path9447" />
	<path
   fill-rule="evenodd"
   clip-rule="evenodd"
   fill="#005695"
   d="M39.083,32.462l-1.035,1.294   c-2.976-1.941-8.799-7.117-10.093-9.058l0.906-0.906C31.707,25.216,37.141,30.133,39.083,32.462L39.083,32.462z"
   id="path9449" />
	<path
   fill-rule="evenodd"
   clip-rule="evenodd"
   fill="#005695"
   d="M33.648,81.891c0.388,1.683,0,3.623,1.553,5.435   c0.517,0.647,3.494,4.528,5.693,6.47c-2.976,1.164-8.798,3.623-12.939,4.14c-0.906,0.129-1.812,0.646-2.588,1.164   c-0.517,0.906-1.035,2.459-1.293,4.271c-0.129,1.293-0.129,2.717-0.129,4.139c0,1.295,0.646,5.436,2.07,8.152   c1.423,2.719,2.847,4.012,4.528,4.789c0.389-0.131,1.165-0.26,2.33-0.26c3.105-0.129,5.564,1.682,6.729,3.105   c0.388,0.646,1.293,0.775,2.329,0.775c2.587,0,5.434-0.904,8.022-1.939c0.647-0.389,2.2-1.553,3.753-2.719   c1.682-1.293,10.48-8.797,14.362-10.609c2.07,1.035,5.435,2.459,8.928,2.459c0.129,0,0.776,0.129,1.553-0.131   c1.035-0.258,2.458-0.646,4.271-1.033c3.105-0.648,6.728-1.166,7.893-1.166c2.847,0.129,11.257,0.26,13.328,0.26   s5.046-0.131,6.211-0.26c1.812-0.646,5.822-1.682,9.575-3.363c3.752-1.684,11.646-7.246,12.939-8.541   c0.646-0.517,1.294-1.164,1.682-1.681c0.13-0.259,0.259-0.389,0.259-0.518s-0.129-5.564-0.129-5.564s1.94-2.07,2.717-2.846   c0,0,0-0.13,0-0.259c-0.388-1.036-0.646-4.399-0.518-7.764l-1.812-0.906c-0.129,4.14-1.682,7.763-3.105,10.092   c-2.847,0.389-8.41,2.07-10.352,4.399l1.165,0.259c1.812-1.035,3.752-1.682,6.081-1.682c1.941,0,2.847,0.517,2.847,1.035   c0,0.388-0.388,1.293-0.518,1.682c-0.129,0.259-0.259,0.776-0.646,1.035c-2.718,2.977-5.693,5.436-9.446,7.506   c-2.458,1.422-4.917,2.328-8.539,3.492c-1.165,0.26-2.718,0.648-3.624,1.035c-1.423,0-8.669-0.258-12.939-0.258   s-13.068,0.646-15.786,1.293c-1.294,0.389-1.682,0.906-3.105,0.906c-2.717,0-6.34-1.424-8.54-2.459   c-0.388,0-1.164,0.389-1.941,0.777c-1.553,0.775-5.046,5.693-7.116,4.141c-1.036,2.199-5.564,4.141-6.987,6.34   c0.129-1.035,1.94-8.539,2.07-10.092c0-0.26,0.129-0.518-0.13-0.777c-1.552-2.717-6.211-4.398-8.799-4.916   c-0.646-0.131-1.035-0.26-1.552-0.389l-4.141-1.164l-3.752,1.164l4.399,0.775l-5.564,3.754c1.036-0.389,6.988-2.07,7.375-2.201   c0.518-0.129,1.165-0.258,1.812,0c0.906,0.26,3.105,0.777,4.529,1.295c0.776,0.258,2.07,1.682,2.458,2.459   c0.129,0.387,0.129,1.035,0.259,2.586c0,0.906-0.129,2.33-0.388,3.365c-0.647,2.717-1.94,4.787-2.329,5.564   c-0.518,1.035-1.165,1.424-1.941,1.682c-1.165,0.646-2.717,0.906-4.27,1.035c-1.165,0-1.941-0.129-2.459-0.775   c-1.423-2.07-5.175-4.012-8.928-3.236c-2.329-1.422-4.658-5.951-4.658-9.574c0-2.199,1.035-5.693,1.682-7.375   c3.752-0.518,11.387-3.365,15.009-5.047c0.777,0,2.976-0.776,5.046-0.776c4.917,0,9.834,4.269,12.81,7.246   c0.518-0.775,1.423-2.07,4.011-2.07c3.494,0,5.564,3.236,6.47,6.471l1.812-1.295c-0.259-1.811-1.294-3.881-2.717-5.434   c-1.165-1.164-3.493-2.2-5.305-2.2c-1.165,0-2.2,0.259-2.976,0.259c-2.458,0-3.494-1.165-5.434-2.458   c-1.941-1.294-5.694-3.364-8.411-3.364c-1.683,0-2.459,0.646-3.882,0.646c-2.07,0-2.846-0.776-3.752-2.07   c-0.517-0.518-2.588-2.329-3.105-3.106c-0.388-0.518-0.906-2.2-1.165-3.105L33.648,81.891L33.648,81.891z"
   id="path9451" />
	<path
   fill-rule="evenodd"
   clip-rule="evenodd"
   fill="#005695"
   d="M36.495,83.961c0.646,0.646,1.165,1.293,1.941,1.94   c0.776,0.518,1.682,1.035,2.458,1.553c1.294,0.647,2.718,1.423,4.012,1.941c1.294,0.258,2.846,0.388,4.27,0.388   c2.07,0,4.529-0.388,6.599,0.647c1.424,0.518,1.424,2.071,2.588,2.458c1.682,0.647,6.34,0.776,8.929,0.776   c5.176,0,10.739-0.647,14.104-1.423l-1.552-1.812c-2.33,0.389-9.058,1.165-12.164,1.165c-4.27,0-8.411-0.776-8.411-2.459   c0-1.293,1.294-3.105,3.882-3.105c2.717,0,6.858,1.682,7.634,1.941c0.776,0.129,1.035,0.129,1.553-0.129l1.553-0.777   c-2.07-1.035-9.446-3.493-12.033-3.493c-1.165,0-1.941,0.129-2.717,1.164c-0.906,1.294-3.624,2.459-7.764,2.459   c-2.329,0-5.693-0.518-6.34-0.776c-1.294-0.518-3.752-1.941-5.305-3.106c-2.07-1.423-3.882-3.105-5.046-5.046   c-0.388-0.518-0.647-1.165-0.647-1.812c0-0.518,0.259-0.905,0.259-1.293c0.388,0.517,0.776,0.906,1.293,1.293   c2.2,2.2,5.435,3.752,8.799,4.399c1.036,0.259,1.812,0.389,2.847,0.389c1.423,0,2.717-0.776,3.623-1.553l-1.423-1.553   c-0.388,0.13-1.294,0.13-1.812,0.13c-4.917,0-11.128-3.105-12.551-6.858c-0.13-0.389-0.388-0.518-0.13-0.906   c0.13-0.388,0.259-1.035,0.389-1.682c0.258,0.259,0.906,0.776,1.553,1.294c1.812,1.164,5.305,2.717,6.081,3.235   c1.683-0.518,2.976-1.165,4.011-1.682c1.036-0.518,2.459-1.035,4.011-1.035c3.624,0,7.764,2.07,11.646,4.011l2.587-1.035   c-3.494-2.458-10.869-5.823-15.009-5.823c-2.459,0-4.788,1.811-6.47,1.811c-1.94,0-7.634-2.846-7.634-5.176   c0-1.811,3.623-2.846,9.704-3.494c-1.035,1.424-2.07,3.106-2.976,4.659l1.552,0.906c9.317-13.586,19.15-22.385,27.302-27.82   c2.977-1.941,3.623-3.105,4.658-5.176c2.588-5.305,5.046-9.187,9.187-9.187c1.941,0,3.494,1.035,4.658,2.329l2.976,0.906   l-3.105,2.07l3.105,1.294c-4.011,1.165-9.575,5.176-11.904,10.999c-4.27,0.129-6.34,3.752-7.764,6.599   c-1.035,2.07-2.458,2.847-4.788,4.27L50.986,65.199l2.458,0.388l16.433-10.999c3.235-2.2,4.788-3.882,5.564-5.305   c1.423-3.105,3.105-5.435,6.34-5.435c1.553,0,3.235,0.776,4.658,2.07l2.847,0.906l-3.105,1.941l2.588,1.552   c-7.505,2.33-12.163,7.764-14.88,18.116l1.941,0.388c1.035-3.364,2.07-6.469,3.752-9.316c4.399,0,8.799-0.129,13.198-0.129   c11.516,0,21.091,0.518,26.267,1.941l-1.812-3.105c-5.564-1.035-13.587-1.423-24.456-1.423c-3.752,0-7.375,0.129-11.128,0.129   c2.458-2.458,5.823-4.658,11.128-6.211l-3.752-2.07l4.141-2.329l-5.693-2.07c-0.906-0.906-2.2-1.812-3.752-2.2   c1.812-5.564,8.022-8.799,13.975-10.999l-4.141-1.682l4.141-2.329l-6.47-2.07c-1.682-1.941-3.235-2.847-5.823-2.847   c-5.952,0-8.411,5.176-10.869,9.705c-1.165,2.458-1.941,3.494-4.141,4.917c-4.529,2.976-10.481,7.634-16.045,13.457   c-2.846-2.071-8.928-8.281-10.48-11.646c-0.647,0.776-1.294,2.588-1.294,2.588c0.647,0.647,7.635,7.634,10.223,10.74   c-0.13,0.129-0.388,0.388-0.518,0.647c-2.847,0.518-10.093,1.294-12.551,0.906l-1.294,2.458c1.812-0.129,8.928-1.035,12.033-1.165   c-0.906,1.035-1.811,2.2-2.717,3.364c-9.316,1.035-15.397,2.976-15.397,6.34c0,0.518,0.129,1.165,0.129,1.812   c0,1.423-0.518,1.941-1.553,2.587c-0.647,0.389-0.647,0.776-0.389,1.165c0.259,0.388,1.683,2.458,1.683,2.847   c0,0.776-0.647,1.423-1.165,2.07c-0.518,0.518-0.518,0.647-0.129,1.294l2.717,5.693L36.495,83.961L36.495,83.961z"
   id="path9453" />
	<path
   fill-rule="evenodd"
   clip-rule="evenodd"
   fill="#005695"
   d="M151.008,52.26c-0.518,0.518-1.035,1.294-1.553,1.941l-1.423-2.07   c4.917-6.599,18.114-9.705,25.879-10.352v-3.494c-1.036,0.259-2.071,0.647-3.105,0.906c-1.295,0.259-2.588,0.647-3.624,0.518   c-1.164,0-2.07-0.388-2.458-1.035c-1.035-1.423,0-3.623,3.364-5.693l-2.718-2.329c-2.069,2.717-4.011,5.693-6.081,7.375   c-1.941,1.682-3.882,2.458-5.435,1.294c-0.905-0.647-1.164-0.906-1.294-2.588c0.13-2.458,1.553-6.211,2.847-8.669l-3.105-0.388   c-0.518,3.752-2.07,6.858-3.752,9.446c-1.941,3.235-4.529,5.564-7.246,7.375l-1.812-1.682c2.199-1.294,4.917-3.364,6.729-6.211   c2.199-3.364,4.011-7.505,4.011-11.128l9.058,0.776c-1.294,1.682-3.364,5.435-4.141,8.022c-0.389,1.423-0.389,2.588,0.13,2.976   c0.905,0.647,2.588-0.518,4.27-2.2c2.329-2.588,4.658-6.34,5.563-7.634l6.729,5.435c-2.976,1.553-5.822,3.364-5.305,4.399   c0.518,0.906,2.458,0.647,4.528,0c1.683-0.518,3.494-1.294,4.917-2.2v8.928c-3.234,0-8.669,0.647-13.845,2.2   c1.294,1.682,4.787,2.329,6.987,2.717l-1.035,7.247C162.395,53.683,157.995,52.389,151.008,52.26l2.329-2.07   c5.047,0.129,10.223,1.682,13.069,3.105l0.388-2.717c-2.588-0.388-5.823-1.812-7.246-3.494c-2.2,0.776-4.399,1.811-6.211,3.105   L151.008,52.26L151.008,52.26z"
   id="path9455" />
	<path
   fill-rule="evenodd"
   clip-rule="evenodd"
   fill="#005695"
   d="M123.835,75.292l2.07-4.658c-2.199-2.588-4.658-5.823-6.857-9.316   l-1.812-3.105c-4.271-8.022-2.718-11.904-4.917-15.527c-1.941-2.847-10.999-1.035-12.422-0.776l2.588-4.27l-5.176,0.388   l4.399-5.176c0.518-0.776,0.646-1.294,1.164-3.105c0.776-2.847,3.105-7.505,10.093-7.505c7.635,0,10.093,6.211,13.328,8.928   c3.882,3.105,8.799,7.375,13.198,11.646l1.812,1.682c2.329,2.329,4.528,4.788,6.729,7.634l1.423,2.07   c9.316,13.457,20.703,39.206,25.879,50.981c0.388,1.164,0.776,2.328,1.164,3.234c-3.493-1.939-7.245-4.27-11.257-6.986l-2.2-1.553   c-1.423-1.035-2.847-2.07-4.27-3.105l-2.329-1.941c-1.423-1.035-2.847-2.2-4.141-3.364l4.658,26.784   c0.259,1.684,1.683,1.424,2.718,0c1.034-1.422,1.553-1.811,1.034-3.623l-4.27-19.797l2.329,1.941l4.141,16.691   c0.389,1.553,1.035,2.07,2.847,2.07c1.812,0.129,2.07-0.518,1.812-1.682l-4.529-13.975l2.2,1.553l4.27,12.551   c1.165,3.234,0,3.623-1.94,3.623c-1.812,0-3.623-0.518-4.658,0.129c-1.035,0.777-2.329,2.588-4.011,4.141   c-1.294,1.424-3.365,1.164-3.753-1.553l-5.176-30.924c-3.235-2.976-6.47-6.082-9.316-9.317c-1.164-0.517-2.588-1.165-3.882-1.682   l-1.812-0.906c-0.776-0.389-1.294-0.518-1.423-0.647c-1.424,1.682-2.847,3.623-4.399,4.917c-0.776,0.776-1.424,1.164-2.588,1.164   c-0.389,0-0.906,0-1.294-0.258c-0.518-0.259-0.906-0.777-1.424-1.553c-0.388-0.517-0.905-1.293-1.423-2.07   c-1.035-1.682-2.07-3.882-3.105-5.564c-1.035-1.94-2.07-3.364-2.2-3.623c-0.129-0.388-0.646-0.776-0.646-0.776   c-0.647,0.776-1.035,2.459-1.035,3.494l-1.812-0.647c0.129-1.293,0.646-2.976,1.035-3.752c0-0.647-0.776-1.553-1.424-1.553   c-0.905,0-1.812,0.906-2.199,2.717l-1.941,0.906c0.13-2.976,1.165-6.211,4.141-6.211c2.329,0,3.882,1.811,4.917,3.493   C119.307,69.21,123.059,74.256,123.835,75.292l1.424,1.811c0.259,1.165,0.776,1.812,1.035,2.2c0.518,0.776,1.035,0.776,1.812,0   c0.388-0.258,1.423-1.165,2.588-2.329c0.905-0.906,1.812-2.2,2.199-2.718c1.035,0.389,3.105,1.423,4.658,2.07   c-6.857-8.54-13.586-18.891-16.433-25.878c-1.165-2.976,1.164-3.882,2.199-1.035c3.105,7.764,12.034,21.608,18.633,28.855   c7.505,8.281,21.351,20.443,30.407,25.232c-1.294-2.588-2.976-6.211-5.046-10.481c-10.999-6.211-21.997-17.597-27.173-27.431   l2.2,0.258c4.787,8.541,16.304,19.927,23.161,23.162c-6.211-13.198-14.363-29.89-20.573-37.006   c-7.894-8.928-16.434-15.916-20.574-19.409c-4.011-3.623-5.693-8.022-11.387-8.022c-4.787,0-7.375,3.494-8.281,6.858   c-0.259,0.776-0.388,1.165-0.776,1.812l-2.329,2.717l4.917-0.518l-2.847,3.882c0,0,7.635-1.682,10.352,1.941   c2.847,3.881,1.035,8.281,5.823,16.951c2.07,3.752,7.116,10.481,8.799,12.034l-3.364,6.857L123.835,75.292L123.835,75.292z"
   id="path9457" />
	<path
   fill-rule="evenodd"
   clip-rule="evenodd"
   fill="#005695"
   d="M48.528,76.456l-1.165-0.776c0.647-0.517,1.941-1.423,3.235-1.941   c0.646-0.259,1.423-0.388,1.94-0.388c1.294,0,2.459,0.518,3.494,1.164c1.682,0.906,3.623,1.941,5.176,1.941   c0.517,0,1.035-0.129,1.682-0.129c1.553,0,2.976,0.647,3.752,0.647c0.518,0,0.776-0.388,1.165-0.906   c0.776-1.165,1.94-2.071,3.364-2.588c1.423-0.646,3.364-0.905,5.305-0.905c1.682,0,3.105,0.259,3.882,0.388   c0,0-1.165,1.423-1.423,1.811c-1.682,0-4.658-0.129-6.599,0.647c-1.294,0.517-1.682,1.293-1.682,2.2   c0,1.423,1.682,2.07,3.364,2.587c1.165,0.259,2.329,0.389,3.235,0.389c1.294,0,3.623-0.518,5.952-1.035   c2.847-0.518,5.435-1.294,6.211-1.553l1.035,1.812c-3.105,1.035-6.34,2.07-9.316,2.588c-1.682,0.388-3.235,0.646-4.658,0.646   c-2.458,0-5.046-1.035-7.117-2.07c-1.812-0.777-3.364-1.683-4.917-1.683s-3.105,0.518-4.529,1.423   c-0.776,0.388-2.976,1.941-4.917,2.718c-1.553,0.518-2.717,0.905-4.271,0.905c-1.293,0-2.2-0.259-2.846-0.776l2.329-1.424   c0.388,0.259,0.905,0.388,1.164,0.388c0.388,0,0.776-0.129,1.683-0.517c0.517-0.13,1.293-0.647,1.811-0.906   c0.906-0.646,1.165-1.035,1.553-1.293c0.777-0.518,1.036-1.294,0.129-2.07c-0.517-0.388-0.906-0.776-1.423-1.165   c-0.905-0.518-1.423-0.906-2.976-0.906C50.469,75.68,49.175,76.068,48.528,76.456L48.528,76.456z"
   id="path9459" />
	<path
   fill-rule="evenodd"
   clip-rule="evenodd"
   fill="#005695"
   d="M81.394,77.362c0,0-1.423-0.388-1.812-0.388   c0.906-1.294,2.2-2.329,3.105-2.977c1.941-1.294,3.882-2.07,6.987-2.199c0.776-0.129,2.458-0.259,3.364-0.259   c0.906,0.129,2.329,0.129,3.623,0.388c0.906,0.129,1.811,0.389,2.587,0.518c0.389,0.129,1.941,0.129,2.459,0   c2.199-0.389,4.787-1.165,6.081-1.941l0.518,2.071c-2.847,1.552-6.081,2.976-9.187,2.976c-1.423,0-3.105-0.129-4.658-0.259   c-2.588-0.259-4.917-0.647-5.693-0.647C86.57,74.645,83.464,75.68,81.394,77.362L81.394,77.362z"
   id="path9461" />
	<path
   fill-rule="evenodd"
   clip-rule="evenodd"
   fill="#005695"
   d="M79.324,88.878l-2.717-1.294c3.752-1.811,9.446-3.752,11.904-4.14   c2.329-0.389,5.046-0.647,6.599-1.165c0.776,1.812,2.2,3.623,4.14,3.623c0.776,0,1.941-0.518,3.235-1.035   c1.423-0.646,2.717-1.293,3.493-1.553c0.776-0.388,3.235-1.423,5.435-2.458c0.776-0.388,2.977-1.423,3.105-1.423l1.424,0.776   c-0.389,1.812-1.165,4.141-1.941,5.823c-0.259,0.647-0.646,1.165-0.905,1.553c-0.646,0.647-1.683,1.682-2.977,2.588   c-1.423,1.035-3.234,2.07-5.046,3.105c-1.424,0.776-2.847,1.682-4.399,2.329l-0.647-1.423c2.2-1.294,4.529-2.847,6.6-4.399   c0.905-0.647,1.812-1.423,2.458-2.07c0.518-0.388,0.776-0.776,1.035-1.165c0.647-0.776,1.683-2.587,1.941-3.364   c-0.906,0.388-4.012,1.94-5.435,2.588c-1.683,0.905-4.271,2.2-5.823,2.976c-1.035,0.517-2.07,0.776-2.847,0.776   c-1.682,0-2.458-1.164-2.846-1.941c-1.035-1.811-2.07-1.941-5.046-1.941C86.699,85.514,82.041,86.937,79.324,88.878L79.324,88.878z   "
   id="path9463" />
	<path
   fill-rule="evenodd"
   clip-rule="evenodd"
   fill="#005695"
   d="M95.239,80.338c0,0-0.388-1.552-0.647-2.2   c0,0,0.518-0.129,1.165-0.129c0.906,0,3.493,0.259,4.528,0.259c3.882,0,5.306-1.165,6.47-2.2c1.035-0.906,2.07-1.682,4.658-1.682   c2.329,0,5.047,0.906,5.823,1.293l-0.13,2.2c-1.164-0.646-2.717-1.035-4.141-1.035c-0.905,0-1.812,0-2.458,0.388   c-0.647,0.388-1.165,0.905-1.812,1.423c-0.647,0.518-1.553,1.035-2.847,1.553c-1.165,0.518-2.718,0.777-5.047,0.777   C97.827,80.985,96.145,80.468,95.239,80.338L95.239,80.338z"
   id="path9465" />
	<path
   fill-rule="evenodd"
   clip-rule="evenodd"
   fill="#005695"
   d="M70.396,96.512l1.812-0.776c1.553,0.647,4.011,1.423,5.693,1.423   c1.035,0,1.812-0.388,2.458-0.647c0.518-0.259,6.599-3.235,9.575-4.27c0.906-0.388,1.941-0.518,2.329-0.518   c0.776,0,0.776,0.259,1.035,0.647c0.518,0.905,5.046,7.245,5.434,7.634c3.753-1.164,7.635-2.847,9.834-4.917   c2.329-2.2,4.271-4.788,6.211-6.858c0.647-0.776,1.553-1.423,1.941-1.682c1.94-1.035,8.022-1.165,10.48-1.035l-1.423,2.07   c-4.529,0-6.987,0.518-8.151,1.294c-0.389,0.388-1.165,1.165-1.813,2.071c-1.553,1.94-3.234,4.658-3.882,5.175   c1.294,0.905,2.718,1.683,5.047,1.683c3.752,0,6.47-2.33,7.893-3.624l1.294,0.647c-0.905,1.294-2.07,2.459-3.363,3.365   c-1.554,1.035-3.494,1.811-4.529,2.07c-2.2-0.389-6.987-1.424-8.152-1.555c-4.141,1.684-10.998,4.4-13.198,5.047   c-0.388,0.129-0.906,0.26-1.553,0.26c-1.812,0.129-4.27,0.129-6.599,0c-1.553,0-3.105,0-3.882-0.131l-2.07-2.068   c1.811,0.387,2.458,0.387,4.14,0.387c3.882,0,6.47-0.646,7.246-0.775c0.776-0.26,0.906-0.646,0.647-1.295   c-0.388-0.904-0.906-1.939-1.812-2.976c-0.518-0.518-1.553-1.423-1.941-1.682c-0.518-0.388-1.035-0.518-2.588,0   c-1.294,0.388-5.564,2.718-7.375,3.753c-0.906,0.387-1.682,0.646-3.235,0.258C76.089,99.1,71.948,97.547,70.396,96.512   L70.396,96.512z"
   id="path9467" />
	<path
   fill-rule="evenodd"
   clip-rule="evenodd"
   fill="#005695"
   d="M82.17,49.413c0.776,0,1.553-0.776,1.553-1.553   c0-0.906-0.776-1.553-1.553-1.553c-0.906,0-1.553,0.647-1.553,1.553C80.618,48.637,81.265,49.413,82.17,49.413L82.17,49.413z"
   id="path9469" />
	<path
   fill-rule="evenodd"
   clip-rule="evenodd"
   fill="#005695"
   d="M140.785,138.824c0-1.164-1.034-2.199-2.328-2.199h-3.235   c-1.294,0-2.329,1.035-2.329,2.199l0.13,34.678c0,1.164,0.905,2.199,2.199,2.199h3.235c1.294,0,2.328-1.035,2.328-2.199V138.824   L140.785,138.824z"
   id="path9471" />
	<path
   fill-rule="evenodd"
   clip-rule="evenodd"
   fill="#005695"
   d="M144.927,139.859v1.553c0,0.775,0.518,1.293,1.294,1.293h22.772   c1.036,0,1.941-0.904,1.941-1.939v-2.719c0-1.035-0.905-2.07-1.941-1.939c0,0-21.997,2.199-22.772,2.328   C145.444,138.436,144.927,139.082,144.927,139.859L144.927,139.859z"
   id="path9473" />
	<path
   fill-rule="evenodd"
   clip-rule="evenodd"
   fill="#005695"
   d="M126.423,175.701c-5.693,0-9.187-4.27-9.187-9.057v-13.846h-1.683   c-0.776,0-1.553-0.777-1.553-1.553v-2.33c0-0.904,0.776-1.553,1.553-1.553h1.683v-8.539c0-1.164,0.905-2.199,2.199-2.199h3.235   c1.164,0,2.07,1.035,2.07,2.199v8.539h5.046c0.906,0,1.553,0.648,1.553,1.553v2.33c0,0.775-0.646,1.553-1.553,1.553h-5.046v12.811   c0,2.457,1.553,4.27,4.27,4.27h0.518c0.906,0,1.683,0.646,1.683,1.682v2.459c0,0.906-0.776,1.682-1.683,1.682H126.423   L126.423,175.701z"
   id="path9475" />
	<path
   fill-rule="evenodd"
   clip-rule="evenodd"
   fill="#005695"
   d="M87.605,161.08c0-7.375-4.399-14.75-14.363-14.75   c-9.187,0-14.233,7.244-14.233,14.75c0,8.021,5.434,15.139,14.362,15.139c6.082,0,12.034-3.105,13.198-8.41   c0.129-0.646-0.388-1.682-1.294-1.682h-4.399c-0.776,0-1.423,0.387-1.812,1.035c-1.294,1.811-3.105,2.717-5.693,2.717   c-3.882,0-6.47-2.977-6.729-6.34h18.503C86.829,163.539,87.605,162.633,87.605,161.08L87.605,161.08z M66.772,157.975   c0.259-3.234,3.105-5.693,6.47-5.693c3.494,0,6.34,2.459,6.729,5.693H66.772L66.772,157.975z"
   id="path9477" />
	<path
   fill-rule="evenodd"
   clip-rule="evenodd"
   fill="#005695"
   d="M171.711,161.08c0-7.375-4.399-14.75-14.363-14.75   c-9.187,0-14.232,7.244-14.232,14.75c0,8.021,5.435,15.139,14.362,15.139c6.082,0,12.033-3.105,13.198-8.41   c0.13-0.646-0.389-1.682-1.294-1.682h-4.399c-0.776,0-1.423,0.387-1.812,1.035c-1.294,1.811-3.105,2.717-5.823,2.717   c-3.752,0-6.34-2.977-6.599-6.34h18.504C170.935,163.539,171.711,162.633,171.711,161.08L171.711,161.08z M150.879,157.975   c0.258-3.234,3.104-5.693,6.469-5.693c3.494,0,6.341,2.459,6.6,5.693H150.879L150.879,157.975z"
   id="path9479" />
	<path
   fill-rule="evenodd"
   clip-rule="evenodd"
   fill="#005695"
   d="M111.025,137.012h-59.78c-1.423,0-2.458,1.166-2.458,2.459   l0.129,23.551c0,0-12.81-23.291-13.457-24.457c-0.646-1.164-2.07-2.199-3.881-2.199h-4.917c-1.423,0-2.458,1.166-2.458,2.459   v34.418c0,1.424,1.035,2.459,2.458,2.459h3.105c1.423,0,2.459-1.035,2.459-2.459l-0.129-24.066c0,0,12.939,23.42,13.586,24.326   c0.647,1.293,1.941,2.199,3.752,2.199h4.529c1.423,0,2.458-1.035,2.458-2.459v-30.406h54.604c0.905,0,1.682-0.777,1.682-1.682   v-2.459C112.707,137.789,111.931,137.012,111.025,137.012L111.025,137.012z"
   id="path9481" />
	<path
   fill-rule="evenodd"
   clip-rule="evenodd"
   fill="#005695"
   d="M101.32,152.021c2.588,0,4.529,0.906,5.306,2.588   c0.259,0.777,0.905,0.906,1.812,0.906h3.623c0.518,0,1.294-0.518,1.294-1.293c0-4.141-5.047-7.893-12.034-7.893   c-7.246,0-12.033,3.492-12.033,8.928c0,4.27,3.364,6.729,7.375,7.893c1.941,0.389,5.176,1.164,6.728,1.682   c1.553,0.389,3.105,0.906,3.105,2.33c0,2.328-2.329,2.975-5.046,2.975c-2.459,0-4.917-1.035-5.564-2.846   c-0.388-1.035-1.165-1.164-2.2-1.164h-3.623c-0.647,0-1.423,0.646-1.423,1.422v0.518c0,4.012,5.435,8.152,12.939,8.152   c5.176,0,12.552-2.199,12.552-9.188c0-4.141-2.718-6.986-7.246-8.15c-1.683-0.389-5.823-1.553-6.729-1.684   c-1.683-0.518-3.235-1.035-3.235-2.328C96.921,152.67,98.862,152.021,101.32,152.021L101.32,152.021z"
   id="path9483" />
</g>
</svg>