<?xml version="1.0" encoding="utf-8"?>
<!-- Generator: Adobe Illustrator 19.1.0, SVG Export Plug-In . SVG Version: 6.00 Build 0)  -->
<svg version="1.1" id="Layer_1" xmlns="http://www.w3.org/2000/svg" xmlns:xlink="http://www.w3.org/1999/xlink" x="0px" y="0px"
	 viewBox="0 0 147.5 40.1" style="enable-background:new 0 0 147.5 40.1;" xml:space="preserve">
<style type="text/css">
	.st0{fill:#005695;}
</style>
<path id="path9471" class="st0" d="M116.6,2.7c0-1.2-1-2.2-2.3-2.2H111c-1.3,0-2.3,1-2.3,2.2l0.1,34.7c0,1.2,0.9,2.2,2.2,2.2h3.2
	c1.3,0,2.3-1,2.3-2.2L116.6,2.7L116.6,2.7z"/>
<path id="path9473" class="st0" d="M120.7,3.8v1.6c0,0.8,0.5,1.3,1.3,1.3h22.8c1,0,1.9-0.9,1.9-1.9V2c0-1-0.9-2.1-1.9-1.9
	c0,0-22,2.2-22.8,2.3C121.2,2.3,120.7,3,120.7,3.8L120.7,3.8z"/>
<path id="path9475" class="st0" d="M102.2,39.6c-5.7,0-9.2-4.3-9.2-9.1V16.7h-1.7c-0.8,0-1.6-0.8-1.6-1.6v-2.3
	c0-0.9,0.8-1.6,1.6-1.6H93V2.7c0-1.2,0.9-2.2,2.2-2.2h3.2c1.2,0,2.1,1,2.1,2.2v8.5h5c0.9,0,1.6,0.6,1.6,1.6v2.3
	c0,0.8-0.6,1.6-1.6,1.6h-5v12.8c0,2.5,1.6,4.3,4.3,4.3h0.5c0.9,0,1.7,0.6,1.7,1.7v2.5c0,0.9-0.8,1.7-1.7,1.7L102.2,39.6L102.2,39.6z
	"/>
<path id="path9477" class="st0" d="M63.4,25c0-7.4-4.4-14.8-14.4-14.8c-9.2,0-14.2,7.2-14.2,14.8c0,8,5.4,15.1,14.4,15.1
	c6.1,0,12-3.1,13.2-8.4c0.1-0.6-0.4-1.7-1.3-1.7h-4.4c-0.8,0-1.4,0.4-1.8,1c-1.3,1.8-3.1,2.7-5.7,2.7c-3.9,0-6.5-3-6.7-6.3h18.5
	C62.6,27.4,63.4,26.5,63.4,25L63.4,25z M42.6,21.9c0.3-3.2,3.1-5.7,6.5-5.7c3.5,0,6.3,2.5,6.7,5.7H42.6L42.6,21.9z"/>
<path id="path9479" class="st0" d="M147.5,25c0-7.4-4.4-14.8-14.4-14.8c-9.2,0-14.2,7.2-14.2,14.8c0,8,5.4,15.1,14.4,15.1
	c6.1,0,12-3.1,13.2-8.4c0.1-0.6-0.4-1.7-1.3-1.7h-4.4c-0.8,0-1.4,0.4-1.8,1c-1.3,1.8-3.1,2.7-5.8,2.7c-3.8,0-6.3-3-6.6-6.3H145
	C146.7,27.4,147.5,26.5,147.5,25L147.5,25z M126.7,21.9c0.3-3.2,3.1-5.7,6.5-5.7c3.5,0,6.3,2.5,6.6,5.7H126.7L126.7,21.9z"/>
<path id="path9481" class="st0" d="M86.8,0.9H27c-1.4,0-2.5,1.2-2.5,2.5l0.1,23.6c0,0-12.8-23.3-13.5-24.5c-0.6-1.2-2.1-2.2-3.9-2.2
	H2.5C1,0.3,0,1.4,0,2.7v34.4c0,1.4,1,2.5,2.5,2.5h3.1c1.4,0,2.5-1,2.5-2.5L7.9,13.1c0,0,12.9,23.4,13.6,24.3
	c0.6,1.3,1.9,2.2,3.8,2.2h4.5c1.4,0,2.5-1,2.5-2.5V6.7h54.6c0.9,0,1.7-0.8,1.7-1.7V2.6C88.5,1.7,87.7,0.9,86.8,0.9L86.8,0.9z"/>
<path id="path9483" class="st0" d="M77.1,15.9c2.6,0,4.5,0.9,5.3,2.6c0.3,0.8,0.9,0.9,1.8,0.9h3.6c0.5,0,1.3-0.5,1.3-1.3
	c0-4.1-5-7.9-12-7.9c-7.2,0-12,3.5-12,8.9c0,4.3,3.4,6.7,7.4,7.9c1.9,0.4,5.2,1.2,6.7,1.7c1.6,0.4,3.1,0.9,3.1,2.3c0,2.3-2.3,3-5,3
	c-2.5,0-4.9-1-5.6-2.8c-0.4-1-1.2-1.2-2.2-1.2h-3.6c-0.6,0-1.4,0.6-1.4,1.4V32c0,4,5.4,8.2,12.9,8.2c5.2,0,12.6-2.2,12.6-9.2
	c0-4.1-2.7-7-7.2-8.1c-1.7-0.4-5.8-1.6-6.7-1.7c-1.7-0.5-3.2-1-3.2-2.3C72.7,16.6,74.7,15.9,77.1,15.9L77.1,15.9z"/>
</svg>
