<?xml version="1.0" encoding="utf-8"?>
<!-- Generator: Adobe Illustrator 19.1.0, SVG Export Plug-In . SVG Version: 6.00 Build 0)  -->
<svg version="1.1" id="Layer_1" xmlns="http://www.w3.org/2000/svg" xmlns:xlink="http://www.w3.org/1999/xlink" x="0px" y="0px"
	 viewBox="0 0 250.3 52.3" style="enable-background:new 0 0 250.3 52.3;" xml:space="preserve">
<style type="text/css">
	.st0{fill:#EA3E36;}
	.st1{fill:#1B559E;}
</style>
<g>
	<path class="st0" d="M8.7,28.3c0,5.4,4.2,7.6,9,7.6c3.2,0,8-0.9,8-5.1c0-4.4-6.1-5.2-12.1-6.8C7.5,22.4,1.4,20,1.4,12.4
		C1.4,4,9.3,0,16.7,0c8.5,0,16.4,3.7,16.4,13.2h-8.7C24.1,8.2,20.6,7,16.3,7c-2.9,0-6.2,1.2-6.2,4.6c0,3.2,1.9,3.6,12.2,6.2
		c3,0.7,12.1,2.6,12.1,11.9c0,7.5-5.9,13.1-17,13.1c-9,0-17.5-4.5-17.4-14.5H8.7z"/>
	<path class="st0" d="M37.5,12.3h7.7V16h0.1c1.9-3.2,5.2-4.6,8.8-4.6c9.3,0,13.5,7.5,13.5,15.9c0,7.9-4.4,15.3-13,15.3
		c-3.6,0-6.9-1.5-8.9-4.5h-0.1v14.1h-8.1V12.3z M59.5,27.1c0-4.7-1.9-9.6-7.1-9.6c-5.3,0-7,4.8-7,9.6c0,4.8,1.8,9.4,7.1,9.4
		C57.7,36.5,59.5,32,59.5,27.1z"/>
	<path class="st0" d="M84.9,11.5c9.3,0,15.4,6.2,15.4,15.6c0,9.4-6,15.6-15.4,15.6c-9.3,0-15.3-6.2-15.3-15.6
		C69.6,17.6,75.6,11.5,84.9,11.5z M84.9,36.5c5.6,0,7.2-4.8,7.2-9.5c0-4.8-1.7-9.5-7.2-9.5c-5.5,0-7.2,4.8-7.2,9.5
		C77.7,31.8,79.4,36.5,84.9,36.5z"/>
	<path class="st0" d="M103.2,12.3h7.7v5.5h0.1c1.5-3.7,5.5-6.3,9.5-6.3c0.6,0,1.3,0.1,1.8,0.3v7.6c-0.7-0.2-1.9-0.3-2.9-0.3
		c-6,0-8,4.3-8,9.5v13.3h-8.1V12.3z"/>
	<path class="st0" d="M137.2,12.3h6v5.4h-6v14.7c0,2.7,0.7,3.4,3.4,3.4c0.9,0,1.7-0.1,2.5-0.2v6.4c-1.4,0.2-3.2,0.3-4.8,0.3
		c-5,0-9.3-1.1-9.3-7V17.7h-4.9v-5.4h4.9V3.4h8.1V12.3z"/>
	<path class="st0" d="M152.5,32.2c0.1,3.6,3,5,6.2,5c2.3,0,5.3-0.9,5.3-3.8c0-2.5-3.4-3.3-9.2-4.6c-4.7-1-9.4-2.7-9.4-7.9
		c0-7.6,6.5-9.5,12.9-9.5c6.5,0,12.4,2.2,13.1,9.5h-7.7c-0.2-3.2-2.6-4-5.6-4c-1.8,0-4.5,0.3-4.5,2.7c0,2.9,4.6,3.3,9.2,4.4
		c4.8,1.1,9.4,2.8,9.4,8.3c0,7.8-6.8,10.3-13.5,10.3c-6.9,0-13.6-2.6-13.9-10.4H152.5z"/>
	<path class="st1" d="M188.8,1h6l16,40.9h-6l-4.5-12.3h-17.3l-4.6,12.3h-5.6L188.8,1z M184.8,25h13.9l-6.8-19.1h-0.1L184.8,25z"/>
	<path class="st1" d="M218.6,6.9h-4.9V1h4.9V6.9z M213.8,12.3h4.9v29.6h-4.9V12.3z"/>
	<path class="st1" d="M250.3,41.9h-4.9v-4h-0.1c-1.6,3.3-5.4,4.7-9.5,4.7c-9.1,0-13.6-7.2-13.6-15.6s4.5-15.4,13.5-15.4
		c3,0,7.4,1.1,9.6,4.6h0.1V1h4.9V41.9z M236.5,38.3c6.5,0,9-5.6,9-11.2c0-5.8-2.6-11.2-9.3-11.2c-6.6,0-8.9,5.7-8.9,11.5
		C227.4,32.9,230.2,38.3,236.5,38.3z"/>
</g>
</svg>
