<?xml version="1.0" encoding="utf-8"?>
<!-- Generator: Adobe Illustrator 18.1.1, SVG Export Plug-In . SVG Version: 6.00 Build 0)  -->
<svg version="1.1" id="Layer_1" xmlns="http://www.w3.org/2000/svg" xmlns:xlink="http://www.w3.org/1999/xlink" x="0px" y="0px"
	 viewBox="0 0 375 296" enable-background="new 0 0 375 296" xml:space="preserve">
<rect x="0" y="0" fill="#FFFFFF" width="375" height="296"/>
<g>
	<path fill="#333333" d="M16.1,103.7c0,2-0.5,3.7-1.5,4.8c-1,1.2-2.4,1.8-4.2,1.8c-1.8,0-3.2-0.6-4.2-1.8c-1-1.2-1.5-2.8-1.5-4.9
		c0-2,0.5-3.7,1.5-4.8s2.4-1.8,4.2-1.8c1.8,0,3.2,0.6,4.2,1.8C15.6,100,16.1,101.6,16.1,103.7z M5.6,103.7c0,1.8,0.4,3.3,1.2,4.3
		c0.8,1,2,1.5,3.5,1.5c1.5,0,2.7-0.5,3.5-1.5s1.2-2.4,1.2-4.3c0-1.9-0.4-3.3-1.2-4.3c-0.8-1-2-1.5-3.5-1.5c-1.5,0-2.7,0.5-3.5,1.5
		S5.6,101.9,5.6,103.7z"/>
	<path fill="#333333" d="M22.9,110.3c-1.5,0-2.5-0.6-3.2-1.7h-0.1l0,0.7c0,0.4,0,0.9,0,1.4v3.6h-0.9v-13.9h0.7l0.2,1.4h0.1
		c0.7-1,1.7-1.5,3.1-1.5c1.3,0,2.3,0.4,2.9,1.3c0.7,0.8,1,2.1,1,3.7c0,1.6-0.4,2.8-1.1,3.7C25.1,109.9,24.2,110.3,22.9,110.3z
		 M22.9,109.5c1,0,1.7-0.4,2.3-1.1s0.8-1.7,0.8-3c0-2.8-1-4.2-3-4.2c-1.1,0-1.9,0.3-2.5,0.9c-0.5,0.6-0.8,1.6-0.8,3v0.3
		c0,1.5,0.3,2.6,0.8,3.2S21.8,109.5,22.9,109.5z"/>
	<path fill="#333333" d="M33.4,110.3c-1.4,0-2.5-0.4-3.2-1.3S29,107,29,105.4c0-1.5,0.4-2.7,1.1-3.7c0.8-0.9,1.8-1.4,3-1.4
		c1.1,0,2,0.4,2.7,1.2s1,1.9,1,3.2v0.7h-6.9c0,1.3,0.3,2.3,0.9,3s1.5,1,2.6,1c0.5,0,1,0,1.4-0.1s0.9-0.2,1.6-0.5v0.8
		c-0.5,0.2-1,0.4-1.5,0.5C34.5,110.3,34,110.3,33.4,110.3z M33.2,101.2c-0.9,0-1.7,0.3-2.2,0.9c-0.6,0.6-0.9,1.5-1,2.6h5.9
		c0-1.1-0.2-2-0.7-2.6C34.7,101.5,34,101.2,33.2,101.2z"/>
	<path fill="#333333" d="M46.1,110.1v-6.2c0-1-0.2-1.7-0.6-2.1c-0.4-0.4-1-0.7-1.9-0.7c-1.1,0-2,0.3-2.5,0.9
		c-0.5,0.6-0.8,1.5-0.8,2.8v5.3h-0.9v-9.6h0.7l0.2,1.3h0.1c0.6-1,1.7-1.5,3.3-1.5c2.2,0,3.3,1.2,3.3,3.5v6.2H46.1z"/>
	<path fill="#333333" d="M62,106.8c0,1.1-0.4,1.9-1.2,2.5s-1.8,0.9-3.1,0.9c-1.6,0-2.8-0.2-3.6-0.5v-0.9c0.9,0.4,2.1,0.6,3.5,0.6
		c1.1,0,1.9-0.2,2.5-0.7c0.6-0.5,0.9-1.1,0.9-1.9c0-0.5-0.1-0.9-0.3-1.2s-0.5-0.6-1-0.9s-1.1-0.5-2-0.9c-1.3-0.5-2.2-0.9-2.7-1.5
		c-0.5-0.5-0.8-1.2-0.8-2.1c0-1,0.4-1.7,1.1-2.4c0.8-0.6,1.7-0.9,2.9-0.9c1.2,0,2.3,0.2,3.4,0.7l-0.3,0.8c-1.1-0.4-2.1-0.7-3.1-0.7
		c-0.9,0-1.7,0.2-2.3,0.7s-0.8,1-0.8,1.8c0,0.5,0.1,0.9,0.3,1.2s0.5,0.6,0.8,0.8c0.4,0.2,1.1,0.5,2,0.9c1,0.3,1.8,0.7,2.3,1
		c0.5,0.3,0.9,0.7,1.1,1.1C61.9,105.7,62,106.2,62,106.8z"/>
	<path fill="#333333" d="M70.3,110.1l-0.2-1.5H70c-0.5,0.6-1,1.1-1.5,1.3c-0.5,0.3-1.1,0.4-1.8,0.4c-0.9,0-1.7-0.2-2.2-0.7
		s-0.8-1.1-0.8-2c0-0.9,0.4-1.7,1.2-2.2s1.9-0.8,3.4-0.8l1.8-0.1v-0.6c0-0.9-0.2-1.6-0.6-2.1s-1-0.7-1.8-0.7c-0.9,0-1.8,0.2-2.8,0.7
		l-0.3-0.8c1-0.5,2.1-0.7,3.1-0.7c1,0,1.8,0.3,2.4,0.8s0.8,1.4,0.8,2.5v6.4H70.3z M66.8,109.5c1,0,1.8-0.3,2.4-0.9
		c0.6-0.6,0.9-1.4,0.9-2.4v-0.9l-1.7,0.1c-1.3,0.1-2.3,0.3-2.9,0.6c-0.6,0.4-0.9,0.9-0.9,1.7c0,0.6,0.2,1.1,0.5,1.4
		S66.2,109.5,66.8,109.5z"/>
	<path fill="#333333" d="M80.7,110.1v-6.2c0-1-0.2-1.7-0.6-2.1c-0.4-0.4-1-0.7-1.9-0.7c-1.1,0-2,0.3-2.5,0.9
		c-0.5,0.6-0.8,1.5-0.8,2.8v5.3h-0.9v-9.6h0.7l0.2,1.3H75c0.6-1,1.7-1.5,3.3-1.5c2.2,0,3.3,1.2,3.3,3.5v6.2H80.7z"/>
	<path fill="#333333" d="M90.6,107.6c0,0.9-0.3,1.5-1,2s-1.6,0.7-2.8,0.7c-1.3,0-2.3-0.2-3-0.6v-0.9c1,0.5,2,0.7,3,0.7
		c0.9,0,1.7-0.2,2.1-0.5c0.5-0.3,0.7-0.7,0.7-1.3c0-0.5-0.2-0.9-0.6-1.2s-1-0.7-1.9-1c-1-0.3-1.6-0.6-2-0.9
		c-0.4-0.2-0.7-0.5-0.9-0.8c-0.2-0.3-0.3-0.7-0.3-1.1c0-0.7,0.3-1.3,0.9-1.7s1.4-0.6,2.5-0.6c1,0,2,0.2,2.9,0.6l-0.3,0.8
		c-0.9-0.4-1.8-0.6-2.6-0.6c-0.8,0-1.4,0.1-1.9,0.4s-0.7,0.6-0.7,1.1c0,0.5,0.2,0.9,0.5,1.2s1,0.6,2.1,1c0.9,0.3,1.5,0.6,1.9,0.8
		s0.7,0.5,0.9,0.8S90.6,107.2,90.6,107.6z"/>
	<path fill="#333333" d="M98,110.1V97.3h0.9v12h6.1v0.8H98z"/>
	<path fill="#333333" d="M106.9,97.9c0-0.6,0.2-0.8,0.6-0.8c0.2,0,0.3,0.1,0.4,0.2s0.2,0.4,0.2,0.6c0,0.3-0.1,0.5-0.2,0.6
		s-0.2,0.2-0.4,0.2C107,98.8,106.9,98.5,106.9,97.9z M107.9,110.1H107v-9.6h0.9V110.1z"/>
	<path fill="#333333" d="M118.5,100.6v0.6l-2,0.1c0.5,0.7,0.8,1.4,0.8,2.2c0,0.9-0.3,1.7-0.9,2.2c-0.6,0.6-1.4,0.9-2.5,0.9
		c-0.4,0-0.7,0-0.9-0.1c-0.3,0.2-0.6,0.4-0.8,0.6s-0.3,0.5-0.3,0.8c0,0.3,0.1,0.5,0.3,0.7s0.6,0.2,1.2,0.2h1.7c1,0,1.8,0.2,2.4,0.6
		s0.8,1,0.8,1.9c0,1-0.4,1.8-1.2,2.3s-2,0.8-3.5,0.8c-1.2,0-2.1-0.2-2.8-0.7s-1-1.1-1-1.9c0-0.7,0.2-1.2,0.6-1.6s1-0.7,1.7-0.9
		c-0.3-0.1-0.5-0.3-0.7-0.5c-0.2-0.2-0.3-0.5-0.3-0.8c0-0.6,0.4-1.2,1.2-1.7c-0.6-0.2-1-0.6-1.3-1.1s-0.5-1.1-0.5-1.7
		c0-1,0.3-1.7,0.9-2.3c0.6-0.6,1.4-0.9,2.5-0.9c0.6,0,1.1,0.1,1.5,0.2H118.5z M110.8,111.7c0,1.3,1,2,2.9,2c2.5,0,3.8-0.8,3.8-2.4
		c0-0.6-0.2-1-0.6-1.2s-1-0.4-1.9-0.4h-1.6C111.7,109.7,110.8,110.4,110.8,111.7z M111.5,103.6c0,0.7,0.2,1.3,0.7,1.7s1,0.6,1.8,0.6
		c0.8,0,1.4-0.2,1.8-0.6s0.6-1,0.6-1.8c0-0.8-0.2-1.4-0.7-1.8s-1-0.6-1.8-0.6c-0.8,0-1.4,0.2-1.8,0.7
		C111.7,102.2,111.5,102.8,111.5,103.6z"/>
	<path fill="#333333" d="M127.1,110.1v-6.2c0-1-0.2-1.7-0.6-2.1c-0.4-0.4-1-0.7-1.9-0.7c-1.1,0-2,0.3-2.5,0.9
		c-0.5,0.6-0.8,1.5-0.8,2.8v5.3h-0.9V96.5h0.9v4.4l0,1.2h0.1c0.4-0.6,0.8-1,1.4-1.2s1.2-0.4,2-0.4c2.2,0,3.3,1.2,3.3,3.5v6.2H127.1z
		"/>
	<path fill="#333333" d="M133.6,109.5c0.6,0,1,0,1.4-0.1v0.7c-0.4,0.1-0.9,0.2-1.5,0.2c-0.8,0-1.5-0.2-1.9-0.7s-0.6-1.2-0.6-2.1
		v-6.2h-1.4v-0.5l1.4-0.4l0.4-2.2h0.4v2.3h2.8v0.8H132v6c0,0.7,0.1,1.3,0.4,1.6S133.1,109.5,133.6,109.5z"/>
	<path fill="#333333" d="M16.4,133.7c0,2.1-0.5,3.7-1.6,4.9s-2.5,1.8-4.3,1.8c-1.9,0-3.4-0.6-4.4-1.7c-1-1.2-1.5-2.8-1.5-4.9
		c0-2.1,0.5-3.7,1.5-4.9c1-1.2,2.5-1.7,4.4-1.7c1.8,0,3.3,0.6,4.3,1.8C15.9,130,16.4,131.6,16.4,133.7z M6.2,133.7
		c0,1.7,0.4,3.1,1.1,4s1.8,1.3,3.2,1.3c1.4,0,2.5-0.4,3.2-1.3s1.1-2.2,1.1-4c0-1.7-0.4-3-1.1-3.9s-1.8-1.3-3.2-1.3
		c-1.4,0-2.5,0.5-3.2,1.3C6.5,130.7,6.2,132,6.2,133.7z"/>
	<path fill="#333333" d="M23.5,140.3c-0.6,0-1.2-0.1-1.7-0.3c-0.5-0.2-1-0.6-1.3-1.1h-0.1c0.1,0.6,0.1,1.1,0.1,1.6v4h-1.5v-14h1.2
		l0.2,1.3h0.1c0.4-0.5,0.8-0.9,1.3-1.1s1.1-0.4,1.7-0.4c1.3,0,2.3,0.4,3,1.3s1,2.1,1,3.7c0,1.6-0.4,2.8-1.1,3.7
		C25.8,139.9,24.8,140.3,23.5,140.3z M23.3,131.6c-1,0-1.7,0.3-2.1,0.8s-0.7,1.4-0.7,2.6v0.3c0,1.4,0.2,2.3,0.7,2.9s1.2,0.9,2.2,0.9
		c0.8,0,1.5-0.3,2-1s0.7-1.6,0.7-2.8c0-1.2-0.2-2.1-0.7-2.8C24.8,131.9,24.2,131.6,23.3,131.6z"/>
	<path fill="#333333" d="M34.2,140.3c-1.4,0-2.5-0.4-3.4-1.3s-1.2-2.1-1.2-3.6c0-1.6,0.4-2.8,1.1-3.7s1.8-1.4,3.1-1.4
		c1.2,0,2.2,0.4,2.9,1.2s1.1,1.8,1.1,3.1v0.9h-6.6c0,1.1,0.3,2,0.9,2.6c0.5,0.6,1.3,0.9,2.3,0.9c1,0,2.1-0.2,3.1-0.7v1.3
		c-0.5,0.2-1,0.4-1.5,0.5C35.4,140.3,34.8,140.3,34.2,140.3z M33.8,131.5c-0.8,0-1.4,0.3-1.8,0.8c-0.5,0.5-0.7,1.2-0.8,2.1h5
		c0-0.9-0.2-1.6-0.6-2.1C35.1,131.8,34.5,131.5,33.8,131.5z"/>
	<path fill="#333333" d="M46.8,140.1v-6.2c0-0.8-0.2-1.4-0.5-1.8s-0.9-0.6-1.7-0.6c-1,0-1.7,0.3-2.2,0.8s-0.7,1.4-0.7,2.7v5.1h-1.5
		v-9.6h1.2l0.2,1.3h0.1c0.3-0.5,0.7-0.8,1.3-1.1c0.5-0.3,1.1-0.4,1.8-0.4c1.2,0,2,0.3,2.6,0.8s0.9,1.5,0.9,2.7v6.3H46.8z"/>
	<path fill="#333333" d="M63.4,136.7c0,1.1-0.4,2-1.2,2.6s-1.9,0.9-3.3,0.9c-1.5,0-2.7-0.2-3.5-0.6v-1.4c0.5,0.2,1.1,0.4,1.7,0.5
		s1.2,0.2,1.8,0.2c1,0,1.7-0.2,2.2-0.6c0.5-0.4,0.8-0.9,0.8-1.6c0-0.4-0.1-0.8-0.3-1.1c-0.2-0.3-0.5-0.5-0.9-0.8s-1.1-0.5-1.9-0.8
		c-1.2-0.4-2-0.9-2.6-1.5s-0.8-1.4-0.8-2.3c0-1,0.4-1.8,1.1-2.4c0.7-0.6,1.7-0.9,3-0.9c1.3,0,2.5,0.2,3.5,0.7l-0.5,1.3
		c-1.1-0.4-2.1-0.7-3.1-0.7c-0.8,0-1.4,0.2-1.9,0.5s-0.7,0.8-0.7,1.4c0,0.4,0.1,0.8,0.2,1.1c0.2,0.3,0.4,0.5,0.8,0.8
		c0.4,0.2,1,0.5,1.8,0.8c1.3,0.5,2.3,1,2.8,1.5S63.4,135.8,63.4,136.7z"/>
	<path fill="#333333" d="M71.7,140.1l-0.3-1.4h-0.1c-0.5,0.6-1,1-1.4,1.2c-0.5,0.2-1.1,0.3-1.8,0.3c-1,0-1.7-0.2-2.2-0.7
		s-0.8-1.2-0.8-2.1c0-1.9,1.6-3,4.7-3.1l1.6-0.1v-0.6c0-0.8-0.2-1.3-0.5-1.7c-0.3-0.4-0.8-0.5-1.6-0.5c-0.8,0-1.7,0.2-2.7,0.7
		l-0.4-1.1c0.5-0.3,1-0.5,1.6-0.6s1.1-0.2,1.7-0.2c1.1,0,2,0.3,2.6,0.8s0.8,1.3,0.8,2.5v6.6H71.7z M68.4,139.1
		c0.9,0,1.6-0.2,2.1-0.7s0.8-1.2,0.8-2.1v-0.9l-1.5,0.1c-1.2,0-2,0.2-2.5,0.5s-0.8,0.8-0.8,1.5c0,0.5,0.2,0.9,0.5,1.2
		S67.8,139.1,68.4,139.1z"/>
	<path fill="#333333" d="M82.4,140.1v-6.2c0-0.8-0.2-1.4-0.5-1.8s-0.9-0.6-1.7-0.6c-1,0-1.7,0.3-2.2,0.8s-0.7,1.4-0.7,2.7v5.1h-1.5
		v-9.6H77l0.2,1.3h0.1c0.3-0.5,0.7-0.8,1.3-1.1c0.5-0.3,1.1-0.4,1.8-0.4c1.2,0,2,0.3,2.6,0.8s0.9,1.5,0.9,2.7v6.3H82.4z"/>
	<path fill="#333333" d="M93.1,137.5c0,0.9-0.3,1.6-1,2.1s-1.6,0.7-2.8,0.7c-1.3,0-2.3-0.2-3-0.6v-1.4c0.5,0.2,1,0.4,1.5,0.6
		s1,0.2,1.5,0.2c0.8,0,1.3-0.1,1.8-0.4s0.6-0.6,0.6-1.1c0-0.4-0.2-0.7-0.5-1s-1-0.6-1.9-0.9c-0.9-0.3-1.5-0.6-1.9-0.9
		c-0.4-0.2-0.7-0.5-0.8-0.8s-0.3-0.7-0.3-1.1c0-0.8,0.3-1.4,1-1.9s1.5-0.7,2.6-0.7c1,0,2.1,0.2,3,0.6l-0.5,1.2
		c-1-0.4-1.8-0.6-2.6-0.6c-0.7,0-1.2,0.1-1.6,0.3s-0.5,0.5-0.5,0.9c0,0.3,0.1,0.5,0.2,0.7s0.3,0.4,0.6,0.5s0.9,0.4,1.7,0.7
		c1.1,0.4,1.9,0.8,2.3,1.3S93.1,136.9,93.1,137.5z"/>
	<path fill="#333333" d="M101.8,134.8v5.3h-1.5v-12.8h3.5c1.6,0,2.7,0.3,3.5,0.9c0.8,0.6,1.1,1.5,1.1,2.7c0,1.7-0.9,2.8-2.6,3.4
		l3.5,5.8h-1.8l-3.1-5.3H101.8z M101.8,133.5h2c1.1,0,1.8-0.2,2.3-0.6c0.5-0.4,0.7-1,0.7-1.9c0-0.8-0.2-1.5-0.8-1.8
		s-1.3-0.6-2.4-0.6h-1.9V133.5z"/>
	<path fill="#333333" d="M115.3,140.3c-1.4,0-2.5-0.4-3.4-1.3s-1.2-2.1-1.2-3.6c0-1.6,0.4-2.8,1.1-3.7s1.8-1.4,3.1-1.4
		c1.2,0,2.2,0.4,2.9,1.2s1.1,1.8,1.1,3.1v0.9h-6.6c0,1.1,0.3,2,0.9,2.6s1.3,0.9,2.3,0.9c1,0,2.1-0.2,3.1-0.7v1.3
		c-0.5,0.2-1,0.4-1.5,0.5C116.5,140.3,116,140.3,115.3,140.3z M114.9,131.5c-0.8,0-1.4,0.3-1.8,0.8s-0.7,1.2-0.8,2.1h5
		c0-0.9-0.2-1.6-0.6-2.1C116.3,131.8,115.7,131.5,114.9,131.5z"/>
	<path fill="#333333" d="M129.2,130.5v0.9l-1.8,0.2c0.2,0.2,0.3,0.5,0.4,0.8c0.1,0.3,0.2,0.7,0.2,1.1c0,0.9-0.3,1.7-1,2.3
		s-1.5,0.8-2.7,0.8c-0.3,0-0.6,0-0.8-0.1c-0.6,0.3-0.9,0.7-0.9,1.2c0,0.3,0.1,0.5,0.3,0.6c0.2,0.1,0.6,0.2,1.1,0.2h1.7
		c1,0,1.8,0.2,2.4,0.7c0.6,0.4,0.8,1.1,0.8,1.9c0,1.1-0.4,1.9-1.3,2.4c-0.9,0.6-2.1,0.8-3.7,0.8c-1.3,0-2.2-0.2-2.9-0.7s-1-1.1-1-2
		c0-0.6,0.2-1.1,0.6-1.5s0.9-0.7,1.6-0.9c-0.2-0.1-0.5-0.3-0.6-0.5s-0.3-0.5-0.3-0.8c0-0.4,0.1-0.7,0.3-0.9s0.5-0.5,0.9-0.8
		c-0.5-0.2-0.9-0.6-1.2-1s-0.5-1.1-0.5-1.7c0-1.1,0.3-1.9,0.9-2.4c0.6-0.6,1.5-0.9,2.7-0.9c0.5,0,1,0.1,1.4,0.2H129.2z M121.5,141.7
		c0,0.5,0.2,0.9,0.7,1.2s1.1,0.4,1.9,0.4c1.2,0,2.1-0.2,2.7-0.5s0.9-0.9,0.9-1.5c0-0.5-0.2-0.9-0.5-1.1c-0.3-0.2-0.9-0.3-1.8-0.3
		h-1.7c-0.7,0-1.2,0.2-1.5,0.5S121.5,141.2,121.5,141.7z M122.3,133.6c0,0.7,0.2,1.2,0.6,1.5s0.9,0.5,1.6,0.5c1.4,0,2.1-0.7,2.1-2.1
		c0-1.4-0.7-2.2-2.2-2.2c-0.7,0-1.2,0.2-1.6,0.6S122.3,132.9,122.3,133.6z"/>
	<path fill="#333333" d="M132.6,130.5v6.2c0,0.8,0.2,1.4,0.5,1.8s0.9,0.6,1.7,0.6c1,0,1.7-0.3,2.2-0.8s0.7-1.5,0.7-2.7v-5.1h1.5v9.6
		h-1.2l-0.2-1.3h-0.1c-0.3,0.5-0.7,0.8-1.2,1.1s-1.1,0.4-1.8,0.4c-1.2,0-2-0.3-2.6-0.8s-0.9-1.4-0.9-2.7v-6.3H132.6z"/>
	<path fill="#333333" d="M143.7,140.1h-1.5v-13.7h1.5V140.1z"/>
	<path fill="#333333" d="M152.7,140.1l-0.3-1.4h-0.1c-0.5,0.6-1,1-1.4,1.2c-0.5,0.2-1.1,0.3-1.8,0.3c-1,0-1.7-0.2-2.2-0.7
		s-0.8-1.2-0.8-2.1c0-1.9,1.6-3,4.7-3.1l1.6-0.1v-0.6c0-0.8-0.2-1.3-0.5-1.7c-0.3-0.4-0.8-0.5-1.6-0.5c-0.8,0-1.7,0.2-2.7,0.7
		l-0.4-1.1c0.5-0.3,1-0.5,1.6-0.6s1.1-0.2,1.7-0.2c1.1,0,2,0.3,2.6,0.8s0.8,1.3,0.8,2.5v6.6H152.7z M149.4,139.1
		c0.9,0,1.6-0.2,2.1-0.7s0.8-1.2,0.8-2.1v-0.9l-1.5,0.1c-1.2,0-2,0.2-2.5,0.5s-0.8,0.8-0.8,1.5c0,0.5,0.2,0.9,0.5,1.2
		S148.8,139.1,149.4,139.1z"/>
	<path fill="#333333" d="M161.2,130.3c0.4,0,0.8,0,1.2,0.1l-0.2,1.4c-0.4-0.1-0.8-0.1-1.1-0.1c-0.8,0-1.4,0.3-2,0.9
		s-0.8,1.4-0.8,2.4v5.2h-1.5v-9.6h1.2l0.2,1.8h0.1c0.4-0.6,0.8-1.1,1.3-1.5S160.6,130.3,161.2,130.3z"/>
	<path fill="#333333" d="M16.6,163.7c0,2.1-0.5,3.7-1.6,4.9s-2.5,1.7-4.4,1.7c-1.9,0-3.4-0.6-4.5-1.7c-1-1.2-1.6-2.8-1.6-4.9
		s0.5-3.8,1.6-4.9s2.5-1.7,4.5-1.7c1.9,0,3.4,0.6,4.4,1.7S16.6,161.6,16.6,163.7z M6.8,163.7c0,1.6,0.3,2.8,1,3.6
		c0.6,0.8,1.6,1.2,2.8,1.2c1.2,0,2.2-0.4,2.8-1.2s1-2,1-3.6c0-1.6-0.3-2.8-0.9-3.6s-1.6-1.2-2.8-1.2c-1.3,0-2.2,0.4-2.9,1.2
		S6.8,162.1,6.8,163.7z"/>
	<path fill="#333333" d="M24.1,170.3c-1.2,0-2.2-0.4-2.9-1.3h-0.1c0.1,0.8,0.1,1.3,0.1,1.5v4h-2.1v-14h1.7c0,0.2,0.1,0.6,0.3,1.3
		h0.1c0.6-1,1.6-1.5,2.9-1.5c1.2,0,2.2,0.4,2.8,1.3s1,2.1,1,3.7s-0.3,2.8-1,3.7S25.3,170.3,24.1,170.3z M23.6,161.9
		c-0.8,0-1.4,0.2-1.8,0.7s-0.6,1.2-0.6,2.3v0.3c0,1.2,0.2,2,0.6,2.6s1,0.8,1.8,0.8c0.7,0,1.3-0.3,1.7-0.9s0.6-1.4,0.6-2.5
		c0-1.1-0.2-1.9-0.6-2.5S24.3,161.9,23.6,161.9z"/>
	<path fill="#333333" d="M34.6,170.3c-1.5,0-2.7-0.4-3.5-1.3s-1.3-2.1-1.3-3.6c0-1.6,0.4-2.8,1.2-3.7s1.9-1.4,3.3-1.4
		c1.3,0,2.3,0.4,3,1.2s1.1,1.9,1.1,3.2v1.1h-6.5c0,0.9,0.3,1.7,0.8,2.2s1.2,0.8,2,0.8c0.6,0,1.1-0.1,1.6-0.2s1-0.3,1.6-0.5v1.7
		c-0.5,0.2-1,0.4-1.5,0.5S35.3,170.3,34.6,170.3z M34.2,161.8c-0.7,0-1.2,0.2-1.6,0.6s-0.6,1-0.7,1.8h4.4c0-0.8-0.2-1.4-0.6-1.8
		C35.4,162,34.9,161.8,34.2,161.8z"/>
	<path fill="#333333" d="M49.3,170.1h-2.1v-6c0-0.8-0.2-1.3-0.5-1.7s-0.8-0.6-1.4-0.6c-0.9,0-1.5,0.3-1.9,0.8s-0.6,1.4-0.6,2.6v4.8
		h-2.1v-9.7h1.6l0.3,1.3h0.1c0.3-0.5,0.7-0.8,1.2-1.1s1.1-0.4,1.8-0.4c2.3,0,3.5,1.2,3.5,3.6V170.1z"/>
	<path fill="#333333" d="M64.4,166.6c0,1.1-0.4,2-1.2,2.7s-2,1-3.4,1s-2.6-0.2-3.6-0.7v-2c0.6,0.3,1.2,0.5,1.9,0.7s1.3,0.2,1.8,0.2
		c0.8,0,1.4-0.2,1.8-0.5s0.6-0.7,0.6-1.3c0-0.5-0.2-0.9-0.5-1.2s-1.1-0.7-2.2-1.2c-1.2-0.5-2-1-2.5-1.6s-0.7-1.3-0.7-2.2
		c0-1.1,0.4-1.9,1.1-2.5s1.8-0.9,3.1-0.9c1.2,0,2.5,0.3,3.7,0.8l-0.7,1.7c-1.1-0.5-2.2-0.7-3.1-0.7c-0.7,0-1.2,0.1-1.5,0.4
		c-0.4,0.3-0.5,0.7-0.5,1.2c0,0.3,0.1,0.6,0.2,0.9c0.1,0.2,0.4,0.5,0.7,0.7s0.9,0.5,1.7,0.8c0.9,0.4,1.6,0.8,2.1,1.1s0.8,0.7,1,1.2
		S64.4,166.1,64.4,166.6z"/>
	<path fill="#333333" d="M72.8,170.1l-0.4-1.4h-0.1c-0.5,0.6-0.9,1-1.4,1.2c-0.5,0.2-1.1,0.3-1.8,0.3c-1,0-1.7-0.3-2.2-0.8
		s-0.8-1.2-0.8-2.2c0-1,0.4-1.8,1.1-2.3s1.9-0.8,3.4-0.8l1.7-0.1v-0.5c0-0.6-0.1-1.1-0.4-1.4c-0.3-0.3-0.7-0.5-1.3-0.5
		c-0.5,0-1,0.1-1.4,0.2s-0.9,0.3-1.3,0.5l-0.7-1.5c0.5-0.3,1.1-0.5,1.7-0.6c0.6-0.1,1.2-0.2,1.8-0.2c1.2,0,2.2,0.3,2.8,0.8
		s0.9,1.4,0.9,2.5v6.5H72.8z M69.7,168.7c0.8,0,1.4-0.2,1.8-0.6c0.5-0.4,0.7-1,0.7-1.8v-0.8l-1.2,0.1c-1,0-1.7,0.2-2.1,0.5
		c-0.4,0.3-0.7,0.7-0.7,1.3c0,0.4,0.1,0.8,0.4,1C68.8,168.6,69.2,168.7,69.7,168.7z"/>
	<path fill="#333333" d="M85.7,170.1h-2.1v-6c0-0.8-0.2-1.3-0.5-1.7s-0.8-0.6-1.4-0.6c-0.9,0-1.5,0.3-1.9,0.8s-0.6,1.4-0.6,2.6v4.8
		h-2.1v-9.7h1.6l0.3,1.3h0.1c0.3-0.5,0.7-0.8,1.2-1.1s1.1-0.4,1.8-0.4c2.3,0,3.5,1.2,3.5,3.6V170.1z"/>
	<path fill="#333333" d="M95.1,167.4c0,0.9-0.3,1.7-1,2.2s-1.7,0.8-3,0.8c-1.3,0-2.3-0.2-3.1-0.6v-1.8c1.1,0.5,2.2,0.8,3.2,0.8
		c1.3,0,1.9-0.4,1.9-1.2c0-0.2-0.1-0.5-0.2-0.6s-0.4-0.3-0.7-0.5s-0.8-0.4-1.3-0.6c-1.1-0.4-1.9-0.9-2.3-1.3s-0.6-1-0.6-1.7
		c0-0.8,0.3-1.5,1-1.9c0.7-0.5,1.6-0.7,2.7-0.7c1.1,0,2.2,0.2,3.2,0.7l-0.7,1.6c-1-0.4-1.9-0.7-2.6-0.7c-1.1,0-1.6,0.3-1.6,0.9
		c0,0.3,0.1,0.6,0.4,0.8s0.9,0.5,1.9,0.9c0.8,0.3,1.4,0.6,1.7,0.9s0.6,0.6,0.8,0.9S95.1,166.9,95.1,167.4z"/>
	<path fill="#333333" d="M12.6,186.6c0,1.1-0.4,2-1.2,2.7s-2,1-3.4,1s-2.6-0.2-3.6-0.7v-2c0.6,0.3,1.2,0.5,1.9,0.7s1.3,0.2,1.8,0.2
		c0.8,0,1.4-0.2,1.8-0.5s0.6-0.7,0.6-1.3c0-0.5-0.2-0.9-0.5-1.2s-1.1-0.7-2.2-1.2c-1.2-0.5-2-1-2.5-1.6s-0.7-1.3-0.7-2.2
		c0-1.1,0.4-1.9,1.1-2.5s1.8-0.9,3.1-0.9c1.2,0,2.5,0.3,3.7,0.8l-0.7,1.7c-1.1-0.5-2.2-0.7-3.1-0.7c-0.7,0-1.2,0.1-1.5,0.4
		c-0.4,0.3-0.5,0.7-0.5,1.2c0,0.3,0.1,0.6,0.2,0.9c0.1,0.2,0.4,0.5,0.7,0.7s0.9,0.5,1.7,0.8c0.9,0.4,1.6,0.8,2.1,1.1s0.8,0.7,1,1.2
		S12.6,186.1,12.6,186.6z"/>
	<path fill="#333333" d="M19.1,190.3c-1.5,0-2.7-0.4-3.5-1.3c-0.9-0.9-1.3-2.1-1.3-3.6c0-1.6,0.4-2.8,1.2-3.7
		c0.8-0.9,1.9-1.4,3.3-1.4c1.3,0,2.3,0.4,3,1.2s1.1,1.9,1.1,3.2v1.1h-6.5c0,0.9,0.3,1.7,0.8,2.2s1.2,0.8,2,0.8
		c0.6,0,1.1-0.1,1.6-0.2s1-0.3,1.6-0.5v1.7c-0.5,0.2-1,0.4-1.5,0.5S19.8,190.3,19.1,190.3z M18.7,181.8c-0.7,0-1.2,0.2-1.6,0.6
		s-0.6,1-0.7,1.8h4.4c0-0.8-0.2-1.4-0.6-1.8C19.9,182,19.4,181.8,18.7,181.8z"/>
	<path fill="#333333" d="M33.4,190.1h-2.1v-6c0-0.7-0.1-1.3-0.4-1.7c-0.3-0.4-0.7-0.5-1.3-0.5c-0.8,0-1.4,0.3-1.8,0.8
		c-0.4,0.5-0.6,1.4-0.6,2.6v4.8h-2.1v-9.7h1.6l0.3,1.3h0.1c0.3-0.5,0.7-0.8,1.2-1.1s1.1-0.4,1.7-0.4c1.5,0,2.5,0.5,3,1.5h0.1
		c0.3-0.5,0.7-0.9,1.2-1.1s1.1-0.4,1.8-0.4c1.2,0,2,0.3,2.5,0.9s0.8,1.5,0.8,2.7v6.3h-2.1v-6c0-0.7-0.1-1.3-0.4-1.7
		c-0.3-0.4-0.7-0.5-1.3-0.5c-0.8,0-1.4,0.2-1.8,0.8c-0.4,0.5-0.6,1.3-0.6,2.3V190.1z"/>
	<path fill="#333333" d="M42.3,177.8c0-0.4,0.1-0.7,0.3-0.9s0.5-0.3,0.9-0.3c0.4,0,0.6,0.1,0.8,0.3s0.3,0.5,0.3,0.9
		c0,0.4-0.1,0.6-0.3,0.8c-0.2,0.2-0.5,0.3-0.8,0.3c-0.4,0-0.7-0.1-0.9-0.3C42.4,178.5,42.3,178.2,42.3,177.8z M44.5,190.1h-2.1v-9.7
		h2.1V190.1z"/>
	<path fill="#333333" d="M52.4,180.2c1.2,0,2.2,0.4,2.8,1.3s1,2.1,1,3.7c0,1.6-0.3,2.8-1,3.7c-0.7,0.9-1.6,1.3-2.9,1.3
		c-1.2,0-2.2-0.4-2.9-1.3h-0.1l-0.4,1.2h-1.5v-13.7h2.1v3.3c0,0.2,0,0.6,0,1.1s0,0.8-0.1,0.9h0.1C50.2,180.7,51.1,180.2,52.4,180.2z
		 M51.9,181.9c-0.8,0-1.4,0.2-1.8,0.7s-0.6,1.3-0.6,2.5v0.1c0,1.2,0.2,2,0.6,2.6s1,0.8,1.8,0.8c0.7,0,1.3-0.3,1.7-0.9
		s0.6-1.4,0.6-2.5C54.2,183,53.4,181.9,51.9,181.9z"/>
	<path fill="#333333" d="M67.3,185.3c0,1.6-0.4,2.8-1.2,3.7s-1.9,1.3-3.4,1.3c-0.9,0-1.7-0.2-2.4-0.6s-1.2-1-1.6-1.8
		s-0.6-1.7-0.6-2.7c0-1.6,0.4-2.8,1.2-3.7s1.9-1.3,3.4-1.3c1.4,0,2.5,0.5,3.3,1.4C66.9,182.5,67.3,183.7,67.3,185.3z M60.2,185.3
		c0,2.2,0.8,3.4,2.5,3.4c1.6,0,2.5-1.1,2.5-3.4c0-2.2-0.8-3.3-2.5-3.3c-0.9,0-1.5,0.3-1.9,0.9S60.2,184.2,60.2,185.3z"/>
	<path fill="#333333" d="M71.7,190.1h-2.1v-13.7h2.1V190.1z"/>
	<path fill="#333333" d="M78,190.3c-1.2,0-2.2-0.4-2.8-1.3s-1-2.1-1-3.7c0-1.6,0.3-2.8,1-3.7c0.7-0.9,1.6-1.3,2.9-1.3
		c1.3,0,2.2,0.5,2.9,1.4H81c-0.1-0.7-0.1-1.2-0.1-1.7v-3.5h2.1v13.7h-1.6l-0.4-1.3h-0.1C80.2,189.8,79.2,190.3,78,190.3z
		 M78.5,188.6c0.8,0,1.5-0.2,1.9-0.7c0.4-0.5,0.6-1.3,0.6-2.3v-0.3c0-1.2-0.2-2.1-0.6-2.6s-1-0.8-1.9-0.8c-0.7,0-1.3,0.3-1.7,0.9
		c-0.4,0.6-0.6,1.4-0.6,2.5c0,1.1,0.2,1.9,0.6,2.5S77.8,188.6,78.5,188.6z"/>
	<path fill="#333333" d="M16.8,213.7c0,2.1-0.5,3.8-1.6,4.9s-2.6,1.7-4.5,1.7s-3.5-0.6-4.5-1.7s-1.6-2.8-1.6-4.9s0.5-3.8,1.6-4.9
		s2.6-1.7,4.5-1.7s3.5,0.6,4.5,1.7S16.8,211.6,16.8,213.7z M7.4,213.7c0,1.4,0.3,2.5,0.8,3.2s1.4,1.1,2.4,1.1c2.2,0,3.3-1.4,3.3-4.3
		c0-2.9-1.1-4.3-3.2-4.3c-1.1,0-1.9,0.4-2.5,1.1C7.7,211.2,7.4,212.3,7.4,213.7z"/>
	<path fill="#333333" d="M24.6,220.3c-1.2,0-2.1-0.4-2.7-1.3h-0.1c0.1,0.8,0.1,1.3,0.1,1.4v4h-2.7v-14.2h2.2l0.4,1.3h0.1
		c0.6-1,1.6-1.5,2.8-1.5c1.2,0,2.1,0.4,2.7,1.3s1,2.1,1,3.7c0,1-0.2,2-0.5,2.7s-0.7,1.4-1.3,1.8S25.4,220.3,24.6,220.3z M23.8,212.3
		c-0.7,0-1.1,0.2-1.5,0.6c-0.3,0.4-0.5,1.1-0.5,2v0.3c0,1.1,0.2,1.8,0.5,2.3s0.8,0.7,1.5,0.7c1.2,0,1.8-1,1.8-3c0-1-0.1-1.7-0.4-2.2
		C24.9,212.5,24.5,212.3,23.8,212.3z"/>
	<path fill="#333333" d="M35.1,220.3c-1.6,0-2.8-0.4-3.7-1.3c-0.9-0.9-1.3-2.1-1.3-3.7c0-1.6,0.4-2.9,1.2-3.8c0.8-0.9,2-1.3,3.4-1.3
		c1.4,0,2.5,0.4,3.2,1.2s1.2,1.9,1.2,3.3v1.3h-6.3c0,0.8,0.3,1.4,0.7,1.8s1,0.6,1.8,0.6c0.6,0,1.2-0.1,1.7-0.2s1.1-0.3,1.7-0.6v2.1
		c-0.5,0.2-1,0.4-1.5,0.5C36.5,220.3,35.8,220.3,35.1,220.3z M34.7,212c-0.6,0-1,0.2-1.3,0.5c-0.3,0.4-0.5,0.9-0.6,1.5h3.8
		c0-0.7-0.2-1.2-0.5-1.5C35.7,212.2,35.2,212,34.7,212z"/>
	<path fill="#333333" d="M50.3,220.1h-2.7v-5.7c0-0.7-0.1-1.2-0.4-1.6s-0.7-0.5-1.2-0.5c-0.8,0-1.3,0.3-1.6,0.8
		c-0.3,0.5-0.5,1.3-0.5,2.5v4.6h-2.7v-9.8h2l0.4,1.3h0.1c0.3-0.5,0.7-0.8,1.2-1.1c0.5-0.2,1.1-0.4,1.8-0.4c1.1,0,2,0.3,2.6,0.9
		c0.6,0.6,0.9,1.5,0.9,2.7V220.1z"/>
	<path fill="#333333" d="M65.5,216.6c0,1.2-0.4,2.1-1.3,2.7s-2,1-3.5,1c-1.4,0-2.6-0.3-3.6-0.8V217c0.9,0.4,1.6,0.7,2.2,0.8
		s1.1,0.2,1.6,0.2c0.6,0,1.1-0.1,1.4-0.3s0.5-0.6,0.5-1c0-0.3-0.1-0.5-0.2-0.7c-0.1-0.2-0.3-0.4-0.6-0.6s-0.8-0.5-1.7-0.9
		c-0.8-0.4-1.4-0.7-1.8-1.1s-0.7-0.7-0.9-1.2s-0.4-1-0.4-1.6c0-1.1,0.4-2,1.2-2.7s1.8-1,3.2-1c0.7,0,1.3,0.1,1.9,0.2
		s1.2,0.4,1.9,0.7l-0.9,2.1c-0.7-0.3-1.3-0.5-1.7-0.6s-0.9-0.2-1.3-0.2c-0.5,0-0.9,0.1-1.2,0.4s-0.4,0.6-0.4,0.9
		c0,0.2,0.1,0.5,0.2,0.6c0.1,0.2,0.3,0.4,0.5,0.5c0.2,0.2,0.8,0.5,1.7,0.9c1.2,0.6,2,1.2,2.5,1.7C65.3,215,65.5,215.7,65.5,216.6z"
		/>
	<path fill="#333333" d="M73.9,220.1l-0.5-1.3h-0.1c-0.5,0.6-0.9,1-1.4,1.2c-0.5,0.2-1.1,0.3-1.9,0.3c-0.9,0-1.7-0.3-2.2-0.8
		s-0.8-1.3-0.8-2.3c0-1,0.4-1.8,1.1-2.3s1.8-0.8,3.3-0.8l1.7-0.1v-0.4c0-1-0.5-1.5-1.5-1.5c-0.8,0-1.7,0.2-2.8,0.7l-0.9-1.8
		c1.1-0.6,2.4-0.9,3.8-0.9c1.3,0,2.3,0.3,3,0.9s1.1,1.4,1.1,2.6v6.5H73.9z M73.1,215.6l-1,0c-0.8,0-1.4,0.2-1.7,0.4
		s-0.6,0.7-0.6,1.2c0,0.8,0.4,1.1,1.3,1.1c0.6,0,1.1-0.2,1.5-0.5s0.6-0.8,0.6-1.4V215.6z"/>
	<path fill="#333333" d="M87.6,220.1h-2.7v-5.7c0-0.7-0.1-1.2-0.4-1.6s-0.7-0.5-1.2-0.5c-0.8,0-1.3,0.3-1.6,0.8
		c-0.3,0.5-0.5,1.3-0.5,2.5v4.6h-2.7v-9.8h2l0.4,1.3h0.1c0.3-0.5,0.7-0.8,1.2-1.1c0.5-0.2,1.1-0.4,1.8-0.4c1.1,0,2,0.3,2.6,0.9
		c0.6,0.6,0.9,1.5,0.9,2.7V220.1z"/>
	<path fill="#333333" d="M97.2,217.2c0,1-0.3,1.8-1,2.3s-1.7,0.8-3.1,0.8c-0.7,0-1.3,0-1.8-0.1c-0.5-0.1-1-0.2-1.4-0.4v-2.2
		c0.5,0.2,1.1,0.4,1.7,0.6s1.2,0.2,1.6,0.2c1,0,1.5-0.3,1.5-0.8c0-0.2-0.1-0.4-0.2-0.5c-0.1-0.1-0.4-0.3-0.7-0.4
		c-0.3-0.2-0.7-0.4-1.3-0.6c-0.8-0.3-1.3-0.6-1.7-0.9s-0.6-0.6-0.8-0.9s-0.2-0.8-0.2-1.3c0-0.9,0.3-1.5,1-2c0.7-0.5,1.6-0.7,2.9-0.7
		c1.2,0,2.3,0.3,3.5,0.8l-0.8,1.9c-0.5-0.2-1-0.4-1.4-0.5s-0.9-0.2-1.3-0.2c-0.8,0-1.2,0.2-1.2,0.6c0,0.2,0.1,0.4,0.4,0.6
		s0.8,0.4,1.7,0.8c0.8,0.3,1.3,0.6,1.7,0.9s0.6,0.6,0.8,0.9S97.2,216.7,97.2,217.2z"/>
	<path fill="#333333" d="M104.2,207.3h4c1.8,0,3.1,0.3,4,0.8c0.8,0.5,1.2,1.3,1.2,2.5c0,0.8-0.2,1.4-0.5,1.9s-0.8,0.8-1.4,0.9v0.1
		c0.8,0.2,1.4,0.5,1.8,1s0.5,1.2,0.5,2c0,1.2-0.4,2.1-1.3,2.7s-2,1-3.5,1h-4.8V207.3z M106.9,212.4h1.6c0.7,0,1.3-0.1,1.6-0.3
		s0.5-0.6,0.5-1.1c0-0.5-0.2-0.8-0.5-1.1c-0.4-0.2-0.9-0.3-1.7-0.3h-1.4V212.4z M106.9,214.5v3.3h1.8c0.8,0,1.3-0.1,1.7-0.4
		s0.5-0.7,0.5-1.3c0-1.1-0.8-1.6-2.3-1.6H106.9z"/>
	<path fill="#333333" d="M125,215.2c0,1.6-0.4,2.9-1.3,3.8s-2,1.4-3.5,1.4c-0.9,0-1.8-0.2-2.5-0.6c-0.7-0.4-1.3-1-1.7-1.8
		s-0.6-1.7-0.6-2.7c0-1.6,0.4-2.9,1.3-3.7s2-1.3,3.5-1.3c0.9,0,1.8,0.2,2.5,0.6s1.3,1,1.7,1.8S125,214.2,125,215.2z M118.2,215.2
		c0,1,0.2,1.7,0.5,2.2s0.8,0.7,1.6,0.7c0.7,0,1.2-0.2,1.5-0.7c0.3-0.5,0.5-1.2,0.5-2.2c0-1-0.2-1.7-0.5-2.2s-0.8-0.7-1.6-0.7
		c-0.7,0-1.2,0.2-1.5,0.7C118.4,213.5,118.2,214.2,118.2,215.2z"/>
	<path fill="#333333" d="M129.9,220.1h-2.7v-13.7h2.7V220.1z"/>
	<path fill="#333333" d="M135.8,220.3c-1.2,0-2.1-0.4-2.7-1.3s-1-2.1-1-3.7c0-1.6,0.3-2.9,1-3.8c0.7-0.9,1.6-1.3,2.8-1.3
		c1.2,0,2.2,0.5,2.8,1.4h0.1c-0.1-0.7-0.2-1.4-0.2-2v-3.1h2.7v13.7h-2.1l-0.5-1.3h-0.1C138,219.8,137.1,220.3,135.8,220.3z
		 M136.8,218.2c0.7,0,1.2-0.2,1.5-0.6s0.5-1.1,0.5-2v-0.3c0-1.1-0.2-1.8-0.5-2.3s-0.9-0.7-1.6-0.7c-0.6,0-1.1,0.3-1.4,0.8
		s-0.5,1.2-0.5,2.2s0.2,1.7,0.5,2.2C135.7,217.9,136.2,218.2,136.8,218.2z"/>
	<path fill="#333333" d="M16.9,243.7c0,2.2-0.5,3.8-1.6,4.9s-2.6,1.7-4.7,1.7c-2,0-3.6-0.6-4.6-1.7s-1.6-2.8-1.6-4.9
		c0-2.1,0.5-3.8,1.6-4.9s2.6-1.7,4.7-1.7c2,0,3.6,0.6,4.6,1.7S16.9,241.5,16.9,243.7z M8.1,243.7c0,2.5,0.9,3.7,2.6,3.7
		c0.9,0,1.5-0.3,2-0.9s0.6-1.5,0.6-2.8c0-1.3-0.2-2.2-0.6-2.8s-1.1-0.9-1.9-0.9C8.9,239.9,8.1,241.2,8.1,243.7z"/>
	<path fill="#333333" d="M25,250.3c-0.5,0-1-0.1-1.4-0.2c-0.4-0.2-0.8-0.5-1.2-0.9h-0.2c0.1,0.7,0.2,1.1,0.2,1.3v4H19v-14.3h2.8
		l0.5,1.3h0.2c0.6-1,1.5-1.4,2.6-1.4c1.1,0,2,0.5,2.6,1.4s0.9,2.2,0.9,3.8c0,1.6-0.3,2.9-1,3.8C27,249.8,26.1,250.3,25,250.3z
		 M23.8,242.7c-0.5,0-0.9,0.2-1.1,0.5c-0.2,0.4-0.3,0.9-0.3,1.6v0.3c0,0.9,0.1,1.5,0.3,1.9s0.6,0.6,1.1,0.6c0.4,0,0.8-0.2,1-0.6
		c0.2-0.4,0.3-1,0.3-1.9c0-0.9-0.1-1.5-0.3-1.8S24.3,242.7,23.8,242.7z"/>
	<path fill="#333333" d="M35.4,250.3c-1.7,0-2.9-0.4-3.9-1.3c-0.9-0.9-1.4-2.1-1.4-3.8c0-1.7,0.4-3,1.3-3.9c0.8-0.9,2.1-1.3,3.6-1.3
		c1.5,0,2.7,0.4,3.5,1.2c0.8,0.8,1.2,1.9,1.2,3.4v1.5h-6.1c0,0.6,0.2,1,0.6,1.3s0.9,0.5,1.6,0.5c0.6,0,1.2-0.1,1.7-0.2
		c0.5-0.1,1.1-0.3,1.6-0.6v2.5c-0.5,0.3-1.1,0.5-1.7,0.6S36.2,250.3,35.4,250.3z M35.2,242.3c-0.4,0-0.7,0.1-1,0.4
		c-0.3,0.3-0.4,0.7-0.5,1.2h3c0-0.5-0.1-0.9-0.4-1.2S35.6,242.3,35.2,242.3z"/>
	<path fill="#333333" d="M48,250.1v-5.4c0-0.7-0.1-1.2-0.3-1.5s-0.5-0.5-0.9-0.5c-0.6,0-1,0.2-1.3,0.7s-0.4,1.3-0.4,2.4v4.4h-3.4
		v-10h2.6l0.4,1.2h0.2c0.3-0.5,0.7-0.8,1.2-1.1s1.1-0.4,1.8-0.4c1.1,0,2,0.3,2.6,1s0.9,1.5,0.9,2.7v6.5H48z"/>
	<path fill="#333333" d="M67.1,246.2c0,0.8-0.2,1.5-0.6,2.1s-1,1.1-1.7,1.4c-0.8,0.3-1.7,0.5-2.7,0.5c-0.9,0-1.6-0.1-2.2-0.2
		c-0.6-0.1-1.2-0.3-1.8-0.6v-3.1c0.7,0.3,1.4,0.6,2.1,0.8c0.7,0.2,1.4,0.3,2,0.3c0.5,0,0.9-0.1,1.1-0.3c0.2-0.2,0.4-0.4,0.4-0.7
		c0-0.2,0-0.3-0.1-0.5c-0.1-0.1-0.3-0.3-0.5-0.4s-0.8-0.4-1.7-0.8c-0.8-0.4-1.5-0.8-1.9-1.1s-0.7-0.8-0.9-1.2s-0.3-1-0.3-1.6
		c0-1.2,0.4-2.1,1.3-2.8s2-1,3.6-1c1.3,0,2.7,0.3,4.1,0.9l-1.1,2.7c-1.2-0.6-2.2-0.8-3.1-0.8c-0.5,0-0.8,0.1-1,0.2s-0.3,0.4-0.3,0.6
		c0,0.3,0.1,0.5,0.4,0.7s1,0.6,2.1,1.1c1.1,0.5,1.9,1,2.3,1.6C66.8,244.6,67.1,245.4,67.1,246.2z"/>
	<path fill="#333333" d="M75.3,250.1l-0.7-1.3h-0.1c-0.5,0.6-0.9,1-1.4,1.2s-1.1,0.3-1.9,0.3c-0.9,0-1.7-0.3-2.2-0.8
		s-0.8-1.4-0.8-2.4c0-1.1,0.4-1.8,1.1-2.4c0.7-0.5,1.8-0.8,3.2-0.9l1.7-0.1v-0.1c0-0.8-0.4-1.2-1.2-1.2c-0.7,0-1.6,0.2-2.8,0.7
		l-1-2.3c1.2-0.6,2.6-0.9,4.4-0.9c1.3,0,2.3,0.3,3,0.9s1,1.5,1,2.7v6.5H75.3z M72.8,247.9c0.4,0,0.8-0.1,1.1-0.4s0.4-0.6,0.4-1v-0.8
		l-0.8,0c-1.1,0-1.7,0.5-1.7,1.2C71.8,247.6,72.1,247.9,72.8,247.9z"/>
	<path fill="#333333" d="M86.3,250.1v-5.4c0-0.7-0.1-1.2-0.3-1.5s-0.5-0.5-0.9-0.5c-0.6,0-1,0.2-1.3,0.7s-0.4,1.3-0.4,2.4v4.4h-3.4
		v-10h2.6l0.4,1.2h0.2c0.3-0.5,0.7-0.8,1.2-1.1s1.1-0.4,1.8-0.4c1.1,0,2,0.3,2.6,1s0.9,1.5,0.9,2.7v6.5H86.3z"/>
	<path fill="#333333" d="M99.8,247.1c0,1.1-0.4,1.9-1.1,2.4s-1.8,0.8-3.1,0.8c-0.7,0-1.4,0-1.9-0.1c-0.5-0.1-1.1-0.2-1.7-0.4V247
		c0.5,0.2,1.1,0.4,1.8,0.6s1.2,0.2,1.7,0.2c0.7,0,1.1-0.2,1.1-0.5c0-0.2-0.1-0.3-0.3-0.5c-0.2-0.1-0.8-0.4-1.8-0.8
		c-0.9-0.4-1.6-0.8-1.9-1.3s-0.5-1.1-0.5-1.8c0-0.9,0.4-1.6,1.1-2.2s1.7-0.8,3-0.8c0.7,0,1.3,0.1,1.9,0.2s1.2,0.4,1.8,0.6l-0.9,2.2
		c-0.5-0.2-0.9-0.4-1.5-0.5s-0.9-0.2-1.2-0.2c-0.6,0-0.8,0.1-0.8,0.4c0,0.2,0.1,0.3,0.3,0.4s0.8,0.4,1.7,0.7
		c0.7,0.3,1.2,0.6,1.6,0.8s0.6,0.6,0.8,1S99.8,246.5,99.8,247.1z"/>
	<path fill="#333333" d="M12.5,270.1H4.9v-12.8h7.6v2.8H8.3v2h3.8v2.8H8.3v2.4h4.2V270.1z"/>
	<path fill="#333333" d="M16.7,265.1l-3-4.9h3.9L19,263l1.5-2.8h3.9l-3.1,4.9l3.2,5.1h-3.9l-1.7-3l-1.7,3h-3.9L16.7,265.1z"/>
	<path fill="#333333" d="M30.8,267.6c0.5,0,1-0.1,1.7-0.3v2.5c-0.5,0.2-0.9,0.3-1.3,0.4c-0.4,0.1-0.9,0.1-1.5,0.1
		c-1.2,0-2-0.3-2.5-0.8s-0.8-1.4-0.8-2.6v-4.1h-1.2v-1.4l1.5-1.1l0.9-2.1h2.2v2h2.4v2.6h-2.4v3.9C29.8,267.3,30.1,267.6,30.8,267.6z
		"/>
	<path fill="#333333" d="M40.2,260c0.3,0,0.6,0,0.9,0.1l0.2,0l-0.3,3.2c-0.3-0.1-0.7-0.1-1.2-0.1c-0.8,0-1.3,0.2-1.6,0.5
		c-0.3,0.3-0.5,0.8-0.5,1.5v4.9h-3.4v-10h2.6l0.5,1.6h0.2c0.3-0.5,0.7-1,1.2-1.3C39.1,260.2,39.7,260,40.2,260z"/>
	<path fill="#333333" d="M49.1,270.1l-0.7-1.3h-0.1c-0.5,0.6-0.9,1-1.4,1.2s-1.1,0.3-1.9,0.3c-0.9,0-1.7-0.3-2.2-0.8
		s-0.8-1.4-0.8-2.4c0-1.1,0.4-1.8,1.1-2.4c0.7-0.5,1.8-0.8,3.2-0.9l1.7-0.1v-0.1c0-0.8-0.4-1.2-1.2-1.2c-0.7,0-1.6,0.2-2.8,0.7
		l-1-2.3c1.2-0.6,2.6-0.9,4.4-0.9c1.3,0,2.3,0.3,3,0.9s1,1.5,1,2.7v6.5H49.1z M46.6,267.9c0.4,0,0.8-0.1,1.1-0.4s0.4-0.6,0.4-1v-0.8
		l-0.8,0c-1.1,0-1.7,0.5-1.7,1.2C45.6,267.6,45.9,267.9,46.6,267.9z"/>
	<path fill="#333333" d="M59.9,260c1.1,0,1.9,0.5,2.6,1.4s1,2.2,1,3.8c0,1.6-0.3,2.9-1,3.8s-1.5,1.4-2.7,1.4c-0.4,0-0.7,0-1-0.1
		c-0.3-0.1-0.5-0.2-0.8-0.3s-0.5-0.4-0.8-0.7h-0.2l-0.5,1h-2.7v-13.7h3.4v3.1c0,0.4,0,1-0.1,1.9h0.1c0.3-0.5,0.7-0.9,1.2-1.1
		S59.4,260,59.9,260z M58.7,262.7c-0.5,0-0.8,0.2-1.1,0.5s-0.3,0.9-0.3,1.6v0.5c0,0.8,0.1,1.4,0.3,1.8c0.2,0.4,0.6,0.5,1.1,0.5
		c0.4,0,0.7-0.2,0.9-0.6c0.2-0.4,0.3-1,0.3-1.8C59.9,263.5,59.5,262.7,58.7,262.7z"/>
	<path fill="#333333" d="M74.9,265.1c0,1.6-0.4,2.9-1.3,3.8c-0.9,0.9-2.1,1.4-3.7,1.4c-1.5,0-2.7-0.5-3.6-1.4s-1.3-2.2-1.3-3.8
		c0-1.6,0.4-2.9,1.3-3.8c0.9-0.9,2.1-1.3,3.7-1.3c1,0,1.8,0.2,2.6,0.6s1.3,1,1.7,1.8S74.9,264.1,74.9,265.1z M68.5,265.1
		c0,0.9,0.1,1.5,0.3,2c0.2,0.4,0.6,0.7,1.2,0.7c0.5,0,0.9-0.2,1.1-0.7c0.2-0.4,0.3-1.1,0.3-2c0-0.8-0.1-1.5-0.3-1.9
		s-0.6-0.7-1.1-0.7c-0.5,0-0.9,0.2-1.1,0.6C68.6,263.6,68.5,264.3,68.5,265.1z"/>
	<path fill="#333333" d="M80.3,270.1h-3.4v-13.7h3.4V270.1z"/>
	<path fill="#333333" d="M85.8,270.3c-0.7,0-1.3-0.2-1.9-0.6s-0.9-1-1.2-1.8s-0.4-1.7-0.4-2.8c0-1.6,0.3-2.9,1-3.8s1.5-1.4,2.7-1.4
		c0.6,0,1,0.1,1.5,0.3s0.8,0.6,1.1,1.1h0.1c-0.1-0.8-0.2-1.6-0.2-2.3v-2.7h3.5v13.7h-2.6l-0.7-1.3h-0.1
		C87.8,269.8,87,270.3,85.8,270.3z M87.2,267.6c0.6,0,0.9-0.2,1.2-0.5s0.3-0.9,0.4-1.6v-0.3c0-0.9-0.1-1.5-0.4-1.9s-0.6-0.6-1.2-0.6
		c-0.5,0-0.8,0.2-1,0.6c-0.2,0.4-0.4,1-0.4,1.8c0,0.8,0.1,1.4,0.4,1.8S86.7,267.6,87.2,267.6z"/>
</g>
<g>
	<path fill="#333333" d="M55.4,33.5c0,9-2.2,15.9-6.7,20.7s-10.8,7.2-19.1,7.2S14.9,59,10.4,54.2S3.8,42.5,3.8,33.4
		c0-9,2.2-15.9,6.7-20.7C14.9,8,21.3,5.6,29.7,5.6c8.3,0,14.7,2.4,19.1,7.2C53.2,17.6,55.4,24.5,55.4,33.5z M15.8,33.5
		c0,6.1,1.2,10.6,3.5,13.7c2.3,3.1,5.7,4.6,10.3,4.6c9.2,0,13.8-6.1,13.8-18.3c0-12.2-4.6-18.3-13.7-18.3c-4.6,0-8,1.5-10.4,4.6
		C17,22.9,15.8,27.4,15.8,33.5z"/>
	<path fill="#333333" d="M85.2,61.4c-4.9,0-8.7-1.8-11.5-5.3h-0.6c0.4,3.5,0.6,5.5,0.6,6V79H62.4V19.2h9.2l1.6,5.4h0.5
		c2.6-4.1,6.6-6.2,11.8-6.2c4.9,0,8.7,1.9,11.5,5.7c2.8,3.8,4.2,9,4.2,15.8c0,4.4-0.6,8.3-1.9,11.5s-3.1,5.8-5.5,7.5
		C91.3,60.6,88.4,61.4,85.2,61.4z M81.9,27.5c-2.8,0-4.8,0.9-6.1,2.6c-1.3,1.7-2,4.6-2,8.5v1.2c0,4.5,0.7,7.6,2,9.6
		c1.3,1.9,3.4,2.9,6.3,2.9c5.1,0,7.6-4.2,7.6-12.5c0-4.1-0.6-7.1-1.9-9.2C86.5,28.5,84.5,27.5,81.9,27.5z"/>
	<path fill="#333333" d="M126.3,61.4c-6.7,0-11.9-1.8-15.7-5.5c-3.8-3.7-5.6-8.9-5.6-15.7c0-7,1.7-12.3,5.2-16.1
		c3.5-3.8,8.3-5.7,14.4-5.7c5.9,0,10.4,1.7,13.7,5s4.9,8,4.9,13.8v5.5h-26.8c0.1,3.2,1.1,5.7,2.9,7.5c1.8,1.8,4.3,2.7,7.5,2.7
		c2.5,0,4.9-0.3,7.1-0.8s4.6-1.3,7-2.5v8.8c-2,1-4.1,1.7-6.3,2.2C132.3,61.2,129.5,61.4,126.3,61.4z M124.7,26.5
		c-2.4,0-4.3,0.8-5.6,2.3c-1.4,1.5-2.1,3.7-2.3,6.5h15.9c0-2.8-0.8-5-2.2-6.5S127.1,26.5,124.7,26.5z"/>
	<path fill="#333333" d="M187.5,60.7h-11.3V36.5c0-3-0.5-5.2-1.6-6.7c-1.1-1.5-2.8-2.2-5.1-2.2c-3.2,0-5.5,1.1-6.9,3.2
		s-2.1,5.6-2.1,10.5v19.5h-11.3V19.2h8.6l1.5,5.3h0.6c1.3-2,3-3.5,5.2-4.5c2.2-1,4.7-1.5,7.6-1.5c4.8,0,8.5,1.3,11,3.9
		c2.5,2.6,3.7,6.4,3.7,11.3V60.7z"/>
	<path fill="#333333" d="M248,45.6c0,4.9-1.8,8.8-5.3,11.6s-8.4,4.2-14.7,4.2c-5.8,0-10.9-1.1-15.4-3.3V47.5
		c3.7,1.6,6.8,2.8,9.3,3.5s4.9,1,7,1c2.5,0,4.5-0.5,5.8-1.4s2-2.4,2-4.3c0-1.1-0.3-2-0.9-2.8c-0.6-0.8-1.5-1.6-2.6-2.4
		c-1.2-0.8-3.5-2-7-3.7c-3.3-1.6-5.8-3.1-7.5-4.5c-1.7-1.4-3-3.1-4-5c-1-1.9-1.5-4.1-1.5-6.7c0-4.8,1.6-8.6,4.9-11.3
		s7.8-4.1,13.5-4.1c2.8,0,5.5,0.3,8.1,1s5.2,1.6,8,2.8l-3.7,8.9c-2.9-1.2-5.3-2-7.2-2.5c-1.9-0.5-3.8-0.7-5.6-0.7
		c-2.2,0-3.8,0.5-5,1.5c-1.2,1-1.7,2.3-1.7,4c0,1,0.2,1.9,0.7,2.7c0.5,0.8,1.2,1.5,2.2,2.2s3.5,2,7.3,3.8c5.1,2.4,8.5,4.9,10.4,7.3
		C247.1,39.1,248,42.1,248,45.6z"/>
	<path fill="#333333" d="M280.8,60.7l-2.2-5.6h-0.3c-1.9,2.4-3.9,4.1-5.9,5s-4.6,1.4-7.9,1.4c-4,0-7.1-1.1-9.4-3.4
		c-2.3-2.3-3.4-5.5-3.4-9.7c0-4.4,1.5-7.7,4.6-9.7c3.1-2.1,7.7-3.2,13.9-3.5l7.2-0.2v-1.8c0-4.2-2.2-6.3-6.5-6.3
		c-3.3,0-7.2,1-11.7,3l-3.7-7.6c4.8-2.5,10.1-3.7,15.9-3.7c5.6,0,9.8,1.2,12.8,3.6c3,2.4,4.5,6.1,4.5,11.1v27.6H280.8z M277.4,41.5
		l-4.4,0.1c-3.3,0.1-5.7,0.7-7.3,1.8c-1.6,1.1-2.4,2.7-2.4,5c0,3.2,1.8,4.8,5.5,4.8c2.6,0,4.7-0.8,6.3-2.3c1.6-1.5,2.4-3.5,2.4-6
		V41.5z"/>
	<path fill="#333333" d="M334.7,60.7h-11.3V36.5c0-3-0.5-5.2-1.6-6.7c-1.1-1.5-2.8-2.2-5.1-2.2c-3.2,0-5.5,1.1-6.9,3.2
		s-2.1,5.6-2.1,10.5v19.5h-11.3V19.2h8.6l1.5,5.3h0.6c1.3-2,3-3.5,5.2-4.5c2.2-1,4.7-1.5,7.6-1.5c4.8,0,8.5,1.3,11,3.9
		c2.5,2.6,3.7,6.4,3.7,11.3V60.7z"/>
	<path fill="#333333" d="M372.1,48.4c0,4.3-1.5,7.5-4.4,9.7c-3,2.2-7.4,3.3-13.3,3.3c-3,0-5.6-0.2-7.7-0.6c-2.1-0.4-4.1-1-6-1.8
		v-9.4c2.1,1,4.5,1.8,7.1,2.5s5,1,7,1c4.1,0,6.2-1.2,6.2-3.6c0-0.9-0.3-1.6-0.8-2.2c-0.5-0.6-1.5-1.2-2.8-1.9s-3.1-1.5-5.3-2.5
		c-3.2-1.3-5.5-2.6-7-3.7c-1.5-1.1-2.6-2.4-3.3-3.9c-0.7-1.5-1-3.3-1-5.4c0-3.7,1.4-6.5,4.3-8.6c2.9-2,6.9-3,12.2-3
		c5,0,9.9,1.1,14.6,3.3l-3.4,8.2c-2.1-0.9-4-1.6-5.8-2.2c-1.8-0.6-3.6-0.9-5.5-0.9c-3.3,0-5,0.9-5,2.7c0,1,0.5,1.9,1.6,2.6
		c1.1,0.7,3.4,1.8,7.1,3.3c3.2,1.3,5.6,2.5,7.1,3.7c1.5,1.1,2.6,2.4,3.3,3.9C371.7,44.6,372.1,46.3,372.1,48.4z"/>
</g>
<g>
	<path fill="#333333" d="M200.6,102.1c0,1.5-0.3,2.9-0.8,4.2c-0.6,1.3-1.3,2.3-2.2,3c-0.9,0.7-2,1-3.2,1c-1.5,0-2.6-0.4-3.4-1.3
		s-1.2-2.1-1.2-3.8c0-1.5,0.3-2.9,0.8-4.2s1.3-2.2,2.2-2.9c0.9-0.7,2-1,3.3-1c1.4,0,2.6,0.4,3.3,1.3
		C200.2,99.3,200.6,100.5,200.6,102.1z M196,97.9c-1,0-1.9,0.3-2.7,0.9s-1.4,1.5-1.9,2.6s-0.7,2.4-0.7,3.7c0,1.4,0.3,2.5,1,3.3
		s1.6,1.1,2.8,1.1c1,0,1.9-0.3,2.6-0.9s1.4-1.5,1.8-2.6s0.7-2.4,0.7-3.8c0-1.4-0.3-2.5-0.9-3.2S197.2,97.9,196,97.9z"/>
	<path fill="#333333" d="M205.5,110.3c-1.3,0-2.2-0.6-2.5-1.9h0c-0.1,0.4-0.5,2.5-1.3,6.1h-0.9l3-13.9h0.7l-0.4,2.4h0.1
		c0.5-0.9,1.1-1.6,1.7-2s1.3-0.6,2-0.6c0.8,0,1.4,0.3,1.8,0.8c0.4,0.5,0.6,1.4,0.6,2.5c0,1.1-0.2,2.2-0.6,3.3s-1,1.8-1.7,2.4
		S206.4,110.3,205.5,110.3z M207.7,101.2c-0.5,0-1,0.2-1.5,0.5c-0.5,0.3-1,0.8-1.4,1.5s-0.8,1.3-1,2.1s-0.3,1.4-0.3,1.8
		c0,0.7,0.2,1.3,0.5,1.8c0.4,0.4,0.9,0.7,1.5,0.7c0.7,0,1.4-0.2,2-0.7s1.1-1.2,1.4-2.1c0.4-0.9,0.6-1.9,0.6-2.9
		C209.4,102,208.8,101.2,207.7,101.2z"/>
	<path fill="#333333" d="M215.3,110.3c-1,0-1.8-0.3-2.4-1c-0.6-0.6-0.9-1.5-0.9-2.7c0-1.1,0.2-2.1,0.6-3s1-1.7,1.7-2.3
		s1.5-0.9,2.4-0.9c0.7,0,1.2,0.2,1.6,0.5s0.6,0.8,0.6,1.5c0,1.1-0.5,1.9-1.4,2.4s-2.4,0.8-4.3,0.8H213c0,0.3-0.1,0.5-0.1,0.9
		c0,1,0.2,1.7,0.7,2.2s1.1,0.8,1.9,0.8c0.8,0,1.6-0.2,2.4-0.6v0.8C217.1,110.1,216.2,110.3,215.3,110.3z M216.7,101.2
		c-0.8,0-1.5,0.3-2.1,1c-0.7,0.7-1.1,1.6-1.4,2.7h0.4c3,0,4.5-0.8,4.5-2.4c0-0.4-0.1-0.7-0.4-1C217.5,101.3,217.2,101.2,216.7,101.2
		z"/>
	<path fill="#333333" d="M226.1,110.1l1.3-6.1c0.1-0.5,0.2-1,0.2-1.4c0-0.5-0.1-0.8-0.4-1.1s-0.6-0.4-1.2-0.4
		c-0.7,0-1.3,0.2-1.9,0.6s-1.1,0.9-1.5,1.6c-0.4,0.7-0.7,1.5-0.9,2.5l-0.9,4.2H220l2-9.6h0.7l-0.3,1.9h0.1c1-1.4,2.2-2.1,3.7-2.1
		c0.8,0,1.3,0.2,1.7,0.6s0.6,0.9,0.6,1.6c0,0.4-0.1,0.9-0.2,1.6l-1.3,5.9H226.1z"/>
	<path fill="#333333" d="M241.9,106.6c0,0.7-0.2,1.4-0.6,2s-0.9,1-1.6,1.3s-1.5,0.4-2.4,0.4c-0.5,0-1,0-1.5-0.1s-1-0.3-1.5-0.5v-1
		c1,0.5,2,0.8,3.1,0.8c1.1,0,2-0.3,2.6-0.8s0.9-1.2,0.9-2c0-0.4,0-0.7-0.1-0.9c-0.1-0.3-0.3-0.5-0.5-0.7s-0.5-0.4-0.8-0.6
		s-0.7-0.4-1.2-0.7c-0.9-0.4-1.5-0.9-1.8-1.4s-0.5-1.1-0.5-1.8s0.2-1.3,0.5-1.8s0.8-0.9,1.5-1.2c0.6-0.3,1.3-0.4,2.1-0.4
		c0.6,0,1.1,0.1,1.6,0.2c0.5,0.1,1,0.3,1.5,0.5l-0.3,0.8c-0.4-0.2-0.8-0.4-1.3-0.6s-1-0.2-1.4-0.2c-1,0-1.7,0.2-2.3,0.7
		c-0.6,0.5-0.8,1.1-0.8,1.9c0,0.6,0.1,1.1,0.4,1.5s0.8,0.8,1.6,1.2c0.9,0.5,1.5,0.8,1.9,1.1s0.6,0.6,0.8,1S241.9,106.1,241.9,106.6z
		"/>
	<path fill="#333333" d="M248.8,100.4c1.4,0,2.2,0.6,2.5,1.9h0.1l0.5-1.8h0.7l-2,9.6h-0.7l0.4-2.4h-0.1c-0.5,0.8-1,1.5-1.6,1.9
		s-1.3,0.7-2.1,0.7c-1.6,0-2.5-1.1-2.5-3.3c0-1.2,0.2-2.3,0.7-3.3s1-1.9,1.8-2.4C247.1,100.7,247.9,100.4,248.8,100.4z M246.6,109.5
		c0.5,0,1-0.2,1.6-0.5s1-0.8,1.4-1.5s0.7-1.3,0.9-2s0.3-1.4,0.3-1.9c0-0.5-0.1-0.9-0.2-1.2s-0.4-0.7-0.7-0.9
		c-0.3-0.2-0.7-0.3-1.1-0.3c-0.7,0-1.4,0.2-2,0.7s-1.1,1.2-1.4,2.2c-0.4,1-0.6,1.9-0.6,2.9c0,0.9,0.1,1.5,0.4,2
		C245.6,109.3,246,109.5,246.6,109.5z"/>
	<path fill="#333333" d="M259.7,110.1l1.3-6.1c0.1-0.5,0.2-1,0.2-1.4c0-0.5-0.1-0.8-0.4-1.1s-0.6-0.4-1.2-0.4
		c-0.7,0-1.3,0.2-1.9,0.6s-1.1,0.9-1.5,1.6c-0.4,0.7-0.7,1.5-0.9,2.5l-0.9,4.2h-0.9l2-9.6h0.7l-0.3,1.9h0.1c1-1.4,2.2-2.1,3.7-2.1
		c0.8,0,1.3,0.2,1.7,0.6s0.6,0.9,0.6,1.6c0,0.4-0.1,0.9-0.2,1.6l-1.3,5.9H259.7z"/>
	<path fill="#333333" d="M269.3,107.5c0,0.8-0.3,1.5-0.9,2c-0.6,0.5-1.4,0.8-2.5,0.8c-1,0-1.9-0.2-2.7-0.7v-0.9
		c0.4,0.3,0.9,0.5,1.3,0.6s0.9,0.2,1.3,0.2c0.8,0,1.4-0.2,1.9-0.5c0.4-0.3,0.6-0.8,0.6-1.4c0-0.2,0-0.5-0.1-0.7s-0.2-0.4-0.4-0.5
		s-0.6-0.4-1.2-0.8c-0.9-0.5-1.5-0.9-1.8-1.3c-0.3-0.4-0.5-0.9-0.5-1.4c0-0.8,0.3-1.4,0.9-1.8s1.3-0.7,2.3-0.7
		c0.4,0,0.9,0.1,1.4,0.2s0.9,0.2,1.2,0.4l-0.3,0.8c-0.8-0.4-1.6-0.6-2.3-0.6c-0.7,0-1.2,0.2-1.6,0.5s-0.6,0.7-0.6,1.2
		c0,0.3,0.1,0.6,0.2,0.8s0.3,0.4,0.5,0.6s0.6,0.4,1.1,0.7c0.7,0.4,1.1,0.7,1.4,0.9c0.3,0.2,0.5,0.5,0.6,0.8S269.3,107.2,269.3,107.5
		z"/>
	<path fill="#333333" d="M275.9,110.1l2.7-12.8h0.9l-2.5,12h5.5l-0.2,0.8H275.9z"/>
	<path fill="#333333" d="M284.8,110.1h-0.9l2-9.6h0.8L284.8,110.1z M286.3,98.1c0-0.3,0.1-0.6,0.2-0.8s0.3-0.3,0.5-0.3
		c0.3,0,0.5,0.2,0.5,0.6c0,0.3-0.1,0.6-0.2,0.8s-0.3,0.3-0.5,0.3c-0.2,0-0.3-0.1-0.4-0.2C286.3,98.5,286.3,98.3,286.3,98.1z"/>
	<path fill="#333333" d="M297.1,100.6l-0.1,0.7l-2.1,0.1c0.2,0.2,0.3,0.4,0.4,0.7s0.2,0.7,0.2,1c0,0.6-0.2,1.2-0.5,1.8
		c-0.3,0.6-0.8,1-1.3,1.3s-1.2,0.4-1.9,0.4c-0.4,0-0.6,0-0.7-0.1c-0.5,0.2-0.8,0.4-1.1,0.6s-0.4,0.5-0.4,0.7s0.1,0.4,0.3,0.6
		c0.2,0.1,0.5,0.2,1,0.3l1.1,0.1c2,0.2,3,1,3,2.3c0,0.7-0.2,1.2-0.6,1.7c-0.4,0.5-0.9,0.9-1.6,1.2s-1.6,0.4-2.6,0.4
		c-1.1,0-1.9-0.2-2.6-0.6s-0.9-1-0.9-1.8c0-1.4,0.9-2.4,2.7-2.9c-0.5-0.2-0.7-0.6-0.7-1.1c0-0.7,0.6-1.3,1.7-1.8
		c-0.4-0.2-0.7-0.5-1-0.9c-0.2-0.4-0.3-0.9-0.3-1.4c0-0.7,0.2-1.2,0.5-1.8s0.7-1,1.3-1.3s1.2-0.5,1.8-0.5c0.4,0,0.8,0.1,1.3,0.2
		H297.1z M287.5,112c0,0.6,0.2,1,0.7,1.3s1.1,0.4,2,0.4c1.2,0,2.1-0.2,2.8-0.7c0.7-0.4,1-1,1-1.8c0-0.5-0.2-0.9-0.5-1.1
		c-0.4-0.3-1-0.4-1.9-0.5l-1.4-0.1c-0.9,0.3-1.6,0.6-2,1C287.7,110.9,287.5,111.4,287.5,112z M289.9,103.9c0,0.7,0.2,1.2,0.5,1.5
		s0.8,0.5,1.4,0.5c0.5,0,1-0.1,1.4-0.3s0.7-0.6,0.9-1s0.3-0.9,0.3-1.5c0-0.6-0.2-1.1-0.5-1.4s-0.8-0.5-1.4-0.5c-0.5,0-1,0.1-1.4,0.4
		s-0.7,0.6-0.9,1S289.9,103.4,289.9,103.9z"/>
	<path fill="#333333" d="M303.3,110.1l1.3-6.1c0.1-0.5,0.2-1,0.2-1.4c0-0.5-0.1-0.8-0.4-1.1s-0.6-0.4-1.2-0.4
		c-0.7,0-1.3,0.2-1.8,0.6s-1.1,0.9-1.5,1.7s-0.7,1.5-0.9,2.5l-0.9,4.2h-0.9l2.9-13.7h0.8l-0.8,3.6c-0.3,1.2-0.5,2-0.6,2.5h0.1
		c0.5-0.7,1-1.2,1.6-1.5c0.6-0.4,1.3-0.5,2-0.5c0.7,0,1.3,0.2,1.7,0.6s0.6,0.9,0.6,1.6c0,0.4-0.1,0.9-0.2,1.6l-1.3,5.9H303.3z"/>
	<path fill="#333333" d="M312.7,100.6l-0.2,0.7H310l-1.2,5.6c-0.1,0.6-0.2,1.1-0.2,1.4c0,0.8,0.4,1.2,1.1,1.2c0.4,0,0.8-0.1,1.3-0.2
		v0.8c-0.6,0.2-1.1,0.2-1.5,0.2c-0.6,0-1-0.2-1.3-0.5c-0.3-0.3-0.5-0.8-0.5-1.4c0-0.4,0.1-1,0.3-1.8l1.1-5.3h-1.6l0.1-0.6l1.6-0.1
		l0.9-2.2h0.5l-0.5,2.2H312.7z"/>
	<path fill="#333333" d="M317.6,110.1l2.7-12.8h0.9l-2.7,12.8H317.6z"/>
	<path fill="#333333" d="M327.2,100.6l-0.2,0.7h-2.5l-1.2,5.6c-0.1,0.6-0.2,1.1-0.2,1.4c0,0.8,0.4,1.2,1.1,1.2
		c0.4,0,0.8-0.1,1.3-0.2v0.8c-0.6,0.2-1.1,0.2-1.5,0.2c-0.6,0-1-0.2-1.3-0.5c-0.3-0.3-0.5-0.8-0.5-1.4c0-0.4,0.1-1,0.3-1.8l1.1-5.3
		h-1.6l0.1-0.6l1.6-0.1l0.9-2.2h0.5l-0.5,2.2H327.2z"/>
	<path fill="#333333" d="M332.3,100.4c1.4,0,2.2,0.6,2.5,1.9h0.1l0.5-1.8h0.7l-2,9.6h-0.7l0.4-2.4h-0.1c-0.5,0.8-1,1.5-1.6,1.9
		s-1.3,0.7-2.1,0.7c-1.6,0-2.5-1.1-2.5-3.3c0-1.2,0.2-2.3,0.7-3.3s1-1.9,1.8-2.4C330.6,100.7,331.4,100.4,332.3,100.4z M330.1,109.5
		c0.5,0,1-0.2,1.6-0.5s1-0.8,1.4-1.5s0.7-1.3,0.9-2s0.3-1.4,0.3-1.9c0-0.5-0.1-0.9-0.2-1.2s-0.4-0.7-0.7-0.9
		c-0.3-0.2-0.7-0.3-1.1-0.3c-0.7,0-1.4,0.2-2,0.7s-1.1,1.2-1.4,2.2c-0.4,1-0.6,1.9-0.6,2.9c0,0.9,0.1,1.5,0.4,2
		C329.1,109.3,329.5,109.5,330.1,109.5z"/>
	<path fill="#333333" d="M338,110.1h-0.8l2.9-13.7h0.8L338,110.1z"/>
	<path fill="#333333" d="M342.2,110.1h-0.9l2-9.6h0.8L342.2,110.1z M343.7,98.1c0-0.3,0.1-0.6,0.2-0.8s0.3-0.3,0.5-0.3
		c0.3,0,0.5,0.2,0.5,0.6c0,0.3-0.1,0.6-0.2,0.8s-0.3,0.3-0.5,0.3c-0.2,0-0.3-0.1-0.4-0.2C343.8,98.5,343.7,98.3,343.7,98.1z"/>
	<path fill="#333333" d="M349,110.3c-1,0-1.8-0.3-2.4-1s-0.9-1.5-0.9-2.7c0-1.1,0.2-2.2,0.6-3.2s1-1.7,1.7-2.3
		c0.7-0.5,1.6-0.8,2.5-0.8c0.8,0,1.5,0.1,2.1,0.4l-0.2,0.8c-0.6-0.3-1.3-0.4-1.9-0.4c-0.8,0-1.4,0.2-2,0.7c-0.6,0.5-1.1,1.1-1.4,2
		s-0.5,1.8-0.5,2.8c0,0.9,0.2,1.6,0.6,2.1c0.4,0.5,1,0.8,1.8,0.8c0.4,0,0.8,0,1.2-0.1c0.4-0.1,0.7-0.2,1.2-0.4v0.8
		C350.7,110.1,349.9,110.3,349,110.3z"/>
	<path fill="#333333" d="M200.6,132.2c0,1.6-0.3,3-0.8,4.2c-0.5,1.2-1.3,2.2-2.2,2.9s-2.1,1-3.3,1c-1.5,0-2.7-0.4-3.5-1.3
		c-0.8-0.9-1.3-2.1-1.3-3.7c0-1.5,0.3-3,0.8-4.2s1.3-2.3,2.3-3c1-0.7,2.1-1,3.3-1c1.4,0,2.6,0.5,3.4,1.4
		C200.2,129.3,200.6,130.6,200.6,132.2z M195.9,128.4c-0.9,0-1.7,0.3-2.5,0.9s-1.3,1.4-1.7,2.5s-0.6,2.2-0.6,3.5
		c0,1.2,0.3,2.1,0.9,2.7s1.4,1,2.3,1c0.9,0,1.7-0.3,2.4-0.9c0.7-0.6,1.3-1.4,1.7-2.5s0.6-2.2,0.6-3.5c0-1.2-0.3-2.1-0.8-2.7
		C197.7,128.7,196.9,128.4,195.9,128.4z"/>
	<path fill="#333333" d="M206,140.3c-0.6,0-1.1-0.1-1.5-0.4s-0.8-0.7-1-1.2h-0.1l0,0.3c0,0.1,0,0.4-0.1,0.6s-0.4,1.9-1,4.9h-1.5
		l3-14h1.2l-0.2,1.8h0.1c1-1.3,2.1-2,3.3-2c0.8,0,1.4,0.3,1.9,0.9c0.5,0.6,0.7,1.4,0.7,2.4c0,1.2-0.2,2.4-0.6,3.4s-1,1.8-1.7,2.4
		S206.9,140.3,206,140.3z M207.6,131.6c-0.6,0-1.1,0.3-1.7,0.8s-1,1.3-1.4,2.1s-0.5,1.7-0.5,2.6c0,0.6,0.2,1.1,0.5,1.5
		c0.3,0.3,0.8,0.5,1.4,0.5c0.6,0,1.1-0.2,1.6-0.7s0.9-1.1,1.2-2s0.5-1.8,0.5-2.8C209.2,132.2,208.7,131.6,207.6,131.6z"/>
	<path fill="#333333" d="M215.9,140.3c-1.1,0-1.9-0.3-2.5-1s-0.9-1.5-0.9-2.7c0-1.1,0.2-2.2,0.7-3.2c0.4-1,1-1.8,1.7-2.4
		s1.5-0.8,2.4-0.8c0.9,0,1.6,0.2,2,0.6c0.5,0.4,0.7,0.9,0.7,1.6c0,1.1-0.5,1.9-1.5,2.5c-1,0.6-2.4,0.9-4.2,0.9H214l0,0.7
		c0,0.8,0.2,1.4,0.5,1.8c0.4,0.4,0.9,0.6,1.7,0.6c0.4,0,0.7-0.1,1.1-0.2s0.9-0.3,1.5-0.6v1.3c-0.6,0.3-1,0.4-1.5,0.5
		C216.9,140.3,216.4,140.3,215.9,140.3z M217.1,131.6c-0.6,0-1.2,0.3-1.7,0.8s-0.9,1.3-1.2,2.3h0.1c1.3,0,2.4-0.2,3.1-0.5
		c0.7-0.3,1.1-0.9,1.1-1.5c0-0.3-0.1-0.6-0.3-0.8S217.6,131.6,217.1,131.6z"/>
	<path fill="#333333" d="M226.9,140.1l1.3-6.1c0.1-0.6,0.2-1,0.2-1.3c0-0.4-0.1-0.7-0.3-0.9s-0.5-0.3-1-0.3c-0.5,0-1,0.2-1.5,0.5
		s-0.9,0.9-1.3,1.5s-0.7,1.4-0.9,2.4l-0.9,4.2H221l2.1-9.6h1.2l-0.2,1.8h0.1c0.6-0.7,1.1-1.2,1.6-1.5c0.5-0.3,1.1-0.4,1.6-0.4
		c0.7,0,1.3,0.2,1.8,0.6s0.6,1,0.6,1.7c0,0.5-0.1,1-0.2,1.6l-1.3,5.9H226.9z"/>
	<path fill="#333333" d="M243.5,136.4c0,1.2-0.4,2.2-1.2,2.9s-2,1-3.5,1c-0.6,0-1.2,0-1.6-0.1c-0.5-0.1-0.9-0.2-1.3-0.4v-1.5
		c0.9,0.5,1.9,0.7,3,0.7c0.9,0,1.7-0.2,2.3-0.7s0.8-1.1,0.8-1.8c0-0.5-0.2-0.9-0.5-1.2c-0.3-0.3-0.9-0.8-1.7-1.2
		c-0.9-0.5-1.5-1-1.8-1.5s-0.5-1.1-0.5-1.8c0-1.1,0.4-2,1.2-2.7c0.8-0.7,1.8-1,3.1-1c0.6,0,1.1,0.1,1.6,0.2s1,0.3,1.6,0.6l-0.6,1.3
		c-0.4-0.2-0.8-0.4-1.3-0.5s-0.9-0.2-1.3-0.2c-0.8,0-1.4,0.2-1.9,0.6c-0.5,0.4-0.7,1-0.7,1.7c0,0.3,0.1,0.6,0.2,0.8s0.3,0.4,0.5,0.6
		s0.6,0.5,1.2,0.8c0.9,0.5,1.4,0.9,1.7,1.2s0.5,0.6,0.7,1S243.5,135.9,243.5,136.4z"/>
	<path fill="#333333" d="M250.2,130.3c0.5,0,1,0.1,1.4,0.4c0.4,0.3,0.8,0.7,1,1.3h0.1l0.6-1.5h1.1l-2,9.6h-1.2l0.2-1.8h-0.1
		c-1,1.3-2.2,2-3.3,2c-0.8,0-1.5-0.3-1.9-0.9s-0.7-1.4-0.7-2.4c0-1.2,0.2-2.3,0.6-3.4s1-1.9,1.7-2.5S249.3,130.3,250.2,130.3z
		 M248.5,139.1c0.6,0,1.1-0.3,1.7-0.8c0.6-0.5,1-1.2,1.4-2.1c0.4-0.9,0.5-1.7,0.5-2.6c0-0.6-0.2-1.1-0.5-1.4s-0.8-0.5-1.3-0.5
		c-0.6,0-1.2,0.3-1.7,0.8s-0.9,1.2-1.2,2s-0.4,1.8-0.4,2.7c0,0.7,0.1,1.2,0.4,1.5C247.6,138.9,248,139.1,248.5,139.1z"/>
	<path fill="#333333" d="M261.1,140.1l1.3-6.1c0.1-0.6,0.2-1,0.2-1.3c0-0.4-0.1-0.7-0.3-0.9s-0.5-0.3-1-0.3c-0.5,0-1,0.2-1.5,0.5
		s-0.9,0.9-1.3,1.5s-0.7,1.4-0.9,2.4l-0.9,4.2h-1.5l2.1-9.6h1.2l-0.2,1.8h0.1c0.6-0.7,1.1-1.2,1.6-1.5c0.5-0.3,1.1-0.4,1.6-0.4
		c0.7,0,1.3,0.2,1.8,0.6s0.6,1,0.6,1.7c0,0.5-0.1,1-0.2,1.6l-1.3,5.9H261.1z"/>
	<path fill="#333333" d="M271.6,137.4c0,0.9-0.3,1.6-1,2.1c-0.6,0.5-1.6,0.8-2.7,0.8c-1,0-1.9-0.2-2.7-0.6v-1.4
		c0.4,0.2,0.9,0.4,1.3,0.6s0.9,0.2,1.3,0.2c0.7,0,1.3-0.1,1.7-0.4s0.6-0.7,0.6-1.1c0-0.3-0.1-0.6-0.3-0.8s-0.6-0.5-1.3-0.9
		c-0.8-0.4-1.3-0.8-1.6-1.3s-0.5-0.9-0.5-1.5c0-0.8,0.3-1.5,0.9-2c0.6-0.5,1.4-0.7,2.3-0.7c1,0,2,0.2,2.9,0.7l-0.5,1.2l-0.5-0.2
		c-0.6-0.3-1.2-0.4-1.9-0.4c-0.5,0-1,0.1-1.3,0.4c-0.3,0.3-0.5,0.6-0.5,1c0,0.3,0.1,0.6,0.3,0.8s0.6,0.5,1.3,0.9
		c0.6,0.4,1.1,0.7,1.3,0.9s0.5,0.5,0.6,0.8C271.5,136.7,271.6,137,271.6,137.4z"/>
	<path fill="#333333" d="M278.3,140.1l2.7-12.8h1.5l-2.7,12.8H278.3z"/>
	<path fill="#333333" d="M285.9,139.1c0.3,0,0.7-0.1,1.3-0.2v1.1c-0.2,0.1-0.4,0.2-0.7,0.2s-0.5,0.1-0.7,0.1c-0.7,0-1.3-0.2-1.7-0.5
		c-0.4-0.3-0.6-0.9-0.6-1.6c0-0.4,0.1-0.8,0.2-1.3l1.1-5.3h-1.5l0.1-0.6l1.6-0.7l1.1-2h0.9l-0.5,2.2h2.4l-0.2,1.1h-2.4l-1.1,5.3
		c-0.1,0.5-0.2,0.9-0.2,1.2c0,0.3,0.1,0.6,0.3,0.8S285.6,139.1,285.9,139.1z"/>
	<path fill="#333333" d="M293.9,130.3c0.5,0,1,0.1,1.4,0.4c0.4,0.3,0.8,0.7,1,1.3h0.1l0.6-1.5h1.1l-2,9.6h-1.2l0.2-1.8H295
		c-1,1.3-2.2,2-3.3,2c-0.8,0-1.5-0.3-1.9-0.9s-0.7-1.4-0.7-2.4c0-1.2,0.2-2.3,0.6-3.4s1-1.9,1.7-2.5S293,130.3,293.9,130.3z
		 M292.2,139.1c0.6,0,1.1-0.3,1.7-0.8c0.6-0.5,1-1.2,1.4-2.1c0.4-0.9,0.5-1.7,0.5-2.6c0-0.6-0.2-1.1-0.5-1.4s-0.8-0.5-1.3-0.5
		c-0.6,0-1.2,0.3-1.7,0.8s-0.9,1.2-1.2,2s-0.4,1.8-0.4,2.7c0,0.7,0.1,1.2,0.4,1.5C291.3,138.9,291.7,139.1,292.2,139.1z"/>
	<path fill="#333333" d="M300.4,140.1h-1.5l2.9-13.7h1.5L300.4,140.1z"/>
	<path fill="#333333" d="M305,140.1h-1.5l2.1-9.6h1.5L305,140.1z M306,128c0-0.3,0.1-0.6,0.3-0.8c0.2-0.2,0.4-0.3,0.7-0.3
		c0.5,0,0.8,0.3,0.8,0.8c0,0.3-0.1,0.6-0.3,0.8s-0.4,0.3-0.7,0.3c-0.2,0-0.4-0.1-0.6-0.2S306,128.3,306,128z"/>
	<path fill="#333333" d="M312,140.3c-1.1,0-2-0.3-2.6-0.9s-0.9-1.5-0.9-2.7c0-1.2,0.2-2.3,0.7-3.2s1-1.8,1.8-2.3
		c0.8-0.6,1.6-0.8,2.6-0.8c0.8,0,1.6,0.1,2.4,0.4l-0.4,1.2c-0.7-0.3-1.3-0.4-1.9-0.4c-0.7,0-1.3,0.2-1.8,0.7c-0.5,0.4-1,1.1-1.3,1.9
		c-0.3,0.8-0.5,1.7-0.5,2.6c0,0.8,0.2,1.3,0.6,1.7s0.9,0.6,1.6,0.6c0.4,0,0.8-0.1,1.2-0.2s0.7-0.3,1.1-0.4v1.3
		C313.7,140.1,312.9,140.3,312,140.3z"/>
	<path fill="#333333" d="M200.7,162c0,1.6-0.3,3.1-0.8,4.4s-1.3,2.2-2.3,2.9c-1,0.7-2.1,1-3.4,1c-1.5,0-2.7-0.4-3.5-1.3
		c-0.8-0.9-1.2-2.1-1.2-3.6c0-1.6,0.3-3,0.9-4.3c0.6-1.3,1.4-2.3,2.4-3s2.1-1,3.4-1c1.5,0,2.6,0.4,3.4,1.3S200.7,160.5,200.7,162z
		 M195.9,158.9c-0.8,0-1.5,0.3-2.2,0.8s-1.2,1.3-1.5,2.3c-0.4,1-0.6,2.1-0.6,3.3c0,1,0.2,1.8,0.7,2.3s1.1,0.8,2,0.8
		c0.8,0,1.5-0.3,2.2-0.8c0.6-0.6,1.2-1.3,1.5-2.3c0.4-1,0.5-2.1,0.5-3.3c0-1-0.2-1.8-0.7-2.3S196.7,158.9,195.9,158.9z"/>
	<path fill="#333333" d="M206.4,170.3c-1.1,0-1.8-0.5-2.4-1.5h-0.1c0,0.6-0.1,1.1-0.2,1.6l-0.8,4.1h-2l3-14h1.6l-0.2,1.7h0.1
		c0.9-1.2,1.9-1.8,3-1.8c0.8,0,1.5,0.3,2,0.9s0.7,1.4,0.7,2.5c0,1.2-0.2,2.3-0.6,3.4c-0.4,1-1,1.9-1.7,2.4S207.2,170.3,206.4,170.3z
		 M207.5,161.9c-0.5,0-0.9,0.2-1.4,0.7c-0.5,0.5-0.9,1.1-1.1,1.8s-0.4,1.6-0.4,2.4c0,0.6,0.1,1,0.4,1.3c0.3,0.3,0.7,0.5,1.2,0.5
		s1-0.2,1.4-0.7s0.8-1.1,1-1.8s0.4-1.6,0.4-2.4C208.9,162.5,208.4,161.9,207.5,161.9z"/>
	<path fill="#333333" d="M216.3,170.3c-1.2,0-2.1-0.3-2.7-1s-1-1.6-1-2.7c0-1.2,0.2-2.2,0.7-3.2c0.5-1,1.1-1.8,1.8-2.3
		s1.6-0.8,2.6-0.8c0.9,0,1.7,0.2,2.2,0.6c0.5,0.4,0.8,1,0.8,1.8c0,1.1-0.5,1.9-1.5,2.5c-1,0.6-2.4,0.9-4.2,0.9h-0.4l0,0.3v0.3
		c0,0.7,0.2,1.2,0.5,1.5s0.8,0.6,1.5,0.6c0.4,0,0.8-0.1,1.3-0.2s0.9-0.3,1.5-0.6v1.6c-0.6,0.3-1.1,0.4-1.6,0.5
		C217.4,170.3,216.9,170.3,216.3,170.3z M217.7,161.8c-0.6,0-1.1,0.3-1.6,0.8s-0.9,1.2-1.1,2h0.3c1.1,0,2-0.2,2.6-0.5
		s0.9-0.8,0.9-1.3c0-0.3-0.1-0.5-0.3-0.7C218.3,161.9,218,161.8,217.7,161.8z"/>
	<path fill="#333333" d="M227.4,170.1l1.2-5.9c0.1-0.5,0.2-0.9,0.2-1.2c0-0.8-0.4-1.2-1.1-1.2c-0.4,0-0.8,0.2-1.2,0.5
		s-0.8,0.8-1.1,1.4s-0.6,1.3-0.7,2.1l-0.9,4.1h-2.1l2.1-9.7h1.6l-0.2,1.8h0.1c0.5-0.7,1-1.2,1.5-1.5s1.1-0.5,1.7-0.5
		c0.8,0,1.4,0.2,1.8,0.7s0.6,1.1,0.6,1.9c0,0.4-0.1,0.9-0.2,1.6l-1.2,5.7H227.4z"/>
	<path fill="#333333" d="M244.7,166.4c0,1.2-0.4,2.2-1.3,2.9s-2,1-3.5,1c-1.2,0-2.2-0.2-3.1-0.7v-2c1,0.6,2,0.9,3.1,0.9
		c0.8,0,1.4-0.2,1.9-0.5c0.5-0.3,0.7-0.8,0.7-1.4c0-0.4-0.1-0.8-0.4-1.1c-0.2-0.3-0.7-0.7-1.5-1.2c-0.6-0.4-1.1-0.8-1.4-1.1
		s-0.5-0.7-0.7-1.1s-0.2-0.8-0.2-1.3c0-0.8,0.2-1.4,0.5-2s0.9-1,1.5-1.3s1.4-0.5,2.2-0.5c1.2,0,2.3,0.3,3.3,0.8l-0.8,1.7
		c-0.9-0.5-1.8-0.7-2.6-0.7c-0.6,0-1.2,0.2-1.5,0.5c-0.4,0.3-0.6,0.8-0.6,1.3c0,0.3,0,0.5,0.1,0.7s0.2,0.4,0.4,0.6s0.6,0.5,1.2,0.8
		c0.9,0.6,1.5,1.1,1.9,1.6C244.6,165.1,244.7,165.7,244.7,166.4z"/>
	<path fill="#333333" d="M249.4,170.3c-0.8,0-1.5-0.3-2-0.9c-0.5-0.6-0.7-1.4-0.7-2.5c0-1.2,0.2-2.3,0.6-3.3s1-1.8,1.7-2.4
		c0.7-0.6,1.5-0.9,2.4-0.9c0.6,0,1.1,0.1,1.5,0.4s0.7,0.7,1,1.2h0.1l0.5-1.4h1.6l-2.1,9.7h-1.6l0.2-1.5h-0.1
		C251.5,169.7,250.5,170.3,249.4,170.3z M250.1,168.6c0.5,0,1-0.2,1.4-0.7c0.5-0.5,0.8-1.1,1.1-1.8s0.4-1.6,0.4-2.5
		c0-0.5-0.1-0.9-0.4-1.2s-0.6-0.5-1.1-0.5c-0.5,0-1,0.2-1.4,0.7s-0.8,1.1-1.1,1.8c-0.3,0.8-0.4,1.6-0.4,2.4c0,0.6,0.1,1,0.4,1.3
		S249.7,168.6,250.1,168.6z"/>
	<path fill="#333333" d="M262.4,170.1l1.2-5.9c0.1-0.5,0.2-0.9,0.2-1.2c0-0.8-0.4-1.2-1.1-1.2c-0.4,0-0.8,0.2-1.2,0.5
		s-0.8,0.8-1.1,1.4s-0.6,1.3-0.7,2.1l-0.9,4.1h-2.1l2.1-9.7h1.6l-0.2,1.8h0.1c0.5-0.7,1-1.2,1.5-1.5s1.1-0.5,1.7-0.5
		c0.8,0,1.4,0.2,1.8,0.7s0.6,1.1,0.6,1.9c0,0.4-0.1,0.9-0.2,1.6l-1.2,5.7H262.4z"/>
	<path fill="#333333" d="M273.8,167.1c0,1-0.3,1.8-1,2.3c-0.7,0.5-1.7,0.8-2.9,0.8c-1.1,0-2.1-0.2-2.8-0.6v-1.8
		c0.9,0.5,1.8,0.8,2.7,0.8c0.6,0,1-0.1,1.4-0.4s0.5-0.6,0.5-1c0-0.3-0.1-0.6-0.3-0.8s-0.6-0.5-1.2-0.9c-0.7-0.4-1.2-0.8-1.6-1.2
		s-0.5-0.9-0.5-1.4c0-0.9,0.3-1.6,0.9-2.1s1.5-0.8,2.5-0.8c1.1,0,2.2,0.2,3,0.7l-0.7,1.5c-0.8-0.4-1.6-0.7-2.3-0.7
		c-0.4,0-0.8,0.1-1,0.3s-0.4,0.5-0.4,0.8c0,0.3,0.1,0.5,0.3,0.7s0.6,0.5,1.2,0.8c0.6,0.3,1.1,0.6,1.3,0.9s0.5,0.5,0.6,0.8
		C273.7,166.4,273.8,166.8,273.8,167.1z"/>
	<path fill="#333333" d="M196.4,186.4c0,1.2-0.4,2.2-1.3,2.9s-2,1-3.5,1c-1.2,0-2.2-0.2-3.1-0.7v-2c1,0.6,2,0.9,3.1,0.9
		c0.8,0,1.4-0.2,1.9-0.5c0.5-0.3,0.7-0.8,0.7-1.4c0-0.4-0.1-0.8-0.4-1.1c-0.2-0.3-0.7-0.7-1.5-1.2c-0.6-0.4-1.1-0.8-1.4-1.1
		s-0.5-0.7-0.7-1.1s-0.2-0.8-0.2-1.3c0-0.8,0.2-1.4,0.5-2s0.9-1,1.5-1.3s1.4-0.5,2.2-0.5c1.2,0,2.3,0.3,3.3,0.8l-0.8,1.7
		c-0.9-0.5-1.8-0.7-2.6-0.7c-0.6,0-1.2,0.2-1.5,0.5c-0.4,0.3-0.6,0.8-0.6,1.3c0,0.3,0,0.5,0.1,0.7s0.2,0.4,0.4,0.6s0.6,0.5,1.2,0.8
		c0.9,0.6,1.5,1.1,1.9,1.6C196.2,185.1,196.4,185.7,196.4,186.4z"/>
	<path fill="#333333" d="M202,190.3c-1.2,0-2.1-0.3-2.7-1s-1-1.6-1-2.7c0-1.2,0.2-2.2,0.7-3.2c0.5-1,1.1-1.8,1.8-2.3
		s1.6-0.8,2.6-0.8c0.9,0,1.7,0.2,2.2,0.6c0.5,0.4,0.8,1,0.8,1.8c0,1.1-0.5,1.9-1.5,2.5c-1,0.6-2.4,0.9-4.2,0.9h-0.4l0,0.3v0.3
		c0,0.7,0.2,1.2,0.5,1.5s0.8,0.6,1.5,0.6c0.4,0,0.8-0.1,1.3-0.2s0.9-0.3,1.5-0.6v1.6c-0.6,0.3-1.1,0.4-1.6,0.5
		C203.1,190.3,202.6,190.3,202,190.3z M203.4,181.8c-0.6,0-1.1,0.3-1.6,0.8s-0.9,1.2-1.1,2h0.3c1.1,0,2-0.2,2.6-0.5s0.9-0.8,0.9-1.3
		c0-0.3-0.1-0.5-0.3-0.7C204,181.9,203.7,181.8,203.4,181.8z"/>
	<path fill="#333333" d="M214.1,180.2c1.3,0,2,0.7,2.2,2.1h0.1c0.4-0.7,0.9-1.2,1.5-1.5s1.1-0.5,1.7-0.5c0.8,0,1.4,0.2,1.8,0.7
		c0.4,0.4,0.6,1.1,0.6,1.9c0,0.4-0.1,0.9-0.2,1.6l-1.2,5.7h-2.1l1.3-5.9c0.1-0.6,0.2-0.9,0.2-1.2c0-0.8-0.4-1.1-1.1-1.1
		c-0.6,0-1.2,0.4-1.8,1.1s-0.9,1.7-1.2,2.9l-0.9,4.2h-2.1l1.3-5.9c0.1-0.5,0.1-0.9,0.1-1.1c0-0.8-0.3-1.2-1-1.2
		c-0.6,0-1.2,0.4-1.8,1.1s-1,1.7-1.2,3l-0.9,4.1h-2.1l2.1-9.7h1.6l-0.2,1.8h0.1C211.8,180.9,212.9,180.2,214.1,180.2z"/>
	<path fill="#333333" d="M225.4,190.1h-2.1l2.1-9.7h2.1L225.4,190.1z M225.9,178c0-0.4,0.1-0.7,0.3-1s0.6-0.4,1-0.4
		c0.3,0,0.6,0.1,0.8,0.2c0.2,0.2,0.3,0.4,0.3,0.7c0,0.4-0.1,0.7-0.4,1s-0.5,0.4-0.9,0.4c-0.3,0-0.6-0.1-0.8-0.2
		S225.9,178.3,225.9,178z"/>
	<path fill="#333333" d="M233,190.3c-0.6,0-1.1-0.1-1.5-0.4s-0.7-0.6-1-1.2h-0.1l-0.6,1.4h-1.6l2.9-13.7h2.1l-0.6,2.9
		c-0.1,0.4-0.2,0.8-0.3,1.4s-0.3,1-0.4,1.2h0.1c0.5-0.7,1-1.1,1.4-1.4c0.4-0.3,0.9-0.4,1.4-0.4c0.8,0,1.5,0.3,2,0.9
		c0.5,0.6,0.7,1.4,0.7,2.5c0,1.2-0.2,2.3-0.6,3.3c-0.4,1-1,1.9-1.7,2.4S233.8,190.3,233,190.3z M234.1,181.9c-0.5,0-0.9,0.2-1.4,0.7
		s-0.9,1.1-1.1,1.8c-0.3,0.8-0.4,1.6-0.4,2.4c0,0.6,0.1,1,0.4,1.3c0.3,0.3,0.7,0.5,1.2,0.5s1-0.2,1.4-0.7s0.8-1.1,1-1.8
		s0.4-1.6,0.4-2.4C235.5,182.5,235.1,181.9,234.1,181.9z"/>
	<path fill="#333333" d="M247.9,184.1c0,1.2-0.2,2.3-0.6,3.2s-1,1.7-1.8,2.2c-0.7,0.5-1.6,0.8-2.6,0.8c-1.1,0-2-0.3-2.7-1
		s-1-1.6-1-2.7c0-1.2,0.2-2.2,0.6-3.2s1-1.7,1.8-2.3c0.8-0.5,1.6-0.8,2.6-0.8c1.1,0,2,0.3,2.7,1S247.9,182.9,247.9,184.1z
		 M245.8,184c0-0.6-0.1-1.1-0.4-1.5c-0.3-0.4-0.7-0.5-1.2-0.5c-0.5,0-1,0.2-1.5,0.6s-0.8,1-1,1.7s-0.4,1.5-0.4,2.3
		c0,0.7,0.1,1.1,0.4,1.5s0.7,0.5,1.3,0.5c0.5,0,1-0.2,1.4-0.6s0.8-1,1-1.7S245.8,184.8,245.8,184z"/>
	<path fill="#333333" d="M251.2,190.1h-2.1l2.9-13.7h2.1L251.2,190.1z"/>
	<path fill="#333333" d="M259.2,180.2c1,0,1.8,0.5,2.4,1.6h0.1c0.1-0.9,0.2-1.6,0.3-2.2l0.7-3.1h2l-2.9,13.7h-1.6l0.2-1.5h-0.1
		c-0.5,0.6-1,1.1-1.5,1.3s-1,0.4-1.5,0.4c-0.8,0-1.5-0.3-2-0.9c-0.5-0.6-0.7-1.4-0.7-2.5c0-1.2,0.2-2.3,0.6-3.4s1-1.9,1.7-2.4
		S258.3,180.2,259.2,180.2z M258,188.6c0.5,0,1-0.2,1.4-0.7s0.8-1.1,1.1-1.9s0.4-1.6,0.4-2.3c0-0.5-0.1-1-0.4-1.3s-0.6-0.5-1.2-0.5
		c-0.5,0-1,0.2-1.4,0.7s-0.8,1.1-1,1.9s-0.4,1.6-0.4,2.4C256.6,188,257.1,188.6,258,188.6z"/>
	<path fill="#333333" d="M269.5,190.1l2.7-12.8h2.1l-2.7,12.8H269.5z"/>
	<path fill="#333333" d="M278.3,188.6c0.4,0,0.8-0.1,1.3-0.3v1.6c-0.2,0.1-0.5,0.2-0.8,0.3s-0.7,0.1-1.1,0.1c-1.6,0-2.4-0.7-2.4-2.2
		c0-0.3,0-0.7,0.1-1.2l1.1-5h-1.4l0.2-1l1.7-0.7l1.1-2h1.3l-0.5,2.2h2.5L281,182h-2.4l-1.1,5c-0.1,0.3-0.1,0.6-0.1,0.8
		c0,0.3,0.1,0.5,0.2,0.6C277.7,188.6,278,188.6,278.3,188.6z"/>
	<path fill="#333333" d="M284.4,190.3c-0.8,0-1.5-0.3-2-0.9c-0.5-0.6-0.7-1.4-0.7-2.5c0-1.2,0.2-2.3,0.6-3.3s1-1.8,1.7-2.4
		c0.7-0.6,1.5-0.9,2.4-0.9c0.6,0,1.1,0.1,1.5,0.4s0.7,0.7,1,1.2h0.1l0.5-1.4h1.6l-2.1,9.7h-1.6l0.2-1.5h-0.1
		C286.5,189.7,285.5,190.3,284.4,190.3z M285.1,188.6c0.5,0,1-0.2,1.4-0.7c0.5-0.5,0.8-1.1,1.1-1.8s0.4-1.6,0.4-2.5
		c0-0.5-0.1-0.9-0.4-1.2s-0.6-0.5-1.1-0.5c-0.5,0-1,0.2-1.4,0.7s-0.8,1.1-1.1,1.8c-0.3,0.8-0.4,1.6-0.4,2.4c0,0.6,0.1,1,0.4,1.3
		S284.7,188.6,285.1,188.6z"/>
	<path fill="#333333" d="M293.8,190.1h-2.1l2.9-13.7h2.1L293.8,190.1z"/>
	<path fill="#333333" d="M298.7,190.1h-2.1l2.1-9.7h2.1L298.7,190.1z M299.1,178c0-0.4,0.1-0.7,0.3-1s0.6-0.4,1-0.4
		c0.3,0,0.6,0.1,0.8,0.2c0.2,0.2,0.3,0.4,0.3,0.7c0,0.4-0.1,0.7-0.4,1s-0.5,0.4-0.9,0.4c-0.3,0-0.6-0.1-0.8-0.2
		S299.1,178.3,299.1,178z"/>
	<path fill="#333333" d="M305.6,190.3c-1.1,0-2-0.3-2.7-0.9s-0.9-1.5-0.9-2.7c0-1.2,0.2-2.3,0.6-3.3c0.4-1,1-1.8,1.8-2.3
		s1.7-0.8,2.7-0.8c1,0,1.8,0.2,2.6,0.5l-0.6,1.6c-0.7-0.3-1.4-0.5-1.9-0.5c-0.9,0-1.6,0.5-2.2,1.3s-0.9,2-0.9,3.3
		c0,0.7,0.2,1.2,0.5,1.5s0.8,0.5,1.4,0.5c0.4,0,0.8-0.1,1.2-0.2s0.8-0.3,1.1-0.5v1.7C307.5,190.1,306.6,190.3,305.6,190.3z"/>
	<path fill="#333333" d="M200.8,211.9c0,1.7-0.3,3.1-0.9,4.5c-0.6,1.3-1.4,2.3-2.4,3s-2.2,1-3.5,1c-1.5,0-2.7-0.4-3.5-1.3
		c-0.8-0.9-1.3-2.1-1.3-3.6c0-1.6,0.3-3,0.9-4.3s1.4-2.3,2.4-3s2.2-1,3.5-1c1.5,0,2.7,0.4,3.5,1.3S200.8,210.4,200.8,211.9z
		 M195.9,209.3c-0.7,0-1.4,0.3-2,0.8c-0.6,0.5-1.1,1.3-1.4,2.2s-0.5,2-0.5,3c0,0.9,0.2,1.5,0.6,2s0.9,0.7,1.6,0.7s1.4-0.3,1.9-0.8
		s1-1.2,1.4-2.2s0.5-2,0.5-3.1c0-0.8-0.2-1.5-0.6-1.9C197.1,209.6,196.6,209.3,195.9,209.3z"/>
	<path fill="#333333" d="M208.5,210.1c0.9,0,1.5,0.3,2,0.9c0.5,0.6,0.7,1.5,0.7,2.6c0,1.1-0.2,2.2-0.6,3.2c-0.4,1-1,1.9-1.6,2.5
		c-0.7,0.6-1.5,0.9-2.3,0.9c-0.5,0-0.9-0.1-1.3-0.3s-0.7-0.6-1-1.1h-0.1c-0.1,0.9-0.2,1.8-0.4,2.6l-0.6,3h-2.6l3-14.2h2l-0.2,1.5
		h0.1C206.5,210.7,207.5,210.1,208.5,210.1z M207.4,212.3c-0.4,0-0.8,0.2-1.2,0.6c-0.4,0.4-0.7,0.9-0.9,1.6
		c-0.2,0.7-0.3,1.4-0.3,2.2c0,0.5,0.1,0.8,0.3,1.1s0.5,0.4,0.9,0.4c0.4,0,0.8-0.2,1.1-0.6s0.6-1,0.9-1.7c0.2-0.7,0.3-1.4,0.3-2.1
		C208.6,212.8,208.2,212.3,207.4,212.3z"/>
	<path fill="#333333" d="M216.8,220.3c-1.2,0-2.2-0.3-2.9-1s-1-1.6-1-2.8c0-1.2,0.2-2.3,0.7-3.3c0.5-1,1.1-1.8,2-2.3
		c0.8-0.5,1.8-0.8,2.8-0.8c1,0,1.8,0.2,2.4,0.7c0.6,0.5,0.9,1.1,0.9,2c0,1.1-0.5,1.9-1.5,2.5c-1,0.6-2.4,0.9-4.2,0.9h-0.4l0,0.2v0.2
		c0,0.5,0.2,1,0.5,1.3c0.3,0.3,0.7,0.5,1.3,0.5c0.5,0,1-0.1,1.4-0.2s0.9-0.3,1.5-0.6v2C219.2,220.1,218,220.3,216.8,220.3z
		 M218.2,212c-0.5,0-1,0.2-1.5,0.7s-0.8,1-0.9,1.7h0.4c0.9,0,1.6-0.1,2.1-0.4c0.5-0.3,0.8-0.7,0.8-1.2
		C219.1,212.3,218.8,212,218.2,212z"/>
	<path fill="#333333" d="M230.7,220.1H228l1.2-5.7c0.1-0.4,0.1-0.7,0.1-1c0-0.7-0.3-1.1-0.9-1.1c-0.5,0-1,0.3-1.5,1s-0.8,1.6-1,2.8
		l-0.9,4.1h-2.6l2.1-9.8h2l-0.2,1.8h0.1c0.9-1.3,1.9-2,3.1-2c0.8,0,1.4,0.2,1.9,0.7c0.4,0.5,0.7,1.2,0.7,2.1c0,0.4-0.1,1-0.2,1.6
		L230.7,220.1z"/>
	<path fill="#333333" d="M246,216.3c0,1.2-0.4,2.2-1.3,2.9c-0.9,0.7-2,1.1-3.5,1.1c-1.3,0-2.3-0.3-3.1-0.8v-2.4
		c1.1,0.6,2.2,0.9,3.1,0.9c0.7,0,1.2-0.1,1.5-0.4s0.6-0.6,0.6-1c0-0.3,0-0.5-0.1-0.7s-0.2-0.4-0.3-0.5s-0.5-0.5-1.1-0.9
		c-0.8-0.6-1.4-1.2-1.7-1.7s-0.5-1.2-0.5-1.8c0-0.8,0.2-1.4,0.5-2s0.9-1.1,1.6-1.4s1.4-0.5,2.3-0.5c1.3,0,2.4,0.3,3.5,0.9l-1,2
		c-0.9-0.4-1.8-0.7-2.5-0.7c-0.5,0-0.9,0.1-1.2,0.4s-0.5,0.6-0.5,1c0,0.4,0.1,0.7,0.3,0.9s0.6,0.6,1.3,1.1c0.7,0.5,1.2,1,1.6,1.6
		C245.8,214.9,246,215.6,246,216.3z"/>
	<path fill="#333333" d="M250.8,220.3c-0.9,0-1.5-0.3-2-0.9c-0.5-0.6-0.7-1.5-0.7-2.6c0-1.2,0.2-2.3,0.6-3.3s1-1.9,1.7-2.4
		s1.4-0.9,2.3-0.9c0.6,0,1.1,0.1,1.5,0.4s0.7,0.6,1,1.1h0.1l0.5-1.3h2l-2.1,9.8h-2l0.1-1.3h0C252.8,219.8,251.8,220.3,250.8,220.3z
		 M251.8,218.2c0.4,0,0.8-0.2,1.2-0.6s0.7-0.9,0.9-1.6c0.2-0.7,0.3-1.4,0.3-2.3c0-0.4-0.1-0.8-0.3-1c-0.2-0.3-0.5-0.4-0.9-0.4
		c-0.4,0-0.8,0.2-1.1,0.6s-0.6,1-0.9,1.7s-0.3,1.4-0.3,2.1c0,0.5,0.1,0.9,0.3,1.2S251.4,218.2,251.8,218.2z"/>
	<path fill="#333333" d="M266.5,220.1h-2.6l1.2-5.7c0.1-0.4,0.1-0.7,0.1-1c0-0.7-0.3-1.1-0.9-1.1c-0.5,0-1,0.3-1.5,1s-0.8,1.6-1,2.8
		l-0.9,4.1h-2.6l2.1-9.8h2l-0.2,1.8h0.1c0.9-1.3,1.9-2,3.1-2c0.8,0,1.4,0.2,1.9,0.7c0.4,0.5,0.7,1.2,0.7,2.1c0,0.4-0.1,1-0.2,1.6
		L266.5,220.1z"/>
	<path fill="#333333" d="M276,216.9c0,1.1-0.4,1.9-1.1,2.5c-0.7,0.6-1.7,0.9-3,0.9c-0.6,0-1.2,0-1.6-0.1s-0.9-0.2-1.3-0.4v-2.2
		c0.9,0.5,1.9,0.8,2.8,0.8c0.5,0,0.9-0.1,1.2-0.3c0.3-0.2,0.4-0.4,0.4-0.8c0-0.3-0.1-0.5-0.3-0.7s-0.6-0.5-1.2-0.8
		c-0.7-0.4-1.2-0.8-1.5-1.2c-0.3-0.4-0.4-0.9-0.4-1.4c0-1,0.3-1.8,1-2.3c0.6-0.5,1.6-0.8,2.8-0.8c1.2,0,2.2,0.3,3.2,0.8l-0.9,1.9
		c-0.8-0.5-1.6-0.7-2.3-0.7c-0.3,0-0.6,0.1-0.8,0.2c-0.2,0.2-0.3,0.4-0.3,0.6c0,0.2,0.1,0.4,0.3,0.6s0.5,0.4,1.1,0.7
		c0.7,0.4,1.2,0.8,1.6,1.2S276,216.3,276,216.9z"/>
	<path fill="#333333" d="M288.9,207.3c1.3,0,2.4,0.2,3,0.7s1,1.2,1,2.1c0,0.9-0.2,1.6-0.7,2.2c-0.5,0.6-1.2,1-2.1,1.1v0.1
		c0.6,0.2,1.1,0.4,1.4,0.8c0.3,0.4,0.5,0.9,0.5,1.6c0,1.3-0.4,2.4-1.3,3.1s-2.1,1.1-3.7,1.1h-4.6l2.7-12.8H288.9z M285.6,217.9h1.6
		c0.7,0,1.2-0.2,1.6-0.5s0.6-0.8,0.6-1.4c0-0.9-0.5-1.4-1.6-1.4h-1.5L285.6,217.9z M286.7,212.4h1.3c0.7,0,1.2-0.1,1.6-0.4
		c0.4-0.3,0.5-0.7,0.5-1.2c0-0.8-0.5-1.2-1.5-1.2h-1.3L286.7,212.4z"/>
	<path fill="#333333" d="M302.9,214c0,1.2-0.2,2.3-0.6,3.3s-1,1.7-1.8,2.2c-0.8,0.5-1.7,0.8-2.8,0.8c-1.1,0-2.1-0.3-2.7-1
		c-0.7-0.7-1-1.6-1-2.7c0-1.2,0.2-2.4,0.6-3.3c0.4-1,1-1.7,1.8-2.3c0.8-0.5,1.7-0.8,2.8-0.8c1.1,0,2.1,0.3,2.7,1
		S302.9,212.8,302.9,214z M300.2,214c0-1.2-0.4-1.7-1.3-1.7c-0.4,0-0.8,0.2-1.2,0.5s-0.6,0.9-0.9,1.6s-0.3,1.4-0.3,2.1
		c0,1.1,0.4,1.6,1.3,1.6c0.4,0,0.8-0.2,1.2-0.5c0.4-0.4,0.6-0.9,0.8-1.5C300.1,215.5,300.2,214.8,300.2,214z"/>
	<path fill="#333333" d="M306.6,220.1H304l2.9-13.7h2.6L306.6,220.1z"/>
	<path fill="#333333" d="M312.6,220.3c-0.9,0-1.5-0.3-2-0.9s-0.7-1.5-0.7-2.6c0-1.1,0.2-2.2,0.6-3.3c0.4-1,1-1.9,1.7-2.4
		c0.7-0.6,1.4-0.9,2.3-0.9c0.5,0,0.9,0.1,1.2,0.3s0.7,0.6,1,1.1h0.1l0-0.2c0-0.6,0.1-1.2,0.2-1.7l0.7-3.1h2.6l-2.9,13.7h-2l0.1-1.3
		h0c-0.4,0.5-0.9,0.9-1.3,1.1S313.1,220.3,312.6,220.3z M313.7,218.2c0.4,0,0.8-0.2,1.1-0.6c0.4-0.4,0.7-0.9,0.9-1.6
		s0.3-1.4,0.3-2.2c0-0.5-0.1-0.8-0.3-1.1s-0.5-0.4-0.9-0.4c-0.4,0-0.8,0.2-1.1,0.6s-0.6,1-0.9,1.7s-0.3,1.4-0.3,2.1
		C312.5,217.7,312.9,218.2,313.7,218.2z"/>
	<path fill="#333333" d="M324.8,220.1l2.7-12.8h2.7l-2.7,12.8H324.8z"/>
	<path fill="#333333" d="M334.7,218.2c0.4,0,0.9-0.1,1.4-0.3v2c-0.7,0.3-1.4,0.5-2.3,0.5c-0.9,0-1.5-0.2-1.9-0.6s-0.6-0.9-0.6-1.7
		c0-0.3,0-0.6,0.1-1l1-4.7H331l0.3-1.3l1.7-0.7l1.2-2.1h1.7l-0.4,2.1h2.5l-0.4,2H335l-1,4.7c0,0.2-0.1,0.3-0.1,0.5
		C333.9,218,334.2,218.2,334.7,218.2z"/>
	<path fill="#333333" d="M341.1,220.3c-0.9,0-1.5-0.3-2-0.9c-0.5-0.6-0.7-1.5-0.7-2.6c0-1.2,0.2-2.3,0.6-3.3s1-1.9,1.7-2.4
		s1.4-0.9,2.3-0.9c0.6,0,1.1,0.1,1.5,0.4s0.7,0.6,1,1.1h0.1l0.5-1.3h2l-2.1,9.8h-2l0.1-1.3h0C343.1,219.8,342.2,220.3,341.1,220.3z
		 M342.1,218.2c0.4,0,0.8-0.2,1.2-0.6s0.7-0.9,0.9-1.6c0.2-0.7,0.3-1.4,0.3-2.3c0-0.4-0.1-0.8-0.3-1c-0.2-0.3-0.5-0.4-0.9-0.4
		c-0.4,0-0.8,0.2-1.1,0.6s-0.6,1-0.9,1.7s-0.3,1.4-0.3,2.1c0,0.5,0.1,0.9,0.3,1.2S341.8,218.2,342.1,218.2z"/>
	<path fill="#333333" d="M351.2,220.1h-2.6l2.9-13.7h2.6L351.2,220.1z"/>
	<path fill="#333333" d="M356.5,220.1h-2.6l2.1-9.8h2.6L356.5,220.1z M356.4,208c0-0.5,0.1-0.9,0.4-1.2c0.3-0.3,0.7-0.4,1.2-0.4
		c0.4,0,0.8,0.1,1,0.3s0.3,0.4,0.3,0.8c0,0.5-0.1,0.8-0.4,1.1c-0.3,0.3-0.7,0.4-1.2,0.4C356.8,209.1,356.4,208.7,356.4,208z"/>
	<path fill="#333333" d="M363.4,220.3c-1.2,0-2.1-0.3-2.7-0.9c-0.6-0.6-0.9-1.5-0.9-2.7c0-1.2,0.2-2.4,0.7-3.4
		c0.4-1,1.1-1.8,1.8-2.4c0.8-0.6,1.7-0.8,2.7-0.8c1.1,0,2,0.2,2.9,0.6l-0.8,2c-0.3-0.1-0.6-0.3-0.9-0.4s-0.7-0.1-1-0.1
		c-0.5,0-0.9,0.2-1.3,0.6c-0.4,0.4-0.7,0.9-0.9,1.5c-0.2,0.7-0.3,1.4-0.3,2.1c0,0.6,0.1,1,0.4,1.3c0.3,0.3,0.6,0.4,1.1,0.4
		c0.4,0,0.9-0.1,1.2-0.2s0.8-0.3,1.2-0.5v2.2C365.4,220.1,364.4,220.3,363.4,220.3z"/>
	<path fill="#333333" d="M196.1,237.1c1.5,0,2.7,0.4,3.6,1.3c0.8,0.9,1.3,2.1,1.3,3.6s-0.3,3-0.9,4.3c-0.6,1.3-1.4,2.3-2.4,3
		c-1,0.7-2.2,1-3.6,1c-1.6,0-2.8-0.4-3.7-1.3s-1.3-2.1-1.3-3.6s0.3-3,0.9-4.3s1.4-2.3,2.5-3S194.8,237.1,196.1,237.1z M197.5,242.1
		c0-0.7-0.1-1.2-0.4-1.6c-0.3-0.4-0.7-0.6-1.2-0.6c-0.6,0-1.1,0.2-1.6,0.7s-0.9,1.2-1.2,2s-0.4,1.7-0.4,2.6c0,1.4,0.6,2.1,1.8,2.1
		c0.6,0,1.1-0.2,1.6-0.7s0.9-1.1,1.1-2S197.5,243,197.5,242.1z"/>
	<path fill="#333333" d="M207.2,250.3c-0.8,0-1.5-0.4-2-1.3h-0.1c-0.1,1-0.2,2.1-0.5,3.3l-0.4,2.2h-3.4l3-14.3h2.7l-0.1,1.1h0.1
		c0.6-0.9,1.3-1.3,2.3-1.3c0.9,0,1.6,0.3,2.2,1c0.5,0.7,0.8,1.6,0.8,2.7c0,1.2-0.2,2.3-0.6,3.4s-1,1.9-1.6,2.4
		S208,250.3,207.2,250.3z M207.4,242.7c-0.3,0-0.6,0.2-0.8,0.5s-0.5,0.8-0.6,1.4s-0.2,1.1-0.2,1.7c0,0.4,0.1,0.7,0.2,0.9
		s0.3,0.3,0.6,0.3c0.3,0,0.6-0.2,0.8-0.5s0.5-0.8,0.6-1.3s0.2-1.1,0.2-1.7C208.2,243.2,208,242.7,207.4,242.7z"/>
	<path fill="#333333" d="M217.1,250.3c-1.2,0-2.2-0.3-2.9-1c-0.7-0.7-1-1.7-1-2.9s0.2-2.4,0.7-3.3c0.5-1,1.2-1.7,2-2.3
		c0.9-0.5,1.8-0.8,3-0.8c1.1,0,2,0.3,2.6,0.8s1,1.2,1,2c0,1.2-0.5,2.1-1.4,2.7c-0.9,0.6-2.2,0.9-4,0.9h-0.5v0.1
		c0,0.9,0.5,1.3,1.4,1.3c0.5,0,0.9-0.1,1.4-0.2c0.4-0.1,1-0.4,1.5-0.7v2.4c-0.7,0.3-1.3,0.6-1.8,0.7
		C218.5,250.2,217.8,250.3,217.1,250.3z M218.5,242.3c-0.4,0-0.7,0.2-1,0.6c-0.3,0.4-0.5,0.9-0.6,1.4h0.3c0.6,0,1.1-0.1,1.5-0.4
		c0.4-0.2,0.5-0.6,0.5-1c0-0.2-0.1-0.3-0.2-0.5S218.7,242.3,218.5,242.3z"/>
	<path fill="#333333" d="M229.7,243.5c0-0.3-0.1-0.4-0.2-0.6s-0.3-0.2-0.5-0.2c-0.3,0-0.6,0.2-0.9,0.6s-0.5,1.1-0.7,2l-1,4.9H223
		l2.1-10h2.7l-0.1,1.4h0.1c0.3-0.6,0.7-1,1.1-1.2c0.4-0.2,1-0.4,1.6-0.4c0.8,0,1.5,0.3,1.9,0.8c0.5,0.5,0.7,1.2,0.7,2.1
		c0,0.6-0.1,1.3-0.2,2l-1.1,5.3h-3.4l1.1-5.4C229.7,244.2,229.7,243.8,229.7,243.5z"/>
	<path fill="#333333" d="M247.3,246.2c0,1.3-0.4,2.3-1.3,3c-0.9,0.7-2.1,1.1-3.6,1.1c-0.6,0-1.3-0.1-1.8-0.2
		c-0.6-0.1-1.1-0.4-1.5-0.6v-3.1c0.5,0.3,1.1,0.6,1.7,0.8s1.2,0.3,1.7,0.3c0.4,0,0.8-0.1,1-0.3s0.3-0.4,0.3-0.8c0-0.2,0-0.3-0.1-0.4
		s-0.2-0.3-0.3-0.4c-0.1-0.1-0.5-0.4-1-0.9c-0.7-0.6-1.2-1.1-1.5-1.7s-0.5-1.2-0.5-1.9c0-0.8,0.2-1.5,0.6-2.1
		c0.4-0.6,0.9-1.1,1.6-1.4c0.7-0.3,1.5-0.5,2.4-0.5c1.4,0,2.7,0.3,3.8,0.9l-1.2,2.6c-1-0.5-1.9-0.8-2.6-0.8c-0.4,0-0.7,0.1-0.9,0.2
		s-0.3,0.4-0.3,0.7c0,0.3,0.1,0.6,0.3,0.8c0.2,0.2,0.6,0.6,1.1,1c0.7,0.5,1.2,1,1.5,1.6S247.3,245.5,247.3,246.2z"/>
	<path fill="#333333" d="M257.2,250.1h-2.7l0.1-1.1h-0.1c-0.3,0.5-0.7,0.8-1.1,1c-0.4,0.2-0.8,0.3-1.3,0.3c-0.9,0-1.6-0.3-2.1-1
		c-0.5-0.7-0.7-1.6-0.7-2.8c0-1,0.2-2.1,0.6-3.2s1-1.9,1.6-2.5s1.4-0.8,2.2-0.8c0.5,0,0.9,0.1,1.3,0.3c0.4,0.2,0.7,0.6,1,1.1h0.1
		l0.5-1.2h2.7L257.2,250.1z M253.5,247.6c0.3,0,0.6-0.2,0.8-0.5c0.3-0.3,0.5-0.8,0.6-1.4s0.2-1.1,0.2-1.7c0-0.4-0.1-0.7-0.2-0.9
		s-0.3-0.3-0.5-0.3c-0.4,0-0.8,0.4-1.2,1.1c-0.4,0.7-0.5,1.6-0.5,2.5C252.8,247.2,253,247.6,253.5,247.6z"/>
	<path fill="#333333" d="M266.4,243.5c0-0.3-0.1-0.4-0.2-0.6s-0.3-0.2-0.5-0.2c-0.3,0-0.6,0.2-0.9,0.6s-0.5,1.1-0.7,2l-1,4.9h-3.4
		l2.1-10h2.7l-0.1,1.4h0.1c0.3-0.6,0.7-1,1.1-1.2c0.4-0.2,1-0.4,1.6-0.4c0.8,0,1.5,0.3,1.9,0.8c0.5,0.5,0.7,1.2,0.7,2.1
		c0,0.6-0.1,1.3-0.2,2l-1.1,5.3h-3.4l1.1-5.4C266.4,244.2,266.4,243.8,266.4,243.5z"/>
	<path fill="#333333" d="M278.5,246.7c0,1.2-0.4,2.1-1.1,2.7s-1.9,0.9-3.3,0.9c-1.3,0-2.3-0.2-3.1-0.6V247c0.5,0.3,1,0.5,1.5,0.6
		s0.9,0.2,1.4,0.2c0.4,0,0.7-0.1,0.9-0.2s0.3-0.3,0.3-0.5c0-0.2-0.1-0.4-0.2-0.5c-0.2-0.2-0.5-0.4-1.1-0.7c-0.6-0.3-1.1-0.7-1.4-1.2
		s-0.4-1-0.4-1.6c0-1,0.4-1.8,1.1-2.3s1.7-0.8,3-0.8c0.7,0,1.3,0.1,1.8,0.2s1.1,0.4,1.6,0.7l-1.1,2.2c-0.4-0.3-0.8-0.5-1.2-0.6
		c-0.4-0.1-0.8-0.2-1.1-0.2c-0.4,0-0.7,0.2-0.7,0.6c0,0.2,0.1,0.3,0.3,0.4s0.5,0.3,0.9,0.5C277.9,244.5,278.5,245.5,278.5,246.7z"/>
	<path fill="#333333" d="M196.1,270.1h-7.6l2.7-12.8h7.6l-0.6,2.8h-4.2l-0.4,2h3.9l-0.6,2.8h-3.9l-0.5,2.4h4.2L196.1,270.1z"/>
	<path fill="#333333" d="M203.1,267.2l-1.9,2.9h-4l4.2-5.1l-1.8-4.9h3.7l0.7,2.8l1.6-2.8h4l-4.1,5.1l2,4.9h-3.8L203.1,267.2z"/>
	<path fill="#333333" d="M213.5,267.6c0.4,0,0.9-0.1,1.6-0.4v2.6c-0.8,0.4-1.8,0.6-3,0.6c-0.9,0-1.5-0.2-2-0.6
		c-0.4-0.4-0.7-1-0.7-1.8c0-0.4,0.1-1,0.2-1.7l0.7-3.5h-1.4l0.4-1.7l1.9-0.8l1.2-2.1h2.3l-0.4,2h2.5l-0.6,2.6h-2.5l-0.7,3.4
		c-0.1,0.5-0.1,0.8-0.1,0.9C213,267.4,213.1,267.6,213.5,267.6z"/>
	<path fill="#333333" d="M224.7,260c0.3,0,0.6,0,0.7,0.1l-0.7,3.4c-0.3-0.1-0.7-0.2-1.1-0.2c-0.6,0-1.1,0.2-1.4,0.6
		c-0.4,0.4-0.6,1-0.8,1.9l-0.9,4.4H217l2.1-10h2.7l-0.2,1.7h0.1c0.4-0.7,0.8-1.1,1.2-1.4S224,260,224.7,260z"/>
	<path fill="#333333" d="M233.2,270.1h-2.7l0.1-1.1h-0.1c-0.3,0.5-0.7,0.8-1.1,1c-0.4,0.2-0.8,0.3-1.3,0.3c-0.9,0-1.6-0.3-2.1-1
		c-0.5-0.7-0.7-1.6-0.7-2.8c0-1,0.2-2.1,0.6-3.2s1-1.9,1.6-2.5s1.4-0.8,2.2-0.8c0.5,0,0.9,0.1,1.3,0.3c0.4,0.2,0.7,0.6,1,1.1h0.1
		l0.5-1.2h2.7L233.2,270.1z M229.6,267.6c0.3,0,0.6-0.2,0.8-0.5c0.3-0.3,0.5-0.8,0.6-1.4s0.2-1.1,0.2-1.7c0-0.4-0.1-0.7-0.2-0.9
		s-0.3-0.3-0.5-0.3c-0.4,0-0.8,0.4-1.2,1.1c-0.4,0.7-0.5,1.6-0.5,2.5C228.8,267.2,229.1,267.6,229.6,267.6z"/>
	<path fill="#333333" d="M241.3,270.3c-0.5,0-0.9-0.1-1.3-0.3s-0.7-0.5-1.1-1h-0.1l-0.4,1.1h-2.7l2.9-13.7h3.4l-0.4,2
		c-0.2,1-0.5,1.9-0.8,2.6h0.1c0.3-0.3,0.5-0.6,0.7-0.7c0.2-0.1,0.4-0.2,0.6-0.3s0.5-0.1,0.8-0.1c0.9,0,1.6,0.3,2.1,1
		c0.5,0.7,0.7,1.6,0.7,2.8c0,1-0.2,2.1-0.6,3.2s-0.9,1.9-1.6,2.5C242.9,270,242.1,270.3,241.3,270.3z M241.5,262.7
		c-0.3,0-0.6,0.2-0.8,0.5s-0.5,0.8-0.6,1.4s-0.2,1.1-0.2,1.7c0,0.4,0.1,0.7,0.2,0.9s0.3,0.3,0.5,0.3c0.3,0,0.6-0.2,0.8-0.5
		s0.5-0.8,0.7-1.4s0.3-1.1,0.3-1.7C242.3,263.2,242,262.7,241.5,262.7z"/>
	<path fill="#333333" d="M251,270.3c-1.2,0-2.2-0.3-2.8-1s-1-1.6-1-2.8s0.2-2.3,0.7-3.3c0.5-1,1.1-1.8,2-2.3s1.8-0.8,3-0.8
		c1.2,0,2.2,0.3,2.8,1c0.7,0.7,1,1.6,1,2.8s-0.2,2.3-0.7,3.3c-0.5,1-1.1,1.8-2,2.3S252.2,270.3,251,270.3z M252.4,262.6
		c-0.5,0-0.9,0.4-1.2,1.2c-0.3,0.8-0.5,1.8-0.5,2.8c0,0.8,0.2,1.2,0.7,1.2c0.5,0,0.9-0.4,1.2-1.2s0.5-1.8,0.5-2.8
		c0-0.4-0.1-0.7-0.2-0.9S252.7,262.6,252.4,262.6z"/>
	<path fill="#333333" d="M261,270.1h-3.4l2.9-13.7h3.4L261,270.1z"/>
	<path fill="#333333" d="M268.4,260c0.4,0,0.8,0.1,1.1,0.3s0.6,0.5,1,1.1h0.1l0-0.3c0-0.8,0.1-1.4,0.2-1.9l0.5-2.6h3.4l-2.9,13.7
		h-2.7l0.1-1.1h-0.1c-0.3,0.5-0.7,0.8-1.1,1s-0.8,0.3-1.3,0.3c-0.9,0-1.6-0.3-2.1-1c-0.5-0.7-0.7-1.6-0.7-2.8c0-1,0.2-2.1,0.6-3.2
		s1-1.9,1.6-2.5S267.6,260,268.4,260z M268.2,267.6c0.3,0,0.6-0.2,0.8-0.5c0.3-0.3,0.5-0.8,0.6-1.4s0.2-1.1,0.2-1.7
		c0-0.8-0.2-1.3-0.7-1.3c-0.3,0-0.6,0.2-0.8,0.5s-0.5,0.8-0.7,1.4c-0.2,0.6-0.3,1.1-0.3,1.7C267.5,267.2,267.7,267.6,268.2,267.6z"
		/>
	<path fill="#333333" d="M279.1,270.1l2.7-12.8h3.5l-2.7,12.8H279.1z"/>
	<path fill="#333333" d="M290.2,267.6c0.4,0,0.9-0.1,1.6-0.4v2.6c-0.8,0.4-1.8,0.6-3,0.6c-0.9,0-1.5-0.2-2-0.6
		c-0.4-0.4-0.7-1-0.7-1.8c0-0.4,0.1-1,0.2-1.7l0.7-3.5h-1.4l0.4-1.7l1.9-0.8l1.2-2.1h2.3l-0.4,2h2.5l-0.6,2.6h-2.5l-0.7,3.4
		c-0.1,0.5-0.1,0.8-0.1,0.9C289.6,267.4,289.8,267.6,290.2,267.6z"/>
	<path fill="#333333" d="M302,270.1h-2.7l0.1-1.1h-0.1c-0.3,0.5-0.7,0.8-1.1,1c-0.4,0.2-0.8,0.3-1.3,0.3c-0.9,0-1.6-0.3-2.1-1
		c-0.5-0.7-0.7-1.6-0.7-2.8c0-1,0.2-2.1,0.6-3.2s1-1.9,1.6-2.5s1.4-0.8,2.2-0.8c0.5,0,0.9,0.1,1.3,0.3c0.4,0.2,0.7,0.6,1,1.1h0.1
		l0.5-1.2h2.7L302,270.1z M298.4,267.6c0.3,0,0.6-0.2,0.8-0.5c0.3-0.3,0.5-0.8,0.6-1.4s0.2-1.1,0.2-1.7c0-0.4-0.1-0.7-0.2-0.9
		s-0.3-0.3-0.5-0.3c-0.4,0-0.8,0.4-1.2,1.1c-0.4,0.7-0.5,1.6-0.5,2.5C297.6,267.2,297.9,267.6,298.4,267.6z"/>
	<path fill="#333333" d="M307.9,270.1h-3.4l2.9-13.7h3.4L307.9,270.1z"/>
	<path fill="#333333" d="M313.8,270.1h-3.4l2.1-10h3.4L313.8,270.1z M312.9,258c0-0.6,0.2-1.1,0.5-1.4s0.8-0.5,1.5-0.5
		c0.5,0,0.9,0.1,1.2,0.3s0.4,0.5,0.4,0.9c0,0.6-0.2,1-0.5,1.4c-0.3,0.3-0.8,0.5-1.5,0.5C313.5,259.2,312.9,258.8,312.9,258z"/>
	<path fill="#333333" d="M320.5,270.3c-1.2,0-2.1-0.4-2.7-1.1s-1-1.7-1-3c0-1.2,0.2-2.2,0.7-3.2c0.4-1,1.1-1.7,1.9-2.2
		c0.8-0.5,1.7-0.8,2.8-0.8c1.1,0,2.2,0.2,3.2,0.7l-1.1,2.5c-0.8-0.4-1.4-0.5-2-0.5c-0.4,0-0.7,0.1-1,0.4s-0.6,0.7-0.8,1.3
		s-0.3,1.1-0.3,1.6c0,0.5,0.1,0.9,0.3,1.2c0.2,0.2,0.5,0.4,0.8,0.4c0.4,0,0.8-0.1,1.2-0.2s0.8-0.3,1.3-0.6v2.7
		c-0.5,0.3-1,0.5-1.5,0.6S321.2,270.3,320.5,270.3z"/>
</g>
</svg>
