<?xml version="1.0" encoding="utf-8"?>
<!-- Generator: Adobe Illustrator 18.1.1, SVG Export Plug-In . SVG Version: 6.00 Build 0)  -->
<svg version="1.1" id="CLEAR_SPACE_LOGO" xmlns="http://www.w3.org/2000/svg" xmlns:xlink="http://www.w3.org/1999/xlink" x="0px"
	 y="0px" viewBox="0 0 94 84" enable-background="new 0 0 94 84" xml:space="preserve">
<rect x="0" y="0" fill="#FFFFFF" width="94" height="84"/>
<g id="XMLID_84_">
	<path id="XMLID_50_" fill="#808080" d="M41,49.2L27,35.2c-0.5-0.5-1.2-0.5-1.7,0L23,37.4c-2.7,2.7-4.1,6.3-4.2,9.8
		c-0.1,3.5,0.9,7.1,3.4,10.1l0.1,0.2l4.9,5.5c0.4,0.5,1.2,0.5,1.6,0L41,50.9C41.5,50.5,41.5,49.7,41,49.2"/>
	<path id="XMLID_49_" fill="#808080" d="M20.1,17.8c-0.7,1.5-1.4,3.4-1.4,5.5c0,1.3,0.3,2.7,0.9,4c0.6,1.4,1.5,2.8,2.8,4.2
		c0.5,0.5,1.1,0.8,1.8,0.8c0.6,0,1.1-0.2,1.6-0.6c1-0.9,1.1-2.4,0.2-3.4c-1-1.1-1.6-2.1-2-2.9c-0.4-0.8-0.5-1.5-0.5-2.2
		c0-0.7,0.2-1.4,0.5-2.3c0.4-1.2,1.2-2.5,1.9-4c0.4-0.8,0.7-1.6,1-2.5c0.3-0.9,0.5-1.9,0.5-2.9c0-1.3-0.3-2.6-0.9-3.9
		c-0.6-1.3-1.6-2.6-2.9-4c-0.9-0.9-2.4-1-3.4,0c-0.9,0.9-1,2.4,0,3.4c1,1,1.6,1.9,2,2.7c0.3,0.8,0.5,1.3,0.5,1.9
		c0,0.7-0.2,1.3-0.4,2.1C21.6,14.9,20.9,16.2,20.1,17.8"/>
	<path id="XMLID_48_" fill="#808080" d="M43.5,46.8c0.5,0.5,1.2,0.5,1.7,0l12.1-12.1c0.5-0.5,0.4-1.2,0-1.6l-5.5-4.9L51.5,28
		c-3-2.5-6.6-3.6-10.1-3.4c-3.5,0.1-7,1.5-9.8,4.2l-2.2,2.2c-0.5,0.5-0.5,1.2,0,1.7L43.5,46.8z"/>
	<path id="XMLID_47_" fill="#808080" d="M75.3,59.2c0.2-5.4-1.8-11.1-5.9-15.2c-0.4-0.4-0.8-0.8-1.2-1.1l-6.6-5.8
		c-0.5-0.4-1.3-0.4-1.7,0.1L31.4,65.5c-0.5,0.5-0.5,1.2-0.1,1.7l5.8,6.6c0.4,0.4,0.7,0.8,1.1,1.2c4.1,4.1,9.7,6.2,15.2,5.9
		c4.9-0.2,9.7-2.2,13.7-5.6c1.4-1.2,2.6-2.6,2.6-2.6c0.2-0.2,0.2-0.3,0.3-0.3C73.2,68.7,75.1,64,75.3,59.2"/>
</g>
</svg>
