<?xml version="1.0" encoding="utf-8"?>
<!-- Generator: Adobe Illustrator 18.1.1, SVG Export Plug-In . SVG Version: 6.00 Build 0)  -->
<svg version="1.1" id="CLEAR_SPACE_LOGO" xmlns="http://www.w3.org/2000/svg" xmlns:xlink="http://www.w3.org/1999/xlink" x="0px"
	 y="0px" viewBox="0 0 612 546.9" enable-background="new 0 0 612 546.9" xml:space="preserve">
<rect y="0" fill="#FFFFFF" width="612" height="546.9"/>
<g id="XMLID_86_">
	<path id="XMLID_87_" fill="#808080" d="M210.9,85.3c0-3.9,3.9-7.8,8.5-7.8h171.9c4.6,0,8.5,3.3,8.5,7.8v214.2
		c0,3.9-3.9,7.8-8.5,7.8H219.4c-4.6,0-8.5-3.3-8.5-7.8V85.3z M394.5,373.1c0,2-1.3,3.3-3.3,3.3h-39.7c-2,0-3.3-1.3-3.3-3.3v-33.2
		c0-2,1.3-3.3,3.3-3.3h39.7c2,0,3.3,1.3,3.3,3.3V373.1z M394.5,434.9c0,2-1.3,3.3-3.3,3.3h-39.7c-2,0-3.3-1.3-3.3-3.3v-33.2
		c0-2,1.3-3.3,3.3-3.3h39.7c2,0,3.3,1.3,3.3,3.3V434.9z M394.5,494.8c0,2-1.3,3.3-3.3,3.3h-39.7c-2,0-3.3-1.3-3.3-3.3v-33.2
		c0-2,1.3-3.3,3.3-3.3h39.7c2,0,3.3,1.3,3.3,3.3V494.8z M327.5,373.1c0,2-1.3,3.3-3.3,3.3h-39.7c-2,0-3.3-1.3-3.3-3.3v-33.2
		c0-2,1.3-3.3,3.3-3.3h39.7c2,0,3.3,1.3,3.3,3.3V373.1z M327.5,434.9c0,2-1.3,3.3-3.3,3.3h-39.7c-2,0-3.3-1.3-3.3-3.3v-33.2
		c0-2,1.3-3.3,3.3-3.3h39.7c2,0,3.3,1.3,3.3,3.3V434.9z M327.5,494.8c0,2-1.3,3.3-3.3,3.3h-39.7c-2,0-3.3-1.3-3.3-3.3v-33.2
		c0-2,1.3-3.3,3.3-3.3h39.7c2,0,3.3,1.3,3.3,3.3V494.8z M261.1,373.1c0,2-1.3,3.3-3.3,3.3h-39.7c-2,0-3.3-1.3-3.3-3.3v-33.2
		c0-2,1.3-3.3,3.3-3.3h39.7c2,0,3.3,1.3,3.3,3.3V373.1z M261.1,434.9c0,2-1.3,3.3-3.3,3.3h-39.7c-2,0-3.3-1.3-3.3-3.3v-33.2
		c0-2,1.3-3.3,3.3-3.3h39.7c2,0,3.3,1.3,3.3,3.3V434.9z M261.1,494.8c0,2-1.3,3.3-3.3,3.3h-39.7c-2,0-3.3-1.3-3.3-3.3v-33.2
		c0-2,1.3-3.3,3.3-3.3h39.7c2,0,3.3,1.3,3.3,3.3V494.8z M195.3,528H416c4.6,0,9.1-3.9,9.1-9.1V61.2c0-4.6-3.9-9.1-9.1-9.1H259.8
		V27.3c0-4.6-3.9-9.1-9.1-9.1H235c-4.6,0-9.1,3.9-9.1,9.1v24.7h-30.6c-5.2,0-9.1,3.9-9.1,9.1v458.3C186.9,524.1,190.8,528,195.3,528
		"/>
</g>
</svg>
