<?xml version="1.0" encoding="utf-8"?>
<!-- Generator: Adobe Illustrator 18.1.1, SVG Export Plug-In . SVG Version: 6.00 Build 0)  -->
<svg version="1.1" id="CLEAR_SPACE_LOGO" xmlns="http://www.w3.org/2000/svg" xmlns:xlink="http://www.w3.org/1999/xlink" x="0px"
	 y="0px" viewBox="0 0 94 84" enable-background="new 0 0 94 84" xml:space="preserve">
<rect x="0" y="0" fill="#FFFFFF" width="94" height="84"/>
<g id="XMLID_70_">
	<g id="XMLID_73_">
		<path id="XMLID_14_" fill="#808080" d="M54,9.3c1.4,0.8,2.7,1.9,3.9,3.3c2.3,2.7,4.2,6.4,5.8,11c2.3,6.9,3.1,13.9,3.3,16.1
			c3.3-1.7,12.1-5.7,23.8-5.3C77.9,18.3,65.3,11.2,54,9.3"/>
		<path id="XMLID_13_" fill="#808080" d="M47.7,9.2c-0.1,0-0.2,0-0.4,0c-6.5,0.2-11,7.9-13.6,14.3c-3,7.3-4.3,14.8-4.3,15.2
			c0,0,7-3.3,16.7-3.4v0c0.2,0,0.5,0,0.7,0c0.6,0,1.3,0,1.9,0v0c1,0,1.9,0.1,2.9,0.3c4.5,0.5,8.7,1.8,12.6,3.8c0,0,0,0,0,0
			c0-0.3-0.6-8.2-3-15.7C58.2,14.1,53.6,9.2,47.7,9.2"/>
		<path id="XMLID_12_" fill="#808080" d="M47.6,7.5c0.4,0,0.8,0,1.2,0.1V6.9c0-1.2-0.6-2.2-1.4-2.2c-0.8,0-1.4,1-1.4,2.2v0.7
			c0.4-0.1,0.8-0.1,1.2-0.1C47.3,7.5,47.5,7.5,47.6,7.5"/>
		<path id="XMLID_11_" fill="#808080" d="M48.8,37.8c-0.7,0-1.4,0-2.1,0c-0.2,0-0.5,0-0.7,0v31.4c0,0.1,0,0.3,0,0.4v2.8
			c0,2.3-1.9,4.2-4.2,4.2h-0.1c-2.3,0-4.2-1.9-4.2-4.2V70c0-0.8-0.6-1.4-1.4-1.4c-0.8,0-1.4,0.6-1.4,1.4v2.4c0,3.9,3.1,7,7,7h0.1
			c3.8,0,7-3.1,7-7l0-7.6c0,0,0-0.1,0-0.1V37.8z"/>
		<path id="XMLID_10_" fill="#808080" d="M37.5,12.7c1.3-1.5,2.7-2.7,4.1-3.5C18.8,12.7,3.2,35,3.2,35s13.5-4,23.4,3.8
			c0.5-2.3,1.9-8.8,4.6-15.4C33.1,18.9,35.2,15.3,37.5,12.7"/>
	</g>
</g>
</svg>
