<?xml version="1.0" encoding="utf-8"?>
<!-- Generator: Adobe Illustrator 18.1.1, SVG Export Plug-In . SVG Version: 6.00 Build 0)  -->
<svg version="1.1" id="CLEAR_SPACE_LOGO" xmlns="http://www.w3.org/2000/svg" xmlns:xlink="http://www.w3.org/1999/xlink" x="0px"
	 y="0px" viewBox="0 0 612 546.9" enable-background="new 0 0 612 546.9" xml:space="preserve">
<rect y="0" fill="#FFFFFF" width="612" height="546.9"/>
<g id="XMLID_74_">
	<g id="XMLID_75_">
		<path id="XMLID_78_" fill="#808080" d="M126.3,389.3c0,7.2-5.9,12.4-12.4,12.4H64.5c-7.2,0-12.4-5.9-12.4-12.4v-47.5
			c0-7.2,5.9-12.4,12.4-12.4h49.5c7.2,0,12.4,5.9,12.4,12.4V389.3z M488.3,216.8H78.1H37.8c-13.7,0-24.7,11.1-24.7,24.7v263
			c0,13.7,11.1,24.7,24.7,24.7h450.5c13.7,0,24.7-11.1,24.7-24.7V334.6v-93.1C513,227.9,502,216.8,488.3,216.8"/>
		<path id="XMLID_16_" fill="#808080" d="M480.5,50.8l-11.7-20.8c-6.5-12.4-22.1-16.3-33.9-9.8L123.1,191.4h98.3L480.5,50.8z"/>
		<path id="XMLID_15_" fill="#808080" d="M595.7,260.4l-82-149.7l-148.4,80.7h123.1c27.3,0,50.1,22.8,50.1,50.1V321l47.5-26
			C598.3,287.8,602.9,272.8,595.7,260.4"/>
	</g>
</g>
</svg>
