<?xml version="1.0" encoding="utf-8"?>
<!-- Generator: Adobe Illustrator 18.1.1, SVG Export Plug-In . SVG Version: 6.00 Build 0)  -->
<svg version="1.1" id="CLEAR_SPACE_LOGO" xmlns="http://www.w3.org/2000/svg" xmlns:xlink="http://www.w3.org/1999/xlink" x="0px"
	 y="0px" viewBox="0 0 612 546.9" enable-background="new 0 0 612 546.9" xml:space="preserve">
<rect y="0" fill="#FFFFFF" width="612" height="546.9"/>
<g id="XMLID_83_">
	<path id="XMLID_42_" fill="#808080" d="M39.1,229.2c6.5,0,13.7-2.6,18.9-7.8c66.4-66.4,154.3-102.9,247.4-102.9
		c93.8,0,181.6,36.5,247.4,102.9c10.4,10.4,27.3,10.4,37.8,0c10.4-10.4,10.4-27.3,0-37.8C514.3,107.4,412.8,65.8,305.3,65.8
		c-108.1,0-209,41.7-285.2,117.8c-10.4,10.4-10.4,27.3,0,37.8C26,226.6,32.6,229.2,39.1,229.2"/>
	<path id="XMLID_41_" fill="#808080" d="M498.7,302.7c6.5,0,13.7-2.6,18.9-7.8c10.4-10.4,10.4-27.3,0-37.8
		C401.1,140,210.3,140,93.8,257.2c-10.4,10.4-10.4,27.3,0,37.8s27.3,10.4,37.8,0c96.4-96.4,252.6-96.4,349,0
		C485,300.1,492.2,302.7,498.7,302.7"/>
	<path id="XMLID_40_" fill="#808080" d="M425.8,375.7c6.5,0,13.7-2.6,18.9-7.8c10.4-10.4,10.4-27.3,0-37.8
		c-76.2-76.2-200.5-76.2-277.4,0c-10.4,10.4-10.4,27.3,0,37.8c10.4,10.4,27.3,10.4,37.8,0c56-56,146.5-56,201.8,0
		C412.1,373.1,418.6,375.7,425.8,375.7"/>
	<path id="XMLID_39_" fill="#808080" d="M266.9,388c-21.5,21.5-21.5,56,0,77.5c21.5,21.5,56,21.5,77.5,0c21.5-21.5,21.5-56,0-77.5
		C322.9,366.5,288.4,366.5,266.9,388"/>
</g>
</svg>
