<?xml version="1.0" encoding="utf-8"?>
<!-- Generator: Adobe Illustrator 19.1.0, SVG Export Plug-In . SVG Version: 6.00 Build 0)  -->
<svg version="1.1" id="Layer_1" xmlns="http://www.w3.org/2000/svg" xmlns:xlink="http://www.w3.org/1999/xlink" x="0px" y="0px"
	 viewBox="0 0 375 163.8" style="enable-background:new 0 0 375 163.8;" xml:space="preserve">
<style type="text/css">
	.st0{fill:#FFFFFF;}
	.st1{fill:#EC0000;}
	.st2{fill:#1BB3BC;}
	.st3{fill:#999999;}
	.st4{font-family:'OpenSans';}
	.st5{font-size:18px;}
	.st6{fill:none;stroke:#1BB3BC;stroke-miterlimit:10;stroke-dasharray:4,2;}
	.st7{fill:#666666;}
	.st8{fill:none;stroke:#666666;}
	.st9{font-family:'ArialMT';}
	.st10{font-size:12px;}
</style>
<rect y="0" class="st0" width="375" height="163.8"/>
<g>
	<polygon class="st1" points="133.6,105.3 334.3,105.3 334.3,163.8 133.6,163.8 133.6,105.3 	"/>
	<path class="st0" d="M165.2,116.6c0,3.8,6.5,8.1,6.5,12.4c0,0,0,0.4-0.2,0.9c6.1,1.3,10.4,4.2,10.4,7.7c0,4.7-7.7,8.6-17.2,8.6
		c-0.1,0-0.1,0-0.2,0c-9.4,0-17.1-3.7-17.1-8.4c0-3.5,4.7-6.3,10.3-7.8c0,1.9,6.4,8,6.6,10.5c0,0,0,0.2,0,0.5c0,0.1,0,0.2,0,0.4
		c1.4-0.7,1.4-3,1.4-3c0-5.4-6.2-7.7-6.2-13c0-2,1-3.6,1.8-4v1.5c0,3.8,6.8,8.1,6.8,11.6v1.1c1.6-0.6,1.6-3.5,1.6-3.5
		c0-4.8-6.3-7.5-6.3-13c0-2.1,1-3.6,1.8-4V116.6L165.2,116.6z"/>
	<path class="st0" d="M195.6,144.8c-3.3,0-5.7-0.9-5.7-0.9v-5.7h0.8c0.4,3,2.7,5.3,5.3,5.3c2.6,0,4.5-1.4,4.5-3.7
		c0-2.4-2.4-3.6-4.1-4.4l-2.4-1.2c-2.2-1.1-4-2.9-4-5.5c0-3.2,2.4-5.9,6.8-5.9c3.1,0,5.6,1,5.6,1v5.1h-0.8c-0.5-2.7-2-4.9-5.1-4.9
		c-2.3,0-3.6,1.6-3.6,3.2c0,2.1,1.4,3,3.1,3.9l2.4,1.2c2.1,1.1,4.8,2.9,4.8,6C203.3,142.2,200.6,144.8,195.6,144.8L195.6,144.8z"/>
	<path class="st0" d="M209.6,144.7c-2,0-3.4-1.4-3.4-3.4c0-1.4,1.1-2.6,3.4-3.4l4.1-1.5v-1.3c0-1.9-0.9-3.1-2.2-3.1
		c-0.9,0-1.8,0.5-2.3,1.2c-0.2,0.3-0.2,0.7-0.2,1c0,0.5,0.3,1.1,0.3,1.1l-2,0.9c-0.2-0.4-0.5-1.1-0.5-1.7c0-0.1,0-0.2,0-0.3
		c0.2-1.1,1.1-1.8,2.4-2.6c1.2-0.8,2.3-1,3-1c3.8,0,4.5,3,4.5,4v6.2c0,1,0.1,1.6,0.9,1.6c0.2,0,0.4,0,0.7-0.1l0.7-0.2v0.9l-4.2,1.6
		c-0.6-0.5-0.9-1.3-1.1-2C212.8,143.5,211,144.7,209.6,144.7L209.6,144.7z M210.8,138.6c-0.6,0.3-1.7,0.8-1.7,2.2c0,0.8,0.5,2,2,2
		c0.8,0,1.8-0.4,2.6-1v-4.5L210.8,138.6L210.8,138.6z"/>
	<path class="st0" d="M220,144.4v-0.7l1-0.2c0.6-0.1,1-0.6,1-1.2v-8c0-0.7-0.3-1.1-0.9-1.1c-0.2,0-0.5,0-0.7,0.1l-0.4,0.2v-0.9
		l4.3-1.9h0.6v2.2c1.3-1.5,2.9-2.2,4.3-2.2c3.1,0,4.6,2.2,4.6,4.8v6.8c0,0.6,0.5,1.1,1.1,1.2l1,0.2v0.7h-7.2v-0.7l1-0.2
		c0.6-0.1,1.1-0.6,1.1-1.2v-6.8c0-0.9-0.2-2.9-2.7-2.9c-1.3,0-2.4,0.8-3.1,1.4v8.3c0,0.6,0.5,1.1,1.1,1.2l1,0.2v0.7H220L220,144.4z"
		/>
	<path class="st0" d="M246.3,132.5H242v7.5c0,1.7,0.9,2.6,2.1,2.6c0.5,0,1.3-0.1,2.1-0.6l0.3,0.7l-2.7,1.7c0,0-0.5,0.1-0.8,0.1
		c-2.6,0-4-1.5-4-4.8v-7.2h-2.2v-0.8c0,0,3.3-1.3,4.6-4.4h0.6v3.8h4.8L246.3,132.5L246.3,132.5z"/>
	<path class="st0" d="M251.3,144.7c-2,0-3.4-1.4-3.4-3.4c0-1.4,1.1-2.6,3.4-3.4l4.1-1.5v-1.3c0-1.9-0.9-3.1-2.2-3.1
		c-0.9,0-1.8,0.5-2.3,1.2c-0.2,0.3-0.2,0.7-0.2,1c0,0.5,0.3,1.1,0.3,1.1l-2,0.9c-0.2-0.4-0.5-1.1-0.5-1.7c0-0.1,0-0.2,0-0.3
		c0.1-1.1,1.1-1.8,2.3-2.6c1.2-0.8,2.3-1,3-1c3.8,0,4.5,3,4.5,4v6.2c0,1,0.1,1.6,0.9,1.6c0.2,0,0.4,0,0.7-0.1l0.7-0.2v0.9l-4.2,1.6
		c-0.6-0.5-0.9-1.3-1.1-2C254.5,143.5,252.8,144.7,251.3,144.7L251.3,144.7z M252.6,138.6c-0.6,0.3-1.7,0.8-1.7,2.2c0,0.8,0.5,2,2,2
		c0.8,0,1.8-0.4,2.6-1v-4.5L252.6,138.6L252.6,138.6z"/>
	<path class="st0" d="M261.7,144.4v-0.7l1-0.2c0.6-0.1,1-0.6,1-1.2v-8c0-0.7-0.3-1.1-0.9-1.1c-0.2,0-0.5,0-0.7,0.1l-0.4,0.2v-0.9
		l4.3-1.9h0.6v2.2c1.3-1.5,2.9-2.2,4.3-2.2c3.1,0,4.6,2.2,4.6,4.8v6.8c0,0.6,0.5,1.1,1.1,1.2l1,0.2v0.7h-7.2v-0.7l1-0.2
		c0.6-0.1,1.1-0.6,1.1-1.2v-6.8c0-0.9-0.2-2.9-2.7-2.9c-1.3,0-2.4,0.8-3.1,1.4v8.3c0,0.6,0.5,1.1,1.1,1.2l1,0.2v0.7H261.7
		L261.7,144.4z"/>
	<path class="st0" d="M285.2,144.7c-2.8,0-6.2-2.1-6.2-6.7c0-4,3.1-7.3,7.3-7.3c1.4,0,2.4,0.3,3.1,0.6v-6.9c0-0.7-0.4-0.9-0.9-0.9
		c-0.3,0-0.6,0.1-0.8,0.1l-0.6,0.2v-0.9l4.7-2h0.6v19.9c0,1.1,0.2,1.8,1,1.8c0.2,0,0.4,0,0.7-0.1l0.7-0.2v0.9l-4.2,1.6
		c-0.7-0.5-1-1.3-1.1-2C288.7,143.5,287.3,144.7,285.2,144.7L285.2,144.7z M286.6,131.9c-2.2,0-4.4,1.4-4.4,5.4
		c0,3.4,1.7,5.4,4.3,5.4c1.6,0,2.6-0.9,2.8-1.4v-7.8C289,132.5,287.9,131.9,286.6,131.9L286.6,131.9z"/>
	<path class="st0" d="M299.2,136.6v0.2c0,4,2.3,6,5.1,6c1.4,0,2.8-0.5,3.8-1.4v1.2c-1.2,1.1-3,2.1-5.3,2.1c-4.7,0-6.8-3.5-6.8-6.9
		c0-3.9,3-7.1,6.8-7.1c3.2,0,5.6,2.2,5.6,5.5v0.4H299.2L299.2,136.6z M305.4,135.3L305.4,135.3c0-2.3-1.3-3.4-2.8-3.4
		c-1.7,0-3,1.1-3.3,3.4H305.4L305.4,135.3z"/>
	<path class="st0" d="M310.3,144.4v-0.7l1-0.2c0.6-0.1,1-0.6,1-1.2v-8c0-0.7-0.3-1.1-0.9-1.1c-0.2,0-0.5,0-0.7,0.1l-0.4,0.2v-0.9
		l4.3-1.9h0.6v2.9c1.1-2.1,2.4-3,3.9-3c1.2,0,1.5,0.3,1.5,0.3v3.2H320c-0.2-0.8-0.7-1.3-1.6-1.3c-1,0-2.2,0.3-3,2v7.4
		c0,0.6,0.6,1.1,1.2,1.2l1.4,0.2v0.7H310.3L310.3,144.4z"/>
</g>
<g>
	<rect x="336" y="105.3" class="st2" width="39" height="2"/>
	<rect x="336" y="161.8" class="st2" width="39" height="2"/>
	<g>
		
			<rect x="354" y="120.4" transform="matrix(0.7071 0.7071 -0.7071 0.7071 198.13 -212.3421)" class="st2" width="2.7" height="25.2"/>
		
			<rect x="354" y="120.4" transform="matrix(-0.7071 0.7071 -0.7071 -0.7071 700.7197 -24.2615)" class="st2" width="2.7" height="25.2"/>
	</g>
</g>
<g>
	<circle class="st3" cx="235.9" cy="38.1" r="38.1"/>
	<text transform="matrix(1 0 0 1 215.3806 44.4217)" class="st0 st4 st5">Logo</text>
</g>
<line class="st6" x1="134.2" y1="103.2" x2="134.2" y2="76.7"/>
<line class="st6" x1="333.6" y1="103.2" x2="333.6" y2="76.7"/>
<line class="st6" x1="135.7" y1="76.7" x2="333.2" y2="76.7"/>
<g>
	
		<rect x="268.5" y="83.8" transform="matrix(0.7071 0.7071 -0.7071 0.7071 143.0486 -163.8119)" class="st7" width="1.5" height="13.9"/>
	
		<rect x="268.5" y="83.8" transform="matrix(-0.7071 0.7071 -0.7071 -0.7071 523.8436 -35.4453)" class="st7" width="1.5" height="13.9"/>
</g>
<line class="st8" x1="238.1" y1="101.9" x2="238.1" y2="80.4"/>
<polygon class="st7" points="236.1,83.5 238,78.3 240,83.5 "/>
<polygon class="st7" points="240,98.9 238,104.1 236.1,98.9 "/>
<text transform="matrix(1 0 0 1 244.8878 95.3939)" class="st7 st9 st10">0.5</text>
</svg>
