<?xml version="1.0" encoding="utf-8"?>
<!-- Generator: Adobe Illustrator 19.1.0, SVG Export Plug-In . SVG Version: 6.00 Build 0)  -->
<svg version="1.1" id="Layer_1" xmlns="http://www.w3.org/2000/svg" xmlns:xlink="http://www.w3.org/1999/xlink" x="0px" y="0px"
	 viewBox="0 0 23 23" style="enable-background:new 0 0 23 23;" xml:space="preserve">
<style type="text/css">
	.st0{fill:#EC0000;}
</style>
<path id="XMLID_1_" class="st0" d="M4,22.5l7.5-7.5l7.5,7.5c1,1,1.9,0.3,2.8-0.7c1-1,1.7-1.9,0.7-2.8l-7.5-7.5L22.5,4
	c1-1,0.3-1.9-0.7-2.8c-1-1-1.9-1.7-2.8-0.7l-7.5,7.5L4,0.5c-1-1-1.9-0.3-2.8,0.7C0.2,2.2-0.5,3,0.5,4l7.5,7.5L0.5,19
	c-1,1-0.3,1.9,0.7,2.8C2.2,22.8,3,23.5,4,22.5"/>
</svg>
