<?xml version="1.0" encoding="utf-8"?>
<!-- Generator: Adobe Illustrator 19.1.0, SVG Export Plug-In . SVG Version: 6.00 Build 0)  -->
<svg version="1.1" id="Layer_1" xmlns="http://www.w3.org/2000/svg" xmlns:xlink="http://www.w3.org/1999/xlink" x="0px" y="0px"
	 viewBox="0 0 240 69.8" style="enable-background:new 0 0 240 69.8;" xml:space="preserve">
<style type="text/css">
	.st0{fill:#EC0000;}
	.st1{fill:#FFFFFF;}
</style>
<polygon class="st0" points="0,0 240,0 240,69.8 0,69.8 0,0 "/>
<g>
	<path class="st1" d="M58.7,29.7h-6.4v-2c0-0.9-0.1-1.5-0.2-1.7c-0.2-0.2-0.4-0.4-0.8-0.4c-0.4,0-0.7,0.2-0.9,0.5
		C50.1,26.5,50,27,50,27.7c0,0.9,0.1,1.5,0.4,2c0.2,0.4,0.9,1,1.9,1.6c3.1,1.8,5,3.3,5.8,4.5s1.2,3,1.2,5.6c0,1.9-0.2,3.3-0.7,4.2
		c-0.4,0.9-1.3,1.6-2.6,2.2c-1.3,0.6-2.7,0.9-4.4,0.9c-1.8,0-3.4-0.3-4.7-1c-1.3-0.7-2.1-1.6-2.5-2.7c-0.4-1.1-0.6-2.6-0.6-4.6v-1.7
		h6.4v3.2c0,1,0.1,1.6,0.3,1.9c0.2,0.3,0.5,0.4,1,0.4c0.5,0,0.8-0.2,1-0.5c0.2-0.4,0.3-0.9,0.3-1.6c0-1.6-0.2-2.6-0.6-3
		c-0.4-0.5-1.5-1.3-3.2-2.4c-1.7-1.1-2.8-2-3.4-2.5c-0.6-0.5-1-1.2-1.4-2.1c-0.4-0.9-0.5-2.1-0.5-3.5c0-2,0.3-3.5,0.8-4.4
		c0.5-0.9,1.3-1.7,2.5-2.2c1.2-0.5,2.5-0.8,4.2-0.8c1.8,0,3.3,0.3,4.6,0.9c1.3,0.6,2.1,1.3,2.5,2.2c0.4,0.9,0.6,2.4,0.6,4.5V29.7z"
		/>
	<path class="st1" d="M73.8,21.7l3.9,26.4h-7l-0.4-4.7h-2.5l-0.4,4.7h-7.1l3.5-26.4H73.8z M70.2,38.7c-0.3-3-0.7-6.7-1-11.1
		c-0.7,5.1-1.1,8.7-1.3,11.1H70.2z"/>
	<path class="st1" d="M94.8,21.7v26.4h-6l-3.6-12v12h-5.7V21.7h5.7l3.8,11.9V21.7H94.8z"/>
	<path class="st1" d="M111.8,21.7V27h-4.1v21.1h-6.9V27h-4.1v-5.3H111.8z"/>
	<path class="st1" d="M125,21.7l3.9,26.4h-7l-0.4-4.7h-2.5l-0.4,4.7h-7.1l3.5-26.4H125z M121.3,38.7c-0.3-3-0.7-6.7-1-11.1
		c-0.7,5.1-1.1,8.7-1.3,11.1H121.3z"/>
	<path class="st1" d="M146,21.7v26.4h-6l-3.6-12v12h-5.7V21.7h5.7l3.8,11.9V21.7H146z"/>
	<path class="st1" d="M148.6,21.7h5.1c3.3,0,5.6,0.2,6.7,0.5c1.2,0.3,2.1,0.8,2.7,1.5c0.6,0.7,1,1.5,1.1,2.3c0.2,0.9,0.2,2.5,0.2,5
		v9.2c0,2.4-0.1,3.9-0.3,4.8c-0.2,0.8-0.6,1.4-1.2,1.9c-0.6,0.5-1.2,0.8-2.1,0.9c-0.8,0.2-2,0.3-3.7,0.3h-8.7V21.7z M155.5,26.2
		v17.4c1,0,1.6-0.2,1.8-0.6c0.2-0.4,0.3-1.5,0.3-3.2V29.5c0-1.2,0-2-0.1-2.3c-0.1-0.3-0.2-0.6-0.5-0.7
		C156.7,26.3,156.2,26.2,155.5,26.2z"/>
	<path class="st1" d="M167,21.7h11.4V27h-4.6v5h4.3v5h-4.3v5.8h5v5.3H167V21.7z"/>
	<path class="st1" d="M181.1,21.7h4.9c3.2,0,5.4,0.1,6.6,0.4c1.1,0.2,2.1,0.9,2.8,1.9c0.7,1,1.1,2.7,1.1,4.9c0,2.1-0.3,3.4-0.8,4.1
		s-1.5,1.1-3,1.3c1.4,0.3,2.3,0.8,2.7,1.4c0.5,0.6,0.8,1.1,0.9,1.6c0.1,0.5,0.2,1.8,0.2,3.9v7H190v-8.8c0-1.4-0.1-2.3-0.3-2.6
		c-0.2-0.3-0.8-0.5-1.8-0.5v11.9h-6.9V21.7z M187.9,26.2v5.9c0.8,0,1.3-0.1,1.6-0.3c0.3-0.2,0.5-0.9,0.5-2.1v-1.5
		c0-0.8-0.1-1.4-0.4-1.6C189.3,26.4,188.7,26.2,187.9,26.2z"/>
</g>
</svg>
