<?xml version="1.0" encoding="utf-8"?>
<!-- Generator: Adobe Illustrator 19.1.0, SVG Export Plug-In . SVG Version: 6.00 Build 0)  -->
<svg version="1.1" id="Layer_1" xmlns="http://www.w3.org/2000/svg" xmlns:xlink="http://www.w3.org/1999/xlink" x="0px" y="0px"
	 viewBox="-326.9 272.4 63.7 57.3" style="enable-background:new -326.9 272.4 63.7 57.3;" xml:space="preserve">
<g>
	<path d="M-324.6,329.6c-1.2,0-2.2-1-2.2-2.2s1-2.2,2.2-2.2h16.8c1.2,0,2.2,1,2.2,2.2s-1,2.2-2.2,2.2H-324.6z"/>
	<path d="M-324.6,320.8c-1.2,0-2.2-1-2.2-2.2c0-1.2,1-2.2,2.2-2.2h16.8c1.2,0,2.2,1,2.2,2.2c0,1.2-1,2.2-2.2,2.2H-324.6z"/>
	<path d="M-324.6,312c-1.2,0-2.2-1-2.2-2.2c0-1.2,1-2.2,2.2-2.2h16.8c1.2,0,2.2,1,2.2,2.2c0,1.2-1,2.2-2.2,2.2H-324.6z"/>
	<path d="M-324.6,294.4c-1.2,0-2.2-1-2.2-2.2c0-1.2,1-2.2,2.2-2.2h16.8c1.2,0,2.2,1,2.2,2.2c0,1.2-1,2.2-2.2,2.2H-324.6z"/>
	<path d="M-324.6,285.6c-1.2,0-2.2-1-2.2-2.2c0-1.2,1-2.2,2.2-2.2h16.8c1.2,0,2.2,1,2.2,2.2c0,1.2-1,2.2-2.2,2.2H-324.6z"/>
	<path d="M-324.6,276.8c-1.2,0-2.2-1-2.2-2.2c0-1.2,1-2.2,2.2-2.2h16.8c1.2,0,2.2,1,2.2,2.2c0,1.2-1,2.2-2.2,2.2H-324.6z"/>
	<path d="M-282.1,329.6c-1.2,0-2.2-1-2.2-2.2s1-2.2,2.2-2.2h16.8c1.2,0,2.2,1,2.2,2.2s-1,2.2-2.2,2.2H-282.1z"/>
	<path d="M-282.1,320.8c-1.2,0-2.2-1-2.2-2.2c0-1.2,1-2.2,2.2-2.2h16.8c1.2,0,2.2,1,2.2,2.2c0,1.2-1,2.2-2.2,2.2H-282.1z"/>
	<path d="M-282.1,312c-1.2,0-2.2-1-2.2-2.2c0-1.2,1-2.2,2.2-2.2h16.8c1.2,0,2.2,1,2.2,2.2c0,1.2-1,2.2-2.2,2.2H-282.1z"/>
	<path d="M-324.6,303.2c-1.2,0-2.2-1-2.2-2.2c0-1.2,1-2.2,2.2-2.2h59.3c1.2,0,2.2,1,2.2,2.2c0,1.2-1,2.2-2.2,2.2H-324.6z"/>
	<path d="M-282.1,294.4c-1.2,0-2.2-1-2.2-2.2c0-1.2,1-2.2,2.2-2.2h16.8c1.2,0,2.2,1,2.2,2.2c0,1.2-1,2.2-2.2,2.2H-282.1z"/>
	<path d="M-282.1,285.6c-1.2,0-2.2-1-2.2-2.2c0-1.2,1-2.2,2.2-2.2h16.8c1.2,0,2.2,1,2.2,2.2c0,1.2-1,2.2-2.2,2.2H-282.1z"/>
	<path d="M-282.1,276.8c-1.2,0-2.2-1-2.2-2.2c0-1.2,1-2.2,2.2-2.2h16.8c1.2,0,2.2,1,2.2,2.2c0,1.2-1,2.2-2.2,2.2H-282.1z"/>
</g>
</svg>
