<?xml version="1.0" encoding="utf-8"?>
<!-- Generator: Adobe Illustrator 18.1.1, SVG Export Plug-In . SVG Version: 6.00 Build 0)  -->
<svg version="1.1" id="CLEAR_SPACE_LOGO" xmlns="http://www.w3.org/2000/svg" xmlns:xlink="http://www.w3.org/1999/xlink" x="0px"
	 y="0px" viewBox="0 0 94 84" enable-background="new 0 0 94 84" xml:space="preserve">
<rect x="0" y="0" fill="#FFFFFF" width="94" height="84"/>
<g id="XMLID_65_">
	<path id="XMLID_72_" fill="#808080" d="M22.2,7.8c0-0.3,0.3-0.6,0.6-0.6H71c0.3,0,0.6,0.3,0.6,0.6v16.9c0,0.3-0.3,0.6-0.6,0.6H22.8
		c-0.3,0-0.6-0.3-0.6-0.6V7.8z M69.6,43.8c0,0.3-0.3,0.6-0.6,0.6H58.3c-0.3,0-0.6-0.3-0.6-0.6V33.1c0-0.3,0.3-0.6,0.6-0.6H69
		c0.3,0,0.6,0.3,0.6,0.6V43.8z M69.6,65.2v1.2V68v1.2v7.9c0,0.3-0.3,0.6-0.6,0.6H58.3c-0.3,0-0.6-0.3-0.6-0.6v-7.9V68v-1.6v-1.2
		V49.8c0-0.3,0.3-0.6,0.6-0.6H69c0.3,0,0.6,0.3,0.6,0.6V65.2z M52.3,43.8c0,0.3-0.3,0.6-0.6,0.6H41c-0.3,0-0.6-0.3-0.6-0.6V33.1
		c0-0.3,0.3-0.6,0.6-0.6h10.7c0.3,0,0.6,0.3,0.6,0.6V43.8z M52.3,60.6c0,0.3-0.3,0.6-0.6,0.6H41c-0.3,0-0.6-0.3-0.6-0.6V49.8
		c0-0.3,0.3-0.6,0.6-0.6h10.7c0.3,0,0.6,0.3,0.6,0.6V60.6z M52.3,77.1c0,0.3-0.3,0.6-0.6,0.6H41c-0.3,0-0.6-0.3-0.6-0.6V66.4
		c0-0.3,0.3-0.6,0.6-0.6h10.7c0.3,0,0.6,0.3,0.6,0.6V77.1z M35,43.8c0,0.3-0.3,0.6-0.6,0.6H23.7c-0.3,0-0.6-0.3-0.6-0.6V33.1
		c0-0.3,0.3-0.6,0.6-0.6h10.7c0.3,0,0.6,0.3,0.6,0.6V43.8z M35,60.6c0,0.3-0.3,0.6-0.6,0.6H23.7c-0.3,0-0.6-0.3-0.6-0.6V49.8
		c0-0.3,0.3-0.6,0.6-0.6h10.7c0.3,0,0.6,0.3,0.6,0.6V60.6z M35,77.1c0,0.3-0.3,0.6-0.6,0.6H23.7c-0.3,0-0.6-0.3-0.6-0.6V66.4
		c0-0.3,0.3-0.6,0.6-0.6h10.7c0.3,0,0.6,0.3,0.6,0.6V77.1z M17.5,84h59.1c0.8,0,1.5-0.7,1.5-1.5v-81C78,0.7,77.4,0,76.5,0H17.5
		C16.6,0,16,0.7,16,1.5v81C16,83.3,16.6,84,17.5,84"/>
</g>
</svg>
