<?xml version="1.0" encoding="utf-8"?>
<!-- Generator: Adobe Illustrator 18.1.1, SVG Export Plug-In . SVG Version: 6.00 Build 0)  -->
<svg version="1.1" id="CLEAR_SPACE_LOGO" xmlns="http://www.w3.org/2000/svg" xmlns:xlink="http://www.w3.org/1999/xlink" x="0px"
	 y="0px" viewBox="0 0 94 84" enable-background="new 0 0 94 84" xml:space="preserve">
<rect x="0" y="0" fill="#FFFFFF" width="94" height="84"/>
<g id="XMLID_80_">
	<path id="XMLID_81_" fill="#808080" d="M50.3,43.7c0,1-0.9,1.8-1.9,1.8h-3.5c-1,0-1.9-0.8-1.9-1.8l-1.1-27.4c0-1,0.8-1.8,1.8-1.8h6
		c1,0,1.8,0.8,1.8,1.8L50.3,43.7z M51.1,56.6c0,1-0.8,1.8-1.8,1.8h-5.2c-1,0-1.8-0.8-1.8-1.8v-5.2c0-1,0.8-1.8,1.8-1.8h5.2
		c1,0,1.8,0.8,1.8,1.8V56.6z M92.9,38C92.9,19,72.4,3.5,47,3.5C21.6,3.5,1.1,19,1.1,38c0,19.1,20.6,34.5,45.9,34.5
		c3.6,0,7.2-0.3,10.6-0.9c2.7,3.8,8.9,10.7,16.7,8.4c0.9-0.3,0.7-1.4,0.4-2c-1-1.7-2.6-5.2-1.9-9c0.1-0.1,0.1-0.2,0.2-0.5
		c0.6-2.4,2.2-3.2,2.2-3.2l0,0C85.9,59,92.9,49.1,92.9,38"/>
</g>
</svg>
