<?xml version="1.0" encoding="utf-8"?>
<!-- Generator: Adobe Illustrator 18.1.1, SVG Export Plug-In . SVG Version: 6.00 Build 0)  -->
<svg version="1.1" id="CLEAR_SPACE_LOGO" xmlns="http://www.w3.org/2000/svg" xmlns:xlink="http://www.w3.org/1999/xlink" x="0px"
	 y="0px" viewBox="0 0 94 84" enable-background="new 0 0 94 84" xml:space="preserve">
<rect x="0" y="0" fill="#FFFFFF" width="94" height="84"/>
<g id="XMLID_67_">
	<path id="XMLID_89_" fill="#808080" d="M68.5,0H25.5c-1.3,0-2.4,1.1-2.4,2.4v79.3c0,1.3,1,2.4,2.4,2.4h42.9c1.3,0,2.4-1.1,2.4-2.4
		V2.4C70.8,1.1,69.8,0,68.5,0 M39.8,4H54c0.8,0,1.4,1,1.4,1.7S54.8,7.4,54,7.4H39.8c-0.8,0-1.4-1-1.4-1.7S39.1,4,39.8,4 M47,79.2
		c-1.9,0-3.5-1.6-3.5-3.5c0-1.9,1.6-3.5,3.5-3.5c1.9,0,3.5,1.6,3.5,3.5C50.6,77.6,49,79.2,47,79.2 M66.9,65.2c0,1.3-1.1,2.4-2.4,2.4
		h-35c-1.3,0-2.4-1.1-2.4-2.4V14.2c0-1.3,1.1-2.4,2.4-2.4h35c1.3,0,2.4,1.1,2.4,2.4V65.2z"/>
</g>
</svg>
