<?xml version="1.0" encoding="utf-8"?>
<!-- Generator: Adobe Illustrator 18.1.1, SVG Export Plug-In . SVG Version: 6.00 Build 0)  -->
<svg version="1.1" id="CLEAR_SPACE_LOGO" xmlns="http://www.w3.org/2000/svg" xmlns:xlink="http://www.w3.org/1999/xlink" x="0px"
	 y="0px" viewBox="0 0 612 546.9" enable-background="new 0 0 612 546.9" xml:space="preserve">
<rect x="0" y="0" fill="#FFFFFF" width="612" height="546.9"/>
<g id="XMLID_88_">
	<path id="XMLID_90_" fill="#808080" d="M306,240.9c-35.2,0-63.8-28.6-63.8-63.8c0-35.2,28.6-63.8,63.8-63.8
		c35.2,0,63.8,28.6,63.8,63.8C369.2,212.2,340.5,240.9,306,240.9 M306,32.6c-80.1,0-144.5,64.5-144.5,144.5
		c0,26.7,7.2,52.1,20.2,73.6l123.7,263.7l122.4-260.4c14.3-22.1,22.1-48.8,22.1-76.8C450.5,97,385.4,32.6,306,32.6"/>
</g>
</svg>
