<?xml version="1.0" encoding="utf-8"?>
<!-- Generator: Adobe Illustrator 18.1.1, SVG Export Plug-In . SVG Version: 6.00 Build 0)  -->
<svg version="1.1" id="CLEAR_SPACE_LOGO" xmlns="http://www.w3.org/2000/svg" xmlns:xlink="http://www.w3.org/1999/xlink" x="0px"
	 y="0px" viewBox="0 156.8 612.3 500.7" enable-background="new 0 156.8 612.3 500.7" xml:space="preserve">
<g>
	<g>
		<g>
			<g>
				<g>
					<defs>
						<polyline id="SVGID_1_" points="612,656.8 0,656.8 0,156.8 612,156.8 612,656.8 						"/>
					</defs>
					<clipPath id="SVGID_2_">
						<use xlink:href="#SVGID_1_"  overflow="visible"/>
					</clipPath>
					<path clip-path="url(#SVGID_2_)" fill="#E6E6E6" d="M429.3,435.2c-51.1,0-93-43.4-93-97.2c0-53.4,41.5-97.2,93-97.2
						c51.1,0,93,43.4,93,97.2C522,391.4,480.4,435.2,429.3,435.2 M612,156.8H159.9l17.8,20.3L65,305.6L0,226.4l17.1-19.6l44.5,35.5
						l98.3-84.8H0v500h612H238.4c0-107.5,47.5-194.7,133.5-194.7h106.5c86.1,0,133.5,87.2,133.5,194.7L612,156.8"/>
				</g>
			</g>
		</g>
		<g>
			<g>
				<g>
					<defs>
						<polyline id="SVGID_3_" points="612,656.8 0,656.8 0,156.8 612,156.8 612,656.8 						"/>
					</defs>
					<clipPath id="SVGID_4_">
						<use xlink:href="#SVGID_3_"  overflow="visible"/>
					</clipPath>
					<path clip-path="url(#SVGID_4_)" fill="#999999" d="M429.3,240.5c-51.1,0-93,43.4-93,97.2c0,53.4,41.5,97.2,93,97.2
						c51.1,0,93-43.4,93-97.2C522,284.3,480.4,240.5,429.3,240.5"/>
				</g>
			</g>
		</g>
		<g>
			<g>
				<g>
					<defs>
						<polyline id="SVGID_5_" points="612,656.8 0,656.8 0,156.8 612,156.8 612,656.8 						"/>
					</defs>
					<clipPath id="SVGID_6_">
						<use xlink:href="#SVGID_5_"  overflow="visible"/>
					</clipPath>
					<path clip-path="url(#SVGID_6_)" fill="#999999" d="M478.5,462.8H371.9c-86.1,0-133.5,87.2-133.5,194.7h373.9
						C612,549.3,564.5,462.8,478.5,462.8"/>
				</g>
			</g>
		</g>
		<g>
			<g>
				<g>
					<defs>
						<polyline id="SVGID_7_" points="612,656.8 0,656.8 0,156.8 612,156.8 612,656.8 						"/>
					</defs>
					<clipPath id="SVGID_8_">
						<use xlink:href="#SVGID_7_"  overflow="visible"/>
					</clipPath>
					<polyline clip-path="url(#SVGID_8_)" fill="#00B100" points="159.9,156.8 159.9,156.8 62,241.5 17.1,206.7 0,226.4 65,305.6 
						177.7,177.1 159.9,156.8 					"/>
				</g>
			</g>
		</g>
	</g>
</g>
<g>
	<g>
		<g>
			<g>
				<defs>
					<polyline id="SVGID_9_" points="612,656.8 0,656.8 0,156.8 612,156.8 612,656.8 					"/>
				</defs>
				<clipPath id="SVGID_10_">
					<use xlink:href="#SVGID_9_"  overflow="visible"/>
				</clipPath>
				<path clip-path="url(#SVGID_10_)" fill="#E6E6E6" d="M468,481.3H353.4c-21.4,0-39.3,5.1-55,14.1c-15.6,9-28.3,21.9-38.8,37.7
					c-20.2,29.8-31.2,70.3-33,111.4h369.1c-1.7-30.4-8.1-60.7-19.1-86.1c-12.1-27-29.5-49.5-53.2-63
					C507.3,486.4,489.4,481.3,468,481.3L468,481.3 M0,174.2v95.1c0-1.7,0.6-3.4,2.9-5.6l43.4-42.2L2.9,179.3
					C0.6,177.6,0,175.9,0,174.2 M468,470L468,470c23.1,0,43.4,5.6,60.7,15.7c17.4,10.1,31.2,24.2,42.8,41.1
					c22.6,33.7,33.6,78.2,35.3,123.2v5.6H214V650c1.2-33.7,7.5-66.9,20.2-96.2c12.7-28.7,31.8-53.4,57.8-68.1
					c17.4-10.1,37.6-15.7,60.7-15.7L468,470 M415.3,433.5c-52.6,0-95.4-41.6-95.4-92.8s42.8-92.8,95.4-92.8s95.4,41.6,95.4,92.8
					C510.8,392.4,468,433.5,415.3,433.5L415.3,433.5v-11.2c23.1,0,44-9,59-23.6s24.3-34.9,24.3-57.4s-9.3-42.7-24.3-57.4
					c-15-14.6-35.9-23.6-59-23.6s-44,9-59,23.6S332,318.8,332,341.3s9.3,42.7,24.3,57.4c15,14.6,35.9,23.6,59,23.6V433.5 M612,156.8
					H0v17.4c0-3.4,2.9-6.7,6.9-10.7c3.5-3.9,6.9-6.7,11-6.7c1.7,0,3.5,0.6,5.8,2.8l43.4,42.2l42.8-42.2c1.7-1.7,4-2.8,5.8-2.8
					c3.5,0,6.9,2.8,11,6.7c5.8,5.6,9.8,10.7,4,15.7l-43.4,42.2l43.4,42.2c5.8,5.6,1.7,10.7-4,15.7c-3.5,3.9-7.5,6.7-11,6.7
					c-1.7,0-3.5-0.6-5.8-2.8L66.5,241l-43.4,42.2c-1.7,1.7-4,2.8-5.8,2.8c-3.5,0-6.9-2.8-11-6.7C2.9,276,0,272.6,0,268.7v388.1h612
					V156.8"/>
			</g>
		</g>
		<g>
			<g>
				<defs>
					<polyline id="SVGID_11_" points="612,656.8 0,656.8 0,156.8 612,156.8 612,656.8 					"/>
				</defs>
				<clipPath id="SVGID_12_">
					<use xlink:href="#SVGID_11_"  overflow="visible"/>
				</clipPath>
				<path clip-path="url(#SVGID_12_)" fill="#999999" d="M415.3,248.4c-52.6,0-95.4,41.6-95.4,92.8s42.8,92.8,95.4,92.8v-11.2
					c-23.1,0-44-9-59-23.6S332,364.3,332,341.8s9.3-42.7,24.3-57.4s35.9-23.6,59-23.6s44,9,59,23.6s24.3,34.9,24.3,57.4
					s-9.3,42.7-24.3,57.4c-15,14.6-35.9,23.6-59,23.6V434l0,0c52.6,0,95.4-41.6,95.4-92.8S468,248.4,415.3,248.4"/>
			</g>
		</g>
		<g>
			<g>
				<defs>
					<polyline id="SVGID_13_" points="612,656.8 0,656.8 0,156.8 612,156.8 612,656.8 					"/>
				</defs>
				<clipPath id="SVGID_14_">
					<use xlink:href="#SVGID_13_"  overflow="visible"/>
				</clipPath>
				<path clip-path="url(#SVGID_14_)" fill="#999999" d="M226.2,644.4c2.3-41.6,13.3-81.6,33-111.4c10.4-15.7,23.7-28.7,38.8-37.7
					c15.6-9,33.6-14.1,55-14.1h114.5c21.4,0,39.3,5.1,55,14.1c23.1,13.5,41.1,35.4,53.2,63c11.6,25.9,17.9,55.7,19.1,86.1
					L226.2,644.4 M468,470L468,470L468,470H353.4c-23.1,0-43.4,5.6-60.7,15.7c-26,15.2-45.1,39.4-57.8,68.1s-19.1,62.4-20.2,96.2
					v5.6h392.8V650c-1.7-45-12.7-89.4-35.3-123.2c-11.6-16.9-25.5-30.9-42.8-41.1C511.3,475.7,491.1,470,468,470"/>
			</g>
		</g>
		<g>
			<g>
				<defs>
					<polyline id="SVGID_15_" points="612,656.8 0,656.8 0,156.8 612,156.8 612,656.8 					"/>
				</defs>
				<clipPath id="SVGID_16_">
					<use xlink:href="#SVGID_15_"  overflow="visible"/>
				</clipPath>
				<path clip-path="url(#SVGID_16_)" fill="#EC0000" d="M115.1,156.8c-1.7,0-3.5,0.6-5.8,2.8l-43.4,42.2l-42.8-42.2
					c-1.7-2.2-3.5-2.8-5.2-2.8c-4,0-7.5,2.8-11,6.7c-4,3.4-6.9,6.7-6.9,10.7l0,0c0,1.7,0.6,3.4,2.9,5.6L46.3,222L2.9,263.6
					C1.2,265.3,0,267,0,269.3l0,0c0,3.4,2.9,6.7,6.9,10.7c3.5,3.4,6.9,6.2,11,6.2c1.7,0,3.5-0.6,5.8-2.8l43.4-42.2l43.4,42.2
					c1.7,1.7,4,2.8,5.8,2.8c3.5,0,6.9-2.8,11-6.7c5.8-5.6,9.8-10.7,4-15.7l-43.4-42.2l42.2-42.2c5.8-5.6,1.7-10.7-4-15.7
					C122.6,159.6,119.2,156.8,115.1,156.8"/>
			</g>
		</g>
	</g>
</g>
</svg>
