<?xml version="1.0" encoding="utf-8"?>
<!-- Generator: Adobe Illustrator 18.1.1, SVG Export Plug-In . SVG Version: 6.00 Build 0)  -->
<svg version="1.1" id="CLEAR_SPACE_LOGO" xmlns="http://www.w3.org/2000/svg" xmlns:xlink="http://www.w3.org/1999/xlink" x="0px"
	 y="0px" viewBox="0 148.2 612 490" enable-background="new 0 148.2 612 490" xml:space="preserve">
<g>
	<g>
		<g>
			<defs>
				<polyline id="SVGID_1_" points="612,638.2 0,638.2 0,148.2 612,148.2 612,638.2 				"/>
			</defs>
			<clipPath id="SVGID_2_">
				<use xlink:href="#SVGID_1_"  overflow="visible"/>
			</clipPath>
			<path clip-path="url(#SVGID_2_)" fill="#E6E6E6" d="M433.8,545.9H246.6v28.9h187.2V545.9 M433.8,477.8H246.6v29.4h187.2V477.8
				 M411.1,409.8H246.6v28.9h187.2v-20C425.8,416.3,418.2,413.5,411.1,409.8 M345.1,342.2h-98.5v28.9h116.5
				C355.5,362.2,349.8,352.4,345.1,342.2 M472.4,157.6c-59.4,0-109.9,39.6-125.4,93.7h159.4v159c55.2-14.9,96.2-64.8,96.2-124
				C602.6,215.4,544.6,157.6,472.4,157.6 M54.2,186.9l35.4-35c1.4-1.4,3.3-2.3,4.7-2.3c2.8,0,5.7,2.3,9,5.6c4.7,4.7,8,8.9,3.3,13.1
				l-35.4,35l35.4,35c4.7,4.7,1.4,8.9-3.3,13.1c-2.8,3.3-6.1,5.6-9,5.6c-1.4,0-2.8-0.5-4.7-2.3l-35.4-35L18.9,255
				c-1.4,1.4-3.3,2.3-4.7,2.3c-2.8,0-5.7-2.3-9-5.6c-4.7-4.7-8-8.9-3.3-13.1l35.4-35l-34.9-35c-4.7-4.7-1.4-8.9,3.3-13.1
				c3.3-3.3,6.1-5.6,9-5.6c1.4,0,2.8,0.5,4.7,2.3L54.2,186.9 M450.7,150.1H0v488.1h612v-352c0,64.3-44.8,118.9-105.6,133.8l0,0
				c-10.8,2.8-22.2,4.2-33.9,4.2c-0.9,0-1.9,0-3.3,0v213.5H210.8V277.8h122.6C337.6,212.6,386.6,159.9,450.7,150.1 M612,150.1H494.6
				C561.1,160.4,612,217.7,612,286.2V150.1"/>
		</g>
		<g>
			<defs>
				<polyline id="SVGID_3_" points="612,638.2 0,638.2 0,148.2 612,148.2 612,638.2 				"/>
			</defs>
			<clipPath id="SVGID_4_">
				<use xlink:href="#SVGID_3_"  overflow="visible"/>
			</clipPath>
			<path clip-path="url(#SVGID_4_)" fill="#999999" d="M246.6,575.3v-28.9h187.2v28.9H246.6 M246.6,507.2v-28.9h187.2v28.9H246.6
				 M333.3,277.8H210.8v359.9h258.9V424.2c-12.3-0.5-24.5-2.3-35.8-5.6v20.5H246.6v-28.9h164.6c-18.9-9.3-35.4-22.4-48.6-38.7h-116
				v-28.9h98.5c-7.5-17.3-11.8-35.9-11.8-55.9l0,0l0,0C333.3,283.4,333.3,280.6,333.3,277.8"/>
		</g>
		<g>
			<defs>
				<polyline id="SVGID_5_" points="612,638.2 0,638.2 0,148.2 612,148.2 612,638.2 				"/>
			</defs>
			<clipPath id="SVGID_6_">
				<use xlink:href="#SVGID_5_"  overflow="visible"/>
			</clipPath>
			<g clip-path="url(#SVGID_6_)">
				<g>
					<defs>
						<polyline id="SVGID_7_" points="506.9,251.3 321.6,251.3 321.6,434.5 506.9,434.5 506.9,251.3 						"/>
					</defs>
					<clipPath id="SVGID_8_">
						<use xlink:href="#SVGID_7_"  overflow="visible"/>
					</clipPath>
					<path clip-path="url(#SVGID_8_)" fill="#999999" d="M506.9,251.3H347.5c-3.3,11.2-4.7,22.8-4.7,35
						c0,70.9,58.5,128.7,130.1,128.7c11.8,0,23.1-1.4,33.9-4.7L506.9,251.3"/>
				</g>
				<g>
					<defs>
						<polyline id="SVGID_9_" points="612,638.2 0,638.2 0,148.2 612,148.2 612,638.2 						"/>
					</defs>
					<clipPath id="SVGID_10_">
						<use xlink:href="#SVGID_9_"  overflow="visible"/>
					</clipPath>
					<path clip-path="url(#SVGID_10_)" fill="#1BB3BC" d="M347.5,251.3c15.1-54.1,65.5-93.7,124.9-93.7
						c71.7,0,130.1,57.8,130.1,128.7c0,59.2-40.5,109.1-96.2,124c-10.8,2.8-22.2,4.7-33.9,4.7c-71.7,0-130.1-57.8-130.1-128.7
						C342.8,274.1,344.2,262.5,347.5,251.3 M472.4,148.2L472.4,148.2c-7.5,0-14.6,0.5-22.2,1.9c-63.7,9.8-112.7,62.5-116.9,127.7
						c0,2.8-0.5,5.6-0.5,8.4l0,0c0,76,62.2,138,139.6,138c11.8,0,23.1-1.4,33.9-4.2C566.7,405.1,612,350.6,612,286.2l0,0
						c0-69-50.9-125.9-117.4-136.1C487.5,148.7,480,148.2,472.4,148.2"/>
				</g>
				<g>
					<defs>
						<polyline id="SVGID_11_" points="612,638.2 0,638.2 0,148.2 612,148.2 612,638.2 						"/>
					</defs>
					<clipPath id="SVGID_12_">
						<use xlink:href="#SVGID_11_"  overflow="visible"/>
					</clipPath>
					<path clip-path="url(#SVGID_12_)" fill="#EC0000" d="M93.8,150.1c-1.4,0-2.8,0.5-4.7,2.3l-35.4,35L18.9,152
						c-1.4-1.4-3.3-2.3-4.7-2.3c-2.8,0-5.7,2.3-9,5.6c-4.7,4.7-8,8.9-3.3,13.1l35.4,35l-35.4,35c-4.7,4.7-1.4,8.9,3.3,13.1
						c3.3,3.3,6.1,5.6,9,5.6c1.4,0,2.8-0.5,4.7-2.3l35.4-35l35.4,35c1.4,1.4,3.3,2.3,4.7,2.3c2.8,0,5.7-2.3,9-5.6
						c4.7-4.7,8-8.9,3.3-13.1l-35.4-35l35.4-35c4.7-4.7,1.4-8.9-3.3-13.1C100,152.4,97.1,150.1,93.8,150.1"/>
				</g>
			</g>
		</g>
	</g>
</g>
</svg>
