<?xml version="1.0" encoding="utf-8"?>
<!-- Generator: Adobe Illustrator 19.1.0, SVG Export Plug-In . SVG Version: 6.00 Build 0)  -->
<svg version="1.1" id="Layer_1" xmlns="http://www.w3.org/2000/svg" xmlns:xlink="http://www.w3.org/1999/xlink" x="0px" y="0px"
	 viewBox="0 0 375 75.4" style="enable-background:new 0 0 375 75.4;" xml:space="preserve">
<style type="text/css">
	.st0{fill:#999999;}
	.st1{fill:#FFFFFF;}
	.st2{font-family:'OpenSans';}
	.st3{font-size:18px;}
	.st4{fill:#EC0000;}
	.st5{fill:#1BB3BC;}
	.st6{fill:none;stroke:#1BB3BC;stroke-miterlimit:10;stroke-dasharray:4,2;}
	.st7{fill:#666666;}
	.st8{fill:none;stroke:#666666;}
</style>
<g>
	<circle class="st0" cx="37.7" cy="37.7" r="37.7"/>
	<text transform="matrix(1 0 0 1 17.2155 43.9466)" class="st1 st2 st3">Logo</text>
</g>
<g>
	<polygon class="st4" points="133.6,8.1 334.3,8.1 334.3,66.5 133.6,66.5 133.6,8.1 	"/>
	<path class="st1" d="M165.2,19.4c0,3.8,6.5,8.1,6.5,12.4c0,0,0,0.4-0.2,0.9c6.1,1.3,10.4,4.2,10.4,7.7c0,4.7-7.7,8.6-17.2,8.6
		c-0.1,0-0.1,0-0.2,0c-9.4,0-17.1-3.7-17.1-8.4c0-3.5,4.7-6.3,10.3-7.8c0,1.9,6.4,8,6.6,10.5c0,0,0,0.2,0,0.5c0,0.1,0,0.2,0,0.4
		c1.4-0.7,1.4-3,1.4-3c0-5.4-6.2-7.7-6.2-13c0-2,1-3.6,1.8-4v1.5c0,3.8,6.8,8.1,6.8,11.6v1.1c1.6-0.6,1.6-3.5,1.6-3.5
		c0-4.8-6.3-7.5-6.3-13c0-2.1,1-3.6,1.8-4V19.4L165.2,19.4z"/>
	<path class="st1" d="M195.6,47.5c-3.3,0-5.7-0.9-5.7-0.9v-5.7h0.8c0.4,3,2.7,5.3,5.3,5.3c2.6,0,4.5-1.4,4.5-3.7
		c0-2.4-2.4-3.6-4.1-4.4l-2.4-1.2c-2.2-1.1-4-2.9-4-5.5c0-3.2,2.4-5.9,6.8-5.9c3.1,0,5.6,1,5.6,1v5.1h-0.8c-0.5-2.7-2-4.9-5.1-4.9
		c-2.3,0-3.6,1.6-3.6,3.2c0,2.1,1.4,3,3.1,3.9l2.4,1.2c2.1,1.1,4.8,2.9,4.8,6C203.3,44.9,200.6,47.5,195.6,47.5L195.6,47.5z"/>
	<path class="st1" d="M209.6,47.4c-2,0-3.4-1.4-3.4-3.4c0-1.4,1.1-2.6,3.4-3.4l4.1-1.5v-1.3c0-1.9-0.9-3.1-2.2-3.1
		c-0.9,0-1.8,0.5-2.3,1.2c-0.2,0.3-0.2,0.7-0.2,1c0,0.5,0.3,1.1,0.3,1.1l-2,0.9c-0.2-0.4-0.5-1.1-0.5-1.7c0-0.1,0-0.2,0-0.3
		c0.2-1.1,1.1-1.8,2.4-2.6c1.2-0.8,2.3-1,3-1c3.8,0,4.5,3,4.5,4v6.2c0,1,0.1,1.6,0.9,1.6c0.2,0,0.4,0,0.7-0.1l0.7-0.2v0.9l-4.2,1.6
		c-0.6-0.5-0.9-1.3-1.1-2C212.8,46.3,211,47.4,209.6,47.4L209.6,47.4z M210.8,41.3c-0.6,0.3-1.7,0.8-1.7,2.2c0,0.8,0.5,2,2,2
		c0.8,0,1.8-0.4,2.6-1v-4.5L210.8,41.3L210.8,41.3z"/>
	<path class="st1" d="M220,47.1v-0.7l1-0.2c0.6-0.1,1-0.6,1-1.2v-8c0-0.7-0.3-1.1-0.9-1.1c-0.2,0-0.5,0-0.7,0.1l-0.4,0.2v-0.9
		l4.3-1.9h0.6v2.2c1.3-1.5,2.9-2.2,4.3-2.2c3.1,0,4.6,2.2,4.6,4.8V45c0,0.6,0.5,1.1,1.1,1.2l1,0.2v0.7h-7.2v-0.7l1-0.2
		c0.6-0.1,1.1-0.6,1.1-1.2v-6.8c0-0.9-0.2-2.9-2.7-2.9c-1.3,0-2.4,0.8-3.1,1.4V45c0,0.6,0.5,1.1,1.1,1.2l1,0.2v0.7H220L220,47.1z"/>
	<path class="st1" d="M246.3,35.3H242v7.5c0,1.7,0.9,2.6,2.1,2.6c0.5,0,1.3-0.1,2.1-0.6l0.3,0.7l-2.7,1.7c0,0-0.5,0.1-0.8,0.1
		c-2.6,0-4-1.5-4-4.8v-7.2h-2.2v-0.8c0,0,3.3-1.3,4.6-4.4h0.6V34h4.8L246.3,35.3L246.3,35.3z"/>
	<path class="st1" d="M251.3,47.4c-2,0-3.4-1.4-3.4-3.4c0-1.4,1.1-2.6,3.4-3.4l4.1-1.5v-1.3c0-1.9-0.9-3.1-2.2-3.1
		c-0.9,0-1.8,0.5-2.3,1.2c-0.2,0.3-0.2,0.7-0.2,1c0,0.5,0.3,1.1,0.3,1.1l-2,0.9c-0.2-0.4-0.5-1.1-0.5-1.7c0-0.1,0-0.2,0-0.3
		c0.1-1.1,1.1-1.8,2.3-2.6c1.2-0.8,2.3-1,3-1c3.8,0,4.5,3,4.5,4v6.2c0,1,0.1,1.6,0.9,1.6c0.2,0,0.4,0,0.7-0.1l0.7-0.2v0.9l-4.2,1.6
		c-0.6-0.5-0.9-1.3-1.1-2C254.5,46.3,252.8,47.4,251.3,47.4L251.3,47.4z M252.6,41.3c-0.6,0.3-1.7,0.8-1.7,2.2c0,0.8,0.5,2,2,2
		c0.8,0,1.8-0.4,2.6-1v-4.5L252.6,41.3L252.6,41.3z"/>
	<path class="st1" d="M261.7,47.1v-0.7l1-0.2c0.6-0.1,1-0.6,1-1.2v-8c0-0.7-0.3-1.1-0.9-1.1c-0.2,0-0.5,0-0.7,0.1l-0.4,0.2v-0.9
		l4.3-1.9h0.6v2.2c1.3-1.5,2.9-2.2,4.3-2.2c3.1,0,4.6,2.2,4.6,4.8V45c0,0.6,0.5,1.1,1.1,1.2l1,0.2v0.7h-7.2v-0.7l1-0.2
		c0.6-0.1,1.1-0.6,1.1-1.2v-6.8c0-0.9-0.2-2.9-2.7-2.9c-1.3,0-2.4,0.8-3.1,1.4V45c0,0.6,0.5,1.1,1.1,1.2l1,0.2v0.7H261.7L261.7,47.1
		z"/>
	<path class="st1" d="M285.2,47.4c-2.8,0-6.2-2.1-6.2-6.7c0-4,3.1-7.3,7.3-7.3c1.4,0,2.4,0.3,3.1,0.6v-6.9c0-0.7-0.4-0.9-0.9-0.9
		c-0.3,0-0.6,0.1-0.8,0.1l-0.6,0.2v-0.9l4.7-2h0.6v19.9c0,1.1,0.2,1.8,1,1.8c0.2,0,0.4,0,0.7-0.1l0.7-0.2v0.9l-4.2,1.6
		c-0.7-0.5-1-1.3-1.1-2C288.7,46.3,287.3,47.4,285.2,47.4L285.2,47.4z M286.6,34.7c-2.2,0-4.4,1.4-4.4,5.4c0,3.4,1.7,5.4,4.3,5.4
		c1.6,0,2.6-0.9,2.8-1.4v-7.8C289,35.3,287.9,34.7,286.6,34.7L286.6,34.7z"/>
	<path class="st1" d="M299.2,39.3v0.2c0,4,2.3,6,5.1,6c1.4,0,2.8-0.5,3.8-1.4v1.2c-1.2,1.1-3,2.1-5.3,2.1c-4.7,0-6.8-3.5-6.8-6.9
		c0-3.9,3-7.1,6.8-7.1c3.2,0,5.6,2.2,5.6,5.5v0.4H299.2L299.2,39.3z M305.4,38.1L305.4,38.1c0-2.3-1.3-3.4-2.8-3.4
		c-1.7,0-3,1.1-3.3,3.4H305.4L305.4,38.1z"/>
	<path class="st1" d="M310.3,47.1v-0.7l1-0.2c0.6-0.1,1-0.6,1-1.2v-8c0-0.7-0.3-1.1-0.9-1.1c-0.2,0-0.5,0-0.7,0.1l-0.4,0.2v-0.9
		l4.3-1.9h0.6v2.9c1.1-2.1,2.4-3,3.9-3c1.2,0,1.5,0.3,1.5,0.3v3.2H320c-0.2-0.8-0.7-1.3-1.6-1.3c-1,0-2.2,0.3-3,2V45
		c0,0.6,0.6,1.1,1.2,1.2l1.4,0.2v0.7H310.3L310.3,47.1z"/>
</g>
<rect x="336" y="8.1" class="st5" width="39" height="2"/>
<rect x="336" y="64.5" class="st5" width="39" height="2"/>
<g>
	
		<rect x="354" y="23.2" transform="matrix(0.7071 0.7071 -0.7071 0.7071 129.3746 -240.8215)" class="st5" width="2.7" height="25.2"/>
	
		<rect x="354" y="23.2" transform="matrix(-0.7071 0.7071 -0.7071 -0.7071 631.9643 -190.2518)" class="st5" width="2.7" height="25.2"/>
</g>
<line class="st6" x1="76.1" y1="66.5" x2="76.1" y2="8.2"/>
<line class="st6" x1="78.7" y1="8.8" x2="131.9" y2="8.8"/>
<line class="st6" x1="78.7" y1="65.9" x2="131.9" y2="65.9"/>
<g>
	
		<rect x="104.3" y="22.1" transform="matrix(0.7071 0.7071 -0.7071 0.7071 51.2825 -65.7681)" class="st7" width="1.5" height="13.8"/>
	
		<rect x="104.3" y="22.1" transform="matrix(-0.7071 0.7071 -0.7071 -0.7071 199.8179 -24.7284)" class="st7" width="1.5" height="13.8"/>
</g>
<line class="st8" x1="78.6" y1="37.8" x2="131.5" y2="37.8"/>
<polygon class="st7" points="128,35.9 133.4,37.9 128,39.8 "/>
<polygon class="st7" points="82.4,39.8 77.1,37.9 82.4,35.9 "/>
</svg>
