<svg id="Layer_1" data-name="Layer 1" xmlns="http://www.w3.org/2000/svg" viewBox="0 0 1920 40"><defs><style>.cls-1{fill:#fff;}</style></defs><title>homepage-footer-09-09</title><rect class="cls-1" width="1920" height="40"/><path d="M1510.79,19.53a3.81,3.81,0,1,1,3.81,3.84A3.82,3.82,0,0,1,1510.79,19.53Zm7.26,0a3.45,3.45,0,1,0-3.45,3.5A3.47,3.47,0,0,0,1518.05,19.53Zm-5.2-.08c0-1.23.67-2.18,1.73-2.18a1.53,1.53,0,0,1,1.54,1.34l-.36.09c-.21-.72-.54-1.08-1.18-1.08-.81,0-1.35.74-1.35,1.82s.53,1.88,1.36,1.88c.63,0,1-.38,1.23-1.13l.36.09a1.62,1.62,0,0,1-1.6,1.39C1513.52,21.67,1512.85,20.76,1512.85,19.45Z"/><path d="M1525.6,23.07c0-1.07.59-2,2.54-3.28,1.1-.7,1.55-1.26,1.55-2.07a1.49,1.49,0,0,0-1.64-1.59,2,2,0,0,0-1.88,1.35l-.41-.2a2.47,2.47,0,0,1,2.31-1.59,2,2,0,0,1,2.11,2c0,1-.55,1.68-2,2.58s-2.07,1.78-2.09,2.5h4.09v.46h-4.61Z"/><path d="M1533.37,19.53c0-2.31.94-3.84,2.63-3.84s2.62,1.53,2.62,3.84-.93,3.84-2.62,3.84S1533.37,21.84,1533.37,19.53Zm4.76,0c0-2.18-.85-3.4-2.13-3.4s-2.14,1.22-2.14,3.4.85,3.4,2.14,3.4S1538.13,21.71,1538.13,19.53Z"/><path d="M1541.87,22.77h1.41V16.4a3.43,3.43,0,0,1-1.39.34v-.43a2.22,2.22,0,0,0,1.43-.48h.45v6.94h1.28v.46h-3.18Z"/><path d="M1551.73,16.31h-3.87v-.48h4.4v.45l-3.19,7h-.52Z"/><path d="M1559.08,15.83h.51l1.24,4.75c.19.71.36,1.43.47,1.91h0c.1-.47.27-1.2.45-1.9l1.18-4.76h.58l1.19,4.8c.17.69.34,1.33.44,1.86h0c.13-.57.28-1.15.45-1.82l1.26-4.84h.49l-2,7.4h-.51l-1.66-6.71h0l-1.67,6.71h-.5Z"/><path d="M1569.85,22c0-1,.85-1.75,3.61-2.21v-.32a1.05,1.05,0,0,0-1.14-1.2,2.86,2.86,0,0,0-2,.87l-.28-.3a3.21,3.21,0,0,1,2.33-1,1.44,1.44,0,0,1,1.61,1.59v2.47a3.64,3.64,0,0,0,.15,1.3h-.51a2.56,2.56,0,0,1-.12-.78,3.22,3.22,0,0,1-2.13.87C1570.37,23.32,1569.85,22.82,1569.85,22Zm3.61,0V20.17c-2.56.45-3.13,1.08-3.13,1.82s.39.91,1,.91A3,3,0,0,0,1573.46,22Z"/><path d="M1577,23.91a1.34,1.34,0,0,1,1-1.23.68.68,0,0,1-.5-.68c0-.29.24-.54.61-.72a1.76,1.76,0,0,1-.78-1.51,1.91,1.91,0,0,1,2-1.9,2.08,2.08,0,0,1,1.45.54,3,3,0,0,1,1.19-.47v.52a2.41,2.41,0,0,0-1,.19,1.79,1.79,0,0,1,.36,1.12,1.88,1.88,0,0,1-2,1.87,2.4,2.4,0,0,1-.9-.17c-.28.11-.47.27-.47.49s.2.37.84.43l1.23.11c1.09.1,1.74.52,1.74,1.3s-1,1.43-2.33,1.43C1577.79,25.23,1577,24.73,1577,23.91Zm4.33-.07c0-.55-.45-.84-1.48-.93l-1.09-.09-.26,0c-.68.21-1,.62-1,1.08s.6,1,2,1C1580.62,24.83,1581.31,24.42,1581.31,23.84Zm-.43-4.07a1.41,1.41,0,0,0-1.55-1.49,1.48,1.48,0,1,0,1.55,1.49Z"/><path d="M1584.53,23.91a1.34,1.34,0,0,1,1-1.23.68.68,0,0,1-.5-.68c0-.29.24-.54.61-.72a1.76,1.76,0,0,1-.78-1.51,1.91,1.91,0,0,1,2-1.9,2.08,2.08,0,0,1,1.45.54,3,3,0,0,1,1.19-.47v.52a2.41,2.41,0,0,0-1,.19,1.79,1.79,0,0,1,.36,1.12,1.88,1.88,0,0,1-2,1.87,2.4,2.4,0,0,1-.9-.17c-.28.11-.47.27-.47.49s.2.37.84.43l1.23.11c1.09.1,1.74.52,1.74,1.3s-1,1.43-2.33,1.43C1585.34,25.23,1584.53,24.73,1584.53,23.91Zm4.33-.07c0-.55-.45-.84-1.48-.93l-1.09-.09-.26,0c-.68.21-1,.62-1,1.08s.6,1,2,1C1588.17,24.83,1588.86,24.42,1588.86,23.84Zm-.43-4.07a1.41,1.41,0,0,0-1.55-1.49,1.48,1.48,0,1,0,1.55,1.49Z"/><path d="M1592.16,20.6c0-1.82,1.11-2.73,2.23-2.73s2.08,1,2.08,2.69v.07h-3.83c0,1.43.79,2.29,1.76,2.29a1.81,1.81,0,0,0,1.69-1.09l.35.22a2.2,2.2,0,0,1-2.07,1.29C1593.19,23.34,1592.16,22.33,1592.16,20.6Zm3.81-.37c-.07-1.08-.58-1.94-1.59-1.94-.82,0-1.6.64-1.73,1.94Z"/><path d="M1599.85,18h.48v.87a3,3,0,0,1,2-1,1.41,1.41,0,0,1,1.59,1.55v3.81h-.48V19.48c0-.8-.35-1.19-1.15-1.19a2.9,2.9,0,0,0-2,1v3.94h-.48Z"/><path d="M1607.28,20.6c0-1.82,1.11-2.73,2.23-2.73s2.08,1,2.08,2.69v.07h-3.83c0,1.43.79,2.29,1.76,2.29a1.81,1.81,0,0,0,1.69-1.09l.35.22a2.2,2.2,0,0,1-2.07,1.29C1608.31,23.34,1607.28,22.33,1607.28,20.6Zm3.81-.37c-.07-1.08-.58-1.94-1.59-1.94-.82,0-1.6.64-1.73,1.94Z"/><path d="M1615,18h.48v1.1h0a2.43,2.43,0,0,1,2.16-1.21h.14l-.08.45h-.17a2.26,2.26,0,0,0-2.07,1.45v3.46H1615Z"/><path d="M1625.16,15.83h4.28v.46h-3.78v2.78h2.84v.46h-2.84v3.24h4v.46h-4.5Z"/><path d="M1632.39,20.61c0-1.84,1-2.74,2.22-2.74a2.45,2.45,0,0,1,1.77.88V15.83h.48v6.1a3.37,3.37,0,0,0,.16,1.3h-.52a2.92,2.92,0,0,1-.12-.79,2.42,2.42,0,0,1-1.79.88C1633.38,23.32,1632.39,22.45,1632.39,20.61Zm4,1.35V19.23a2.49,2.49,0,0,0-1.8-.94c-.92,0-1.71.7-1.71,2.31s.81,2.3,1.73,2.3A2.4,2.4,0,0,0,1636.38,22Z"/><path d="M1640.18,22.35l.35-.27a1.92,1.92,0,0,0,1.63.82c1,0,1.5-.4,1.5-1s-.38-.91-1.56-1.19-1.77-.68-1.77-1.49.6-1.31,1.73-1.31a2.42,2.42,0,0,1,1.86.77l-.32.33a2,2,0,0,0-1.55-.68c-.87,0-1.24.43-1.24.87s.3.79,1.33,1c1.48.37,2,.72,2,1.66s-.81,1.46-2,1.46A2.31,2.31,0,0,1,1640.18,22.35Z"/><path d="M1647.78,22.06V18.41h-.92V18h.92V16.07h.48V18h1.37v.43h-1.37V22c0,.56.19.88.85.88a1.84,1.84,0,0,0,.55-.07v.45a3.42,3.42,0,0,1-.59.05C1648.2,23.3,1647.78,23,1647.78,22.06Z"/><path d="M1652.94,18h.48v1.1h0a2.43,2.43,0,0,1,2.16-1.21h.14l-.08.45h-.17a2.26,2.26,0,0,0-2.07,1.45v3.46h-.48Z"/><path d="M1658.22,20.61c0-1.69,1-2.74,2.31-2.74s2.31,1.05,2.31,2.74a2.34,2.34,0,1,1-4.62,0Zm4.14,0c0-1.22-.64-2.31-1.83-2.31s-1.83,1-1.83,2.31.63,2.32,1.83,2.32S1662.36,21.93,1662.36,20.6Z"/><path d="M1666.22,18h.48v.87a2.9,2.9,0,0,1,2-1,1.31,1.31,0,0,1,1.46,1,3.12,3.12,0,0,1,2-1,1.36,1.36,0,0,1,1.52,1.55v3.81h-.48V19.48c0-.8-.29-1.19-1.09-1.19a2.84,2.84,0,0,0-1.92,1v3.94h-.48V19.48c0-.8-.28-1.19-1.09-1.19a2.86,2.86,0,0,0-1.92,1v3.94h-.48Z"/><path d="M1681.26,19.49c0-2.14,1.17-3.8,3-3.8a2.59,2.59,0,0,1,2.61,2.24l-.48.11c-.35-1.25-.94-1.9-2.14-1.9-1.5,0-2.5,1.35-2.5,3.33,0,2.17,1,3.45,2.52,3.45a2.27,2.27,0,0,0,2.25-2l.47.11a2.75,2.75,0,0,1-2.73,2.33C1682.42,23.37,1681.26,21.78,1681.26,19.49Z"/><path d="M1690,20.61c0-1.69,1-2.74,2.31-2.74s2.31,1.05,2.31,2.74a2.34,2.34,0,1,1-4.62,0Zm4.14,0c0-1.22-.64-2.31-1.83-2.31s-1.83,1-1.83,2.31.63,2.32,1.83,2.32S1694.13,21.93,1694.13,20.6Z"/><path d="M1698,18h.48v.87a2.9,2.9,0,0,1,2-1,1.31,1.31,0,0,1,1.46,1,3.12,3.12,0,0,1,2-1,1.36,1.36,0,0,1,1.52,1.55v3.81H1705V19.48c0-.8-.29-1.19-1.09-1.19a2.84,2.84,0,0,0-1.92,1v3.94h-.48V19.48c0-.8-.28-1.19-1.09-1.19a2.86,2.86,0,0,0-1.92,1v3.94H1698Z"/><path d="M1709.08,18h.48v.87a2.9,2.9,0,0,1,2-1,1.31,1.31,0,0,1,1.46,1,3.12,3.12,0,0,1,2-1,1.36,1.36,0,0,1,1.52,1.55v3.81h-.48V19.48c0-.8-.29-1.19-1.09-1.19a2.84,2.84,0,0,0-1.92,1v3.94h-.48V19.48c0-.8-.28-1.19-1.09-1.19a2.86,2.86,0,0,0-1.92,1v3.94h-.48Z"/><path d="M1720.12,21.79V18h.48v3.75c0,.8.35,1.19,1.15,1.19a2.9,2.9,0,0,0,2-1V18h.48v5.25h-.48v-.87a3,3,0,0,1-2,1A1.41,1.41,0,0,1,1720.12,21.79Z"/><path d="M1727.9,18h.48v.87a3,3,0,0,1,2-1,1.41,1.41,0,0,1,1.59,1.55v3.81h-.48V19.48c0-.8-.35-1.19-1.15-1.19a2.9,2.9,0,0,0-2,1v3.94h-.48Z"/><path d="M1735.67,16h.52v.61h-.52Zm0,1.95h.48v5.25h-.48Z"/><path d="M1739.61,20.61c0-1.84,1.09-2.74,2.27-2.74a2,2,0,0,1,1.95,1.4l-.41.22a1.61,1.61,0,0,0-1.56-1.2c-.81,0-1.77.6-1.77,2.31,0,1.47.79,2.32,1.75,2.32.8,0,1.22-.41,1.62-1.21l.38.19a2.14,2.14,0,0,1-2,1.44C1740.61,23.34,1739.61,22.28,1739.61,20.61Z"/><path d="M1746.76,22c0-1,.85-1.75,3.61-2.21v-.32a1.05,1.05,0,0,0-1.14-1.2,2.86,2.86,0,0,0-2,.87l-.28-.3a3.21,3.21,0,0,1,2.33-1,1.44,1.44,0,0,1,1.61,1.59v2.47a3.64,3.64,0,0,0,.15,1.3h-.51a2.56,2.56,0,0,1-.12-.78,3.22,3.22,0,0,1-2.13.87C1747.28,23.32,1746.76,22.82,1746.76,22Zm3.61,0V20.17c-2.56.45-3.13,1.08-3.13,1.82s.39.91,1,.91A3,3,0,0,0,1750.37,22Z"/><path d="M1754.81,22.06V18.41h-.92V18h.92V16.07h.48V18h1.37v.43h-1.37V22c0,.56.19.88.85.88a1.84,1.84,0,0,0,.55-.07v.45a3.42,3.42,0,0,1-.59.05C1755.23,23.3,1754.81,23,1754.81,22.06Z"/><path d="M1760,16h.52v.61H1760Zm0,1.95h.48v5.25H1760Z"/><path d="M1764,20.61c0-1.69,1-2.74,2.31-2.74s2.31,1.05,2.31,2.74a2.34,2.34,0,1,1-4.62,0Zm4.14,0c0-1.22-.64-2.31-1.83-2.31s-1.83,1-1.83,2.31.63,2.32,1.83,2.32S1768.09,21.93,1768.09,20.6Z"/><path d="M1772,18h.48v.87a3,3,0,0,1,2-1,1.41,1.41,0,0,1,1.59,1.55v3.81h-.48V19.48c0-.8-.35-1.19-1.15-1.19a2.9,2.9,0,0,0-2,1v3.94H1772Z"/><path d="M1779.32,22.35l.35-.27a1.92,1.92,0,0,0,1.63.82c1,0,1.5-.4,1.5-1s-.38-.91-1.56-1.19-1.77-.68-1.77-1.49.6-1.31,1.73-1.31a2.42,2.42,0,0,1,1.86.77l-.32.33a2,2,0,0,0-1.55-.68c-.87,0-1.24.43-1.24.87s.3.79,1.33,1c1.48.37,2,.72,2,1.66s-.81,1.46-2,1.46A2.31,2.31,0,0,1,1779.32,22.35Z"/><path d="M1790.67,20.53a6,6,0,0,1,2.48-4.75l.21.25a5.8,5.8,0,0,0,0,9l-.21.25A6,6,0,0,1,1790.67,20.53Z"/><path d="M1796.4,15.83h.51l1.24,4.75c.19.71.36,1.43.47,1.91h0c.1-.47.27-1.2.45-1.9l1.18-4.76h.58l1.19,4.8c.17.69.34,1.33.44,1.86h0c.13-.57.28-1.15.45-1.82l1.26-4.84h.49l-2,7.4h-.51l-1.66-6.71h0l-1.67,6.71h-.5Z"/><path d="M1808.13,15.83h4.28v.46h-3.78v2.78h2.84v.46h-2.84v3.24h4v.46h-4.5Z"/><path d="M1815.71,25a5.8,5.8,0,0,0,0-9l.21-.25a6,6,0,0,1,2.48,4.75,6,6,0,0,1-2.48,4.75Z"/></svg>