<svg id="Layer_1" data-name="Layer 1" xmlns="http://www.w3.org/2000/svg" viewBox="0 0 16.92 28.21"><defs><style>.cls-1{fill:#fff;}</style></defs><title>homepage-page-seperator-05</title><path class="cls-1" d="M.75,28.2a1,1,0,0,1-.29-.05A.78.78,0,0,1,.22,28,.77.77,0,0,1,0,27.45a.71.71,0,0,1,.06-.28.67.67,0,0,1,.16-.24.81.81,0,0,1,.24-.17.76.76,0,0,1,.82.17.56.56,0,0,1,.16.24.71.71,0,0,1,.06.28.77.77,0,0,1-.22.54.78.78,0,0,1-.24.16A.93.93,0,0,1,.75,28.2Z"/><path class="cls-1" d="M4.23,21.43a.75.75,0,0,1-.27-1H4a.74.74,0,0,1,1-.27H5a.75.75,0,0,1,.28,1h0a.77.77,0,0,1-.65.38h0A.75.75,0,0,1,4.23,21.43Zm3.85-6.68a.75.75,0,0,1-.27-1h0a.75.75,0,0,1,1-.28h0a.76.76,0,0,1,.27,1h0a.75.75,0,0,1-.65.37h0A.75.75,0,0,1,8.08,14.75Zm3.86-6.67a.75.75,0,0,1-.27-1h0a.74.74,0,0,1,1-.27h0a.75.75,0,0,1,.28,1h0a.77.77,0,0,1-.66.38h0A.86.86,0,0,1,11.94,8.08Z"/><path class="cls-1" d="M16.17,1.5a.72.72,0,0,1-.29-.06.78.78,0,0,1-.24-.16.75.75,0,0,1-.22-.53.72.72,0,0,1,.06-.29.78.78,0,0,1,.16-.24.63.63,0,0,1,.24-.16.73.73,0,0,1,.58,0,.63.63,0,0,1,.24.16.63.63,0,0,1,.16.24.72.72,0,0,1,.06.29.75.75,0,0,1-.22.53.78.78,0,0,1-.24.16A.72.72,0,0,1,16.17,1.5Z"/></svg>