<svg id="Layer_1" data-name="Layer 1" xmlns="http://www.w3.org/2000/svg" viewBox="0 0 105.15 42.06"><defs><style>.cls-1{fill:#f7941e;}.cls-2{fill:#f15a22;}.cls-3{fill:#80c342;}.cls-4{fill:#5f9e45;}.cls-5{fill:#3c6c31;}</style></defs><title>homepage-we-logo</title><polygon class="cls-1" points="0 0 21.03 42.06 31.55 21.03 21.03 0 0 0"/><polygon class="cls-1" points="63.09 0 42.06 0 31.55 21.03 42.06 42.06 63.09 0"/><polygon class="cls-2" points="21.03 0 31.55 21.03 42.06 0 21.03 0"/><rect class="cls-3" x="77.11" y="10.52" width="28.04" height="5.26"/><rect class="cls-3" x="77.11" y="26.29" width="28.04" height="5.26"/><rect class="cls-4" x="77.11" y="31.55" width="28.04" height="10.52"/><rect class="cls-4" x="77.11" y="15.77" width="28.04" height="10.52"/><rect class="cls-4" x="63.09" y="26.29" width="14.02" height="5.26"/><rect class="cls-4" x="63.09" y="10.52" width="14.02" height="5.26"/><rect class="cls-5" x="63.09" y="31.55" width="14.02" height="10.52"/><rect class="cls-5" x="63.09" y="15.77" width="14.02" height="10.52"/><rect class="cls-5" x="63.09" width="14.02" height="10.52"/><rect class="cls-4" x="77.11" width="28.04" height="10.52"/></svg>