<?xml version="1.0" encoding="utf-8"?>
<!-- Generator: Adobe Illustrator 19.1.0, SVG Export Plug-In . SVG Version: 6.00 Build 0)  -->
<svg version="1.1" id="CLEAR_SPACE_LOGO" xmlns="http://www.w3.org/2000/svg" xmlns:xlink="http://www.w3.org/1999/xlink" x="0px"
	 y="0px" viewBox="0 0 375 137.8" style="enable-background:new 0 0 375 137.8;" xml:space="preserve">
<style type="text/css">
	.st0{fill:#FFFFFF;}
	.st1{fill:#1BB3BC;}
	.st2{fill:#EC0000;}
	.st3{fill:#666666;}
	.st4{fill:none;stroke:#1BB3BC;stroke-width:2;}
	.st5{fill:none;stroke:#666666;}
	.st6{font-family:'ArialMT';}
	.st7{font-size:12px;}
</style>
<rect x="0" y="0" class="st0" width="375" height="137.8"/>
<g>
	<g>
		<path class="st1" d="M306,34.3h-4v1h4L306,34.3L306,34.3z M300,34.3h-4v1h4V34.3L300,34.3z M294,34.3h-4v1h4V34.3L294,34.3z
			 M288,34.3h-4v1h4V34.3L288,34.3z M282,34.3h-4v1h4V34.3L282,34.3z M276,34.3h-4v1h4V34.3L276,34.3z M270,34.3h-4v1h4V34.3
			L270,34.3z M264,34.3h-4v1h4V34.3L264,34.3z M258,34.3h-4v1h4V34.3L258,34.3z M252,34.3h-4v1h4V34.3L252,34.3z M246,34.3h-4v1h4
			V34.3L246,34.3z M240,34.3h-4v1h4V34.3L240,34.3z M234,34.3h-4v1h4V34.3L234,34.3z M228,34.3h-4v1h4V34.3L228,34.3z M222,34.3h-4
			v1h4V34.3L222,34.3z M216,34.3h-4v1h4V34.3L216,34.3z M210,34.3h-4v1h4V34.3L210,34.3z M204,34.3h-4v1h4V34.3L204,34.3z M198,34.3
			h-4v1h4V34.3L198,34.3z M192,34.3h-4v1h4V34.3L192,34.3z M186,34.3h-4v1h4V34.3L186,34.3z M180,34.3h-4v1h4V34.3L180,34.3z
			 M174,34.3h-4v1h4V34.3L174,34.3z M168,34.3h-4v1h4V34.3L168,34.3z M162,34.3h-4v1h4V34.3L162,34.3z M156,34.3h-4v1h4V34.3
			L156,34.3z M150,34.3h-4v1h4V34.3L150,34.3z M144,34.3h-4v1h4V34.3L144,34.3z M138,34.3h-4v1h4V34.3L138,34.3z M132,34.3h-4v1h4
			V34.3L132,34.3z M126,34.3h-4v1h4V34.3L126,34.3z M120,34.3h-4v1h4V34.3L120,34.3z M114,34.3h-4v1h4V34.3L114,34.3z M108,34.3h-4
			v1h4V34.3L108,34.3z M102,34.3h-4v1h4V34.3L102,34.3z M96,34.3h-4v1h4V34.3L96,34.3z M90,34.3h-4v1h4V34.3L90,34.3z M84,34.3h-4v1
			h4V34.3L84,34.3z M78,34.3h-4v1h4V34.3L78,34.3z M72,34.3h-3v0c0,0,0,0,0,0v0c0,0,0,0,0,0v0c0,0,0,0,0,0v0c0,0,0,0,0,0v0
			c0,0,0,0,0,0v0c0,0,0,0,0,0v0c0,0,0,0,0,0v0v0v0v0v0c0,0,0,0,0,0v0c0,0,0,0,0,0v0c0,0,0,0,0,0v0v0l0,0.9h0v0h3V34.3L72,34.3z
			 M69,37.3c0,0,0,0.9,0,1.8v0c0,0,0,0,0,0v0c0,0,0,0,0,0l0,2.2l1,0l0-4L69,37.3L69,37.3z M69,43.3l0,4l1,0l0-4L69,43.3L69,43.3z
			 M69,49.3l0,0.9c0,0,0,0,0,0v0c0,0,0,0,0,0v0c0,0,0,0,0,0v0c0,0,0,0,0,0v0c0,0,0,0,0,0v0c0,0,0,0,0,0v0c0,0,0,0,0,0v0c0,0,0,0,0,0
			v0c0,0,0,0,0,0v0c0,0,0,0,0,0v0c0,1.2,0,2.9,0,2.9l1,0l0-4L69,49.3L69,49.3z M69,55.3l0,4l1,0l0-4L69,55.3L69,55.3z M69,61.3l0,4
			l1,0l0-4L69,61.3L69,61.3z M69,67.3l0,4l1,0l0-4L69,67.3L69,67.3z M69,73.3l0,4l1,0l0-4L69,73.3L69,73.3z M69,79.3l0,2.2v0v0
			c0,0,0,0,0,0v0c0,0,0,0,0,0v0c0,0,0,0,0,0v0c0,0,0,0,0,0v0c0,0,0,0,0,0v0c0,0,0,0,0,0v0c0,0,0,0,0,0v0c0,0,0,0,0,0v0
			c0,0.9,0,1.6,0,1.6l1,0l0-4L69,79.3L69,79.3z M69,85.3l0,4l1,0l0-4L69,85.3L69,85.3z M69,91.3c0,0,0,1.2,0,2.3v0c0,0,0,0,0,0
			l0,1.7l1,0l0-4L69,91.3L69,91.3z M69,97.3l0,4l1,0l0-4L69,97.3L69,97.3z M73,102.3h-4v1h4V102.3L73,102.3z M79,102.3h-4v1h4V102.3
			L79,102.3z M85,102.3h-4v1h4V102.3L85,102.3z M91,102.3h-4v1h4V102.3L91,102.3z M97,102.3h-4v1h4V102.3L97,102.3z M103,102.3h-4v1
			h4V102.3L103,102.3z M109,102.3h-4v1h4V102.3L109,102.3z M115,102.3h-4v1h4V102.3L115,102.3z M121,102.3h-4v1h4V102.3L121,102.3z
			 M127,102.3h-4v1h4V102.3L127,102.3z M133,102.3h-4v1h4V102.3L133,102.3z M139,102.3h-4v1h4V102.3L139,102.3z M145,102.3h-4v1h4
			V102.3L145,102.3z M151,102.3h-4v1h4V102.3L151,102.3z M157,102.3h-4v1h4V102.3L157,102.3z M163,102.3h-4v1h4V102.3L163,102.3z
			 M169,102.3h-4v1h4V102.3L169,102.3z M175,102.3h-4v1h4V102.3L175,102.3z M181,102.3h-4v1h4V102.3L181,102.3z M187,102.3h-4v1h4
			V102.3L187,102.3z M193,102.3h-4v1h4V102.3L193,102.3z M199,102.3h-4v1h4V102.3L199,102.3z M205,102.3h-4v1h4V102.3L205,102.3z
			 M211,102.3h-4v1h4V102.3L211,102.3z M217,102.3h-4v1h4V102.3L217,102.3z M223,102.3h-4v1h4V102.3L223,102.3z M229,102.3h-4v1h4
			V102.3L229,102.3z M235,102.3h-4v1h4V102.3L235,102.3z M241,102.3h-4v1h4V102.3L241,102.3z M247,102.3h-4v1h4V102.3L247,102.3z
			 M253,102.3h-4v1h4V102.3L253,102.3z M259,102.3h-4v1h4V102.3L259,102.3z M265,102.3h-4v1h4V102.3L265,102.3z M271,102.3h-4v1h4
			V102.3L271,102.3z M277,102.3h-4v1h4V102.3L277,102.3z M283,102.3h-4v1h4V102.3L283,102.3z M289,102.3h-4v1h4V102.3L289,102.3z
			 M295,102.3h-4v1h4V102.3L295,102.3z M301,102.3h-4v1h4V102.3L301,102.3z M305,102.3L305,102.3l-2,0v1h3l0,0l0,0l0,0l0,0l0,0l0,0
			l0,0l0,0l0,0l0,0c0,0,0,0,0,0v0c0,0,0,0,0,0v0c0,0,0,0,0,0v0c0,0,0,0,0,0v0v0v0v0v0v0v0v0l0-1L305,102.3L305,102.3z M305,96.3l0,4
			l1,0l0-2.5c0,0,0,0,0,0v0c0,0,0,0,0,0v0c0,0,0,0,0,0v0c0,0,0,0,0,0v0c0,0,0,0,0,0v0c0-0.8,0-1.4,0-1.4L305,96.3L305,96.3z
			 M305,90.3l0,4l1,0c0,0,0-0.8,0-1.7v0c0,0,0,0,0,0l0-2.3L305,90.3L305,90.3z M305,84.3l0,4l1,0l0-2.8c0,0,0,0,0,0v0c0,0,0,0,0,0v0
			c0,0,0,0,0,0v0c0,0,0,0,0,0v0c0,0,0,0,0,0v0c0-0.7,0-1.2,0-1.2L305,84.3L305,84.3z M305,78.3l0,4l1,0c0,0,0-0.7,0-1.5v0
			c0,0,0,0,0,0l0-2.5L305,78.3L305,78.3z M305,72.3l0,4l1,0l0-3c0,0,0,0,0,0v0c0,0,0,0,0,0v0c0,0,0,0,0,0v0c0,0,0,0,0,0v0
			c0,0,0,0,0,0v0c0,0,0,0,0,0v0c0,0,0,0,0,0v0c0-0.5,0-0.8,0-0.8L305,72.3L305,72.3z M305,66.3l0,4l1,0c0,0,0-0.6,0-1.4v0
			c0,0,0,0,0,0v0c0,0,0,0,0,0l0-2.6L305,66.3L305,66.3z M305,60.3l0,4l1,0l0-3.4c0-0.3,0-0.6,0-0.6L305,60.3L305,60.3z M305,54.3
			l0,4l1,0c0,0,0-0.5,0-1.2v0c0,0,0,0,0,0v0c0,0,0,0,0,0l0-2.7L305,54.3L305,54.3z M305,48.3l0,4l1,0l0-3.6c0,0,0,0,0,0v0
			c0,0,0,0,0,0v0c0,0,0,0,0,0v0c0,0,0,0,0,0v0c0,0,0,0,0,0v0c0,0,0,0,0,0v0c0-0.2,0-0.3,0-0.3L305,48.3L305,48.3z M305,42.3l0,4l1,0
			c0,0,0-0.5,0-1.1v0c0,0,0,0,0,0v0c0,0,0,0,0,0v0v0v0c0,0,0,0,0,0v0c0,0,0,0,0,0l0-2.8L305,42.3L305,42.3z M305,36.3l0,4l1,0l0-3.9
			v0v0c0,0,0,0,0,0v0c0,0,0,0,0,0v0c0,0,0,0,0,0v0c0,0,0,0,0,0v0c0,0,0,0,0,0v0c0,0,0,0,0,0v0v0v0c0,0,0,0,0,0v0c0,0,0,0,0,0v0
			c0,0,0,0,0,0v0c0,0,0,0,0,0v0c0,0,0,0,0,0v0c0,0,0,0,0,0v0c0,0,0,0,0,0v0L305,36.3L305,36.3z"/>
	</g>
	<path class="st2" d="M106.3,47.6c0,4.5,7.7,9.5,7.7,14.7c0,0,0,0.5-0.2,1c7.2,1.5,12.3,5,12.3,9.1c0,5.6-9.1,10.1-20.3,10.1
		c-0.1,0-0.1,0-0.2,0c-11.1,0-20.2-4.4-20.2-9.9c0-4.1,5.5-7.5,12.2-9.3c0,2.3,7.6,9.5,7.8,12.4c0,0,0,0.2,0,0.5c0,0.1,0,0.3,0,0.4
		c1.6-0.9,1.6-3.5,1.6-3.5c0-6.3-7.4-9.1-7.4-15.4c0-2.4,1.1-4.2,2.2-4.7V55c0,4.5,8,9.6,8,13.7V70c1.9-0.7,1.9-4.1,1.9-4.1
		c0-5.7-7.4-8.9-7.4-15.4c0-2.4,1.1-4.2,2.2-4.7V47.6L106.3,47.6z"/>
	<path class="st2" d="M142.2,80.9c-3.9,0-6.7-1.1-6.7-1.1V73h1c0.5,3.6,3.2,6.3,6.3,6.3c3.1,0,5.3-1.7,5.3-4.4
		c0-2.9-2.9-4.2-4.8-5.2l-2.8-1.4c-2.6-1.3-4.8-3.5-4.8-6.4c0-3.7,2.8-6.9,8.1-6.9c3.6,0,6.6,1.2,6.6,1.2v6h-1
		c-0.6-3.2-2.3-5.7-6-5.7c-2.7,0-4.3,1.9-4.3,3.7c0,2.5,1.7,3.6,3.7,4.6l2.8,1.4c2.5,1.3,5.7,3.4,5.7,7
		C151.3,77.8,148.1,80.9,142.2,80.9L142.2,80.9z"/>
	<path class="st2" d="M158.7,80.7c-2.4,0-4-1.6-4-4c0-1.7,1.2-3,4-4l4.8-1.7v-1.5c0-2.2-1-3.6-2.6-3.6c-1.1,0-2.1,0.5-2.7,1.4
		c-0.2,0.3-0.2,0.8-0.2,1.1c0,0.6,0.4,1.3,0.4,1.3l-2.3,1.1c-0.3-0.5-0.6-1.2-0.6-2c0-0.1,0-0.3,0-0.4c0.2-1.3,1.3-2.1,2.8-3
		c1.5-0.9,2.7-1.1,3.6-1.1c4.5,0,5.3,3.6,5.3,4.7v7.4c0,1.2,0.1,1.9,1.1,1.9c0.3,0,0.5,0,0.9-0.1l0.9-0.3v1.1l-5,1.9
		c-0.7-0.5-1.1-1.5-1.2-2.3C162.4,79.4,160.4,80.7,158.7,80.7L158.7,80.7z M160.2,73.5c-0.7,0.3-2.1,0.9-2.1,2.6
		c0,0.9,0.5,2.4,2.4,2.4c0.9,0,2.1-0.5,3-1.2v-5.3L160.2,73.5L160.2,73.5z"/>
	<path class="st2" d="M170.9,80.4v-0.9l1.2-0.2c0.7-0.1,1.2-0.7,1.2-1.4v-9.5c0-0.8-0.4-1.2-1.1-1.2c-0.2,0-0.5,0-0.8,0.1l-0.5,0.2
		v-1.1l5.1-2.2h0.7v2.6c1.6-1.7,3.4-2.6,5.1-2.6c3.6,0,5.4,2.6,5.4,5.6v8.1c0,0.7,0.5,1.3,1.2,1.4l1.2,0.2v0.9h-8.5v-0.9l1.2-0.2
		c0.7-0.1,1.3-0.7,1.3-1.4v-8c0-1.1-0.3-3.5-3.1-3.5c-1.6,0-2.9,1-3.7,1.7v9.8c0,0.7,0.6,1.2,1.3,1.4l1.2,0.2v0.9H170.9L170.9,80.4z
		"/>
	<path class="st2" d="M202,66.4h-5v8.8c0,2,1,3,2.5,3c0.6,0,1.6-0.2,2.5-0.7l0.4,0.9l-3.2,2c0,0-0.6,0.1-1,0.1
		c-3.1,0-4.8-1.8-4.8-5.7v-8.5h-2.6v-0.9c0,0,3.9-1.5,5.4-5.2h0.7v4.5h5.6L202,66.4L202,66.4z"/>
	<path class="st2" d="M208,80.7c-2.4,0-4-1.6-4-4c0-1.7,1.2-3,4-4l4.8-1.7v-1.5c0-2.2-1-3.6-2.6-3.6c-1.1,0-2.1,0.5-2.7,1.4
		c-0.2,0.3-0.3,0.8-0.3,1.1c0,0.6,0.4,1.3,0.4,1.3l-2.3,1.1c-0.3-0.5-0.6-1.2-0.6-2c0-0.1,0-0.3,0-0.4c0.2-1.3,1.3-2.1,2.8-3
		c1.5-0.9,2.7-1.1,3.6-1.1c4.5,0,5.3,3.6,5.3,4.7v7.4c0,1.2,0.1,1.9,1.1,1.9c0.3,0,0.5,0,0.9-0.1l0.9-0.3v1.1l-5,1.9
		c-0.7-0.5-1.1-1.5-1.2-2.3C211.7,79.4,209.7,80.7,208,80.7L208,80.7z M209.4,73.5c-0.7,0.3-2.1,0.9-2.1,2.6c0,0.9,0.5,2.4,2.4,2.4
		c0.9,0,2.1-0.5,3-1.2v-5.3L209.4,73.5L209.4,73.5z"/>
	<path class="st2" d="M220.2,80.4v-0.9l1.2-0.2c0.7-0.1,1.2-0.7,1.2-1.4v-9.5c0-0.8-0.4-1.2-1.1-1.2c-0.2,0-0.5,0-0.8,0.1l-0.5,0.2
		v-1.1l5.1-2.2h0.8v2.6c1.6-1.7,3.4-2.6,5.1-2.6c3.6,0,5.4,2.6,5.4,5.6v8.1c0,0.7,0.5,1.3,1.2,1.4l1.2,0.2v0.9h-8.5v-0.9l1.2-0.2
		c0.7-0.1,1.3-0.7,1.3-1.4v-8c0-1.1-0.3-3.5-3.1-3.5c-1.6,0-2.9,1-3.7,1.7v9.8c0,0.7,0.6,1.2,1.3,1.4l1.2,0.2v0.9H220.2L220.2,80.4z
		"/>
	<path class="st2" d="M248,80.7c-3.3,0-7.4-2.5-7.4-7.9c0-4.7,3.7-8.6,8.6-8.6c1.6,0,2.8,0.3,3.7,0.7v-8.2c0-0.9-0.5-1.1-1-1.1
		c-0.3,0-0.7,0.1-1,0.2l-0.7,0.2V55l5.6-2.3h0.7v23.5c0,1.4,0.2,2.1,1.2,2.1c0.3,0,0.5,0,0.9-0.1l0.9-0.3v1.1l-5,1.9
		c-0.8-0.5-1.2-1.5-1.4-2.3C252.1,79.4,250.4,80.7,248,80.7L248,80.7z M249.6,65.7c-2.6,0-5.2,1.6-5.2,6.4c0,4,2,6.4,5.1,6.4
		c1.9,0,3.1-1.1,3.3-1.7v-9.3C252.4,66.4,251.1,65.7,249.6,65.7L249.6,65.7z"/>
	<path class="st2" d="M264.5,71.2v0.2c0,4.7,2.7,7.1,6,7.1c1.7,0,3.3-0.6,4.5-1.6v1.4c-1.4,1.3-3.6,2.4-6.3,2.4c-5.6,0-8-4.2-8-8.1
		c0-4.6,3.5-8.4,8.1-8.4c3.7,0,6.7,2.6,6.7,6.5v0.5H264.5L264.5,71.2z M271.8,69.7L271.8,69.7c0-2.7-1.5-4-3.3-4c-2,0-3.5,1.3-3.9,4
		H271.8L271.8,69.7z"/>
	<path class="st2" d="M277.7,80.4v-0.9l1.2-0.2c0.7-0.1,1.2-0.7,1.2-1.4v-9.5c0-0.8-0.4-1.2-1.1-1.2c-0.3,0-0.5,0-0.8,0.1l-0.5,0.2
		v-1.1l5.1-2.2h0.7v3.5c1.3-2.5,2.8-3.5,4.6-3.5c1.4,0,1.8,0.4,1.8,0.4v3.8h-0.7c-0.2-1-0.9-1.5-1.9-1.5c-1.1,0-2.6,0.3-3.6,2.4v8.8
		c0,0.7,0.7,1.3,1.4,1.4l1.7,0.2v0.9H277.7L277.7,80.4z"/>
</g>
<g>
	<path class="st1" d="M340.5,0h-4v1h3v3.9h1V0L340.5,0z M334.5,0h-4v1h4V0L334.5,0z M328.5,0h-4v1h4V0L328.5,0z M322.5,0h-4v1h4V0
		L322.5,0z M316.5,0h-4v1h4V0L316.5,0z M310.5,0h-4v1h4V0L310.5,0z M304.5,0h-4v1h4V0L304.5,0z M298.5,0h-4v1h4V0L298.5,0z M292.5,0
		h-4v1h4V0L292.5,0z M286.5,0h-4v1h4V0L286.5,0z M280.5,0h-4v1h4V0L280.5,0z M274.5,0h-4v1h4V0L274.5,0z M268.5,0h-4v1h4V0L268.5,0z
		 M262.5,0h-4v1h4V0L262.5,0z M256.5,0h-4v1h4V0L256.5,0z M250.5,0h-4v1h4V0L250.5,0z M244.5,0h-4v1h4V0L244.5,0z M238.5,0h-4v1h4V0
		L238.5,0z M232.5,0h-4v1h4V0L232.5,0z M226.5,0h-4v1h4V0L226.5,0z M220.5,0h-4v1h4V0L220.5,0z M214.5,0h-4v1h4V0L214.5,0z M208.5,0
		h-4v1h4V0L208.5,0z M202.5,0h-4v1h4V0L202.5,0z M196.5,0h-4v1h4V0L196.5,0z M190.5,0h-4v1h4V0L190.5,0z M184.5,0h-4v1h4V0L184.5,0z
		 M178.5,0h-4v1h4V0L178.5,0z M172.5,0h-4v1h4V0L172.5,0z M166.5,0h-4v1h4V0L166.5,0z M160.5,0h-4v1h4V0L160.5,0z M154.5,0h-4v1h4V0
		L154.5,0z M148.5,0h-4v1h4V0L148.5,0z M142.5,0h-4v1h4V0L142.5,0z M136.5,0h-4v1h4V0L136.5,0z M130.5,0h-4v1h4V0L130.5,0z M124.5,0
		h-4v1h4V0L124.5,0z M118.5,0h-4v1h4V0L118.5,0z M112.5,0h-4v1h4V0L112.5,0z M106.5,0h-4v1h4V0L106.5,0z M100.5,0h-4v1h4V0L100.5,0z
		 M94.5,0h-4v1h4V0L94.5,0z M88.5,0h-4v1h4V0L88.5,0z M82.5,0h-4v1h4V0L82.5,0z M76.5,0h-4v1h4V0L76.5,0z M70.5,0h-4v1h4V0L70.5,0z
		 M64.5,0h-4v1h4V0L64.5,0z M58.5,0h-4v1h4V0L58.5,0z M52.5,0h-4v1h4V0L52.5,0z M46.5,0h-4v1h4V0L46.5,0z M40.5,0h-4v1h4V0L40.5,0z
		 M35.8,0.3h-1v4h1V0.3L35.8,0.3z M35.8,6.3h-1v4h1V6.3L35.8,6.3z M35.8,12.3h-1v4h1V12.3L35.8,12.3z M35.8,18.3h-1v4h1V18.3
		L35.8,18.3z M35.8,24.3h-1v4h1V24.3L35.8,24.3z M35.8,30.3h-1v4h1V30.3L35.8,30.3z M35.8,36.3h-1v4h1V36.3L35.8,36.3z M35.8,42.3
		h-1v4h1V42.3L35.8,42.3z M35.8,48.3h-1v4h1V48.3L35.8,48.3z M35.8,54.3h-1v4h1V54.3L35.8,54.3z M35.8,60.3h-1v4h1V60.3L35.8,60.3z
		 M35.8,66.3h-1v4h1V66.3L35.8,66.3z M35.8,72.3h-1v4h1V72.3L35.8,72.3z M35.8,78.3h-1v4h1V78.3L35.8,78.3z M35.8,84.3h-1v4h1V84.3
		L35.8,84.3z M35.8,90.3h-1v4h1V90.3L35.8,90.3z M35.8,96.3h-1v4h1V96.3L35.8,96.3z M35.8,102.3h-1v4h1V102.3L35.8,102.3z
		 M35.8,108.3h-1v4h1V108.3L35.8,108.3z M35.8,114.3h-1v4h1V114.3L35.8,114.3z M35.8,120.3h-1v4h1V120.3L35.8,120.3z M35.8,126.3h-1
		v4h1V126.3L35.8,126.3z M35.8,132.3h-1v4h1V132.3L35.8,132.3z M39.4,136.8h-4v1h4V136.8L39.4,136.8z M45.4,136.8h-4v1h4V136.8
		L45.4,136.8z M51.4,136.8h-4v1h4V136.8L51.4,136.8z M57.4,136.8h-4v1h4V136.8L57.4,136.8z M63.4,136.8h-4v1h4V136.8L63.4,136.8z
		 M69.4,136.8h-4v1h4V136.8L69.4,136.8z M75.4,136.8h-4v1h4V136.8L75.4,136.8z M81.4,136.8h-4v1h4V136.8L81.4,136.8z M87.4,136.8h-4
		v1h4V136.8L87.4,136.8z M93.4,136.8h-4v1h4V136.8L93.4,136.8z M99.4,136.8h-4v1h4V136.8L99.4,136.8z M105.4,136.8h-4v1h4V136.8
		L105.4,136.8z M111.4,136.8h-4v1h4V136.8L111.4,136.8z M117.4,136.8h-4v1h4V136.8L117.4,136.8z M123.4,136.8h-4v1h4V136.8
		L123.4,136.8z M129.4,136.8h-4v1h4V136.8L129.4,136.8z M135.4,136.8h-4v1h4V136.8L135.4,136.8z M141.4,136.8h-4v1h4V136.8
		L141.4,136.8z M147.4,136.8h-4v1h4V136.8L147.4,136.8z M153.4,136.8h-4v1h4V136.8L153.4,136.8z M159.4,136.8h-4v1h4V136.8
		L159.4,136.8z M165.4,136.8h-4v1h4V136.8L165.4,136.8z M171.4,136.8h-4v1h4V136.8L171.4,136.8z M177.4,136.8h-4v1h4V136.8
		L177.4,136.8z M183.4,136.8h-4v1h4V136.8L183.4,136.8z M189.4,136.8h-4v1h4V136.8L189.4,136.8z M195.4,136.8h-4v1h4V136.8
		L195.4,136.8z M201.4,136.8h-4v1h4V136.8L201.4,136.8z M207.4,136.8h-4v1h4V136.8L207.4,136.8z M213.4,136.8h-4v1h4V136.8
		L213.4,136.8z M219.4,136.8h-4v1h4V136.8L219.4,136.8z M225.4,136.8h-4v1h4V136.8L225.4,136.8z M231.4,136.8h-4v1h4V136.8
		L231.4,136.8z M237.4,136.8h-4v1h4V136.8L237.4,136.8z M243.4,136.8h-4v1h4V136.8L243.4,136.8z M249.4,136.8h-4v1h4V136.8
		L249.4,136.8z M255.4,136.8h-4v1h4V136.8L255.4,136.8z M261.4,136.8h-4v1h4V136.8L261.4,136.8z M267.4,136.8h-4v1h4V136.8
		L267.4,136.8z M273.4,136.8h-4v1h4V136.8L273.4,136.8z M279.4,136.8h-4v1h4V136.8L279.4,136.8z M285.4,136.8h-4v1h4V136.8
		L285.4,136.8z M291.4,136.8h-4v1h4V136.8L291.4,136.8z M297.4,136.8h-4v1h4V136.8L297.4,136.8z M303.4,136.8h-4v1h4V136.8
		L303.4,136.8z M309.4,136.8h-4v1h4V136.8L309.4,136.8z M315.4,136.8h-4v1h4V136.8L315.4,136.8z M321.4,136.8h-4v1h4V136.8
		L321.4,136.8z M327.4,136.8h-4v1h4V136.8L327.4,136.8z M333.4,136.8h-4v1h4V136.8L333.4,136.8z M339.4,136.8h-4v1h4V136.8
		L339.4,136.8z M340.5,132.9h-1v4h1V132.9L340.5,132.9z M340.5,126.9h-1v4h1V126.9L340.5,126.9z M340.5,120.9h-1v4h1V120.9
		L340.5,120.9z M340.5,114.9h-1v4h1V114.9L340.5,114.9z M340.5,108.9h-1v4h1V108.9L340.5,108.9z M340.5,102.9h-1v4h1V102.9
		L340.5,102.9z M340.5,96.9h-1v4h1V96.9L340.5,96.9z M340.5,90.9h-1v4h1V90.9L340.5,90.9z M340.5,84.9h-1v4h1V84.9L340.5,84.9z
		 M340.5,78.9h-1v4h1V78.9L340.5,78.9z M340.5,72.9h-1v4h1V72.9L340.5,72.9z M340.5,66.9h-1v4h1V66.9L340.5,66.9z M340.5,60.9h-1v4
		h1V60.9L340.5,60.9z M340.5,54.9h-1v4h1V54.9L340.5,54.9z M340.5,48.9h-1v4h1V48.9L340.5,48.9z M340.5,42.9h-1v4h1V42.9L340.5,42.9
		z M340.5,36.9h-1v4h1V36.9L340.5,36.9z M340.5,30.9h-1v4h1V30.9L340.5,30.9z M340.5,24.9h-1v4h1V24.9L340.5,24.9z M340.5,18.9h-1v4
		h1V18.9L340.5,18.9z M340.5,12.9h-1v4h1V12.9L340.5,12.9z M340.5,6.9h-1v4h1V6.9L340.5,6.9z"/>
</g>
<g>
	
		<rect x="363.5" y="55.8" transform="matrix(0.7071 0.7071 -0.7071 0.7071 155.3129 -237.941)" class="st1" width="2.7" height="25.4"/>
	
		<rect x="363.5" y="55.8" transform="matrix(-0.7071 0.7071 -0.7071 -0.7071 671.3264 -141.0551)" class="st1" width="2.7" height="25.4"/>
</g>
<g>
	
		<rect x="220.7" y="10.1" transform="matrix(0.7071 0.7071 -0.7071 0.7071 76.93 -151.5945)" class="st3" width="1.5" height="13.9"/>
	
		<rect x="220.7" y="10.1" transform="matrix(-0.7071 0.7071 -0.7071 -0.7071 390.1157 -127.4603)" class="st3" width="1.5" height="13.9"/>
</g>
<line class="st4" x1="309" y1="35.3" x2="374.8" y2="35.3"/>
<line class="st4" x1="309.2" y1="102.4" x2="375" y2="102.4"/>
<g>
	<line class="st5" x1="189.5" y1="32.1" x2="189.5" y2="3.1"/>
	<polygon class="st3" points="187.5,6.2 189.4,0.8 191.4,6.2 	"/>
	<polygon class="st3" points="191.4,28.9 189.4,34.3 187.5,28.9 	"/>
</g>
<text transform="matrix(1 0 0 1 197.0808 21.6904)" class="st3 st6 st7">0.5</text>
<g>
	
		<rect x="220.7" y="112.5" transform="matrix(0.7071 0.7071 -0.7071 0.7071 149.3713 -121.5883)" class="st3" width="1.5" height="13.9"/>
	
		<rect x="220.7" y="112.5" transform="matrix(-0.7071 0.7071 -0.7071 -0.7071 462.557 47.4285)" class="st3" width="1.5" height="13.9"/>
</g>
<g>
	<line class="st5" x1="189.5" y1="134.5" x2="189.5" y2="105.5"/>
	<polygon class="st3" points="187.5,108.7 189.4,103.3 191.4,108.7 	"/>
	<polygon class="st3" points="191.4,131.4 189.4,136.8 187.5,131.4 	"/>
</g>
<text transform="matrix(1 0 0 1 197.0808 124.1379)" class="st3 st6 st7">0.5</text>
<g>
	<g>
		<line class="st5" x1="37.8" y1="68.5" x2="66.8" y2="68.5"/>
		<polygon class="st3" points="63.6,66.6 69,68.5 63.6,70.4 		"/>
		<polygon class="st3" points="40.9,70.4 35.5,68.5 40.9,66.6 		"/>
	</g>
	<g>
		<rect x="61.1" y="51.1" transform="matrix(0.7071 0.7071 -0.7071 0.7071 59.184 -26.73)" class="st3" width="1.5" height="13.9"/>
		
			<rect x="61.1" y="51.1" transform="matrix(-0.7071 0.7071 -0.7071 -0.7071 146.6643 55.4025)" class="st3" width="1.5" height="13.9"/>
	</g>
	<text transform="matrix(1 0 0 1 37.4829 62.7014)" class="st3 st6 st7">0.5</text>
</g>
<g>
	<g>
		<line class="st5" x1="308.2" y1="68.5" x2="337.2" y2="68.5"/>
		<polygon class="st3" points="334.1,66.6 339.5,68.5 334.1,70.4 		"/>
		<polygon class="st3" points="311.4,70.4 306,68.5 311.4,66.6 		"/>
	</g>
	<g>
		
			<rect x="331.6" y="51.1" transform="matrix(0.7071 0.7071 -0.7071 0.7071 138.4072 -217.9917)" class="st3" width="1.5" height="13.9"/>
		
			<rect x="331.6" y="51.1" transform="matrix(-0.7071 0.7071 -0.7071 -0.7071 608.411 -135.8592)" class="st3" width="1.5" height="13.9"/>
	</g>
	<text transform="matrix(1 0 0 1 307.9679 62.7014)" class="st3 st6 st7">0.5</text>
</g>
<rect y="0" class="st0" width="375" height="137.8"/>
<g>
	<g>
		<polygon class="st2" points="69,34.3 306,34.3 306,103.3 69,103.3 69,34.3 		"/>
	</g>
	<path class="st0" d="M106.3,47.6c0,4.5,7.7,9.5,7.7,14.7c0,0,0,0.5-0.2,1c7.2,1.5,12.3,5,12.3,9.1c0,5.6-9.1,10.1-20.3,10.1
		c-0.1,0-0.1,0-0.2,0c-11.1,0-20.2-4.4-20.2-9.9c0-4.1,5.5-7.5,12.2-9.3c0,2.3,7.6,9.5,7.8,12.4c0,0,0,0.2,0,0.5c0,0.1,0,0.3,0,0.4
		c1.6-0.9,1.6-3.5,1.6-3.5c0-6.3-7.4-9.1-7.4-15.4c0-2.4,1.1-4.2,2.2-4.7V55c0,4.5,8,9.6,8,13.7V70c1.9-0.7,1.9-4.1,1.9-4.1
		c0-5.7-7.4-8.9-7.4-15.4c0-2.4,1.1-4.2,2.2-4.7V47.6L106.3,47.6z"/>
	<path class="st0" d="M142.2,80.9c-3.9,0-6.7-1.1-6.7-1.1V73h1c0.5,3.6,3.2,6.3,6.3,6.3c3.1,0,5.3-1.7,5.3-4.4
		c0-2.9-2.9-4.2-4.8-5.2l-2.8-1.4c-2.6-1.3-4.8-3.5-4.8-6.4c0-3.7,2.8-6.9,8.1-6.9c3.6,0,6.6,1.2,6.6,1.2v6h-1
		c-0.6-3.2-2.3-5.7-6-5.7c-2.7,0-4.3,1.9-4.3,3.7c0,2.5,1.7,3.6,3.7,4.6l2.8,1.4c2.5,1.3,5.7,3.4,5.7,7
		C151.3,77.8,148.1,80.9,142.2,80.9L142.2,80.9z"/>
	<path class="st0" d="M158.7,80.7c-2.4,0-4-1.6-4-4c0-1.7,1.2-3,4-4l4.8-1.7v-1.5c0-2.2-1-3.6-2.6-3.6c-1.1,0-2.1,0.5-2.7,1.4
		c-0.2,0.3-0.2,0.8-0.2,1.1c0,0.6,0.4,1.3,0.4,1.3l-2.3,1.1c-0.3-0.5-0.6-1.2-0.6-2c0-0.1,0-0.3,0-0.4c0.2-1.3,1.3-2.1,2.8-3
		c1.5-0.9,2.7-1.1,3.6-1.1c4.5,0,5.3,3.6,5.3,4.7v7.4c0,1.2,0.1,1.9,1.1,1.9c0.3,0,0.5,0,0.9-0.1l0.9-0.3v1.1l-5,1.9
		c-0.7-0.5-1.1-1.5-1.2-2.3C162.4,79.4,160.4,80.7,158.7,80.7L158.7,80.7z M160.2,73.5c-0.7,0.3-2.1,0.9-2.1,2.6
		c0,0.9,0.5,2.4,2.4,2.4c0.9,0,2.1-0.5,3-1.2v-5.3L160.2,73.5L160.2,73.5z"/>
	<path class="st0" d="M170.9,80.4v-0.9l1.2-0.2c0.7-0.1,1.2-0.7,1.2-1.4v-9.5c0-0.8-0.4-1.2-1.1-1.2c-0.2,0-0.5,0-0.8,0.1l-0.5,0.2
		v-1.1l5.1-2.2h0.7v2.6c1.6-1.7,3.4-2.6,5.1-2.6c3.6,0,5.4,2.6,5.4,5.6v8.1c0,0.7,0.5,1.3,1.2,1.4l1.2,0.2v0.9h-8.5v-0.9l1.2-0.2
		c0.7-0.1,1.3-0.7,1.3-1.4v-8c0-1.1-0.3-3.5-3.1-3.5c-1.6,0-2.9,1-3.7,1.7v9.8c0,0.7,0.6,1.2,1.3,1.4l1.2,0.2v0.9H170.9L170.9,80.4z
		"/>
	<path class="st0" d="M202,66.4h-5v8.8c0,2,1,3,2.5,3c0.6,0,1.6-0.2,2.5-0.7l0.4,0.9l-3.2,2c0,0-0.6,0.1-1,0.1
		c-3.1,0-4.8-1.8-4.8-5.7v-8.5h-2.6v-0.9c0,0,3.9-1.5,5.4-5.2h0.7v4.5h5.6L202,66.4L202,66.4z"/>
	<path class="st0" d="M208,80.7c-2.4,0-4-1.6-4-4c0-1.7,1.2-3,4-4l4.8-1.7v-1.5c0-2.2-1-3.6-2.6-3.6c-1.1,0-2.1,0.5-2.7,1.4
		c-0.2,0.3-0.3,0.8-0.3,1.1c0,0.6,0.4,1.3,0.4,1.3l-2.3,1.1c-0.3-0.5-0.6-1.2-0.6-2c0-0.1,0-0.3,0-0.4c0.2-1.3,1.3-2.1,2.8-3
		c1.5-0.9,2.7-1.1,3.6-1.1c4.5,0,5.3,3.6,5.3,4.7v7.4c0,1.2,0.1,1.9,1.1,1.9c0.3,0,0.5,0,0.9-0.1l0.9-0.3v1.1l-5,1.9
		c-0.7-0.5-1.1-1.5-1.2-2.3C211.7,79.4,209.7,80.7,208,80.7L208,80.7z M209.4,73.5c-0.7,0.3-2.1,0.9-2.1,2.6c0,0.9,0.5,2.4,2.4,2.4
		c0.9,0,2.1-0.5,3-1.2v-5.3L209.4,73.5L209.4,73.5z"/>
	<path class="st0" d="M220.2,80.4v-0.9l1.2-0.2c0.7-0.1,1.2-0.7,1.2-1.4v-9.5c0-0.8-0.4-1.2-1.1-1.2c-0.2,0-0.5,0-0.8,0.1l-0.5,0.2
		v-1.1l5.1-2.2h0.8v2.6c1.6-1.7,3.4-2.6,5.1-2.6c3.6,0,5.4,2.6,5.4,5.6v8.1c0,0.7,0.5,1.3,1.2,1.4l1.2,0.2v0.9h-8.5v-0.9l1.2-0.2
		c0.7-0.1,1.3-0.7,1.3-1.4v-8c0-1.1-0.3-3.5-3.1-3.5c-1.6,0-2.9,1-3.7,1.7v9.8c0,0.7,0.6,1.2,1.3,1.4l1.2,0.2v0.9H220.2L220.2,80.4z
		"/>
	<path class="st0" d="M248,80.7c-3.3,0-7.4-2.5-7.4-7.9c0-4.7,3.7-8.6,8.6-8.6c1.6,0,2.8,0.3,3.7,0.7v-8.2c0-0.9-0.5-1.1-1-1.1
		c-0.3,0-0.7,0.1-1,0.2l-0.7,0.2V55l5.6-2.3h0.7v23.5c0,1.4,0.2,2.1,1.2,2.1c0.3,0,0.5,0,0.9-0.1l0.9-0.3v1.1l-5,1.9
		c-0.8-0.5-1.2-1.5-1.4-2.3C252.1,79.4,250.4,80.7,248,80.7L248,80.7z M249.6,65.7c-2.6,0-5.2,1.6-5.2,6.4c0,4,2,6.4,5.1,6.4
		c1.9,0,3.1-1.1,3.3-1.7v-9.3C252.4,66.4,251.1,65.7,249.6,65.7L249.6,65.7z"/>
	<path class="st0" d="M264.5,71.2v0.2c0,4.7,2.7,7.1,6,7.1c1.7,0,3.3-0.6,4.5-1.6v1.4c-1.4,1.3-3.6,2.4-6.3,2.4c-5.6,0-8-4.2-8-8.1
		c0-4.6,3.5-8.4,8.1-8.4c3.7,0,6.7,2.6,6.7,6.5v0.5H264.5L264.5,71.2z M271.8,69.7L271.8,69.7c0-2.7-1.5-4-3.3-4c-2,0-3.5,1.3-3.9,4
		H271.8L271.8,69.7z"/>
	<path class="st0" d="M277.7,80.4v-0.9l1.2-0.2c0.7-0.1,1.2-0.7,1.2-1.4v-9.5c0-0.8-0.4-1.2-1.1-1.2c-0.3,0-0.5,0-0.8,0.1l-0.5,0.2
		v-1.1l5.1-2.2h0.7v3.5c1.3-2.5,2.8-3.5,4.6-3.5c1.4,0,1.8,0.4,1.8,0.4v3.8h-0.7c-0.2-1-0.9-1.5-1.9-1.5c-1.1,0-2.6,0.3-3.6,2.4v8.8
		c0,0.7,0.7,1.3,1.4,1.4l1.7,0.2v0.9H277.7L277.7,80.4z"/>
</g>
<g>
	<path class="st1" d="M340.5,0h-4v1h3v3.9h1V0L340.5,0z M334.5,0h-4v1h4V0L334.5,0z M328.5,0h-4v1h4V0L328.5,0z M322.5,0h-4v1h4V0
		L322.5,0z M316.5,0h-4v1h4V0L316.5,0z M310.5,0h-4v1h4V0L310.5,0z M304.5,0h-4v1h4V0L304.5,0z M298.5,0h-4v1h4V0L298.5,0z M292.5,0
		h-4v1h4V0L292.5,0z M286.5,0h-4v1h4V0L286.5,0z M280.5,0h-4v1h4V0L280.5,0z M274.5,0h-4v1h4V0L274.5,0z M268.5,0h-4v1h4V0L268.5,0z
		 M262.5,0h-4v1h4V0L262.5,0z M256.5,0h-4v1h4V0L256.5,0z M250.5,0h-4v1h4V0L250.5,0z M244.5,0h-4v1h4V0L244.5,0z M238.5,0h-4v1h4V0
		L238.5,0z M232.5,0h-4v1h4V0L232.5,0z M226.5,0h-4v1h4V0L226.5,0z M220.5,0h-4v1h4V0L220.5,0z M214.5,0h-4v1h4V0L214.5,0z M208.5,0
		h-4v1h4V0L208.5,0z M202.5,0h-4v1h4V0L202.5,0z M196.5,0h-4v1h4V0L196.5,0z M190.5,0h-4v1h4V0L190.5,0z M184.5,0h-4v1h4V0L184.5,0z
		 M178.5,0h-4v1h4V0L178.5,0z M172.5,0h-4v1h4V0L172.5,0z M166.5,0h-4v1h4V0L166.5,0z M160.5,0h-4v1h4V0L160.5,0z M154.5,0h-4v1h4V0
		L154.5,0z M148.5,0h-4v1h4V0L148.5,0z M142.5,0h-4v1h4V0L142.5,0z M136.5,0h-4v1h4V0L136.5,0z M130.5,0h-4v1h4V0L130.5,0z M124.5,0
		h-4v1h4V0L124.5,0z M118.5,0h-4v1h4V0L118.5,0z M112.5,0h-4v1h4V0L112.5,0z M106.5,0h-4v1h4V0L106.5,0z M100.5,0h-4v1h4V0L100.5,0z
		 M94.5,0h-4v1h4V0L94.5,0z M88.5,0h-4v1h4V0L88.5,0z M82.5,0h-4v1h4V0L82.5,0z M76.5,0h-4v1h4V0L76.5,0z M70.5,0h-4v1h4V0L70.5,0z
		 M64.5,0h-4v1h4V0L64.5,0z M58.5,0h-4v1h4V0L58.5,0z M52.5,0h-4v1h4V0L52.5,0z M46.5,0h-4v1h4V0L46.5,0z M40.5,0h-4v1h4V0L40.5,0z
		 M35.8,0.3h-1v4h1V0.3L35.8,0.3z M35.8,6.3h-1v4h1V6.3L35.8,6.3z M35.8,12.3h-1v4h1V12.3L35.8,12.3z M35.8,18.3h-1v4h1V18.3
		L35.8,18.3z M35.8,24.3h-1v4h1V24.3L35.8,24.3z M35.8,30.3h-1v4h1V30.3L35.8,30.3z M35.8,36.3h-1v4h1V36.3L35.8,36.3z M35.8,42.3
		h-1v4h1V42.3L35.8,42.3z M35.8,48.3h-1v4h1V48.3L35.8,48.3z M35.8,54.3h-1v4h1V54.3L35.8,54.3z M35.8,60.3h-1v4h1V60.3L35.8,60.3z
		 M35.8,66.3h-1v4h1V66.3L35.8,66.3z M35.8,72.3h-1v4h1V72.3L35.8,72.3z M35.8,78.3h-1v4h1V78.3L35.8,78.3z M35.8,84.3h-1v4h1V84.3
		L35.8,84.3z M35.8,90.3h-1v4h1V90.3L35.8,90.3z M35.8,96.3h-1v4h1V96.3L35.8,96.3z M35.8,102.3h-1v4h1V102.3L35.8,102.3z
		 M35.8,108.3h-1v4h1V108.3L35.8,108.3z M35.8,114.3h-1v4h1V114.3L35.8,114.3z M35.8,120.3h-1v4h1V120.3L35.8,120.3z M35.8,126.3h-1
		v4h1V126.3L35.8,126.3z M35.8,132.3h-1v4h1V132.3L35.8,132.3z M39.4,136.8h-4v1h4V136.8L39.4,136.8z M45.4,136.8h-4v1h4V136.8
		L45.4,136.8z M51.4,136.8h-4v1h4V136.8L51.4,136.8z M57.4,136.8h-4v1h4V136.8L57.4,136.8z M63.4,136.8h-4v1h4V136.8L63.4,136.8z
		 M69.4,136.8h-4v1h4V136.8L69.4,136.8z M75.4,136.8h-4v1h4V136.8L75.4,136.8z M81.4,136.8h-4v1h4V136.8L81.4,136.8z M87.4,136.8h-4
		v1h4V136.8L87.4,136.8z M93.4,136.8h-4v1h4V136.8L93.4,136.8z M99.4,136.8h-4v1h4V136.8L99.4,136.8z M105.4,136.8h-4v1h4V136.8
		L105.4,136.8z M111.4,136.8h-4v1h4V136.8L111.4,136.8z M117.4,136.8h-4v1h4V136.8L117.4,136.8z M123.4,136.8h-4v1h4V136.8
		L123.4,136.8z M129.4,136.8h-4v1h4V136.8L129.4,136.8z M135.4,136.8h-4v1h4V136.8L135.4,136.8z M141.4,136.8h-4v1h4V136.8
		L141.4,136.8z M147.4,136.8h-4v1h4V136.8L147.4,136.8z M153.4,136.8h-4v1h4V136.8L153.4,136.8z M159.4,136.8h-4v1h4V136.8
		L159.4,136.8z M165.4,136.8h-4v1h4V136.8L165.4,136.8z M171.4,136.8h-4v1h4V136.8L171.4,136.8z M177.4,136.8h-4v1h4V136.8
		L177.4,136.8z M183.4,136.8h-4v1h4V136.8L183.4,136.8z M189.4,136.8h-4v1h4V136.8L189.4,136.8z M195.4,136.8h-4v1h4V136.8
		L195.4,136.8z M201.4,136.8h-4v1h4V136.8L201.4,136.8z M207.4,136.8h-4v1h4V136.8L207.4,136.8z M213.4,136.8h-4v1h4V136.8
		L213.4,136.8z M219.4,136.8h-4v1h4V136.8L219.4,136.8z M225.4,136.8h-4v1h4V136.8L225.4,136.8z M231.4,136.8h-4v1h4V136.8
		L231.4,136.8z M237.4,136.8h-4v1h4V136.8L237.4,136.8z M243.4,136.8h-4v1h4V136.8L243.4,136.8z M249.4,136.8h-4v1h4V136.8
		L249.4,136.8z M255.4,136.8h-4v1h4V136.8L255.4,136.8z M261.4,136.8h-4v1h4V136.8L261.4,136.8z M267.4,136.8h-4v1h4V136.8
		L267.4,136.8z M273.4,136.8h-4v1h4V136.8L273.4,136.8z M279.4,136.8h-4v1h4V136.8L279.4,136.8z M285.4,136.8h-4v1h4V136.8
		L285.4,136.8z M291.4,136.8h-4v1h4V136.8L291.4,136.8z M297.4,136.8h-4v1h4V136.8L297.4,136.8z M303.4,136.8h-4v1h4V136.8
		L303.4,136.8z M309.4,136.8h-4v1h4V136.8L309.4,136.8z M315.4,136.8h-4v1h4V136.8L315.4,136.8z M321.4,136.8h-4v1h4V136.8
		L321.4,136.8z M327.4,136.8h-4v1h4V136.8L327.4,136.8z M333.4,136.8h-4v1h4V136.8L333.4,136.8z M339.4,136.8h-4v1h4V136.8
		L339.4,136.8z M340.5,132.9h-1v4h1V132.9L340.5,132.9z M340.5,126.9h-1v4h1V126.9L340.5,126.9z M340.5,120.9h-1v4h1V120.9
		L340.5,120.9z M340.5,114.9h-1v4h1V114.9L340.5,114.9z M340.5,108.9h-1v4h1V108.9L340.5,108.9z M340.5,102.9h-1v4h1V102.9
		L340.5,102.9z M340.5,96.9h-1v4h1V96.9L340.5,96.9z M340.5,90.9h-1v4h1V90.9L340.5,90.9z M340.5,84.9h-1v4h1V84.9L340.5,84.9z
		 M340.5,78.9h-1v4h1V78.9L340.5,78.9z M340.5,72.9h-1v4h1V72.9L340.5,72.9z M340.5,66.9h-1v4h1V66.9L340.5,66.9z M340.5,60.9h-1v4
		h1V60.9L340.5,60.9z M340.5,54.9h-1v4h1V54.9L340.5,54.9z M340.5,48.9h-1v4h1V48.9L340.5,48.9z M340.5,42.9h-1v4h1V42.9L340.5,42.9
		z M340.5,36.9h-1v4h1V36.9L340.5,36.9z M340.5,30.9h-1v4h1V30.9L340.5,30.9z M340.5,24.9h-1v4h1V24.9L340.5,24.9z M340.5,18.9h-1v4
		h1V18.9L340.5,18.9z M340.5,12.9h-1v4h1V12.9L340.5,12.9z M340.5,6.9h-1v4h1V6.9L340.5,6.9z"/>
</g>
<g>
	
		<rect x="363.5" y="55.8" transform="matrix(0.7071 0.7071 -0.7071 0.7071 155.3129 -237.941)" class="st1" width="2.7" height="25.4"/>
	
		<rect x="363.5" y="55.8" transform="matrix(-0.7071 0.7071 -0.7071 -0.7071 671.3264 -141.0551)" class="st1" width="2.7" height="25.4"/>
</g>
<g>
	
		<rect x="218.7" y="10.1" transform="matrix(0.7071 0.7071 -0.7071 0.7071 76.3442 -150.1803)" class="st3" width="1.5" height="13.9"/>
	
		<rect x="218.7" y="10.1" transform="matrix(-0.7071 0.7071 -0.7071 -0.7071 386.7015 -126.0461)" class="st3" width="1.5" height="13.9"/>
</g>
<line class="st4" x1="309" y1="35.3" x2="374.8" y2="35.3"/>
<line class="st4" x1="309.2" y1="102.4" x2="375" y2="102.4"/>
<g>
	<line class="st5" x1="187.5" y1="32.1" x2="187.5" y2="3.1"/>
	<polygon class="st3" points="185.5,6.2 187.4,0.8 189.4,6.2 	"/>
	<polygon class="st3" points="189.4,28.9 187.4,34.3 185.5,28.9 	"/>
</g>
<text transform="matrix(1 0 0 1 195.0808 21.6904)" class="st3 st6 st7">0.5</text>
<g>
	
		<rect x="218.7" y="112.5" transform="matrix(0.7071 0.7071 -0.7071 0.7071 148.7855 -120.1741)" class="st3" width="1.5" height="13.9"/>
	
		<rect x="218.7" y="112.5" transform="matrix(-0.7071 0.7071 -0.7071 -0.7071 459.1428 48.8427)" class="st3" width="1.5" height="13.9"/>
</g>
<g>
	<line class="st5" x1="187.5" y1="134.5" x2="187.5" y2="105.5"/>
	<polygon class="st3" points="185.5,108.7 187.4,103.3 189.4,108.7 	"/>
	<polygon class="st3" points="189.4,131.4 187.4,136.8 185.5,131.4 	"/>
</g>
<text transform="matrix(1 0 0 1 195.0808 124.1379)" class="st3 st6 st7">0.5</text>
<g>
	<g>
		<line class="st5" x1="37.8" y1="68.5" x2="66.8" y2="68.5"/>
		<polygon class="st3" points="63.6,66.6 69,68.5 63.6,70.4 		"/>
		<polygon class="st3" points="40.9,70.4 35.5,68.5 40.9,66.6 		"/>
	</g>
	<g>
		<rect x="61.1" y="51.1" transform="matrix(0.7071 0.7071 -0.7071 0.7071 59.184 -26.73)" class="st3" width="1.5" height="13.9"/>
		
			<rect x="61.1" y="51.1" transform="matrix(-0.7071 0.7071 -0.7071 -0.7071 146.6643 55.4025)" class="st3" width="1.5" height="13.9"/>
	</g>
	<text transform="matrix(1 0 0 1 37.4829 62.7014)" class="st3 st6 st7">0.5</text>
</g>
<g>
	<g>
		<line class="st5" x1="308.2" y1="68.5" x2="337.2" y2="68.5"/>
		<polygon class="st3" points="334.1,66.6 339.5,68.5 334.1,70.4 		"/>
		<polygon class="st3" points="311.4,70.4 306,68.5 311.4,66.6 		"/>
	</g>
	<g>
		
			<rect x="331.6" y="51.1" transform="matrix(0.7071 0.7071 -0.7071 0.7071 138.4072 -217.9917)" class="st3" width="1.5" height="13.9"/>
		
			<rect x="331.6" y="51.1" transform="matrix(-0.7071 0.7071 -0.7071 -0.7071 608.411 -135.8592)" class="st3" width="1.5" height="13.9"/>
	</g>
	<text transform="matrix(1 0 0 1 307.9679 62.7014)" class="st3 st6 st7">0.5</text>
</g>
</svg>
