<?xml version="1.0" encoding="utf-8"?>
<!-- Generator: Adobe Illustrator 18.1.1, SVG Export Plug-In . SVG Version: 6.00 Build 0)  -->
<svg version="1.1" id="Layer_1" xmlns="http://www.w3.org/2000/svg" xmlns:xlink="http://www.w3.org/1999/xlink" x="0px" y="0px"
	 viewBox="0 0 300 168" enable-background="new 0 0 300 168" xml:space="preserve">
<rect y="0" fill="#FFFFFF" width="300" height="168"/>
<g id="XMLID_172_">
	<g id="XMLID_138_">
		<g id="XMLID_161_">
			<path id="XMLID_165_" fill="#808080" d="M33.2,142l-11.5-11.5c-0.4-0.4-1-0.4-1.4,0l-1.8,1.8c-2.2,2.2-3.4,5.1-3.5,8
				c-0.1,2.9,0.7,5.8,2.8,8.3l0.1,0.1l4,4.5c0.4,0.4,1,0.4,1.3,0l9.9-9.9C33.6,143,33.6,142.4,33.2,142"/>
			<path id="XMLID_164_" fill="#808080" d="M16.1,116.3c-0.6,1.3-1.2,2.8-1.2,4.5c0,1.1,0.2,2.2,0.7,3.3c0.5,1.1,1.2,2.3,2.3,3.4
				c0.4,0.4,0.9,0.6,1.4,0.6c0.5,0,0.9-0.2,1.3-0.5c0.8-0.7,0.9-1.9,0.1-2.7c-0.8-0.9-1.3-1.7-1.6-2.4c-0.3-0.7-0.4-1.2-0.4-1.8
				c0-0.6,0.1-1.2,0.4-1.8c0.4-1,1-2.1,1.6-3.3c0.3-0.6,0.6-1.3,0.8-2c0.2-0.7,0.4-1.5,0.4-2.4c0-1-0.2-2.1-0.7-3.2
				c-0.5-1.1-1.3-2.2-2.3-3.2c-0.7-0.8-2-0.8-2.7,0c-0.8,0.8-0.8,2,0,2.8c0.8,0.8,1.3,1.6,1.6,2.2c0.3,0.6,0.4,1.1,0.4,1.6
				c0,0.5-0.1,1.1-0.4,1.7C17.4,113.9,16.7,115,16.1,116.3"/>
			<path id="XMLID_163_" fill="#808080" d="M35.2,140c0.4,0.4,1,0.4,1.4,0l9.9-9.9c0.4-0.4,0.4-1,0-1.3l-4.5-4l-0.1-0.1
				c-2.4-2-5.4-2.9-8.3-2.8c-2.8,0.1-5.7,1.2-8,3.5l-1.8,1.8c-0.4,0.4-0.4,1,0,1.4L35.2,140z"/>
			<path id="XMLID_162_" fill="#808080" d="M61.2,150.2c0.2-4.5-1.5-9.1-4.8-12.4c-0.3-0.3-0.6-0.6-1-0.9l-5.4-4.7
				c-0.4-0.3-1.1-0.3-1.4,0.1l-23.3,23.2c-0.4,0.4-0.4,1-0.1,1.4l4.7,5.4c0.3,0.3,0.6,0.7,0.9,1c3.4,3.4,8,5,12.4,4.8
				c4-0.2,8-1.8,11.2-4.5c1.2-1,2.2-2.1,2.2-2.1c0.1-0.2,0.2-0.3,0.2-0.3C59.6,157.9,61.1,154.1,61.2,150.2"/>
		</g>
		<g id="XMLID_139_">
			<path id="XMLID_142_" fill="#808080" d="M38.8,32.6c9,0,16.3-7.3,16.3-16.3c0-9-7.3-16.3-16.3-16.3c-9,0-16.3,7.3-16.3,16.3
				C22.5,25.3,29.8,32.6,38.8,32.6"/>
			<path id="XMLID_141_" fill="#808080" d="M47.5,35.6l-9.5,27.5l-9.2-27.5c-15.1,0-23.4,14.6-23.4,32.6h65.5
				C70.9,50.2,62.5,35.6,47.5,35.6"/>
			<polygon id="XMLID_140_" fill="#808080" points="33.2,40.6 38.1,56.1 43,40.6 38.1,35.4 			"/>
		</g>
	</g>
	<g id="XMLID_171_">
		<g id="XMLID_156_">
			<path id="XMLID_160_" fill="#808080" d="M224.3,136.2c0.9,0,1.7-0.3,2.4-1c8.3-8.3,19.4-12.9,31.1-12.9
				c11.8,0,22.8,4.6,31.1,12.9c1.3,1.3,3.4,1.3,4.7,0c1.3-1.3,1.3-3.4,0-4.7c-9.6-9.6-22.3-14.8-35.8-14.8
				c-13.5,0-26.3,5.3-35.8,14.8c-1.3,1.3-1.3,3.4,0,4.7C222.6,135.9,223.5,136.2,224.3,136.2"/>
			<path id="XMLID_159_" fill="#808080" d="M282.1,145.4c0.9,0,1.7-0.3,2.4-1c1.3-1.3,1.3-3.4,0-4.7c-14.7-14.7-38.6-14.7-53.3,0
				c-1.3,1.3-1.3,3.4,0,4.7c1.3,1.3,3.4,1.3,4.7,0c12.1-12.1,31.7-12.1,43.8,0C280.4,145.1,281.2,145.4,282.1,145.4"/>
			<path id="XMLID_158_" fill="#808080" d="M272.9,154.7c0.9,0,1.7-0.3,2.4-1c1.3-1.3,1.3-3.4,0-4.7c-9.6-9.6-25.2-9.6-34.9,0
				c-1.3,1.3-1.3,3.4,0,4.7c1.3,1.3,3.4,1.3,4.7,0c7-7,18.4-7,25.4,0C271.2,154.3,272,154.7,272.9,154.7"/>
			<path id="XMLID_157_" fill="#808080" d="M253,156.2c-2.7,2.7-2.7,7,0,9.7c2.7,2.7,7,2.7,9.7,0c2.7-2.7,2.7-7,0-9.7
				C260,153.5,255.6,153.5,253,156.2"/>
		</g>
		<g id="XMLID_150_">
			<path id="XMLID_154_" fill="#808080" d="M241,19c0-4.2,3.5-7.7,7.7-7.7h10.8c4.2,0,7.7,3.5,7.7,7.7v6.3h9.6V19
				c0-9.5-7.8-17.2-17.2-17.2h-10.8c-9.5,0-17.2,7.7-17.2,17.2v6.3h9.6V19z"/>
			<path id="XMLID_151_" fill="#808080" d="M254.2,36.5c3.7,0,6.7,3.2,6.7,7.1c0,2.4-2.4,5.3-2.4,5.3c-0.2,0.3-0.3,0.7-0.3,1.1
				l2.4,12.8c0.1,0.6-0.3,1.2-1,1.2h-11c-0.7,0-1.1-0.5-1-1.2l2.2-11.6c0.1-0.6,0.2-1.5,0.2-2l-0.2-0.3c0,0-2.4-2.9-2.4-5.3
				C247.4,39.7,250.5,36.5,254.2,36.5 M230.2,68.2h47.6c1.2,0,2.3-1,2.3-2.3V32c0-1.2-1-2.3-2.3-2.3h-47.6c-1.2,0-2.3,1-2.3,2.3
				v33.9C228,67.2,229,68.2,230.2,68.2"/>
		</g>
	</g>
	<g id="XMLID_155_">
		<g id="XMLID_166_">
			<path id="XMLID_167_" fill="#808080" d="M180.5,34.6l-5.5-1.7c-0.4-2.2-1.2-4.4-2.4-6.4c0,0,0,0,0-0.1c-0.8-2.6,3.9-7.4,4.2-8.1
				c0.3-0.8,0.8-2.7-3.1-3.6c-2.9-0.7-7.4,2-9.5,3.3c-4.8-3-10.8-4.8-17.4-4.8c-14.5,0-26.4,8.8-28.3,20.1c-2.3,0.5-8.8,2.5-2.9,9.5
				c0.5,0.7,0.6-0.1,0.6-0.6c0-0.6-0.9-3.5,1.2-4.2c0.3-0.1,0.6-0.3,0.8-0.6c0.3,6.8,4.2,12.8,10.2,16.9c0,0.2-0.1,0.4-0.1,0.6v9.1
				c0,0,0,4.1,4.1,4.1h5.4c0,0,4.1,0,4.1-4.1v-4.6c1.6,0.2,3.2,0.4,4.9,0.4c1.5,0,2.9-0.1,4.3-0.3v4.5c0,0,0,4.1,4.1,4.1h5.4
				c0,0,4.1,0,4.1-4.1V55c0,0,0-0.1,0-0.3c2.3-1.5,4.4-3.3,6.1-5.4l4,1.2c0,0,3.9,1.2,5.1-2.7l2.8-9.3
				C182.6,38.6,183.5,35.5,180.5,34.6 M153,17.8c-0.1,0.5-0.6,0.8-1.1,0.8c-0.1,0-0.2,0-0.3,0c-4.3-1.2-10.1,0-10.1,0
				c-0.6,0.1-1.3-0.2-1.4-0.9c-0.1-0.6,0.3-1.2,0.9-1.3c0.3-0.1,6.4-1.3,11.3,0C152.8,16.5,153.2,17.2,153,17.8 M168,31.4
				c0,1.7-1.3,3-3,3c-1.7,0-3-1.3-3-3c0-1.7,1.3-3,3-3C166.6,28.3,168,29.7,168,31.4"/>
		</g>
		<g id="XMLID_143_">
			<g id="XMLID_144_">
				<path id="XMLID_147_" fill="#808080" d="M125.4,149.8c0,0.9-0.7,1.6-1.6,1.6h-6.2c-0.9,0-1.6-0.7-1.6-1.6v-6
					c0-0.9,0.7-1.6,1.6-1.6h6.2c0.9,0,1.6,0.7,1.6,1.6V149.8z M170.9,128.1h-51.6h-5.1c-1.7,0-3.1,1.4-3.1,3.1v33.1
					c0,1.7,1.4,3.1,3.1,3.1h56.7c1.7,0,3.1-1.4,3.1-3.1V143v-11.7C174.1,129.5,172.7,128.1,170.9,128.1"/>
				<path id="XMLID_146_" fill="#808080" d="M169.9,107.3l-1.4-2.6c-0.8-1.5-2.8-2.1-4.3-1.2L125,125h12.3L169.9,107.3z"/>
				<path id="XMLID_145_" fill="#808080" d="M184.4,133.7l-10.3-18.8L155.5,125h15.4c3.5,0,6.3,2.8,6.3,6.3v10l6-3.3
					C184.7,137.1,185.3,135.2,184.4,133.7"/>
			</g>
		</g>
	</g>
</g>
</svg>
