<?xml version="1.0" encoding="utf-8"?>
<!-- Generator: Adobe Illustrator 18.1.1, SVG Export Plug-In . SVG Version: 6.00 Build 0)  -->
<svg version="1.1" id="Layer_1" xmlns="http://www.w3.org/2000/svg" xmlns:xlink="http://www.w3.org/1999/xlink" x="0px" y="0px"
	 viewBox="0 0 300 168" enable-background="new 0 0 300 168" xml:space="preserve">
<g>
	<polygon fill="#EC0000" points="34.9,0 34.9,6.9 6.9,6.9 6.9,34.9 0,34.9 0,0 	"/>
	<polygon fill="#EC0000" points="0,133.1 6.9,133.1 6.9,161.1 34.9,161.1 34.9,168 0,168 	"/>
	<polygon fill="#EC0000" points="265.1,168 265.1,161.1 293.1,161.1 293.1,133.1 300,133.1 300,168 	"/>
	<polygon fill="#EC0000" points="300,34.9 293.1,34.9 293.1,6.9 265.1,6.9 265.1,0 300,0 	"/>
</g>
<g>
	<path fill="#EC0000" d="M23.2,92.3l2-3.2c0.5,0.4,2.1,1.6,4.6,1.6c2.2,0,3.4-1.1,3.4-2.5c0-1.9-2.3-2.5-4.8-3.7
		c-2.7-1.3-4.6-3-4.6-6.5c0-3.7,3.1-6,7-6c3.5,0,5.4,1.1,6.3,1.8L35.2,77c-0.7-0.5-2.4-1.3-4.2-1.3c-1.8,0-2.9,0.8-2.9,2.2
		c0,1.7,1.7,2.2,4,3.3c2.9,1.3,5.6,2.8,5.6,6.8c0,3.9-3,6.4-7.8,6.4C26.4,94.4,24.2,93.1,23.2,92.3z"/>
	<path fill="#EC0000" d="M39,73.6c0-1.4,1.1-2.5,2.6-2.5c1.5,0,2.7,1.2,2.7,2.5c0,1.4-1.1,2.6-2.7,2.6C40.2,76.2,39,75,39,73.6z
		 M39.5,78.2h4.4V94h-4.4V78.2z"/>
	<path fill="#EC0000" d="M46.8,78.2H51v2c0.8-0.9,2.2-2.3,4.7-2.3c2.2,0,3.5,1,4.1,2.5c1.3-1.5,2.8-2.5,5.1-2.5
		c3.3,0,4.5,2.2,4.5,5.1V94h-4.3V83.8c0-1.6-0.5-2.4-1.9-2.4c-1.3,0-2.3,1-3,1.8V94h-4.3V83.8c0-1.6-0.6-2.4-1.9-2.4
		c-1.6,0-2.6,1.5-3,2V94h-4.3V78.2z"/>
	<path fill="#EC0000" d="M71.9,78.2h4.2v1.7c0.9-1.1,2.2-2,4.4-2c4,0,6.4,3,6.4,8.3c0,5-3,8.3-7.1,8.3c-2,0-3.1-0.7-3.6-1.1v7.9
		h-4.3V78.2z M82.3,86.1c0-3-1-4.8-3.2-4.8c-1.6,0-2.7,1.2-3,1.6V90c0.6,0.5,1.4,1.1,2.7,1.1C81.1,91.1,82.3,89.2,82.3,86.1z"/>
	<path fill="#EC0000" d="M88.6,70.6H93V94h-4.3V70.6z"/>
	<path fill="#EC0000" d="M94.7,86.1c0-5,3.4-8.2,7.8-8.2c4.5,0,6.9,2.9,6.9,7.8c0,0.5,0,1-0.1,1.5h-10c0.2,2.3,1.4,4.1,4,4.1
		c2.1,0,3.3-0.7,4.1-1.1l1.4,2.8c-1,0.6-2.7,1.5-5.9,1.5C97.6,94.4,94.7,91.1,94.7,86.1z M105.2,84.2c0-1.8-0.7-3.3-2.7-3.3
		c-1.9,0-2.9,1.2-3.2,3.3H105.2z"/>
	<path fill="#EC0000" d="M116.3,72.4h7.1c4.7,0,8.3,2.2,8.3,6.8c0,4.7-3.4,7.1-8.8,7.1h-2V94h-4.6V72.4z M122.9,82.9
		c2.9,0,4.1-1.2,4.1-3.6c0-2.2-1.2-3.4-4-3.4h-2.1v7H122.9z"/>
	<path fill="#EC0000" d="M131.5,86.1c0-5,3.4-8.2,7.8-8.2c4.5,0,6.9,2.9,6.9,7.8c0,0.5,0,1-0.1,1.5h-10c0.2,2.3,1.4,4.1,4,4.1
		c2.1,0,3.3-0.7,4.1-1.1l1.4,2.8c-1,0.6-2.7,1.5-5.9,1.5C134.5,94.4,131.5,91.1,131.5,86.1z M142,84.2c0-1.8-0.7-3.3-2.7-3.3
		c-1.9,0-2.9,1.2-3.2,3.3H142z"/>
	<path fill="#EC0000" d="M147.9,78.2h4.3v2.1c0.7-1.2,2-2.5,4-2.5c1.2,0,1.8,0.2,2.1,0.4l-1,3.8c-0.3-0.2-0.7-0.4-1.7-0.4
		c-1.9,0-3.1,1.7-3.4,2.4v10h-4.3V78.2z"/>
	<path fill="#EC0000" d="M158.8,92.9l1.5-3c0.6,0.4,2.1,1.3,3.9,1.3c1.7,0,2.6-0.5,2.6-1.4c0-1.1-1.8-1.4-4-2.4
		c-2.2-1-3.5-2.3-3.5-4.7c0-3,2.3-4.8,5.9-4.8c2.7,0,4.4,0.8,5.1,1.3l-1.5,3c-0.6-0.4-1.9-1-3.4-1c-1.5,0-2.2,0.6-2.2,1.4
		c0,1.1,1.4,1.4,3.3,2.1c2.5,1,4.3,2.2,4.3,4.8c0,3.3-2.4,5.1-6.3,5.1C161.6,94.4,159.8,93.6,158.8,92.9z"/>
	<path fill="#EC0000" d="M171.1,86.2c0-4.1,2.4-8.4,7.9-8.4c5.5,0,8,4.2,8,8.2c0,4-2.4,8.4-8,8.4C173.5,94.4,171.1,90.2,171.1,86.2z
		 M182.5,86.2c0-3-1-5.1-3.5-5.1c-2.4,0-3.3,2-3.3,5c0,3,1,5.1,3.4,5.1C181.6,91.2,182.5,89.1,182.5,86.2z"/>
	<path fill="#EC0000" d="M188.6,78.2h4.2v2c1.1-1.3,2.8-2.4,5-2.4c3.4,0,4.7,2.2,4.7,5.1V94h-4.3V83.8c0-1.6-0.6-2.4-2.1-2.4
		c-1.4,0-2.6,1.1-3.3,2V94h-4.3V78.2z"/>
	<path fill="#EC0000" d="M204,90c0-4.1,4.3-5.6,8.5-5.6h0.6v-0.9c0-1.5-0.7-2.2-2.6-2.2c-1.7,0-3.1,0.7-4,1.5l-1.9-2.6
		c1.3-1.2,3.4-2.3,6.4-2.3c4.3,0,6.4,1.7,6.4,5.9v5.7c0,2.1,0.2,3.7,0.5,4.7h-4.3c-0.1-0.4-0.2-1.2-0.3-1.7c-0.8,1-2.4,2.1-4.5,2.1
		C206.1,94.4,204,92.8,204,90z M213,89.9V87h-0.6c-2.5,0-4.3,0.7-4.3,2.6c0,1.2,0.9,1.7,1.9,1.7C211.4,91.3,212.3,90.7,213,89.9z"/>
	<path fill="#EC0000" d="M220,70.6h4.3V94H220V70.6z"/>
	<path fill="#EC0000" d="M232.4,72.4h12.4v3.8H237v5.3h6.9V85H237v9h-4.6V72.4z"/>
	<path fill="#EC0000" d="M244.8,90c0-4.1,4.3-5.6,8.5-5.6h0.6v-0.9c0-1.5-0.7-2.2-2.6-2.2c-1.7,0-3.1,0.7-4,1.5l-1.9-2.6
		c1.3-1.2,3.4-2.3,6.4-2.3c4.3,0,6.4,1.7,6.4,5.9v5.7c0,2.1,0.2,3.7,0.5,4.7h-4.3c-0.1-0.4-0.2-1.2-0.3-1.7c-0.8,1-2.4,2.1-4.5,2.1
		C246.9,94.4,244.8,92.8,244.8,90z M253.8,89.9V87h-0.6c-2.5,0-4.3,0.7-4.3,2.6c0,1.2,0.9,1.7,1.9,1.7
		C252.3,91.3,253.2,90.7,253.8,89.9z"/>
	<path fill="#EC0000" d="M260.4,73.6c0-1.4,1.1-2.5,2.6-2.5s2.7,1.2,2.7,2.5c0,1.4-1.1,2.6-2.7,2.6S260.4,75,260.4,73.6z
		 M260.9,78.2h4.4V94h-4.4V78.2z"/>
	<path fill="#EC0000" d="M268.1,78.2h4.3v2.1c0.7-1.2,2-2.5,4-2.5c1.2,0,1.8,0.2,2.1,0.4l-1,3.8c-0.3-0.2-0.7-0.4-1.7-0.4
		c-1.9,0-3.1,1.7-3.4,2.4v10h-4.3V78.2z"/>
</g>
</svg>
