<?xml version="1.0" encoding="utf-8"?>
<!-- Generator: Adobe Illustrator 19.1.0, SVG Export Plug-In . SVG Version: 6.00 Build 0)  -->
<svg version="1.1" xmlns="http://www.w3.org/2000/svg" xmlns:xlink="http://www.w3.org/1999/xlink" x="0px" y="0px"
	 viewBox="0 0 237 116.4" style="enable-background:new 0 0 237 116.4;" xml:space="preserve">
<style type="text/css">
	.st0{fill:#EC0000;}
	.st1{fill:#FFFFFF;}
	.st2{fill:#666666;}
	.st3{fill:#1BB3BC;}
</style>
<g id="CLEAR_SPACE_LOGO">
	<g>
		<g>
			<polygon class="st0" points="0,0 237,0 237,69 0,69 0,0 			"/>
		</g>
		<path class="st1" d="M37.3,13.3c0,4.5,7.7,9.5,7.7,14.7c0,0,0,0.5-0.2,1C52,30.5,57,34,57,38.2c0,5.6-9.1,10.1-20.3,10.1
			c-0.1,0-0.1,0-0.2,0c-11.1,0-20.2-4.4-20.2-9.9c0-4.1,5.5-7.5,12.2-9.3c0,2.3,7.6,9.5,7.8,12.4c0,0,0,0.2,0,0.5c0,0.1,0,0.3,0,0.4
			c1.6-0.9,1.6-3.5,1.6-3.5c0-6.3-7.4-9.1-7.4-15.4c0-2.4,1.1-4.2,2.2-4.7v1.7c0,4.5,8,9.6,8,13.7v1.4c1.9-0.7,1.9-4.1,1.9-4.1
			c0-5.7-7.4-8.9-7.4-15.4c0-2.4,1.1-4.2,2.2-4.7V13.3L37.3,13.3z"/>
		<path class="st1" d="M73.2,46.6c-3.9,0-6.7-1.1-6.7-1.1v-6.7h1c0.5,3.6,3.2,6.3,6.3,6.3c3.1,0,5.3-1.7,5.3-4.4
			c0-2.9-2.9-4.2-4.8-5.2L71.5,34c-2.6-1.3-4.8-3.5-4.8-6.4c0-3.7,2.8-6.9,8.1-6.9c3.6,0,6.6,1.2,6.6,1.2v6h-1
			c-0.6-3.2-2.3-5.7-6-5.7c-2.7,0-4.3,1.9-4.3,3.7c0,2.5,1.7,3.6,3.7,4.6l2.8,1.4c2.5,1.3,5.7,3.4,5.7,7
			C82.3,43.5,79.1,46.6,73.2,46.6L73.2,46.6z"/>
		<path class="st1" d="M89.7,46.4c-2.4,0-4-1.6-4-4c0-1.7,1.2-3,4-4l4.8-1.7v-1.5c0-2.2-1-3.6-2.6-3.6c-1.1,0-2.1,0.5-2.7,1.4
			C89,33.2,89,33.7,89,34.1c0,0.6,0.4,1.3,0.4,1.3L87,36.5c-0.3-0.5-0.6-1.2-0.6-2c0-0.1,0-0.3,0-0.4c0.2-1.3,1.3-2.1,2.8-3
			c1.5-0.9,2.7-1.1,3.6-1.1c4.5,0,5.3,3.6,5.3,4.7V42c0,1.2,0.1,1.9,1.1,1.9c0.3,0,0.5,0,0.9-0.1l0.9-0.3v1.1l-5,1.9
			c-0.7-0.5-1.1-1.5-1.2-2.3C93.5,45.1,91.4,46.4,89.7,46.4L89.7,46.4z M91.2,39.2c-0.7,0.3-2.1,0.9-2.1,2.6c0,0.9,0.5,2.4,2.4,2.4
			c0.9,0,2.1-0.5,3-1.2v-5.3L91.2,39.2L91.2,39.2z"/>
		<path class="st1" d="M102,46.1v-0.9l1.2-0.2c0.7-0.1,1.2-0.7,1.2-1.4v-9.5c0-0.8-0.4-1.2-1.1-1.2c-0.2,0-0.5,0-0.8,0.1l-0.5,0.2
			v-1.1l5.1-2.2h0.7v2.6c1.6-1.7,3.4-2.6,5.1-2.6c3.6,0,5.4,2.6,5.4,5.6v8.1c0,0.7,0.5,1.3,1.2,1.4l1.2,0.2v0.9h-8.5v-0.9l1.2-0.2
			c0.7-0.1,1.3-0.7,1.3-1.4v-8c0-1.1-0.3-3.5-3.1-3.5c-1.6,0-2.9,1-3.7,1.7v9.8c0,0.7,0.6,1.2,1.3,1.4l1.2,0.2v0.9H102L102,46.1z"/>
		<path class="st1" d="M133,32.1h-5v8.8c0,2,1,3,2.5,3c0.6,0,1.6-0.2,2.5-0.7l0.4,0.9l-3.2,2c0,0-0.6,0.1-1,0.1
			c-3.1,0-4.8-1.8-4.8-5.7v-8.5h-2.6v-0.9c0,0,3.9-1.5,5.4-5.2h0.7v4.5h5.6L133,32.1L133,32.1z"/>
		<path class="st1" d="M139,46.4c-2.4,0-4-1.6-4-4c0-1.7,1.2-3,4-4l4.8-1.7v-1.5c0-2.2-1-3.6-2.6-3.6c-1.1,0-2.1,0.5-2.7,1.4
			c-0.2,0.3-0.3,0.8-0.3,1.1c0,0.6,0.4,1.3,0.4,1.3l-2.3,1.1c-0.3-0.5-0.6-1.2-0.6-2c0-0.1,0-0.3,0-0.4c0.2-1.3,1.3-2.1,2.8-3
			c1.5-0.9,2.7-1.1,3.6-1.1c4.5,0,5.3,3.6,5.3,4.7V42c0,1.2,0.1,1.9,1.1,1.9c0.3,0,0.5,0,0.9-0.1l0.9-0.3v1.1l-5,1.9
			c-0.7-0.5-1.1-1.5-1.2-2.3C142.7,45.1,140.7,46.4,139,46.4L139,46.4z M140.5,39.2c-0.7,0.3-2.1,0.9-2.1,2.6c0,0.9,0.5,2.4,2.4,2.4
			c0.9,0,2.1-0.5,3-1.2v-5.3L140.5,39.2L140.5,39.2z"/>
		<path class="st1" d="M151.2,46.1v-0.9l1.2-0.2c0.7-0.1,1.2-0.7,1.2-1.4v-9.5c0-0.8-0.4-1.2-1.1-1.2c-0.2,0-0.5,0-0.8,0.1l-0.5,0.2
			v-1.1l5.1-2.2h0.8v2.6c1.6-1.7,3.4-2.6,5.1-2.6c3.6,0,5.4,2.6,5.4,5.6v8.1c0,0.7,0.5,1.3,1.2,1.4l1.2,0.2v0.9h-8.5v-0.9l1.2-0.2
			c0.7-0.1,1.3-0.7,1.3-1.4v-8c0-1.1-0.3-3.5-3.1-3.5c-1.6,0-2.9,1-3.7,1.7v9.8c0,0.7,0.6,1.2,1.3,1.4l1.2,0.2v0.9H151.2L151.2,46.1
			z"/>
		<path class="st1" d="M179,46.4c-3.3,0-7.4-2.5-7.4-7.9c0-4.7,3.7-8.6,8.6-8.6c1.6,0,2.8,0.3,3.7,0.7v-8.1c0-0.9-0.5-1.1-1-1.1
			c-0.3,0-0.7,0.1-1,0.2l-0.7,0.2v-1.1l5.6-2.3h0.7v23.5c0,1.4,0.2,2.1,1.2,2.1c0.3,0,0.5,0,0.9-0.1l0.9-0.3v1.1l-5,1.9
			c-0.8-0.5-1.2-1.5-1.4-2.3C183.1,45.1,181.4,46.4,179,46.4L179,46.4z M180.6,31.4c-2.6,0-5.2,1.6-5.2,6.4c0,4,2,6.4,5.1,6.4
			c1.9,0,3.1-1.1,3.3-1.7v-9.3C183.5,32.1,182.1,31.4,180.6,31.4L180.6,31.4z"/>
		<path class="st1" d="M195.6,36.9v0.2c0,4.7,2.7,7.1,6,7.1c1.7,0,3.3-0.6,4.5-1.6V44c-1.4,1.3-3.6,2.4-6.3,2.4c-5.6,0-8-4.2-8-8.1
			c0-4.6,3.5-8.4,8.1-8.4c3.7,0,6.7,2.6,6.7,6.5v0.5H195.6L195.6,36.9z M202.8,35.4L202.8,35.4c0-2.7-1.5-4-3.3-4
			c-2,0-3.5,1.3-3.9,4H202.8L202.8,35.4z"/>
		<path class="st1" d="M208.7,46.1v-0.9l1.2-0.2c0.7-0.1,1.2-0.7,1.2-1.4v-9.5c0-0.8-0.4-1.2-1.1-1.2c-0.3,0-0.5,0-0.8,0.1l-0.5,0.2
			v-1.1l5.1-2.2h0.7v3.5c1.3-2.5,2.8-3.5,4.6-3.5c1.4,0,1.8,0.4,1.8,0.4V34h-0.7c-0.2-1-0.9-1.5-1.9-1.5c-1.1,0-2.6,0.3-3.6,2.4v8.8
			c0,0.7,0.7,1.3,1.4,1.4l1.7,0.2v0.9H208.7L208.7,46.1z"/>
	</g>
	<g>
		<g>
			<rect x="6.1" y="93.2" class="st2" width="222.7" height="1"/>
			<polygon class="st2" points="227.6,91.8 233,93.7 227.6,95.6 			"/>
			<polygon class="st2" points="9.2,95.6 3.8,93.7 9.2,91.8 			"/>
		</g>
	</g>
</g>
<g id="JUNK">
	<rect x="0" y="71.8" class="st3" width="2" height="44.6"/>
	<rect x="235" y="71.8" class="st3" width="2" height="44.6"/>
</g>
</svg>
