<?xml version="1.0" encoding="utf-8"?>
<!-- Generator: Adobe Illustrator 18.1.1, SVG Export Plug-In . SVG Version: 6.00 Build 0)  -->
<svg version="1.1" id="CLEAR_SPACE_LOGO" xmlns="http://www.w3.org/2000/svg" xmlns:xlink="http://www.w3.org/1999/xlink" x="0px"
	 y="0px" viewBox="0 158.2 612 490" enable-background="new 0 158.2 612 490" xml:space="preserve">
<g>
	<g>
		<g>
			<g>
				<defs>
					<polyline id="SVGID_1_" points="612,648.2 0,648.2 0,158.2 612,158.2 612,648.2 					"/>
				</defs>
				<clipPath id="SVGID_2_">
					<use xlink:href="#SVGID_1_"  overflow="visible"/>
				</clipPath>
				<path clip-path="url(#SVGID_2_)" fill="#E6E6E6" d="M439.7,560.1H269.2c-6.8,0-12.3,5.6-12.3,12.6v4.7c0,7,5.5,12.6,12.3,12.6
					h170.5c6.8,0,12.3-5.6,12.3-12.6v-4.7C452,565.8,446.5,560.1,439.7,560.1 M439.7,489.4H269.2c-6.8,0-12.3,5.6-12.3,12.6v4.7
					c0,7,5.5,12.6,12.3,12.6h170.5c6.8,0,12.3-5.6,12.3-12.6V502C452,495,446.5,489.4,439.7,489.4 M414.7,418.7H269.2
					c-6.8,0-12.3,5.6-12.3,12.6v4.7c0,7,5.5,12.6,12.3,12.6h170.5c6.8,0,12.3-5.6,12.3-12.6v-3.7
					C438.8,429.4,426.5,424.8,414.7,418.7 M352.8,347.9h-83.7c-6.8,0-12.3,5.6-12.3,12.6v4.7c0,7,5.5,12.6,12.3,12.6h100
					C362.4,368.5,356.9,358.7,352.8,347.9 M612,295.9c0,64.6-43.2,119.5-101.8,134.4l0,0c-9.5,2.3-19.1,3.7-29.6,4.2v208
					c0,2.3-1.4,4.7-3.2,5.6h134.1V295.9 M477.4,166.6c-57.3,0-105.9,39.8-120.9,94.2h104.1c27.3,0,49.1,23,49.1,50.6v109.1
					c53.2-15,92.8-65.1,92.8-124.6C602.9,224.7,546.5,166.6,477.4,166.6 M461.5,158.2H135l15,16.9L55,282.3l-55-66l14.5-16.4
					l37.7,29.5l82.8-71.2H0v490h234.6c-1.8-0.9-3.2-3.3-3.2-5.6v-349c0-3.7,2.7-6.6,6.4-6.6h105.5
					C347.4,220,397.4,166.2,461.5,158.2 M612,158.2H493.3c66.8,8,118.7,66.5,118.7,137.7V158.2"/>
			</g>
		</g>
		<g>
			<g>
				<defs>
					<polyline id="SVGID_3_" points="612,648.2 0,648.2 0,158.2 612,158.2 612,648.2 					"/>
				</defs>
				<clipPath id="SVGID_4_">
					<use xlink:href="#SVGID_3_"  overflow="visible"/>
				</clipPath>
				<path clip-path="url(#SVGID_4_)" fill="#999999" d="M269.2,590.1c-6.8,0-12.3-5.6-12.3-12.6v-4.7c0-7,5.5-12.6,12.3-12.6h170.5
					c6.8,0,12.3,5.6,12.3,12.6v4.7c0,7-5.5,12.6-12.3,12.6H269.2 M269.2,519.4c-6.8,0-12.3-5.6-12.3-12.6V502
					c0-7,5.5-12.6,12.3-12.6h170.5c6.8,0,12.3,5.6,12.3,12.6v4.7c0,7-5.5,12.6-12.3,12.6H269.2 M343.3,287.5H237.8
					c-3.2,0-6.4,2.8-6.4,6.6v348.5c0,2.3,1.4,4.7,3.2,5.6h243.3c1.8-0.9,3.2-3.3,3.2-5.6v-208c-1.4,0-2.3,0-3.6,0
					c-8.6,0-17.3-0.9-25.5-2.3v3.7c0,7-5.5,12.6-12.3,12.6H269.2c-6.8,0-12.3-5.6-12.3-12.6v-4.7c0-7,5.5-12.6,12.3-12.6h145.5
					c-18.2-9.8-33.6-23.9-45.9-40.8h-100c-6.8,0-12.3-5.6-12.3-12.6v-4.7c0-7,5.5-12.6,12.3-12.6h83.7c-6.4-15.9-9.5-33.7-9.5-52
					l0,0l0,0C342.8,293.1,342.8,290.3,343.3,287.5"/>
			</g>
		</g>
		<g>
			<g>
				<defs>
					<polyline id="SVGID_5_" points="612,648.2 0,648.2 0,158.2 612,158.2 612,648.2 					"/>
				</defs>
				<clipPath id="SVGID_6_">
					<use xlink:href="#SVGID_5_"  overflow="visible"/>
				</clipPath>
				<g clip-path="url(#SVGID_6_)">
					<g>
						<g>
							<defs>
								<path id="SVGID_7_" d="M461,260.8H331.9v183.6h178.2V311.9C510.2,283.7,488.3,260.8,461,260.8"/>
							</defs>
							<clipPath id="SVGID_8_">
								<use xlink:href="#SVGID_7_"  overflow="visible"/>
							</clipPath>
							<path clip-path="url(#SVGID_8_)" fill="#999999" d="M461,260.8H356.9c-3.2,11.2-4.5,23-4.5,35.1
								c-0.5,71.2,55.9,129.3,125,129.3c11.4,0,22.3-1.4,32.7-4.7V311.9C510.2,283.7,488.3,260.8,461,260.8"/>
						</g>
						<g>
							<g>
								<defs>
									<polyline id="SVGID_9_" points="612,648.2 0,648.2 0,158.2 612,158.2 612,648.2 									"/>
								</defs>
								<clipPath id="SVGID_10_">
									<use xlink:href="#SVGID_9_"  overflow="visible"/>
								</clipPath>
								<path clip-path="url(#SVGID_10_)" fill="#1BB3BC" d="M356.9,260.8c14.5-54.3,63.2-94.2,120.5-94.2
									c69.1,0,125.5,58.1,125.5,129.3c0,59.5-39.1,109.6-92.8,124.6c-10.5,2.8-21.4,4.7-32.7,4.7c-69.1,0-125.5-58.1-125.5-129.3
									C351.9,283.7,353.7,272,356.9,260.8 M493.3,158.2h-31.8c-64.1,8-114.1,61.8-118.2,129.3c0,2.8-0.5,5.6-0.5,8.4l0,0
									c0,76.4,60.5,138.7,134.6,138.7c11.4,0,22.3-1.4,32.7-4.2c58.2-15,101.8-69.8,101.8-134.4l0,0
									C612,224.7,560.2,166.2,493.3,158.2"/>
							</g>
							<g>
								<g>
									<defs>
										<polyline id="SVGID_11_" points="612,648.2 0,648.2 0,158.2 612,158.2 612,648.2 										"/>
									</defs>
									<clipPath id="SVGID_12_">
										<use xlink:href="#SVGID_11_"  overflow="visible"/>
									</clipPath>
									<polyline clip-path="url(#SVGID_12_)" fill="#00B100" points="135,158.2 135,158.2 52.3,228.9 14.5,199.9 0,216.3 
										55,282.3 150,175.1 135,158.2 									"/>
								</g>
							</g>
						</g>
					</g>
				</g>
			</g>
		</g>
	</g>
</g>
</svg>
