<?xml version="1.0" encoding="utf-8"?>
<!-- Generator: Adobe Illustrator 18.1.1, SVG Export Plug-In . SVG Version: 6.00 Build 0)  -->
<svg version="1.1" id="CLEAR_SPACE_LOGO" xmlns="http://www.w3.org/2000/svg" xmlns:xlink="http://www.w3.org/1999/xlink" x="0px"
	 y="0px" viewBox="0 157.5 612 476" enable-background="new 0 157.5 612 476" xml:space="preserve">
<g>
	<g>
		<g>
			<g>
				<defs>
					<polyline id="SVGID_1_" points="612,632.5 0,632.5 0,157.5 612,157.5 612,632.5 					"/>
				</defs>
				<clipPath id="SVGID_2_">
					<use xlink:href="#SVGID_1_"  overflow="visible"/>
				</clipPath>
				<path clip-path="url(#SVGID_2_)" fill="#E6E6E6" d="M395.2,474.9H293.8c-1.6,0-2.6,1-2.6,2.6V546c0,1.5,1,2.6,2.6,2.6h101.9
					c1.6,0,2.6-1,2.6-2.6v-68.5C397.8,475.9,396.8,474.9,395.2,474.9 M395.2,360H293.8c-1.6,0-2.6,1-2.6,2.6v68.5
					c0,1.5,1,2.6,2.6,2.6h101.9c1.6,0,2.6-1,2.6-2.6v-68.5C397.8,361,396.8,360,395.2,360 M539.6,360H438.2c-1.6,0-2.6,1-2.6,2.6
					v68.5c0,1.5,1,2.6,2.6,2.6h101.9c1.6,0,2.6-1,2.6-2.6v-68.5C542.2,361,541.1,360,539.6,360 M612,157.5H153.6l17.1,18.5L62.6,294
					L0,221.4l16.6-18l42.9,32.5l94.2-78.3H0v475h612V318.2c0,3.6-2.6,6.2-6.2,6.2h-27.9l0.5,1.5v262.2c0,3.6-2.6,6.2-6.2,6.2h-44.5
					V477.4c0-1.5-1-2.6-2.6-2.6h-76c-1.6,0-2.6,1-2.6,2.6v117.5H262.3c-3.6,0-6.2-2.6-6.2-6.2V326l0.5-1.5h-29
					c-3.6,0-6.2-2.6-6.2-6.2v-9.8c0-3.6,2.6-7.2,5.7-8.2l53.3-19.6v-0.5v-27.3c0-3.6,2.6-6.2,6.2-6.2h35.7c3.6,0,6.2,2.6,6.2,6.2
					v10.3l86.4-31.9c1.6-0.5,3.6-1,5.7-1s4.7,0.5,6.2,1l179.5,69c3.1,1,5.7,5.2,5.7,8.8L612,157.5"/>
			</g>
		</g>
		<g>
			<g>
				<defs>
					<polyline id="SVGID_3_" points="612,632.5 0,632.5 0,157.5 612,157.5 612,632.5 					"/>
				</defs>
				<clipPath id="SVGID_4_">
					<use xlink:href="#SVGID_3_"  overflow="visible"/>
				</clipPath>
				<path clip-path="url(#SVGID_4_)" fill="#999999" d="M293.8,548c-1.6,0-2.6-1-2.6-2.6v-68c0-1.5,1-2.6,2.6-2.6h101.9
					c1.6,0,2.6,1,2.6,2.6V546c0,1.5-1,2.6-2.6,2.6H293.8 M293.8,433.7c-1.6,0-2.6-1-2.6-2.6v-68.5c0-1.5,1-2.6,2.6-2.6h101.9
					c1.6,0,2.6,1,2.6,2.6v68.5c0,1.5-1,2.6-2.6,2.6H293.8 M438.2,433.7c-1.6,0-2.6-1-2.6-2.6v-68.5c0-1.5,1-2.6,2.6-2.6h101.9
					c1.6,0,2.6,1,2.6,2.6v68.5c0,1.5-1,2.6-2.6,2.6H438.2 M420.6,229.6c-2.1,0-4.1,0.5-5.7,1l-86.4,31.9v-10.3
					c0-3.6-2.6-6.2-6.2-6.2h-35.7c-3.6,0-6.2,2.6-6.2,6.2v27.3v0.5l-53.3,19.6c-3.1,1-5.7,5.2-5.7,8.2v9.8c0,3.6,2.6,6.2,6.2,6.2h29
					l-0.5,1.5v262.2c0,3.6,2.6,6.2,6.2,6.2H447V477.4c0-1.5,1-2.6,2.6-2.6h75.5c1.6,0,2.6,1,2.6,2.6v117.5h44.5
					c3.6,0,6.2-2.6,6.2-6.2V326l-0.5-1.5h27.9c3.6,0,6.2-2.6,6.2-6.2v-9.8c0-3.6-2.6-7.2-5.7-8.8l-179.5-69
					C425.2,230.2,422.7,229.6,420.6,229.6"/>
			</g>
		</g>
		<g>
			<g>
				<defs>
					<polyline id="SVGID_5_" points="612,632.5 0,632.5 0,157.5 612,157.5 612,632.5 					"/>
				</defs>
				<clipPath id="SVGID_6_">
					<use xlink:href="#SVGID_5_"  overflow="visible"/>
				</clipPath>
				<polyline clip-path="url(#SVGID_6_)" fill="#00B100" points="153.6,157.5 153.6,157.5 59.5,235.3 16.6,203.4 0,221.4 62.6,294 
					170.7,176.1 153.6,157.5 				"/>
			</g>
		</g>
	</g>
</g>
<g>
	<g>
		<g>
			<g>
				<defs>
					<polyline id="SVGID_7_" points="612,633.5 0,633.5 0,158.5 612,158.5 612,633.5 					"/>
				</defs>
				<clipPath id="SVGID_8_">
					<use xlink:href="#SVGID_7_"  overflow="visible"/>
				</clipPath>
				<path clip-path="url(#SVGID_8_)" fill="#E6E6E6" d="M479,299.1l-88,156.6l-124.3-36.1v16.5l133,39.2l12.8-24.7v162.3l50.7-16
					V480l50.1-15.5v115.4l40.4-12.4V370.8L479,299.1 M393.5,280.1L373,293l35.8,5.7v71.6l24.6-42.8v-41.7L393.5,280.1 M58.8,199.2
					l38.4-38.1c1.5-1.5,3.6-2.6,5.1-2.6c3.1,0,6.1,2.6,9.7,6.2c5.1,5.2,8.7,9.8,3.6,14.4l-38.4,38.6l38.4,38.6
					c5.1,5.2,1.5,9.8-3.6,14.4c-3.1,3.6-6.7,6.2-9.7,6.2c-1.5,0-3.1-0.5-5.1-2.6l-38.4-38.6l-38.4,38.6c-1.5,1.5-3.6,2.6-5.1,2.6
					c-3.1,0-6.1-2.6-9.7-6.2c-5.1-5.2-8.7-9.8-3.6-14.4l38.4-38.6L2.6,179.1c-5.1-5.2-1.5-9.8,3.6-14.4c3.1-3.6,6.1-6.2,9.7-6.2
					c1.5,0,3.1,0.5,5.1,2.6L58.8,199.2 M612,158.5H0v475h612V401.2L598.7,414l-29.2-8.8V581l-162.7,52.5l-214.9-73.7V414l-22.5-6.2
					v-16L268.6,244l214.9,34L612,401.2V158.5"/>
			</g>
		</g>
		<g>
			<g>
				<defs>
					<polyline id="SVGID_9_" points="612,633.5 0,633.5 0,158.5 612,158.5 612,633.5 					"/>
				</defs>
				<clipPath id="SVGID_10_">
					<use xlink:href="#SVGID_9_"  overflow="visible"/>
				</clipPath>
				<path clip-path="url(#SVGID_10_)" fill="#999999" d="M390.9,455.8l88-156.6l74.7,72.1v196.8l-40.4,12.4v-116L463.1,480v116.4
					l-50.7,16V450.1l-12.8,24.7l-133-39.2v-16.5L390.9,455.8 M408.9,370.8v-72.1L373,293l20.5-12.9l39.4,6.2V328L408.9,370.8
					 M269.2,243.5l-99.3,148.4v16l22.5,6.2v145.8l214.9,73.7l162.7-52V405.8l29.2,8.8l13.3-12.9L483.6,278L269.2,243.5"/>
			</g>
		</g>
		<g>
			<g>
				<defs>
					<polyline id="SVGID_11_" points="612,633.5 0,633.5 0,158.5 612,158.5 612,633.5 					"/>
				</defs>
				<clipPath id="SVGID_12_">
					<use xlink:href="#SVGID_11_"  overflow="visible"/>
				</clipPath>
				<path clip-path="url(#SVGID_12_)" fill="#EC0000" d="M101.8,158.5c-1.5,0-3.1,0.5-5.1,2.6l-38.4,38.6l-37.9-38.6
					c-1.5-2.1-3.1-2.6-4.6-2.6c-3.6,0-6.7,2.6-9.7,6.2c-5.1,5.2-8.7,9.3-3.6,14.4l38.4,38.6L2.6,256.4c-5.1,5.2-1.5,9.8,3.6,14.4
					c3.1,3.6,6.1,6.2,9.7,6.2c1.5,0,3.1-0.5,5.1-2.6l38.4-38.6l38.4,38.6c1.5,1.5,3.6,2.6,5.1,2.6c3.1,0,6.1-2.6,9.7-6.2
					c5.1-5.2,8.7-9.8,3.6-14.4l-38.4-38.6l37.4-38.6c5.1-5.2,1.5-9.8-3.6-14.4C108.5,161.1,105.4,158.5,101.8,158.5"/>
			</g>
		</g>
	</g>
</g>
</svg>
