<?xml version="1.0" encoding="utf-8"?>
<!-- Generator: Adobe Illustrator 18.1.1, SVG Export Plug-In . SVG Version: 6.00 Build 0)  -->
<svg version="1.1" id="CLEAR_SPACE_LOGO" xmlns="http://www.w3.org/2000/svg" xmlns:xlink="http://www.w3.org/1999/xlink" x="0px"
	 y="0px" viewBox="0 156.8 612.3 500.7" enable-background="new 0 156.8 612.3 500.7" xml:space="preserve">
<g>
	<g>
		<g>
			<g>
				<g>
					<defs>
						<polyline id="SVGID_1_" points="612,656.8 0,656.8 0,156.8 612,156.8 612,656.8 						"/>
					</defs>
					<clipPath id="SVGID_2_">
						<use xlink:href="#SVGID_1_"  overflow="visible"/>
					</clipPath>
					<path clip-path="url(#SVGID_2_)" fill="#E6E6E6" d="M429.3,435.2c-51.1,0-93-43.4-93-97.2c0-53.4,41.5-97.2,93-97.2
						c51.1,0,93,43.4,93,97.2C522,391.4,480.4,435.2,429.3,435.2 M612,156.8H159.9l17.8,20.3L65,305.6L0,226.4l17.1-19.6l44.5,35.5
						l98.3-84.8H0v500h612H238.4c0-107.5,47.5-194.7,133.5-194.7h106.5c86.1,0,133.5,87.2,133.5,194.7L612,156.8"/>
				</g>
			</g>
		</g>
		<g>
			<g>
				<g>
					<defs>
						<polyline id="SVGID_3_" points="612,656.8 0,656.8 0,156.8 612,156.8 612,656.8 						"/>
					</defs>
					<clipPath id="SVGID_4_">
						<use xlink:href="#SVGID_3_"  overflow="visible"/>
					</clipPath>
					<path clip-path="url(#SVGID_4_)" fill="#999999" d="M429.3,240.5c-51.1,0-93,43.4-93,97.2c0,53.4,41.5,97.2,93,97.2
						c51.1,0,93-43.4,93-97.2C522,284.3,480.4,240.5,429.3,240.5"/>
				</g>
			</g>
		</g>
		<g>
			<g>
				<g>
					<defs>
						<polyline id="SVGID_5_" points="612,656.8 0,656.8 0,156.8 612,156.8 612,656.8 						"/>
					</defs>
					<clipPath id="SVGID_6_">
						<use xlink:href="#SVGID_5_"  overflow="visible"/>
					</clipPath>
					<path clip-path="url(#SVGID_6_)" fill="#999999" d="M478.5,462.8H371.9c-86.1,0-133.5,87.2-133.5,194.7h373.9
						C612,549.3,564.5,462.8,478.5,462.8"/>
				</g>
			</g>
		</g>
		<g>
			<g>
				<g>
					<defs>
						<polyline id="SVGID_7_" points="612,656.8 0,656.8 0,156.8 612,156.8 612,656.8 						"/>
					</defs>
					<clipPath id="SVGID_8_">
						<use xlink:href="#SVGID_7_"  overflow="visible"/>
					</clipPath>
					<polyline clip-path="url(#SVGID_8_)" fill="#00B100" points="159.9,156.8 159.9,156.8 62,241.5 17.1,206.7 0,226.4 65,305.6 
						177.7,177.1 159.9,156.8 					"/>
				</g>
			</g>
		</g>
	</g>
</g>
</svg>
