<?xml version="1.0" encoding="utf-8"?>
<!-- Generator: Adobe Illustrator 18.1.1, SVG Export Plug-In . SVG Version: 6.00 Build 0)  -->
<svg version="1.1" id="CLEAR_SPACE_LOGO" xmlns="http://www.w3.org/2000/svg" xmlns:xlink="http://www.w3.org/1999/xlink" x="0px"
	 y="0px" viewBox="-0.4 194.5 612.4 420.1" enable-background="new -0.4 194.5 612.4 420.1" xml:space="preserve">
<g>
	<g>
		<g>
			<g>
				<defs>
					<polyline id="SVGID_1_" points="612,614.6 0,614.6 0,194.6 612,194.6 612,614.6 					"/>
				</defs>
				<clipPath id="SVGID_2_">
					<use xlink:href="#SVGID_1_"  overflow="visible"/>
				</clipPath>
				<path clip-path="url(#SVGID_2_)" fill="#E6E6E6" d="M417.3,323.2l-14.8,7l6.7,15c-14.8,11-19.1,26.4-12.9,40.4
					c5.3,12,15.8,16.5,29.2,16.5c3.3,0,7.2-0.5,11-0.5c3.3-0.5,6.2-0.5,8.6-0.5c7.7,0,11.5,2,13.9,6.5c2.9,6-1.4,12.5-10,17
					c-8.1,4-17.2,5.5-24.4,5.5c-1.4,0-2.4,0-3.8,0l3.8,20.5c1,0,1.4,0,2.4,0c7.2,0,17.2-2,26.3-6l6.7,15l14.8-7.5l-7.2-16.5
					c15.8-11.5,20.1-27.9,13.9-41.9c-5.7-12.5-14.4-18-29.7-18c-2.9,0-5.3,0-8.6,0.5c-4.3,0.5-7.7,0.5-11,0.5c-7.7,0-12-1.5-13.4-5
					c-1.9-4.5-1-10.5,9.1-15.5c9.6-4.5,17.2-5,22.5-5c0.5,0,1.4,0,1.9,0l-3.3-20c-6.2,0-14.4,1-24.4,5.5L417.3,323.2 M235.4,589.6
					c-2.4,0-4.8-1-5.7-3l-70.8-156.1c-1.4-3,0.5-7.5,4.8-9l21.5-10.5l274.7-136.7l11-5.5c1.4-0.5,2.9-1,4.3-1c2.4,0,4.8,1,5.7,3
					l70.8,155.6c1.4,3-0.5,7.5-4.8,9.5L239.2,588.6C238.3,589.1,236.9,589.6,235.4,589.6 M612,194.6H142.1l15.8,18l-100,114.2
					L0,256.4l15.3-17.5L55,270.4l87.1-75.8H0v420h294.3c-2.4,0-4.3-1.5-4.8-3l-9.6-21L568,447.9c3.3-1.5,6.2-4.5,7.2-8
					c1-2.5,1-5.5-0.5-8l-59.3-130.2l4.3-2l11-5.5c1.4-0.5,2.9-1,4.3-1c2.4,0,4.8,1,5.7,3l70.8,155.6c1.4,3-0.5,7.5-4.8,9.5
					L299.1,613.6c-1,0.5-2.4,1-3.3,1H612V194.6"/>
			</g>
		</g>
		<g>
			<g>
				<defs>
					<polyline id="SVGID_3_" points="612,614.6 0,614.6 0,194.6 612,194.6 612,614.6 					"/>
				</defs>
				<clipPath id="SVGID_4_">
					<use xlink:href="#SVGID_3_"  overflow="visible"/>
				</clipPath>
				<path clip-path="url(#SVGID_4_)" fill="#999999" d="M535,292.8c-1.4,0-2.9,0.5-4.3,1l-11,5.5l-4.3,2l59.3,130.2
					c1,2.5,1.4,5.5,0.5,8c-1,3.5-3.8,6.5-7.2,8L279.9,590.1l9.6,21c1,2,2.9,3,4.8,3l0,0h1.4l0,0c1,0,2.4-0.5,3.3-1l307.7-152.6
					c3.8-2,6.2-6,4.8-9.5l-70.8-155.6C539.3,293.8,537.4,292.8,535,292.8"/>
			</g>
		</g>
		<g>
			<g>
				<defs>
					<polyline id="SVGID_5_" points="612,614.6 0,614.6 0,194.6 612,194.6 612,614.6 					"/>
				</defs>
				<clipPath id="SVGID_6_">
					<use xlink:href="#SVGID_5_"  overflow="visible"/>
				</clipPath>
				<path clip-path="url(#SVGID_6_)" fill="#999999" d="M425.4,402.1c-13.4,0-23.9-4-29.2-16.5c-6.2-14-1.9-29.4,12.9-40.4l-6.7-15
					l14.8-7l6.2,14c10-4.5,18.2-5.5,24.4-5.5l3.3,20c-0.5,0-1.4,0-1.9,0c-4.8,0-12.9,0.5-22.5,5c-10,5-11,11-9.1,15.5
					c1.4,3.5,5.7,5,13.4,5c2.9,0,6.7,0,11-0.5c2.9-0.5,5.7-0.5,8.6-0.5c15.3,0,24.4,5.5,29.7,18c6.2,14,2.4,30.4-13.9,41.9l7.2,16.5
					l-14.4,7l-6.7-15c-9.1,4-19.1,6-26.3,6c-1,0-1.9,0-2.4,0l-3.8-20.5c1.4,0,2.4,0,3.8,0c7.2,0,16.3-1.5,24.4-5.5
					c8.6-4.5,12.9-11,10-17c-1.9-4.5-6.2-6.5-13.9-6.5c-2.4,0-5.3,0-8.6,0.5C432.6,401.6,428.7,402.1,425.4,402.1 M475.1,267.9
					c-1.4,0-2.9,0.5-4.3,1l-11,5.5L184.7,411l-21.5,10.5c-3.8,2-6.2,6-4.8,9l71.3,156.1c1,2,2.9,3,5.7,3c1.4,0,2.9-0.5,4.3-1
					L547.4,436c3.8-2,6.2-6,4.8-9.5l-70.8-155.6C479.9,269.4,477.5,267.9,475.1,267.9"/>
			</g>
		</g>
		<g>
			<g>
				<defs>
					<polyline id="SVGID_7_" points="612,614.6 0,614.6 0,194.6 612,194.6 612,614.6 					"/>
				</defs>
				<clipPath id="SVGID_8_">
					<use xlink:href="#SVGID_7_"  overflow="visible"/>
				</clipPath>
				<polyline clip-path="url(#SVGID_8_)" fill="#00B100" points="142.1,194.6 142.1,194.6 55,269.9 15.3,238.9 0,256.4 57.9,326.7 
					157.9,212.5 142.1,194.6 				"/>
			</g>
		</g>
	</g>
</g>
<g>
	<g>
		<g>
			<g>
				<defs>
					<polyline id="SVGID_9_" points="612,614.6 0,614.6 0,194.6 612,194.6 612,614.6 					"/>
				</defs>
				<clipPath id="SVGID_10_">
					<use xlink:href="#SVGID_9_"  overflow="visible"/>
				</clipPath>
				<path clip-path="url(#SVGID_10_)" fill="#E6E6E6" d="M462.5,357.2l-0.5,16.5c-19.1,3-30.5,15-31,30.4
					c-0.5,17,12.9,25.9,32.1,32.4c13.5,4.5,19.1,9,19.1,15.5s-6.7,10.5-17.1,10.5h-0.5c-11.9,0-22.2-4-30-8l-5.7,20.5
					c6.7,4,18.6,7.5,30.5,8v16.5L477,500l0.5-18c20.7-3,32.1-16,32.6-31.4c0-16-8.3-25.4-29.5-32.9c-15.5-5.5-21.7-9.5-21.7-15
					c0-5,3.6-9.5,15-9.5h0.5c12.9,0,21.2,4.5,25.9,6.5l5.7-19.5c-6.2-3-14.5-5.5-26.4-6v-15.5L462.5,357.2 M102.9,194.6H16
					c1.6,0,3.1,0.5,5.2,2.5L60,234.5L98.3,197C99.8,195.1,101.4,194.6,102.9,194.6 M555.1,518.3L555.1,518.3l-368.3-3.5
					c-4.7,0-8.8-3-8.3-6.5l1.6-172.6c0-3.5,3.6-6,8.3-6l0,0h25.3l329.5,3h12.9c4.7,0,8.3,3,8.3,6.5l-0.5,172.6
					C563.4,515.3,559.7,518.3,555.1,518.3 M612,194.6H103.5c3.1,0,6.2,2.5,9.8,6c5.2,5,8.8,9.5,3.6,14L78.1,252l38.8,37.4
					c5.2,5,1.6,9.5-3.6,14c-3.1,3.5-6.7,6-9.8,6c-1.6,0-3.1-0.5-5.2-2.5l-38.8-37.4l-38.8,37.4c-1.6,1.5-3.6,2.5-5.2,2.5
					c-3.1,0-6.2-2.5-9.8-6c-5.2-5-8.8-9.5-3.6-14L40.9,252L2.6,214.5c-5.2-5-1.6-9.5,3.6-14c3.1-3.5,6.2-6,9.3-6H0v420h612V389.1
					l-1.6,172.6c0,3.5-3.6,6-8.3,6l0,0l-368.3-3.5c-4.7,0-8.8-3-8.3-6.5v-23.4l345.1,3.5l0,0c4.1,0,7.8-1.5,10.3-4
					c2.1-2,3.1-4.5,3.1-7.5l1.6-144.2h5.2h12.9c4.7,0,8.3,3,8.3,6.5V194.6"/>
			</g>
		</g>
		<g>
			<g>
				<defs>
					<polyline id="SVGID_11_" points="612,614.6 0,614.6 0,194.6 612,194.6 612,614.6 					"/>
				</defs>
				<clipPath id="SVGID_12_">
					<use xlink:href="#SVGID_11_"  overflow="visible"/>
				</clipPath>
				<path clip-path="url(#SVGID_12_)" fill="#999999" d="M585.6,382.6L584,526.8c0,2.5-1,5.5-3.1,7.5c-2.6,2.5-6.2,4-10.3,4l0,0
					l-345.1-3.5v23.4c0,3.5,3.6,6.5,8.3,6.5l368.3,3.5l0,0c4.7,0,8.3-3,8.3-6l1.6-172.6l0,0c0-3.5-3.6-6-8.3-6.5h-12.9L585.6,382.6"
					/>
			</g>
		</g>
		<g>
			<g>
				<defs>
					<polyline id="SVGID_13_" points="612,614.6 0,614.6 0,194.6 612,194.6 612,614.6 					"/>
				</defs>
				<clipPath id="SVGID_14_">
					<use xlink:href="#SVGID_13_"  overflow="visible"/>
				</clipPath>
				<path clip-path="url(#SVGID_14_)" fill="#999999" d="M465.1,462.4c10.3,0,17.1-4,17.1-10.5s-5.7-11-19.1-15.5
					C444,429.9,431,420.9,431,404c0-15.5,11.4-27.4,31-30.4l0.5-16.5l17.6,0.5v15.5c11.9,0.5,20.2,3.5,26.4,6l-5.7,19.5
					c-4.7-2-12.9-6.5-25.9-6.5h-0.5c-11.4,0-15,5-15,9.5c0,5.5,6.2,9.5,21.7,15c21.2,7.5,29.5,17.5,29.5,32.9
					c0,15.5-11.9,28.4-32.6,31.4l-1,18h-17.6v-16.5c-11.9-0.5-23.8-4-30.5-8l5.7-20.5c7.2,4,18.1,8,30,8
					C464.6,462.4,465.1,462.4,465.1,462.4 M188.3,329.7c-4.7,0-8.3,3-8.3,6l-1.6,172.6c0,3.5,3.6,6.5,8.3,6.5l368.3,3.5l0,0
					c4.7,0,8.3-3,8.3-6l1.6-172.6c0-3.5-3.6-6.5-8.3-6.5h-12.9l-329.5-3L188.3,329.7C188.8,329.7,188.8,329.7,188.3,329.7"/>
			</g>
		</g>
		<g>
			<g>
				<defs>
					<polyline id="SVGID_15_" points="612,614.6 0,614.6 0,194.6 612,194.6 612,614.6 					"/>
				</defs>
				<clipPath id="SVGID_16_">
					<use xlink:href="#SVGID_15_"  overflow="visible"/>
				</clipPath>
				<path clip-path="url(#SVGID_16_)" fill="#EC0000" d="M103.5,194.6L103.5,194.6c-1.6,0-3.6,0.5-5.2,2.5l-38.8,37.4L20.7,197
					c-1.6-2-3.1-2.5-4.7-2.5l0,0c-3.6,0-6.7,2.5-9.8,6c-5.2,5-8.8,9-3.6,14l38.8,37.4L2.6,289.3c-5.2,5-1.6,9.5,3.6,14
					c3.1,3.5,6.2,6,9.8,6c1.6,0,3.1-0.5,5.2-2.5L60,269.4l38.8,37.4c1.6,1.5,3.6,2.5,5.2,2.5c3.1,0,6.2-2.5,9.8-6
					c5.2-5,8.8-9.5,3.6-14l-38.8-37.4l37.8-37.4c5.2-5,1.6-9.5-3.6-14C109.7,197,106.6,194.6,103.5,194.6"/>
			</g>
		</g>
	</g>
</g>
</svg>
