<?xml version="1.0" encoding="utf-8"?>
<!-- Generator: Adobe Illustrator 18.1.1, SVG Export Plug-In . SVG Version: 6.00 Build 0)  -->
<svg version="1.1" id="CLEAR_SPACE_LOGO" xmlns="http://www.w3.org/2000/svg" xmlns:xlink="http://www.w3.org/1999/xlink" x="0px"
	 y="0px" viewBox="0 194.6 612 420" enable-background="new 0 194.6 612 420" xml:space="preserve">
<g>
	<g>
		<g>
			<g>
				<defs>
					<polyline id="SVGID_1_" points="612,614.6 0,614.6 0,194.6 612,194.6 612,614.6 					"/>
				</defs>
				<clipPath id="SVGID_2_">
					<use xlink:href="#SVGID_1_"  overflow="visible"/>
				</clipPath>
				<path clip-path="url(#SVGID_2_)" fill="#E6E6E6" d="M417.3,323.2l-14.8,7l6.7,15c-14.8,11-19.1,26.4-12.9,40.4
					c5.3,12,15.8,16.5,29.2,16.5c3.3,0,7.2-0.5,11-0.5c3.3-0.5,6.2-0.5,8.6-0.5c7.7,0,11.5,2,13.9,6.5c2.9,6-1.4,12.5-10,17
					c-8.1,4-17.2,5.5-24.4,5.5c-1.4,0-2.4,0-3.8,0l3.8,20.5c1,0,1.4,0,2.4,0c7.2,0,17.2-2,26.3-6l6.7,15l14.8-7.5l-7.2-16.5
					c15.8-11.5,20.1-27.9,13.9-41.9c-5.7-12.5-14.4-18-29.7-18c-2.9,0-5.3,0-8.6,0.5c-4.3,0.5-7.7,0.5-11,0.5c-7.7,0-12-1.5-13.4-5
					c-1.9-4.5-1-10.5,9.1-15.5c9.6-4.5,17.2-5,22.5-5c0.5,0,1.4,0,1.9,0l-3.3-20c-6.2,0-14.4,1-24.4,5.5L417.3,323.2 M235.4,589.6
					c-2.4,0-4.8-1-5.7-3l-70.8-156.1c-1.4-3,0.5-7.5,4.8-9l21.5-10.5l274.7-136.7l11-5.5c1.4-0.5,2.9-1,4.3-1c2.4,0,4.8,1,5.7,3
					l70.8,155.6c1.4,3-0.5,7.5-4.8,9.5L239.2,588.6C238.3,589.1,236.9,589.6,235.4,589.6 M612,194.6H142.1l15.8,18l-100,114.2
					L0,256.4l15.3-17.5L55,270.4l87.1-75.8H0v420h294.3c-2.4,0-4.3-1.5-4.8-3l-9.6-21L568,447.9c3.3-1.5,6.2-4.5,7.2-8
					c1-2.5,1-5.5-0.5-8l-59.3-130.2l4.3-2l11-5.5c1.4-0.5,2.9-1,4.3-1c2.4,0,4.8,1,5.7,3l70.8,155.6c1.4,3-0.5,7.5-4.8,9.5
					L299.1,613.6c-1,0.5-2.4,1-3.3,1H612V194.6"/>
			</g>
		</g>
		<g>
			<g>
				<defs>
					<polyline id="SVGID_3_" points="612,614.6 0,614.6 0,194.6 612,194.6 612,614.6 					"/>
				</defs>
				<clipPath id="SVGID_4_">
					<use xlink:href="#SVGID_3_"  overflow="visible"/>
				</clipPath>
				<path clip-path="url(#SVGID_4_)" fill="#999999" d="M535,292.8c-1.4,0-2.9,0.5-4.3,1l-11,5.5l-4.3,2l59.3,130.2
					c1,2.5,1.4,5.5,0.5,8c-1,3.5-3.8,6.5-7.2,8L279.9,590.1l9.6,21c1,2,2.9,3,4.8,3l0,0h1.4l0,0c1,0,2.4-0.5,3.3-1l307.7-152.6
					c3.8-2,6.2-6,4.8-9.5l-70.8-155.6C539.3,293.8,537.4,292.8,535,292.8"/>
			</g>
		</g>
		<g>
			<g>
				<defs>
					<polyline id="SVGID_5_" points="612,614.6 0,614.6 0,194.6 612,194.6 612,614.6 					"/>
				</defs>
				<clipPath id="SVGID_6_">
					<use xlink:href="#SVGID_5_"  overflow="visible"/>
				</clipPath>
				<path clip-path="url(#SVGID_6_)" fill="#999999" d="M425.4,402.1c-13.4,0-23.9-4-29.2-16.5c-6.2-14-1.9-29.4,12.9-40.4l-6.7-15
					l14.8-7l6.2,14c10-4.5,18.2-5.5,24.4-5.5l3.3,20c-0.5,0-1.4,0-1.9,0c-4.8,0-12.9,0.5-22.5,5c-10,5-11,11-9.1,15.5
					c1.4,3.5,5.7,5,13.4,5c2.9,0,6.7,0,11-0.5c2.9-0.5,5.7-0.5,8.6-0.5c15.3,0,24.4,5.5,29.7,18c6.2,14,2.4,30.4-13.9,41.9l7.2,16.5
					l-14.4,7l-6.7-15c-9.1,4-19.1,6-26.3,6c-1,0-1.9,0-2.4,0l-3.8-20.5c1.4,0,2.4,0,3.8,0c7.2,0,16.3-1.5,24.4-5.5
					c8.6-4.5,12.9-11,10-17c-1.9-4.5-6.2-6.5-13.9-6.5c-2.4,0-5.3,0-8.6,0.5C432.6,401.6,428.7,402.1,425.4,402.1 M475.1,267.9
					c-1.4,0-2.9,0.5-4.3,1l-11,5.5L184.7,411l-21.5,10.5c-3.8,2-6.2,6-4.8,9l71.3,156.1c1,2,2.9,3,5.7,3c1.4,0,2.9-0.5,4.3-1
					L547.4,436c3.8-2,6.2-6,4.8-9.5l-70.8-155.6C479.9,269.4,477.5,267.9,475.1,267.9"/>
			</g>
		</g>
		<g>
			<g>
				<defs>
					<polyline id="SVGID_7_" points="612,614.6 0,614.6 0,194.6 612,194.6 612,614.6 					"/>
				</defs>
				<clipPath id="SVGID_8_">
					<use xlink:href="#SVGID_7_"  overflow="visible"/>
				</clipPath>
				<polyline clip-path="url(#SVGID_8_)" fill="#00B100" points="142.1,194.6 142.1,194.6 55,269.9 15.3,238.9 0,256.4 57.9,326.7 
					157.9,212.5 142.1,194.6 				"/>
			</g>
		</g>
	</g>
</g>
</svg>
