<?xml version="1.0" encoding="utf-8"?>
<!-- Generator: Adobe Illustrator 19.1.0, SVG Export Plug-In . SVG Version: 6.00 Build 0)  -->
<svg version="1.1" id="Layer_1" xmlns="http://www.w3.org/2000/svg" xmlns:xlink="http://www.w3.org/1999/xlink" x="0px" y="0px"
	 viewBox="0 0 240 69.8" style="enable-background:new 0 0 240 69.8;" xml:space="preserve">
<style type="text/css">
	.st0{fill:#EC0000;}
	.st1{fill:#FFFFFF;}
</style>
<polygon class="st0" points="240,0 240,69.8 0,69.8 0,0 "/>
<g>
	<path class="st1" d="M57.6,59.7c0,3.6-0.8,7.1-2.1,10.2H19.6c-1.2-2.9-2-6.2-2-9.7c0-9.3,5.4-16.8,11.9-20.8
		c0,5.1,7.4,21.3,7.6,27.9c0,0,0,0.6,0,1.2c0,0.3,0,0.6,0,1c1.6-1.9,1.6-7.9,1.6-7.9c0-14.2-7.2-20.5-7.2-34.5
		c0-5.4,1.1-9.4,2.1-10.5v3.9c0,10.1,7.8,21.5,7.8,30.7v3c1.8-1.6,1.8-9.2,1.8-9.2c0-12.8-7.3-19.9-7.3-34.5c0-5.4,1.1-9.4,2.1-10.5
		v3.9c0,10.1,7.5,21.4,7.5,33c0,0,0,1.1-0.2,2.3C52.6,42.5,57.6,50.4,57.6,59.7z"/>
	<path class="st1" d="M67.8,60.9c0.2,3.4,0.8,6.5,1.7,8.9h-2.6v-8.9H67.8z"/>
	<path class="st1" d="M82.4,61.3c0,3.2-0.3,6.1-0.9,8.6h-2.8c0.3-1.4,0.5-3,0.5-4.8c0-6.5-2.8-9.4-4.7-11.6l-2.7-3.1
		c-2.6-2.9-4.7-7.7-4.7-14.4c0-8.4,2.7-15.6,7.9-15.6c3.6,0,6.5,2.7,6.5,2.7v13.5h-0.9c-0.6-7.2-2.3-12.8-5.9-12.8
		c-2.7,0-4.2,4.2-4.2,8.4c0,5.5,1.7,8,3.6,10.2l2.7,3.1C79.3,48.3,82.4,53.1,82.4,61.3z"/>
	<path class="st1" d="M97.8,69.8c0-0.5,0-1,0-1.6V51.8c0-2.6-0.8-10.6-5.2-10.6c-0.9,0-2.1,0.6-3.5,2.6c-1.5,2-2.6,3.9-2.7,6.8
		c0,0.2,0,0.5,0,0.9c0,1.7,0.3,3.4,0.6,4.5l2.3-2.4c0,0-0.4-1.6-0.4-2.9c0-0.8,0-1.8,0.2-2.6c0.5-1.9,1.6-3.1,2.6-3.1
		c1.5,0,2.6,3.1,2.6,8.1v3.4l-4.7,3.9c-2.7,2.2-3.9,5.2-3.9,9c0,0.2,0,0.4,0,0.6h3.4C89.1,69.2,89,68.5,89,68c0-3.8,1.3-5.2,2-5.9
		l3.3-3.2v11H97.8z"/>
	<path class="st1" d="M117.6,53.8v16.1h-3.5v-16c0-2.4-0.3-7.7-3.1-7.7c-1.5,0-2.8,2.1-3.6,3.7v20H104V50.6c0-1.8-0.4-2.8-1.1-2.8
		c-0.2,0-0.5,0.1-0.8,0.3l-0.5,0.4v-2.4l5-5h0.7v5.9c1.5-3.9,3.3-5.9,5-5.9C115.9,41.2,117.6,47,117.6,53.8z"/>
	<path class="st1" d="M127.2,46v19.8c0,1.6,0.2,3,0.4,4h-3.7c-0.2-1.4-0.2-3-0.2-4.8V46h-2.6v-2c0,0,3.8-3.4,5.3-11.6h0.7v10.1h5.5
		l-0.6,3.4H127.2z"/>
	<path class="st1" d="M146.2,69.8c0-0.5,0-1,0-1.6V51.8c0-2.6-0.8-10.6-5.2-10.6c-0.9,0-2.1,0.6-3.5,2.6c-1.5,2-2.6,3.9-2.7,6.8
		c0,0.2,0,0.5,0,0.9c0,1.7,0.3,3.4,0.6,4.5l2.3-2.4c0,0-0.4-1.6-0.4-2.9c0-0.8,0-1.8,0.3-2.6c0.5-1.9,1.6-3.1,2.6-3.1
		c1.5,0,2.6,3.1,2.6,8.1v3.4l-4.7,3.9c-2.7,2.2-3.9,5.2-3.9,9c0,0.2,0,0.4,0,0.6h3.4c-0.1-0.7-0.1-1.3-0.1-1.9c0-3.8,1.3-5.2,2-5.9
		l3.3-3.2v11H146.2z"/>
	<path class="st1" d="M166,53.8v16.1h-3.5v-16c0-2.4-0.3-7.7-3.1-7.7c-1.5,0-2.8,2.1-3.6,3.7v20h-3.5V50.6c0-1.8-0.4-2.8-1.1-2.8
		c-0.2,0-0.5,0.1-0.8,0.3l-0.5,0.4v-2.4l5-5h0.7v5.9c1.5-3.9,3.3-5.9,5-5.9C164.3,41.2,166,47,166,53.8z"/>
	<path class="st1" d="M182,69.8h3.6c0-0.6,0-1.3,0-2V15.2h-0.7l-5.5,5.3v2.4l0.7-0.5c0.3-0.3,0.7-0.4,1-0.4c0.6,0,1,0.6,1,2.5v18.3
		c-0.8-0.8-2-1.5-3.6-1.5c-4.8,0-8.4,8.7-8.4,19.3c0,3.7,0.4,6.9,1,9.4h4.2c-1-2.5-1.5-6.2-1.5-11c0-10.7,2.6-14.4,5.1-14.4
		c1.5,0,2.8,1.6,3.2,4.2v20.7C182,69.6,182,69.7,182,69.8z"/>
	<path class="st1" d="M197.8,41.2c-4.5,0-7.9,8.5-7.9,18.8c0,3.4,0.4,6.9,1.1,9.9h4.5c-1.3-2.6-2-6.9-2-12.7v-0.4h10.8v-1
		C204.3,47.1,201.4,41.2,197.8,41.2z M200.6,53.5h-7.1c0.4-6.1,1.9-9,3.9-9c1.7,0,3.2,2.9,3.2,8.9V53.5z M203.9,69.8v-0.3
		c-0.1,0.1-0.1,0.2-0.2,0.3H203.9z"/>
	<path class="st1" d="M218.3,41.8v8.5h-0.7c-0.2-2.2-0.8-3.4-1.9-3.4c-1.1,0-2.5,0.7-3.5,5.3v17.6h-3.5V50.6c0-1.8-0.4-2.8-1.1-2.8
		c-0.2,0-0.5,0.1-0.8,0.3l-0.5,0.4v-2.4l5-5h0.7v7.7c1.3-5.6,2.8-7.9,4.5-7.9C217.9,41,218.3,41.8,218.3,41.8z"/>
</g>
</svg>
