<?xml version="1.0" encoding="utf-8"?>
<!-- Generator: Adobe Illustrator 19.1.0, SVG Export Plug-In . SVG Version: 6.00 Build 0)  -->
<svg version="1.1" id="Layer_1" xmlns="http://www.w3.org/2000/svg" xmlns:xlink="http://www.w3.org/1999/xlink" x="0px" y="0px"
	 viewBox="0 0 240 69.8" style="enable-background:new 0 0 240 69.8;" xml:space="preserve">
<style type="text/css">
	.st0{fill:#EC0000;}
	.st1{fill:#666666;}
	.st2{fill:#FFFFFF;}
</style>
<g>
	<g>
		<polygon class="st0" points="3,66.8 3,3 237,3 237,66.8 		"/>
		<path class="st1" d="M234,6l0,57.8H6L6,6H234 M240,0H0l0,69.8h240L240,0L240,0z"/>
	</g>
	<path class="st2" d="M37.8,13.5c0,4.6,7.8,9.7,7.8,14.9c0,0,0,0.5-0.2,1c7.3,1.5,12.4,5.1,12.4,9.3c0,5.6-9.2,10.2-20.6,10.3
		c-0.1,0-0.1,0-0.2,0c-11.3,0-20.4-4.5-20.4-10.1c0-4.2,5.6-7.6,12.3-9.4c0,2.3,7.7,9.6,7.9,12.6c0,0,0,0.3,0,0.5c0,0.1,0,0.3,0,0.4
		c1.7-0.9,1.7-3.6,1.7-3.6c0-6.4-7.5-9.3-7.5-15.6c0-2.4,1.2-4.3,2.2-4.8v1.8c0,4.6,8.1,9.7,8.1,13.9v1.4c1.9-0.7,1.9-4.1,1.9-4.1
		c0-5.8-7.5-9-7.5-15.6c0-2.5,1.2-4.3,2.2-4.8V13.5L37.8,13.5z"/>
	<path class="st2" d="M74.2,47.2c-3.9,0-6.8-1.1-6.8-1.1v-6.8h1c0.5,3.6,3.2,6.3,6.4,6.3c3.1,0,5.3-1.7,5.3-4.5
		c0-2.9-2.9-4.3-4.9-5.2l-2.8-1.4c-2.7-1.3-4.8-3.5-4.8-6.5c0-3.8,2.8-7,8.2-7c3.7,0,6.7,1.2,6.7,1.2v6.1h-1
		c-0.6-3.2-2.4-5.8-6.1-5.8c-2.7,0-4.4,1.9-4.4,3.8c0,2.5,1.7,3.6,3.7,4.6l2.8,1.4c2.6,1.3,5.7,3.5,5.7,7.1
		C83.4,44.1,80.1,47.2,74.2,47.2L74.2,47.2z"/>
	<path class="st2" d="M90.9,47c-2.5,0-4-1.6-4-4c0-1.7,1.3-3.1,4-4.1l4.9-1.8v-1.5c0-2.3-1-3.7-2.6-3.7c-1.1,0-2.2,0.5-2.7,1.4
		c-0.2,0.3-0.3,0.8-0.3,1.2c0,0.6,0.4,1.3,0.4,1.3l-2.4,1.1c-0.3-0.5-0.6-1.3-0.6-2c0-0.1,0-0.3,0-0.4c0.2-1.3,1.3-2.2,2.8-3.1
		c1.5-0.9,2.7-1.2,3.6-1.2c4.5,0,5.3,3.6,5.3,4.8v7.5c0,1.2,0.1,1.9,1.1,1.9c0.3,0,0.5,0,0.9-0.1l0.9-0.3v1.1l-5,1.9
		c-0.8-0.5-1.1-1.5-1.3-2.3C94.6,45.7,92.6,47,90.9,47L90.9,47z M92.3,39.7c-0.8,0.3-2.1,0.9-2.1,2.7c0,0.9,0.5,2.4,2.4,2.4
		c0.9,0,2.2-0.5,3.1-1.2v-5.3L92.3,39.7L92.3,39.7z"/>
	<path class="st2" d="M103.3,46.6v-0.9l1.2-0.2c0.7-0.1,1.2-0.7,1.2-1.4v-9.6c0-0.8-0.4-1.3-1.1-1.3c-0.3,0-0.5,0-0.8,0.1l-0.5,0.2
		v-1.1l5.2-2.2h0.8V33c1.6-1.8,3.5-2.7,5.1-2.7c3.7,0,5.4,2.6,5.4,5.7v8.2c0,0.7,0.5,1.3,1.3,1.4l1.2,0.2v0.9h-8.6v-0.9l1.2-0.2
		c0.7-0.1,1.3-0.7,1.3-1.4V36c0-1.1-0.3-3.5-3.2-3.5c-1.6,0-2.9,1-3.7,1.7v9.9c0,0.7,0.6,1.3,1.3,1.4l1.2,0.2v0.9H103.3L103.3,46.6z
		"/>
	<path class="st2" d="M134.7,32.5h-5v8.9c0,2,1,3.1,2.6,3.1c0.6,0,1.6-0.2,2.5-0.7l0.4,0.9l-3.2,2.1c0,0-0.6,0.1-1,0.1
		c-3.1,0-4.8-1.8-4.8-5.7v-8.6h-2.6v-0.9c0,0,4-1.5,5.5-5.2h0.7v4.6h5.7L134.7,32.5L134.7,32.5z"/>
	<path class="st2" d="M140.8,47c-2.5,0-4-1.6-4-4c0-1.7,1.3-3.1,4-4.1l4.9-1.8v-1.5c0-2.3-1-3.7-2.6-3.7c-1.1,0-2.2,0.5-2.7,1.4
		c-0.2,0.3-0.3,0.8-0.3,1.2c0,0.6,0.4,1.3,0.4,1.3l-2.4,1.1c-0.3-0.5-0.6-1.3-0.6-2c0-0.1,0-0.3,0-0.4c0.2-1.3,1.3-2.2,2.8-3.1
		c1.5-0.9,2.7-1.2,3.6-1.2c4.5,0,5.3,3.6,5.3,4.8v7.5c0,1.2,0.1,1.9,1.1,1.9c0.3,0,0.5,0,0.9-0.1l0.9-0.3v1.1l-5,1.9
		c-0.8-0.5-1.1-1.5-1.3-2.3C144.5,45.7,142.5,47,140.8,47L140.8,47z M142.2,39.7c-0.8,0.3-2.1,0.9-2.1,2.7c0,0.9,0.5,2.4,2.4,2.4
		c0.9,0,2.2-0.5,3.1-1.2v-5.3L142.2,39.7L142.2,39.7z"/>
	<path class="st2" d="M153.2,46.6v-0.9l1.2-0.2c0.7-0.1,1.2-0.7,1.2-1.4v-9.6c0-0.8-0.4-1.3-1.1-1.3c-0.3,0-0.5,0-0.8,0.1l-0.5,0.2
		v-1.1l5.2-2.2h0.8V33c1.6-1.8,3.5-2.7,5.1-2.7c3.7,0,5.4,2.6,5.4,5.7v8.2c0,0.7,0.5,1.3,1.3,1.4l1.2,0.2v0.9h-8.6v-0.9l1.2-0.2
		c0.7-0.1,1.3-0.7,1.3-1.4V36c0-1.1-0.3-3.5-3.2-3.5c-1.6,0-2.9,1-3.7,1.7v9.9c0,0.7,0.6,1.3,1.3,1.4l1.2,0.2v0.9H153.2L153.2,46.6z
		"/>
	<path class="st2" d="M181.3,47c-3.4,0-7.5-2.5-7.5-8c0-4.8,3.7-8.7,8.7-8.7c1.7,0,2.8,0.3,3.7,0.7v-8.3c0-0.9-0.5-1.1-1-1.1
		c-0.3,0-0.7,0.1-1,0.2l-0.7,0.3v-1.1l5.6-2.4h0.8v23.8c0,1.4,0.2,2.2,1.2,2.2c0.3,0,0.5,0,0.9-0.1l0.9-0.3v1.1l-5,1.9
		c-0.8-0.5-1.2-1.6-1.4-2.4C185.4,45.6,183.7,47,181.3,47L181.3,47z M182.9,31.8c-2.6,0-5.3,1.7-5.3,6.5c0,4,2,6.5,5.2,6.5
		c1.9,0,3.1-1.1,3.4-1.7v-9.4C185.8,32.5,184.4,31.8,182.9,31.8L182.9,31.8z"/>
	<path class="st2" d="M198,37.3v0.2c0,4.8,2.7,7.2,6.1,7.2c1.7,0,3.3-0.6,4.6-1.6v1.4c-1.4,1.3-3.6,2.5-6.3,2.5
		c-5.6,0-8.1-4.2-8.1-8.2c0-4.7,3.6-8.5,8.2-8.5c3.8,0,6.7,2.7,6.7,6.6v0.5H198L198,37.3z M205.4,35.9L205.4,35.9
		c0-2.8-1.5-4.1-3.3-4.1c-2,0-3.5,1.3-4,4.1H205.4L205.4,35.9z"/>
	<path class="st2" d="M211.3,46.6v-0.9l1.2-0.2c0.7-0.1,1.2-0.7,1.2-1.4v-9.6c0-0.8-0.4-1.3-1.1-1.3c-0.3,0-0.5,0-0.8,0.1l-0.5,0.2
		v-1.1l5.1-2.2h0.8v3.5c1.3-2.5,2.9-3.6,4.6-3.6c1.4,0,1.8,0.4,1.8,0.4v3.8h-0.7c-0.2-1-0.9-1.5-1.9-1.5c-1.2,0-2.6,0.3-3.6,2.4v8.9
		c0,0.7,0.7,1.3,1.4,1.4l1.7,0.2v0.9H211.3L211.3,46.6z"/>
</g>
</svg>
